<?xml version="1.0" encoding="UTF-8"?>
<svg id="_레이어_2" data-name="레이어 2" xmlns="http://www.w3.org/2000/svg" viewBox="0 0 441.47 124.04">
  <defs>
    <style>
      .cls-1 {
        fill: #e6e7e8;
      }

      .cls-1, .cls-2, .cls-3 {
        stroke-width: 0px;
      }

      .cls-2 {
        fill: #fff;
      }

      .cls-3 {
        fill: #231f20;
      }
    </style>
  </defs>
  <g id="Layer_1" data-name="Layer 1">
    <g>
      <rect class="cls-1" x="0" y="14.97" width="441.47" height="109.07"/>
      <g>
        <path class="cls-3" d="m143.9,54.19v3.1h-22.58v-3.1h22.58Zm-6.69,5.19c1.35.4,2.38.97,3.1,1.71.72.74,1.09,1.6,1.09,2.6s-.36,1.89-1.09,2.62c-.72.74-1.76,1.3-3.1,1.69s-2.93.59-4.75.59-3.37-.2-4.7-.59c-1.34-.39-2.37-.96-3.09-1.69-.72-.74-1.09-1.6-1.09-2.6s.36-1.89,1.09-2.64c.72-.75,1.76-1.31,3.1-1.71,1.35-.39,2.92-.59,4.72-.59s3.37.2,4.72.6Zm2.46-15.53v3.04h-15.84v-3.04h15.84Zm-10.02,18.05c-.78.15-1.37.38-1.77.67-.4.3-.6.67-.6,1.11s.2.81.6,1.1c.4.3.99.52,1.77.67.78.15,1.73.23,2.84.23s2.04-.08,2.83-.23c.79-.15,1.38-.38,1.78-.67s.6-.67.6-1.1-.2-.81-.6-1.11c-.4-.3-.99-.52-1.78-.67-.79-.15-1.73-.23-2.83-.23s-2.06.08-2.84.23Zm3.67-12.17v5.22h-3.73v-5.22h3.73Zm7.93-5.88v2.12c0,1.4-.04,2.61-.11,3.63-.07,1.02-.27,2.12-.58,3.29l-3.67-.4c.28-1.19.45-2.24.53-3.17.07-.93.11-2.04.11-3.34v-2.12h3.73Z"/>
        <path class="cls-3" d="m168.33,52.76v3.07h-22.69v-3.07h22.69Zm-16.37,4.65v2.67h9.94v-2.67h3.7v10.91h-17.31v-10.91h3.67Zm12.28-13.69v3.07h-15.81v-3.07h15.81Zm-12.28,21.52h9.94v-2.24h-9.94v2.24Zm13.72-21.52v2.1c0,1.45-.04,2.73-.11,3.82-.07,1.09-.26,2.35-.56,3.79l-3.76.26c.35-1.47.57-2.78.64-3.92.07-1.14.11-2.45.11-3.95v-2.1h3.67Z"/>
        <path class="cls-3" d="m185.7,45.18c1.06.56,1.88,1.34,2.48,2.35.59,1.01.89,2.14.89,3.39s-.3,2.4-.89,3.4c-.59,1-1.42,1.79-2.48,2.37s-2.22.86-3.48.86-2.44-.29-3.48-.86c-1.04-.57-1.86-1.36-2.46-2.37-.6-1-.9-2.14-.9-3.4s.3-2.37.89-3.39c.59-1.01,1.41-1.8,2.46-2.35,1.05-.55,2.21-.83,3.49-.83s2.42.28,3.48.83Zm-3.17,14.35v6.89h-3.76v-6.89h3.76Zm13.36,5.54v3.07h-17.12v-3.07h17.12Zm-15.31-16.99c-.48.27-.86.65-1.14,1.13s-.42,1.06-.42,1.71.14,1.25.43,1.74c.29.49.67.87,1.16,1.13.48.27,1.02.4,1.61.4s1.14-.13,1.63-.4c.49-.27.88-.64,1.16-1.12.28-.48.42-1.05.42-1.72s-.14-1.25-.42-1.74-.66-.87-1.16-1.13c-.49-.27-1.03-.4-1.63-.4s-1.16.13-1.64.4Zm14.42-5.37v18.77h-3.76v-18.77h3.76Zm3.31,7.35v3.16h-4.34v-3.16h4.34Z"/>
        <path class="cls-3" d="m206.67,45.3v1.61c0,1.68-.25,3.27-.75,4.76-.5,1.49-1.28,2.8-2.34,3.93-1.06,1.13-2.37,1.96-3.92,2.5l-1.89-3.04c1.32-.46,2.42-1.11,3.3-1.97.88-.85,1.54-1.81,1.96-2.87.43-1.06.64-2.17.64-3.32v-1.61h3.01Zm5.6-1.03v3.07h-13.53v-3.07h13.53Zm4.44,15.67c1.53.9,2.3,2.12,2.3,3.67s-.76,2.82-2.28,3.69c-1.52.87-3.62,1.31-6.29,1.31s-4.8-.44-6.33-1.31c-1.53-.87-2.3-2.1-2.3-3.69,0-1.03.34-1.93,1.03-2.68.69-.76,1.68-1.33,2.99-1.74,1.31-.4,2.84-.6,4.61-.6,2.65,0,4.75.45,6.28,1.35Zm-9.28-14.64v1.58c0,1.07.2,2.09.6,3.07.4.98,1.02,1.86,1.87,2.64.84.78,1.91,1.4,3.19,1.84l-1.87,3.01c-1.52-.5-2.79-1.28-3.8-2.35-1.01-1.07-1.76-2.31-2.24-3.7-.48-1.4-.72-2.9-.72-4.51v-1.58h2.98Zm.29,16.44c-.73.15-1.28.39-1.64.7-.36.32-.54.7-.54,1.16s.18.84.54,1.15c.36.31.91.54,1.64.7.73.16,1.64.24,2.71.24s1.95-.08,2.67-.24c.72-.16,1.27-.4,1.64-.7.37-.31.56-.69.56-1.15s-.19-.85-.56-1.16-.92-.55-1.64-.7c-.72-.15-1.61-.23-2.67-.23s-1.98.08-2.71.23Zm8.48-12.83v3.13h-4.68v-3.13h4.68Zm2.73-6.17v15.33h-3.73v-15.33h3.73Z"/>
        <path class="cls-3" d="m230.01,44.06v2.24c0,1.8-.26,3.46-.78,4.99-.52,1.53-1.31,2.87-2.38,4-1.07,1.14-2.41,1.99-4.02,2.54l-1.95-3.1c1.37-.46,2.51-1.11,3.41-1.97.9-.85,1.56-1.83,1.98-2.94.42-1.11.63-2.29.63-3.53v-2.24h3.12Zm9.9,15.74c1.53.89,2.3,2.13,2.3,3.72s-.76,2.85-2.28,3.73c-1.52.88-3.62,1.32-6.29,1.32s-4.81-.44-6.35-1.32c-1.54-.88-2.31-2.12-2.31-3.73s.77-2.83,2.31-3.72c1.54-.89,3.66-1.33,6.35-1.33s4.75.45,6.28,1.33Zm-9.23-15.74v2.09c0,1.19.19,2.3.57,3.33s.98,1.95,1.81,2.75c.83.8,1.88,1.41,3.16,1.81l-1.95,3.01c-1.5-.52-2.75-1.31-3.73-2.38-.98-1.07-1.71-2.33-2.19-3.77-.47-1.44-.71-3.03-.71-4.75v-2.09h3.03Zm.22,17.62c-.72.15-1.27.38-1.63.69-.36.31-.54.69-.54,1.15s.18.87.54,1.18c.36.31.9.54,1.63.69.72.15,1.63.23,2.73.23s1.95-.08,2.67-.23c.72-.15,1.27-.38,1.64-.69.37-.31.56-.7.56-1.18s-.19-.84-.56-1.15-.92-.54-1.64-.69c-.72-.15-1.61-.23-2.67-.23s-2,.08-2.73.23Zm8.02-14.35v3.16h-5.04v-3.16h5.04Zm3.2-4.59v15.1h-3.73v-15.1h3.73Z"/>
        <path class="cls-3" d="m267.09,55.86v3.04h-22.69v-3.04h22.69Zm-6.56-11.75c1.38.43,2.45,1.05,3.2,1.85.75.8,1.13,1.75,1.13,2.84s-.38,2.04-1.13,2.86c-.75.81-1.81,1.44-3.19,1.88-1.37.44-2.97.66-4.79.66s-3.44-.22-4.82-.66c-1.37-.44-2.44-1.07-3.19-1.88-.75-.81-1.13-1.76-1.13-2.86s.38-2.01,1.13-2.83c.75-.81,1.82-1.43,3.2-1.87,1.38-.43,2.98-.65,4.8-.65s3.39.21,4.77.65Zm-9.7,16.52v5.42h-3.7v-5.42h3.7Zm13.7,4.42v3.13h-17.4v-3.13h17.4Zm-11.64-18.25c-.78.17-1.38.43-1.8.76-.42.33-.63.75-.63,1.25s.21.92.63,1.26,1.02.61,1.8.79c.78.18,1.73.27,2.84.27s2.06-.09,2.84-.27c.78-.18,1.38-.44,1.8-.79.42-.34.63-.76.63-1.26s-.2-.89-.61-1.23c-.41-.34-1.01-.6-1.8-.77-.79-.17-1.74-.26-2.85-.26s-2.06.09-2.84.26Z"/>
        <path class="cls-3" d="m296.71,52.9v3.04h-22.69v-3.04h22.69Zm-2.76,4.53v6.72h-13.67v2.21h-3.65v-4.88h13.64v-1.18h-13.7v-2.87h17.37Zm.67,8.09v2.9h-17.98v-2.9h17.98Zm-.78-22.04v8.12h-17.04v-8.12h17.04Zm-13.39,2.96v2.24h9.71v-2.24h-9.71Zm6.74,8.75v3.53h-3.73v-3.53h3.73Z"/>
        <path class="cls-3" d="m320.2,56.95v3.07h-22.71v-3.07h22.71Zm-2.76-13.72v7.29h-13.47v2.58h-3.65v-5.28h13.45v-1.66h-13.5v-2.93h17.18Zm.5,8.98v2.9h-17.62v-2.9h17.62Zm-13.89,9.07v5.37h-3.73v-5.37h3.73Zm14,4.45v3.04h-17.73v-3.04h17.73Zm-7.35-12.31v4.94h-3.73v-4.94h3.73Z"/>
        <path class="cls-3" d="m95.95,89.66v3.04h-22.71v-3.04h22.71Zm-6.62-11.39c1.37.44,2.44,1.07,3.19,1.88.75.81,1.13,1.75,1.13,2.83s-.38,2.05-1.13,2.87c-.75.82-1.81,1.45-3.19,1.89-1.37.44-2.95.66-4.73.66s-3.41-.22-4.76-.66c-1.35-.44-2.41-1.07-3.17-1.89-.76-.82-1.14-1.78-1.14-2.87s.38-2.01,1.14-2.83c.76-.81,1.82-1.44,3.19-1.88,1.36-.44,2.95-.66,4.75-.66s3.36.22,4.73.66Zm-9.69,16.53v5.45h-3.76v-5.45h3.76Zm13.83,4.68v3.07h-17.59v-3.07h17.59Zm-11.58-18.55c-.76.16-1.34.43-1.74.79-.4.36-.6.79-.6,1.26,0,.52.2.95.61,1.31.41.35.99.62,1.74.79.75.17,1.65.26,2.69.26s1.91-.09,2.66-.26c.75-.17,1.33-.44,1.74-.79.41-.35.61-.78.61-1.28s-.2-.93-.6-1.29c-.4-.36-.98-.63-1.74-.79-.76-.16-1.65-.24-2.67-.24s-1.94.08-2.7.24Zm4.79,10.72v5.4h-3.79v-5.4h3.79Z"/>
        <path class="cls-3" d="m106.39,79.33c1.01.56,1.81,1.32,2.39,2.28.59.97.88,2.05.88,3.26s-.29,2.27-.88,3.24c-.58.98-1.38,1.74-2.38,2.28-1,.55-2.13.82-3.4.82s-2.37-.27-3.37-.82c-1-.54-1.8-1.3-2.38-2.27-.58-.97-.88-2.05-.88-3.26s.29-2.29.88-3.26,1.38-1.73,2.38-2.28c1-.55,2.12-.83,3.37-.83s2.37.28,3.38.83Zm-4.95,2.8c-.47.24-.84.6-1.11,1.08-.27.48-.4,1.02-.4,1.64,0,.65.13,1.21.4,1.68.27.47.64.83,1.1,1.09.46.26.99.39,1.59.39s1.13-.13,1.6-.39c.47-.26.84-.62,1.1-1.08.26-.46.39-1.01.39-1.66s-.13-1.19-.39-1.66c-.26-.48-.63-.84-1.1-1.08-.47-.24-1.01-.36-1.6-.36s-1.1.12-1.57.36Zm13.44,12.01c1.53.9,2.3,2.16,2.3,3.79s-.76,2.83-2.28,3.73c-1.52.9-3.62,1.35-6.29,1.35s-4.8-.45-6.33-1.35c-1.53-.9-2.3-2.14-2.3-3.73s.77-2.89,2.31-3.79,3.65-1.35,6.32-1.35,4.75.45,6.28,1.35Zm-9.02,1.85c-.73.16-1.29.4-1.66.72-.37.32-.56.71-.56,1.19s.18.88.56,1.21c.37.33.92.56,1.66.72.73.15,1.64.23,2.71.23s2-.08,2.73-.23c.72-.15,1.27-.39,1.64-.72s.56-.73.56-1.21-.19-.88-.56-1.19c-.37-.32-.92-.55-1.64-.72-.72-.16-1.63-.24-2.73-.24s-1.98.08-2.71.24Zm8.67-15.48v3.07h-7.38v-3.07h7.38Zm0,5.71v3.07h-7.38v-3.07h7.38Zm2.56-9.04v15.1h-3.73v-15.1h3.73Z"/>
        <path class="cls-3" d="m148.41,91.16v3.13h-22.66v-3.13h22.66Zm-10.02-13.26v1.21c0,1.66-.41,3.21-1.23,4.63-.82,1.43-2,2.64-3.56,3.63-1.56.99-3.43,1.65-5.62,1.98l-1.42-3.07c1.86-.27,3.43-.78,4.72-1.52,1.29-.75,2.25-1.61,2.9-2.6.64-.99.96-2,.96-3.06v-1.21h3.26Zm.47,15.67v9.47h-3.73v-9.47h3.73Zm.19-15.67v1.21c0,1.03.32,2.05.96,3.04.64,1,1.6,1.87,2.89,2.61,1.29.75,2.86,1.25,4.72,1.52l-1.42,3.07c-2.19-.33-4.06-.99-5.62-1.98-1.56-1-2.74-2.21-3.55-3.63-.81-1.42-1.21-2.97-1.21-4.63v-1.21h3.23Z"/>
        <path class="cls-3" d="m159.57,79.38c1.05.55,1.87,1.3,2.46,2.27.59.97.89,2.05.89,3.26s-.3,2.32-.89,3.29c-.59.97-1.42,1.72-2.46,2.25-1.05.54-2.21.8-3.49.8s-2.47-.27-3.51-.8c-1.04-.54-1.86-1.29-2.45-2.25-.59-.97-.89-2.06-.89-3.29s.3-2.29.89-3.26c.59-.97,1.41-1.72,2.45-2.27,1.04-.54,2.21-.82,3.51-.82s2.44.27,3.49.82Zm10.17,14.11v9.56h-3.76v-6.49h-13.39v-3.07h17.15Zm-15.3-11.29c-.49.24-.88.59-1.16,1.06-.28.47-.42,1.02-.42,1.65s.14,1.21.42,1.68c.28.47.66.83,1.14,1.08.48.25,1.03.37,1.64.37s1.16-.12,1.64-.37c.48-.25.86-.61,1.14-1.08.28-.47.42-1.03.42-1.68s-.14-1.18-.42-1.65c-.28-.47-.66-.82-1.16-1.06-.49-.24-1.03-.36-1.63-.36s-1.14.12-1.63.36Zm15.3-5.01v15.1h-3.76v-15.1h3.76Z"/>
        <path class="cls-3" d="m194.91,88.54v2.78h-22.71v-2.78h22.71Zm-2.7,4.19v6.2h-13.75v2.12h-3.67v-4.53h13.75v-1.21h-13.81v-2.58h17.48Zm.7,7.52v2.58h-18.12v-2.58h18.12Zm-.75-22.73v6.2h-13.47v2.04h-3.65v-4.45h13.45v-1.18h-13.5v-2.61h17.18Zm.47,7.35v2.61h-17.59v-2.61h17.59Zm-11.22,4.62v4.91h-3.7v-4.91h3.7Zm7.96,0v4.91h-3.7v-4.91h3.7Z"/>
        <path class="cls-3" d="m202.09,86.85c-.23,1.95-.71,3.83-1.43,5.62-.72,1.8-1.79,3.52-3.2,5.17l-2.92-2.21c1.24-1.42,2.19-2.86,2.84-4.32.65-1.46,1.08-3.03,1.29-4.71.21-1.67.32-3.74.32-6.18v-.46h3.45c0,2.77-.12,5.14-.35,7.09Zm-1.66-7.09v3.1h-4.76v-3.1h4.76Zm8.62,7.59c-.23,2.15-.71,4.23-1.43,6.24-.72,2.01-1.76,3.89-3.12,5.65l-2.92-2.12c1.19-1.59,2.1-3.21,2.73-4.88.63-1.66,1.05-3.43,1.27-5.29.21-1.87.32-4.12.32-6.76v-.43h3.51c0,2.91-.12,5.44-.35,7.59Zm-1.63-7.59v3.1h-4.12v-3.1h4.12Zm7.63-2.64v25.86h-3.73v-25.86h3.73Zm3.2,10.07v3.19h-4.37v-3.19h4.37Z"/>
        <path class="cls-3" d="m226.81,81.28v2.75c0,2.07-.26,4.03-.78,5.9-.52,1.87-1.31,3.53-2.37,4.98-1.06,1.45-2.35,2.54-3.87,3.27l-2.14-3.04c1.37-.63,2.52-1.54,3.45-2.71.93-1.18,1.62-2.49,2.07-3.93.45-1.44.68-2.93.68-4.46v-2.75h2.95Zm5.96-1.66v3.16h-14.09v-3.16h14.09Zm-5.15,1.66v2.75c0,1.45.23,2.87.68,4.23.45,1.37,1.15,2.6,2.07,3.7.93,1.1,2.07,1.94,3.42,2.51l-2.06,3.04c-1.54-.69-2.84-1.72-3.91-3.1-1.07-1.38-1.86-2.95-2.38-4.72-.52-1.77-.78-3.66-.78-5.67v-2.75h2.95Zm11.11-4.1v25.86h-3.76v-25.86h3.76Z"/>
        <path class="cls-3" d="m270.21,88.09v3.01h-22.66v-3.01h22.66Zm-2.12,11.62v3.01h-18.4v-3.01h18.4Zm-.25-6.97v3.07h-17.93v-3.07h17.93Zm-13.75-15.07v7.23h-3.7v-7.23h3.7Zm13.7,5.25v3.04h-17.4v-3.04h17.4Zm-10.83,10.65v7.63h-3.7v-7.63h3.7Zm3.76-8.38v5.14h-3.73v-5.14h3.73Zm3.76,8.38v7.63h-3.67v-7.63h3.67Z"/>
        <path class="cls-3" d="m281.99,80.04c.98.76,1.75,1.83,2.31,3.23.56,1.4.83,3.02.83,4.88s-.28,3.52-.83,4.92c-.56,1.41-1.33,2.49-2.31,3.26-.98.77-2.11,1.15-3.37,1.15s-2.36-.38-3.34-1.15c-.98-.76-1.75-1.85-2.31-3.26-.56-1.41-.84-3.05-.84-4.92s.28-3.48.84-4.88c.56-1.4,1.33-2.47,2.31-3.23.98-.75,2.1-1.13,3.34-1.13s2.38.38,3.37,1.13Zm-4.93,3.06c-.45.44-.79,1.09-1.04,1.94-.25.85-.38,1.89-.38,3.11s.12,2.3.38,3.17c.25.87.6,1.53,1.04,1.98s.96.67,1.56.67,1.11-.22,1.56-.67c.45-.45.79-1.11,1.04-1.98.25-.87.38-1.93.38-3.17s-.13-2.26-.38-3.11c-.25-.85-.6-1.5-1.06-1.94-.46-.44-.98-.66-1.57-.66s-1.09.22-1.53.66Zm12.61-.69v3.07h-6.74v-3.07h6.74Zm0,7.98v3.1h-6.74v-3.1h6.74Zm3.12-13.26v25.94h-3.7v-25.94h3.7Z"/>
        <path class="cls-3" d="m312.93,98.02v1.42h-17.66v-1.42h17.66Zm-2.27-14.03v1.42h-11.47v7h-1.65v-8.43h13.12Zm.22,7.81v1.4h-13.34v-1.4h13.34Z"/>
        <path class="cls-3" d="m323.12,83.11v5.37h-7.15v3.74h-1.63v-5.1h7.15v-2.62h-7.19v-1.4h8.82Zm-2.27,8.04c1.4-.09,2.84-.26,4.32-.5l.2,1.42c-1.51.26-2.97.43-4.38.52-1.4.08-3.1.13-5.09.13h-1.56v-1.42h1.56c1.9,0,3.55-.05,4.94-.14Zm-2.47,3.03v2.43h9.26v-2.43h1.65v7.76h-12.56v-7.76h1.65Zm0,6.34h9.26v-2.53h-9.26v2.53Zm10.91-18.39v11.02h-1.69v-11.02h1.69Z"/>
        <path class="cls-3" d="m334.72,84.1v12.42h-1.67v-12.42h1.67Zm9.26,10.47l.22,1.47c-1.63.34-3.23.58-4.79.73-1.56.15-3.15.23-4.77.23h-1.6v-1.49h1.6c3.31,0,6.42-.31,9.33-.94Zm3.72-12.44v20.09h-1.65v-20.09h1.65Z"/>
        <path class="cls-3" d="m360.38,84.1v1.4h-7.39v10.91h-1.65v-12.31h9.04Zm-2.55,11.5c1.34-.09,2.7-.28,4.06-.55l.2,1.47c-1.43.28-2.82.46-4.2.55-1.37.09-3.06.14-5.04.14h-1.51v-1.47h1.51c1.97,0,3.63-.05,4.98-.14Zm7.6-13.5v20.13h-1.67v-20.13h1.67Zm3.23,7.99v1.45h-3.63v-1.45h3.63Z"/>
      </g>
      <g>
        <circle class="cls-3" cx="220.74" cy="13.73" r="13.73" transform="translate(11.55 85.52) rotate(-22.5)"/>
        <path class="cls-2" d="m220.74,12.93h-1.61v-1.91h1.61c1.39,0,2.29-.96,2.29-2.33s-.98-2.35-2.33-2.35-2.33.92-2.33,2.35v.16h-2.25v-.34c0-2.35,1.69-4.12,4.58-4.12s4.56,1.77,4.56,4.12c0,1.61-.92,2.99-2.37,3.45,1.71.5,2.83,1.85,2.83,3.95,0,2.83-2.09,4.62-5.02,4.62s-5.06-1.79-5.06-4.68v-.24h2.27v.12c0,1.83,1.18,2.85,2.79,2.85s2.77-1,2.77-2.81-1.14-2.83-2.73-2.83Z"/>
      </g>
    </g>
  </g>
</svg>