<?xml version="1.0" encoding="UTF-8"?>
<svg id="_레이어_2" data-name="레이어 2" xmlns="http://www.w3.org/2000/svg" viewBox="0 0 207.64 6.47">
  <defs>
    <style>
      .cls-1 {
        fill: #ff4d3b;
        stroke-width: 0px;
      }
    </style>
  </defs>
  <g id="Layer_1" data-name="Layer 1">
    <g>
      <path class="cls-1" d="m207.59,4.57c.11-.17.05-.56-.25-.49l-.21.66.47-.18Z"/>
      <path class="cls-1" d="m205.57,3.34c-.35.32-.76.88-.53,1.49.35-.64.44-.37.81-1.13.3-.08.53.21.48.46.11-.17.47.15.63-.27-.39-.51-.89-.53-1.41-.11-.11-.15,0-.32.02-.44Z"/>
      <path class="cls-1" d="m176.13,2.31l.19.08c-.05-.04-.12-.07-.19-.08Z"/>
      <path class="cls-1" d="m157.89,1.94c.14-.02.2-.08.2-.14-.13.04-.23.08-.2.14Z"/>
      <path class="cls-1" d="m154.78,1.21c.07.02.12.03.18.04-.07-.06-.14-.09-.18-.04Z"/>
      <path class="cls-1" d="m176.13,2.31l-.49-.21c-.03.22.25.16.49.21Z"/>
      <path class="cls-1" d="m201.51,4.94c.1-.03.19-.09.26-.17-.08.03-.17.05-.25.07,0,.04,0,.07-.02.1Z"/>
      <path class="cls-1" d="m184.17,1.77h.15c.04-.08.08-.17.12-.27l-.27.27Z"/>
      <path class="cls-1" d="m190.34,1.67c-.14-.02-.19.54-.24.78.08-.23.18-.34.3-.39,0-.11-.02-.23-.06-.4Z"/>
      <path class="cls-1" d="m200.13,2.66l.17-.08s-.12.05-.17.08Z"/>
      <path class="cls-1" d="m179.76,1.65c-.01-.08-.03-.16-.06-.2,0,.07.02.14.06.2Z"/>
      <path class="cls-1" d="m7.18,5.87s0-.07,0-.1c-.04.06-.05.1,0,.1Z"/>
      <path class="cls-1" d="m.03,3.09l.1-.03c.01-.11.02-.21.02-.32l-.12.35Z"/>
      <path class="cls-1" d="m149.08.49s.01,0,.02.01c.15-.06.07-.05-.02-.01Z"/>
      <path class="cls-1" d="m96.77.91c.59.5-.96.65-.07,1.2-.08-.22.81-.88.07-1.2Z"/>
      <path class="cls-1" d="m201.35,4.86c-.08,0-.17.01-.25,0,.12.02.19.02.25,0Z"/>
      <path class="cls-1" d="m96.7,2.11h0s.09.06.09.06c-.04-.02-.06-.04-.09-.06Z"/>
      <path class="cls-1" d="m135.95.83c.03.1.08.17.13.25,0-.06-.04-.13-.13-.25Z"/>
      <path class="cls-1" d="m145.73,1.63l-.24-.08c.1.05.17.07.24.08Z"/>
      <path class="cls-1" d="m130.87,1.63c-.13-.04-.18-.12-.36-.05.02.03.03.05.05.07.06-.08.15-.11.3-.02Z"/>
      <path class="cls-1" d="m125.59,1.63s.07.08.1.11c.05-.01.11-.02.17-.03l-.27-.08Z"/>
      <path class="cls-1" d="m23.25,5.6c-.12-.16-.19-.33-.24-.51.08.4-.7.54.24.51Z"/>
      <path class="cls-1" d="m201.51,4.62c-.03.14-.08.21-.16.24.06,0,.12-.02.18-.03.02-.08.02-.16-.02-.21Z"/>
      <path class="cls-1" d="m130.66,6.06l-.84-.08c.23.06.54.08.84.08Z"/>
      <path class="cls-1" d="m61.17,5.52l-.19.07c.07.01.14,0,.19-.07Z"/>
      <path class="cls-1" d="m127.33,6.06c-.15-.2-.31-.31-.47-.39-.03.04-.07.08-.1.14l.57.24Z"/>
      <path class="cls-1" d="m23,5.09s0,0,0,0c0,0,0,0,0,0Z"/>
      <path class="cls-1" d="m17.47,6.43c.8.02.38-.72.55-1.15.96-.21.44.54.77.92.6-.2,1.05-.87,1.5-.85.03.12.12.17.02.32.63-.59,1.87-.03,2.61-.77.05.07.08.13.1.18-.12-.37-.14-.75-.11-1.01.36-.01.67-.47.8.02-.22-.01-.24.18-.34.33l.38-.21c.34.69-.51.24-.51.75.73-.23,1.59-.8,2.15-.6.12.68-1.31.23-.56.83l-.87-.26c.66,1.07-.53-.07.08,1.07,1.14.2,1.28-.35,2.42-.15.26-.38-.09-.56.17-.94,1.62-.68,1.28,1.71,2.47.8.31-.45.43-1.31,1.28-.86l-.29.77c1.11.08.63-1.1,1.79-.59-.21.3-.87.25-.7.35.75.61.53-.44,1.11-.44l.12.68c1.18-.11,2.48-.6,3.78-.72-.07.2-.3.41,0,.62,1.65-.34,3.52.08,5.1.49l.61-.59c.14,0,.26.27.11.38.62.22.03-.37.33-.6.35-.04.47.34.24.51,1.09-.5,3.11-1.07,4.26-.44l-.22.17c.9.24,1.01-1.2,1.84-.66l-.16.1c1.95.25,4.1-.28,5.58.6.28-.85,1.93.38,2.05-.8,1.11.58.79.8,2.36,1.19.42.05.62-.74,1.14-.86v.62s.71-.65.71-.65l.37.74.48-.16c-.19-.04-.41-.28-.38-.45.76-.28,1.84.43,1.86.74l1.79-.52c-.04.25-.34.33-.58.49.96-.63.17.65,1.05.07-.12-.14.06-.37.08-.49.44.37,1.43.38,2.17.22l-.14.43c1.33.11,2.8-.2,4.29-.2-.53-.2-.41-.93.02-1.01l.17.65c.28-.4-.46-.25.12-.74.56.08.37.74.05.95l.68-.23c.04.19-.12.3-.16.55.28-.4,1.17.65,1.57-.05l.04.19c1.49,0,2.17-.22,3.38-.25.02-.56.5-.44.86-.89.89.18,1.88.62,2.96.57.76-.28.22-.48.56-.81.06.51,1.13.46.57.83,1.29-.08,1.65-.1,3.28-.52-.18-.21-.38-.3-.27-.48.3-.08.67.21.63.46l-.08.05c1.83-.77,4.23,1.49,5.68.43l-.08.05,1.51-.56c.7.09-.42.38.1.7,1.63-.85,2.58.12,3.92-.45,1.04,1.51,3.69-.11,5.09.86l-.08-.36c.36-.35.44.2.71.29-.04-.28-.39-.32-.17-.51,3.07-.43,6.34.52,9.49.84,1.15.1.65-1.84,2.11-.99l-.41.66c2.33-.79,4.75.03,7.03-.65-.14.15-.14.35-.36.35.48.48,1.78.02,1.79-.37.35.04.08.35.3.55.48.28,1.21-.61,1.47-.14.04.08-.14.16-.22.19.31-.23,1.46.06,1.16-.49.85.26,1.63-.25,2.32.08.44-.62,1.46.3,1.6-.58-.06.9,1.5.73,2.04.3-.18.27.47.28.26.66.62-.01,1.18-.18,1.07-.65,1.14,1.08,2.28-.87,2.92.52,1.83-.49,3.53-.81,5.17-1.03-.06.9-1.82.09-1.75,1.04,1.56-.37,2.46-1.15,4.01-.93.4.12-.23.39-.36.55,1.56-.37,3.02.08,4.41-.41,0,.08-.15.18-.3.24.27-.03.64.13.61-.28l-.27.11c-.44-.59,1.09-1.24,1.14-1.56-.46,1.17,1.37.29.63,1.78.18-.08.41-.27.36-.55.27.08.35.24.08.55.98-.22.63-.66,1.52-.65,0,.2-.18.28-.27.51.45-.39.9-.77,1.65-.61-.05.12.04.28-.18.27,1.29-.06,2.2-1.03,3.61-.66-.42.86.48.28.56,1.03l.76-.22-.31-.36c.67.01,1.25-.53,1.83-.29l-.5.31,1.25-.14-.71-.28c.67-.38-.07-.94.81-.74-.18.08.67,0,1.01.45,0,0,0,0,0,0,.33-.24.67-.49,1.16-.3.13.24-.1.83-.02.98.33-.62,1.56-.17,1.97-.84-.14.16-.14.55-.1.63l.27-.51c.31.16.35.24.3.55.93.09-.29-.95.81-.54-.09.04-.05.12-.23.19,1.11.21,2.14-.32,3.16-.07.3.75-.89.18-.55.82,1.47-.14,3.04-.9,4.45-.72l-.26-.08c.2-1.06,1.06.52,1.77.02-.18.08-.23.59-.18.47.97.17,1.99-.26,3.46-.59l-.18.27c.57.24,1.51.14,2.13.26.18-.27.54-.23.32-.62,1.91,1.55,3.64-.83,5.33.46-.2,0-.48.24-.32.24l1.44-.25c-.11-.46-.19-.28-.49-.64.18-.27.59-.49.95-.49-.65.31,0,.74.29,1-.05-.14.05-.3.03-.44.75.82.13-.93,1.15-.38l-.05.24c.38-.12.74-.44,1.15-.38.17.53-.41.25-.44.69.58-.03,1.15-1.01,1.68-.48-.25.15-.6.15-.85.3.57.63.64.47,1.07.57h-.04s.99.27.99.27l-.25-.17c.73-1.39,1.48-.25,2.47-1.17-.95.86-.16.5-.23,1.11.25.17.63.36.52.53.46-.49.78.39,1.43-.33.03.19.5.02.39.51.6-.15-.14-.34-.09-.58.93-.67,2.19.81,3.53-.11,1.15-.38,1.37-1.03,2.44-1.36.36.31-.3.71-.3.71.58.29,1.02.23,1.57.01-.11.17,0,.31.17.53.44-.05.3-.71.88-.42-.1.22-.23.57-.44.78.52-.18,1.03-.54,1.57-.72.14.34-.32.52-.51.74.6-.15,1.57-.31,1.75-.85l-.39-.19c.22-.03.11.46-.05.56-.52.42-.75-.19-.78-.38l.38-.12c-.39-1.14-1.54.18-2.31.12l.32-.83-.79.69c-.17-.22-.28-.68.1-.81-.55-.41-.49.3-.96-.16-.05-.07-.03-.11.02-.14l-.54.25c.11-.17-.09-.59.24-.47-.97-.48-1.56.62-1.93,0l.08-.05c-1.35.28-.13.61-1.14,1.33l-.68-1.51-.13.61c-.14-.02-.41-.07-.36-.31-.52.42.09.27-.21.66-.67-.56-1.84.26-1.99-.71-.24.46.64.36-.07.68-.2-1.05-.82.18-1.43-.3.19-.54.77-.25.15-.74-.37.91-1.19-.2-1.7-.03-.02.73-1.12.3-1.98.55.05-.24-1.63-.4-2.43-.66l.02-.12c-.16.73-.98.6-1.59.75.02-.44.13-.61.46-.81h-.57c-.13.24-.31.36-.68.45l.14-.55c-.76.03-1.52.65-2.49.28-.05.51.77,1.43-.25,1.77-.04-.28-.08-.75.19-.86-.09.04-.31.23-.49.11l.41-.47c-.44-.2-.23.39-.59.35,0-.39-.26-.28-.21-.59.09-.04.31.16.44,0-.4-.07-.88-.3-1.04-.6.04.22,0,.53-.29.58-.76.03-.26-.47-.7-.68-.18.27-.67-.01-.68.58-.22,0-.26-.28-.35-.44-.39.26-1.83.07-1.38.7l.1.04s-.04.01-.06.03h0,0c-1.28.59-2.66-.33-3.93-.08v-.2c-.76.23-1.69.13-2.23.56-.22,0-.53-.36-.43-.6-.58.15-.64.37-1.48.04.58-.34-.2-.31.6-.25-.75-.17-.92-.49-1.73.05.28-.51-.57-.64-.93-.49l.53.36c-.4.07-.75.03-1.11-.01l.19-.66c-1.54-.81-2.78,1.38-3.96.02-.41.47.84.33.47.87-.71-.09-1.45-1.04-1.67-1.05-.97-.37-.91.97-1.92.72.13.24.25.87-.51,1.09-.71-.09-.87-1-.42-1.19.17-.02.25.06.25.14.23-.09.53-.19.25-.45l-.09.24c-.35-.24-1.33-.22-1.1-.61-.54.23-.23.39.17.51-.91-.34-1.42,0-2.36-.24.15.13.29.41.14.41-1.38-.29-.61.45-1.54.55-.53-.36.19-.86-.75-.56-.57-.24-.12-.63.11-.82-.85.46-1.6-.3-2.08-.38l.45-.19c-.27.11-.49.11-.71.11l.26.47c-.26-.08-.49-.08-.48-.28-.27.31.21.79-.33,1.21-.35-.24-1.07.26-1.19-.37,1.11.21-.12-.63.82-.73-.18.08-.4.07-.67-.01-.04-.07.04-.13.11-.17-1.06-.56-.49.71-1.59.7.14-.35-.25-.67-.43-.6.44,0,.21.59-.19.86-.7-.28-.77.21-1.13.17l.42.13c-.14.35-.5.31-.99.42-.04-.28.45-.19.27-.31-.54.62-1.23-.65-1.99-.23-.35-.24-.03-.67-.34-.83-.85.46-.92-.49-1.82-.11.26.48.3.36-.33.83l1.47-.34-.94.69c.44,0,.94-.3,1.2-.22-.45.39-.4.27-.19.67-.61-.72-1.21.42-1.91-.07l.02-1.18c-1.06-.53-1.88.61-3.25.31l.44.21c-.18.47-.85.07-1.29.26.04-.39-.24-.54-.43-.78.02.29-1-.03-1.13.76l-.61-.52c-1.11-.21-1.26,1.12-2.33.99.32-.43-.16-.71.55-1.02-.36,0-.68-.08-.68.2-.21-.25-.99.53-1.31.16-.15.17-.2.59-.6.55-.04-.08,0-.19,0-.19,0,.19-.62.27-.28.7-1.1-1.23-3.06.09-4.02-.97-.78.13-1.71.26-2.41.29.04-.12,0-.2.14-.16-.97-.37-.6,1.13-1.7.72-.56-.64.59-.35.23-.59-.15-1.3-1.33.18-2.08-.58l.18-.08c-.57-.44-1.39.49-2.32.4,0,0,.05-.12,0-.2-.64.66-1.84.88-2.73,1.07.28-.51.41-.27.24-.79-.4.07.12.83-.68.97-.26-.28-.84-.52-.91-1.07l.75-.03c-.39-.71-.98.02-1.37-.1l.05-.31c-1.16.1-1.17.89-2.41.83l.13.24c-.68.78-.57-.44-1.25.14l-.21-.79c-.45.19-1.57.76-2.37.91.46-.59,1.4-.89,1.98-1.23-.44,0-1.51.06-1.74.45.18-.08.4-.27.58-.15-.54.62-1.26.93-2.15.91.16-1.53-2.31-.39-2.95-1.57-1.57.57-3.11-.24-4.93-.15.65,1.19-.53.03-.42,1.26-.43.08-.59.06-.62-.02l-1.29-.73c-.31-.36.4-.27.37-.54-.93-.09-.39-.52-1.01-.84.13.44-.32.63-.85.46l.75.56c-1.3.65-1.12-1.03-2.43-.38l.41-.39c-.67.23-2.48,0-3.14.97-.12-.14-.28-.48.02-.56-1.61-.15-3.58,1.05-4.83.44l.12-.3c-.3.09-.52.56-.9.26.02-.12.12-.3-.02-.32-.16.1-.8.52-1.19.35l.34-.34c-1.57-.39-2.41.82-3.72,1.02,0-.88-1.23-1.17-1.85-1.31l.02-.12c-1.83-.11-3.1.73-4.79,1.08-1.05-.96-3.56-.4-5.24-.94.26.16-.04.69-.34.77-.4-.18-1.09.61-1.03-.2l.14.02c-.3-.79-1.11-.58-1.75-.6l-.1,1.06c-1.66-1.54-4.35.56-5.26-.81-.4.26-.9.26-1.29.52l.02-.57c-1.11-.14-1.67-.22-3.04-.08l.28-.4c-.77-.04-.98,1.63-1.69,1.67l-.21-.85c-1.35.01-2.72-.73-4.05.04.02-.12.06-.37.28-.4-.64-.02-2.46-.57-2.23.59-.02-.76-1.39-.07-2.12.26l.11-.56c-.62.71-.64.91-1.5,1.1-.2-.07-.18-.45.09-.3-.68-.29-.53.53-1.35.23l.31-.36c-.7-.04-.64.15-1.03.56-.44.22-1.33-.14-1.43-.64-.09.31-.48.72-.89.57-.06-.19.09-.31.17-.37-1.17-.38-1.74.65-2.54.1-.02-.18-.07-.28-.14-.33.93.01,1.68.04,1.61.09,0-.51-.75-.6-.15-1.31-.6.39-1.63,1.23-2.36.99-.04-.05-.07-.1-.1-.18l.08-.06c-.17-.05-.32,0-.46.08-.23-.08-.38-.15-.61-.15-.09-.43-.86-.23-1.23-.25.03.56-.46.47,0,.94-.06-.04.07-.07.32-.09.06-.02.12-.03.16-.06,0,.02-.02.03-.03.05.25-.02.57-.03.93-.04-.3.29-.6.53-1.02.21-.19.36-.4.73-.52.91-.51-.78-1.5-1.21-1.63-1.69-1.14.32-2.69.21-3.41,1.26-.32.14-.37-.3-.49-.47.19-.11.41-.09.51-.24-.65.27-1.92.1-2.08.84-.82-.33.46-.68-.66-.56l.15-.23c-2.21-1.18-3.59,1.88-6.05.37.17.09.25.14.29.26-2.79-.67-5.76.63-8.52-.43-.78-.21-.87.26-1.35.62l-.17-.6-.82.7c-1.16.51-2.01-1.48-3.48-.52l.19.41c-.53-.08-1.67.24-1.58-.23-.05.07-.17.42-.38.21l-.02-.32-1.3.54c-1-.23.16-1.25-1.31-1.32C.85,1.37-.16,2.17.05,2.38c.22.02.56.2.58.51l-.5.16c-.09.93-.47,1.88.75,2.54l.85-.57.27.45-.72.03c.41.43.66.05.95-.21.07.24.19.41.36.5l.84-.89c.1.36-.38.72.19.92.39-.41-.38-.82.27-1.09.41.42.29.77.77.41.07.24-.03.39-.22.5.43-.29,1.13-.12,1.35-.62.42.52,1.44-.14,1.4.75.13-.21.75-.69,1.14-.73-.71,1.06,1.46.06,1.28,1.19.53-.95,1.91-.42,2.85-.95-.05.08-.16.23-.24.18.53.08.68.37,1.02.54.07-.78.89-.96,1.33-1.45.65.76-.39.92-.19,1.65-.03-.64,1.12-.63.9-1.16.49.47.43.23.68.88.09-.98.46-.17.87-.77.72.48.18.92.97.62.37.3-.33.65-.33.65Zm18.69-1.69h0c-.16.02-.3.04-.39.04.08,0,.19-.02.39-.04Zm1.57,0c-.19-.02-.43-.03-.68-.02-.06-.19,0-.39.16-.38-.09.13.28.24.52.41Zm-3.32-3.9c.25-.08.33.03.37.15-.12,0-.25.03-.43.07,0,.02-.02.05-.03.07.02-.11.05-.21.1-.28Z"/>
      <path class="cls-1" d="m33.96,1.57s-.06.04-.1.04c.05.05.1.09.15.13.03-.06.06-.12.09-.18-.04,0-.09,0-.13,0Z"/>
      <path class="cls-1" d="m176.36,2.4h-.03s.05.03.07.07c-.02-.03-.02-.04-.04-.07Z"/>
      <polygon class="cls-1" points="59.42 5.8 59.42 5.66 59.28 5.78 59.42 5.8"/>
      <path class="cls-1" d="m185.01,4.33s.05.1.11.14c0-.04-.05-.09-.11-.14Z"/>
      <path class="cls-1" d="m188.74,4.45l.53.2c-.23-.11-.4-.17-.53-.2Z"/>
      <path class="cls-1" d="m191.62,4.73c.04-.1.05-.17.06-.24,0,0,0,0,0,0l-.05.24Z"/>
      <path class="cls-1" d="m145.93,5.39s-.08.01-.11.03c-.26.11-.08.07.11-.03Z"/>
      <path class="cls-1" d="m159.53,4.08c-.14.1-.29.2-.44.27.24.04.43.05.44-.27Z"/>
      <path class="cls-1" d="m130.75,6.07s0,0,0,0c-.03,0-.06,0-.09,0h.09Z"/>
      <path class="cls-1" d="m158.46,4.34c.24.11.44.09.63,0-.2-.04-.43-.1-.63,0Z"/>
      <path class="cls-1" d="m204.07,4.99l.14.02s0-.07.02-.09l-.15.07Z"/>
      <path class="cls-1" d="m204.23,4.92l.15-.07c-.07,0-.13,0-.15.07Z"/>
      <path class="cls-1" d="m204.7,4.71l-.32.14c.11,0,.25.02.32-.14Z"/>
      <path class="cls-1" d="m200.27,4.73l-.04.2s.04-.11.04-.2Z"/>
      <path class="cls-1" d="m199.11,4.79c.28.05.69.43,1.08.31l.04-.16c-.18.3-.85-.49-1.11-.14Z"/>
      <path class="cls-1" d="m194.29,2.27l.97.16c-.17-.22-.39-.51.05-.56-1.22-.65.25.49-1.02.4Z"/>
      <path class="cls-1" d="m191.28,1.95c.52-.1,0-.32.02-.44-.33.2-.41.25-.02.44Z"/>
      <path class="cls-1" d="m169.58,1.95l.05-.51c-.4.07,0,.2-.05.51Z"/>
      <polygon class="cls-1" points="165.43 4.6 165.82 4.91 166.01 4.44 165.43 4.6"/>
      <polygon class="cls-1" points="162.98 .95 163.15 .88 162.48 1.06 162.98 .95"/>
      <path class="cls-1" d="m126.53,1.13l.12.63c.27-.11.33-.82-.12-.63Z"/>
      <path class="cls-1" d="m110.79,1.77c-.17-.32-.61-.52-.89-.21.35.04.71.29.89.21Z"/>
      <polygon class="cls-1" points="63.6 .75 63.91 .54 63.32 .71 63.6 .75"/>
    </g>
  </g>
</svg>