<?xml version="1.0" encoding="UTF-8"?>
<svg id="_레이어_2" data-name="레이어 2" xmlns="http://www.w3.org/2000/svg" viewBox="0 0 441.47 167.5">
  <defs>
    <style>
      .cls-1 {
        fill: #efeff0;
      }

      .cls-1, .cls-2, .cls-3 {
        stroke-width: 0px;
      }

      .cls-2 {
        fill: #fff;
      }

      .cls-3 {
        fill: #231f20;
      }
    </style>
  </defs>
  <g id="Layer_1" data-name="Layer 1">
    <g>
      <rect class="cls-1" x="0" y="13.02" width="441.47" height="154.48"/>
      <g>
        <path class="cls-3" d="m71.88,55.92v.87c0,1.18-.23,2.29-.69,3.32-.46,1.03-1.1,1.93-1.93,2.69-.82.76-1.77,1.33-2.84,1.71l-.82-1.33c.95-.34,1.8-.83,2.54-1.47.74-.64,1.33-1.39,1.75-2.25.42-.86.63-1.75.63-2.66v-.87h1.36Zm4.74-1.08v1.38h-10.6v-1.38h10.6Zm-6.3,10.75v5.46h-1.65v-5.46h1.65Zm11.4,4.73v1.42h-13.05v-1.42h13.05Zm-9.53-18.11v3.33h-1.67v-3.33h1.67Zm-.02,3.72v.87c0,.87.21,1.71.63,2.51.42.8,1.01,1.51,1.77,2.11.76.6,1.61,1.06,2.56,1.37l-.8,1.35c-1.08-.37-2.05-.91-2.88-1.63-.84-.72-1.49-1.57-1.96-2.55-.47-.98-.7-2.04-.7-3.17v-.87h1.38Zm8.95-3.79v14.83h-1.69v-14.83h1.69Z"/>
        <path class="cls-3" d="m90.29,63.93c2.06-.09,3.99-.28,5.77-.57l.13,1.24c-1.86.35-3.8.59-5.85.7-2.04.11-4.16.17-6.36.17l-.22-1.4c2.29,0,4.46-.05,6.52-.14Zm5.17-9.83v1.31h-11.2v-1.31h11.2Zm-2.33,3.01c.82.55,1.24,1.3,1.24,2.25s-.41,1.7-1.24,2.26c-.82.56-1.92.84-3.28.84s-2.46-.28-3.27-.83-1.22-1.31-1.22-2.27.41-1.7,1.22-2.25c.82-.55,1.91-.83,3.27-.83s2.46.28,3.28.83Zm-4.78,9.67v3.97h-1.67v-3.97h1.67Zm11.25,3.54v1.42h-12.92v-1.42h12.92Zm-11.88-12.29c-.53.33-.79.78-.79,1.34s.26,1.02.79,1.35c.53.34,1.24.5,2.13.5s1.62-.17,2.15-.5c.53-.34.79-.79.79-1.35s-.26-1.01-.79-1.34c-.53-.33-1.24-.49-2.15-.49s-1.6.16-2.13.49Zm2.97-6v2.66h-1.65v-2.66h1.65Zm0,9.92v2.71h-1.65v-2.71h1.65Zm8.22-9.83v15.7h-1.67v-15.7h1.67Zm2.92,7.05v1.45h-3.63v-1.45h3.63Z"/>
        <path class="cls-3" d="m111.11,58.21c-.73,1.38-1.78,2.56-3.14,3.56-1.36,1-2.97,1.78-4.84,2.36l-.69-1.38c1.66-.5,3.09-1.17,4.29-1.99,1.19-.82,2.11-1.77,2.75-2.86.64-1.09.96-2.26.96-3.54v-.76h1.78c0,1.68-.37,3.21-1.1,4.59Zm.46-4.59v1.42h-8.13v-1.42h8.13Zm3.7,11.25c.96.31,1.71.75,2.23,1.33.52.58.78,1.27.78,2.07s-.26,1.46-.78,2.04c-.52.58-1.26,1.03-2.23,1.33-.97.31-2.1.46-3.41.46s-2.45-.15-3.42-.46c-.97-.31-1.72-.75-2.24-1.32-.52-.57-.78-1.26-.78-2.05s.26-1.48.78-2.07c.52-.58,1.26-1.03,2.23-1.33.96-.31,2.11-.46,3.43-.46s2.44.15,3.41.46Zm-5.93,1.22c-.72.2-1.28.48-1.67.85-.39.37-.59.81-.59,1.33s.2.94.59,1.31c.39.37.95.65,1.67.85.72.2,1.56.3,2.53.3s1.81-.1,2.53-.3c.72-.2,1.27-.48,1.66-.85.39-.37.58-.8.58-1.31,0-.78-.43-1.39-1.28-1.83-.85-.44-2.02-.65-3.49-.65-.97,0-1.81.1-2.53.3Zm7.34-6.04v1.4h-5.34v-1.4h5.34Zm.11-4.18v1.4h-5.3v-1.4h5.3Zm1.4-3.76v12.1h-1.67v-12.1h1.67Z"/>
        <path class="cls-3" d="m148.51,61.53v3.07h-22.71v-3.07h22.71Zm-2.7-13.14v10.47h-17.43v-10.47h17.43Zm-13.75,3.04v4.42h10.1v-4.42h-10.1Zm6.88,12.11v9.47h-3.73v-9.47h3.73Z"/>
        <path class="cls-3" d="m172.51,59.04v3.01h-22.69v-3.01h22.69Zm-5.04,5.6c1.54.84,2.31,2.03,2.31,3.56s-.77,2.71-2.31,3.54c-1.54.83-3.68,1.25-6.43,1.25s-4.83-.42-6.37-1.25c-1.54-.83-2.31-2.01-2.31-3.54s.77-2.72,2.31-3.56c1.54-.84,3.67-1.26,6.4-1.26s4.86.42,6.4,1.26Zm-11.11-17.08v7.32h-3.7v-7.32h3.7Zm13.61,5.94v3.04h-17.31v-3.04h17.31Zm-12.62,13.29c-.83.31-1.24.77-1.24,1.41s.42,1.1,1.25,1.42c.84.32,2.07.47,3.7.47s2.89-.16,3.72-.47c.83-.32,1.24-.79,1.24-1.42s-.41-1.1-1.22-1.41c-.82-.31-2.06-.46-3.73-.46s-2.89.15-3.72.46Zm5.67-11.54v5.11h-3.73v-5.11h3.73Z"/>
        <path class="cls-3" d="m183.12,49.35c1.05.55,1.87,1.3,2.48,2.27.6.97.9,2.05.9,3.26s-.3,2.32-.9,3.29c-.6.97-1.42,1.72-2.46,2.25-1.04.54-2.2.8-3.48.8s-2.47-.27-3.51-.8c-1.04-.54-1.86-1.29-2.45-2.25-.59-.97-.89-2.06-.89-3.29s.3-2.29.89-3.26c.59-.97,1.41-1.72,2.45-2.27,1.04-.54,2.21-.82,3.51-.82s2.42.27,3.47.82Zm9.31,14.02v9.64h-3.76v-6.54h-13v-3.1h16.76Zm-14.41-11.21c-.49.24-.88.59-1.16,1.06-.28.47-.42,1.02-.42,1.65s.14,1.21.42,1.68c.28.47.66.83,1.14,1.08.48.25,1.03.37,1.64.37s1.16-.12,1.64-.37c.48-.25.86-.61,1.14-1.08.28-.47.42-1.03.42-1.68s-.14-1.18-.42-1.65c-.28-.47-.66-.82-1.14-1.06-.48-.24-1.03-.36-1.64-.36s-1.14.12-1.63.36Zm14.41-5.01v15.21h-3.76v-15.21h3.76Zm3.17,3.3v3.13h-4.31v-3.13h4.31Zm0,5.6v3.16h-4.31v-3.16h4.31Z"/>
        <path class="cls-3" d="m212.96,49.6c1.05.56,1.87,1.34,2.46,2.35.59,1.01.89,2.14.89,3.39s-.3,2.35-.89,3.37c-.59,1.02-1.42,1.82-2.46,2.38-1.05.56-2.21.85-3.49.85s-2.44-.28-3.48-.85c-1.04-.56-1.86-1.36-2.46-2.38-.6-1.02-.9-2.15-.9-3.37s.3-2.37.9-3.39c.6-1.01,1.42-1.8,2.46-2.35,1.04-.55,2.2-.83,3.48-.83s2.44.28,3.49.83Zm-5.14,2.88c-.48.26-.86.64-1.14,1.13-.28.5-.42,1.07-.42,1.72s.14,1.25.42,1.74c.28.49.66.86,1.14,1.12.48.26,1.03.39,1.64.39s1.14-.13,1.63-.39c.49-.26.88-.63,1.16-1.12.28-.49.42-1.07.42-1.74s-.14-1.22-.42-1.72c-.28-.5-.66-.88-1.16-1.13-.49-.26-1.03-.39-1.63-.39s-1.16.13-1.64.39Zm2.28,11.35v6.89h-3.7v-6.89h3.7Zm13.67,5.65v3.07h-17.37v-3.07h17.37Zm-.64-22.36v18.54h-3.73v-18.54h3.73Z"/>
        <path class="cls-3" d="m248.26,59.04v3.04h-22.69v-3.04h22.69Zm-10.61-9.18v.57c0,1.32-.37,2.53-1.11,3.62-.74,1.09-1.86,1.99-3.34,2.71-1.48.72-3.29,1.18-5.43,1.39l-1.25-3.01c1.76-.15,3.23-.47,4.4-.96,1.17-.49,2.03-1.06,2.59-1.71.56-.65.83-1.33.83-2.04v-.57h3.31Zm8.57-1.52v3.07h-18.62v-3.07h18.62Zm-2.98,16.34c1.54.85,2.31,2.03,2.31,3.54s-.77,2.71-2.31,3.54c-1.54.83-3.67,1.25-6.4,1.25s-4.86-.42-6.4-1.25c-1.54-.83-2.31-2.01-2.31-3.54s.77-2.69,2.32-3.54c1.55-.85,3.68-1.28,6.39-1.28s4.86.43,6.4,1.28Zm-10.12,2.14c-.83.31-1.24.78-1.24,1.41s.41,1.09,1.22,1.38c.82.29,2.06.43,3.73.43s2.94-.14,3.74-.43c.81-.29,1.21-.75,1.21-1.38s-.41-1.1-1.24-1.41c-.83-.31-2.06-.46-3.72-.46s-2.89.15-3.72.46Zm6.36-16.96v.57c0,.69.28,1.36.84,2.02.56.66,1.42,1.23,2.59,1.72,1.17.49,2.64.81,4.4.96l-1.28,3.01c-2.13-.21-3.94-.67-5.41-1.39-1.48-.72-2.58-1.62-3.33-2.71s-1.11-2.3-1.11-3.62v-.57h3.31Z"/>
        <path class="cls-3" d="m259.61,48.62v3.21h4.7v-3.21h3.67v12.37h-12.08v-12.37h3.7Zm15.5,14.66v3.07h-12.78v5.42h-3.73v-8.49h16.51Zm.47,6.34v3.07h-16.98v-3.07h16.98Zm-15.98-11.68h4.7v-3.16h-4.7v3.16Zm15.37-10.79v15.07h-3.76v-15.07h3.76Zm3.29,5.8v3.16h-4.31v-3.16h4.31Z"/>
        <path class="cls-3" d="m301.32,60.27v3.04h-22.69v-3.04h22.69Zm-6.56-11.75c1.38.43,2.45,1.05,3.2,1.85.75.8,1.13,1.75,1.13,2.84s-.38,2.04-1.13,2.86c-.75.81-1.81,1.44-3.19,1.88-1.37.44-2.97.66-4.79.66s-3.44-.22-4.82-.66c-1.37-.44-2.44-1.07-3.19-1.88-.75-.81-1.13-1.76-1.13-2.86s.38-2.01,1.13-2.83c.75-.81,1.82-1.43,3.2-1.87,1.38-.43,2.98-.65,4.8-.65s3.39.21,4.77.65Zm-9.7,16.52v5.42h-3.7v-5.42h3.7Zm13.7,4.42v3.13h-17.4v-3.13h17.4Zm-11.64-18.25c-.78.17-1.38.43-1.8.76-.42.34-.63.75-.63,1.25s.21.92.63,1.26c.42.34,1.02.61,1.8.79.78.18,1.73.27,2.84.27s2.06-.09,2.84-.27c.78-.18,1.38-.44,1.8-.79.42-.34.63-.76.63-1.26s-.2-.89-.61-1.23c-.41-.34-1.01-.6-1.8-.77-.79-.17-1.74-.26-2.85-.26s-2.06.09-2.84.26Z"/>
        <path class="cls-3" d="m330.96,59.04v3.01h-22.69v-3.01h22.69Zm-5.04,5.6c1.54.84,2.31,2.03,2.31,3.56s-.77,2.71-2.31,3.54c-1.54.83-3.68,1.25-6.43,1.25s-4.83-.42-6.37-1.25c-1.54-.83-2.31-2.01-2.31-3.54s.77-2.72,2.31-3.56c1.54-.84,3.67-1.26,6.4-1.26s4.86.42,6.4,1.26Zm-11.11-17.08v7.32h-3.7v-7.32h3.7Zm13.61,5.94v3.04h-17.31v-3.04h17.31Zm-12.62,13.29c-.83.31-1.24.77-1.24,1.41s.42,1.1,1.25,1.42c.84.32,2.07.47,3.7.47s2.89-.16,3.72-.47c.83-.32,1.24-.79,1.24-1.42s-.41-1.1-1.22-1.41c-.82-.31-2.06-.46-3.73-.46s-2.89.15-3.72.46Zm5.67-11.54v5.11h-3.73v-5.11h3.73Z"/>
        <path class="cls-3" d="m341.25,50v1.58c0,1.72-.26,3.32-.78,4.79-.52,1.47-1.31,2.77-2.37,3.88-1.06,1.11-2.38,1.92-3.95,2.44l-1.89-3.04c1.35-.44,2.47-1.09,3.35-1.94.88-.85,1.53-1.8,1.95-2.86.42-1.05.63-2.14.63-3.27v-1.58h3.06Zm5.57-1.18v3.1h-13.58v-3.1h13.58Zm1.92,14.66c1.28.4,2.26.98,2.94,1.74.68.76,1.02,1.66,1.02,2.71,0,1.59-.76,2.83-2.27,3.72-1.51.89-3.58,1.33-6.19,1.33-1.74,0-3.26-.2-4.55-.59-1.29-.39-2.28-.97-2.96-1.74-.69-.76-1.03-1.67-1.03-2.73s.34-1.96,1.03-2.71c.69-.76,1.67-1.33,2.96-1.74,1.29-.4,2.81-.6,4.55-.6s3.23.2,4.51.6Zm-6.79-13.49v1.61c0,1.03.2,2.02.6,2.96.4.94,1.03,1.77,1.88,2.51.85.74,1.93,1.31,3.23,1.71l-1.81,2.98c-1.54-.46-2.83-1.19-3.87-2.2-1.04-1-1.81-2.19-2.3-3.56-.49-1.37-.74-2.84-.74-4.41v-1.61h3.01Zm-.39,16.1c-.72.15-1.27.38-1.63.69-.36.31-.54.69-.54,1.15,0,.71.41,1.23,1.22,1.58.82.34,2.02.52,3.62.52s2.75-.17,3.56-.52c.82-.34,1.22-.87,1.22-1.58,0-.46-.18-.84-.54-1.15-.36-.31-.9-.54-1.61-.69-.71-.15-1.59-.23-2.63-.23s-1.95.08-2.67.23Zm10.86-18.94v15.3h-3.76v-15.3h3.76Zm3.31,5.88v3.13h-4.34v-3.13h4.34Z"/>
        <path class="cls-3" d="m363.44,64.56c2.5-.09,4.84-.27,7.03-.56l.19,2.81c-2.26.4-4.64.66-7.13.79-2.49.12-5.11.2-7.88.22l-.33-3.13c2.91,0,5.62-.04,8.11-.13Zm3.91-14.91v3.07h-10.74v-3.07h10.74Zm-3.92,7.4v8.78h-3.67v-8.78h3.67Zm6.12-7.4v2.21c0,1.8-.04,3.42-.11,4.88-.07,1.45-.27,3.12-.58,4.99l-3.65-.32c.28-1.8.46-3.4.54-4.82s.13-2.99.13-4.74v-2.21h3.67Zm5.73-2.55v25.86h-3.7v-25.86h3.7Zm3.34,10.39v3.16h-4.4v-3.16h4.4Z"/>
        <path class="cls-3" d="m58.03,91.6c-.57,2.09-1.52,4.02-2.85,5.78-1.34,1.76-3.14,3.33-5.4,4.71l-2.09-2.73c1.86-1.15,3.34-2.4,4.44-3.76s1.91-2.87,2.41-4.52c.5-1.66.75-3.56.75-5.73v-.77h3.59c0,2.58-.28,4.92-.85,7.02Zm-1.52-7.02v3.07h-7.38v-3.07h7.38Zm6.15,10.22v3.07h-5.09v-3.07h5.09Zm.08-6.43v3.04h-5.04v-3.04h5.04Zm1.67-6.26v24.16h-3.48v-24.16h3.48Zm5.23-.57v25.86h-3.51v-25.86h3.51Z"/>
        <path class="cls-3" d="m81.81,83.79c1.05.55,1.87,1.3,2.48,2.27.6.97.9,2.05.9,3.26s-.3,2.32-.9,3.29c-.6.97-1.42,1.72-2.46,2.25-1.04.54-2.2.8-3.48.8s-2.47-.27-3.51-.8c-1.04-.54-1.86-1.29-2.45-2.25-.59-.97-.89-2.06-.89-3.29s.3-2.29.89-3.26c.59-.97,1.41-1.72,2.45-2.27,1.04-.54,2.21-.82,3.51-.82s2.42.27,3.47.82Zm9.31,14.02v9.64h-3.76v-6.54h-13v-3.1h16.76Zm-14.41-11.21c-.49.24-.88.59-1.16,1.06-.28.47-.42,1.02-.42,1.65s.14,1.21.42,1.68c.28.47.66.83,1.14,1.08.48.25,1.03.37,1.64.37s1.16-.12,1.64-.37c.48-.25.86-.61,1.14-1.08.28-.47.42-1.03.42-1.68s-.14-1.18-.42-1.65c-.28-.47-.66-.82-1.14-1.06-.48-.24-1.03-.36-1.64-.36s-1.14.12-1.63.36Zm14.41-5.01v15.21h-3.76v-15.21h3.76Zm3.17,3.3v3.13h-4.31v-3.13h4.31Zm0,5.6v3.16h-4.31v-3.16h4.31Z"/>
        <path class="cls-3" d="m108.21,85.61v2.21c0,3.48-.43,6.5-1.28,9.05-.85,2.55-2.26,4.44-4.23,5.67l-2.25-2.93c1.74-1.09,3-2.65,3.76-4.69.76-2.04,1.14-4.4,1.14-7.1v-2.21h2.87Zm4.43-1.49v3.13h-11.36v-3.13h11.36Zm-3.67,1.49v2.21c0,2.47.39,4.65,1.17,6.56.78,1.9,2.05,3.33,3.81,4.29l-2.14,2.93c-2.02-1.11-3.48-2.87-4.36-5.27-.88-2.4-1.32-5.24-1.32-8.51v-2.21h2.84Zm8.3-3.64v24.28h-3.48v-24.28h3.48Zm3.09,9.47v3.1h-4.06v-3.1h4.06Zm2.34-9.9v25.86h-3.54v-25.86h3.54Z"/>
        <path class="cls-3" d="m128.95,83.86v5.77h2.95v-5.77h3.48v17.48h-9.94v-17.48h3.51Zm0,14.41h2.95v-5.65h-2.95v5.65Zm11.8-16.3v24.28h-3.48v-24.28h3.48Zm3.09,9.44v3.07h-4.04v-3.07h4.04Zm2.45-9.87v25.86h-3.54v-25.86h3.54Z"/>
        <path class="cls-3" d="m166.32,102.68v1.42h-17.66v-1.42h17.66Zm-2.2-14.65v6.01h-11.58v4.09h-1.65v-5.46h11.58v-3.24h-11.62v-1.4h13.27Zm.45,9.39v1.4h-13.67v-1.4h13.67Zm-6.28.9v4.96h-1.65v-4.96h1.65Z"/>
        <path class="cls-3" d="m180.9,83.55v3.67c0,2.2-.25,4.28-.75,6.24-.5,1.96-1.27,3.7-2.3,5.22-1.03,1.52-2.32,2.67-3.88,3.46l-2.23-3.13c1.37-.65,2.51-1.59,3.42-2.81.91-1.22,1.59-2.61,2.03-4.16s.67-3.16.67-4.82v-3.67h3.03Zm.7,0v3.67c0,1.63.2,3.18.6,4.65.4,1.47,1.03,2.8,1.89,3.97.86,1.18,1.94,2.1,3.24,2.77l-2.25,3.04c-1.47-.77-2.68-1.88-3.65-3.34-.97-1.46-1.68-3.14-2.14-5.04-.46-1.89-.7-3.91-.7-6.06v-3.67h3.01Zm10.36-1.95v25.86h-3.76v-25.86h3.76Zm3.62,9.87v3.21h-4.45v-3.21h4.45Z"/>
        <path class="cls-3" d="m203.96,83.55v3.67c0,2.32-.26,4.47-.77,6.46-.51,1.99-1.3,3.74-2.38,5.25-1.08,1.51-2.43,2.66-4.06,3.44l-2.23-3.19c1.43-.63,2.62-1.56,3.58-2.78.96-1.22,1.67-2.63,2.13-4.2.46-1.58.7-3.24.7-4.98v-3.67h3.03Zm.72,0v3.67c0,1.67.22,3.25.67,4.75.45,1.5,1.13,2.84,2.06,4,.93,1.17,2.09,2.06,3.48,2.67l-2.2,3.13c-1.58-.75-2.9-1.85-3.95-3.3-1.06-1.45-1.84-3.14-2.34-5.05-.5-1.91-.75-3.98-.75-6.2v-3.67h3.03Zm11.02-2.01v25.94h-3.76v-25.94h3.76Z"/>
        <path class="cls-3" d="m226.85,83.55v3.67c0,2.2-.25,4.28-.75,6.24-.5,1.96-1.27,3.7-2.3,5.22-1.03,1.52-2.32,2.67-3.88,3.46l-2.23-3.13c1.37-.65,2.51-1.59,3.42-2.81.91-1.22,1.59-2.61,2.03-4.16s.67-3.16.67-4.82v-3.67h3.03Zm.7,0v3.67c0,1.63.2,3.18.6,4.65s1.03,2.8,1.89,3.97c.86,1.18,1.94,2.1,3.24,2.77l-2.25,3.04c-1.47-.77-2.68-1.88-3.65-3.34-.97-1.46-1.68-3.14-2.14-5.04-.46-1.89-.7-3.91-.7-6.06v-3.67h3.01Zm10.35-1.95v25.86h-3.76v-25.86h3.76Zm3.62,9.87v3.21h-4.45v-3.21h4.45Z"/>
        <path class="cls-3" d="m251.56,85.76v.92c0,1.4-.26,2.69-.79,3.87-.53,1.19-1.33,2.21-2.41,3.06-1.08.85-2.41,1.46-4.01,1.82l-1.64-2.96c1.32-.31,2.41-.76,3.28-1.35.87-.59,1.52-1.27,1.94-2.02.42-.76.63-1.56.63-2.42v-.92h3.01Zm5.6-2.09v3.01h-13.5v-3.01h13.5Zm6.82,12.23v7.03h-12.86v3.13h-3.73v-5.88h12.89v-1.38h-12.92v-2.9h16.62Zm.72,8.47v2.93h-17.31v-2.93h17.31Zm-12.44-22.87v3.87h-3.7v-3.87h3.7Zm0,4.28v.92c0,.77.21,1.51.63,2.24.42.73,1.06,1.36,1.94,1.91.87.54,1.96.96,3.26,1.25l-1.59,2.93c-2.36-.54-4.15-1.55-5.39-3.04-1.23-1.49-1.85-3.25-1.85-5.28v-.92h3.01Zm10.47,1.78v3.07h-6.18v-3.07h6.18Zm1.25-5.94v13.34h-3.73v-13.34h3.73Z"/>
        <path class="cls-3" d="m295.32,92.3v3.04h-22.69v-3.04h22.69Zm-16.65,6.17v6h-3.73v-6h3.73Zm14.73,5.48v3.07h-18.46v-3.07h18.46Zm-2.31-21.21v3.07h-15.81v-3.07h15.81Zm-7.27,11.54v6.63h-3.7v-6.63h3.7Zm5.93,0v6.63h-3.65v-6.63h3.65Zm2.95-11.54v2.24c0,1.7-.04,3.19-.12,4.46s-.3,2.71-.65,4.32l-3.65-.37c.33-1.57.54-2.96.61-4.18.07-1.21.11-2.62.11-4.23v-2.24h3.7Z"/>
        <path class="cls-3" d="m306.32,83.07c1.02.51,1.82,1.21,2.41,2.09.58.89.88,1.9.88,3.03s-.29,2.18-.88,3.08c-.58.91-1.39,1.61-2.41,2.11-1.02.5-2.16.75-3.42.75s-2.43-.25-3.45-.75c-1.02-.5-1.82-1.2-2.41-2.11-.58-.91-.88-1.93-.88-3.06s.29-2.14.88-3.04,1.39-1.6,2.41-2.11c1.02-.51,2.16-.76,3.42-.76s2.43.25,3.45.76Zm-5.04,2.67c-.46.22-.83.54-1.1.98-.27.43-.4.93-.4,1.51s.13,1.1.4,1.52c.27.42.64.74,1.1.96s.99.33,1.59.33,1.15-.11,1.61-.33c.46-.22.83-.54,1.1-.96.27-.42.4-.93.4-1.52s-.13-1.08-.4-1.51c-.27-.43-.64-.76-1.11-.98-.47-.22-1.01-.33-1.6-.33s-1.12.11-1.59.33Zm15.39,9.74v7.2h-13.06v3.04h-3.65v-5.83h13v-1.43h-13.06v-2.99h16.76Zm.61,8.67v2.98h-17.31v-2.98h17.31Zm-.61-22.56v12.89h-3.73v-12.89h3.73Z"/>
        <path class="cls-3" d="m333.76,84.23v2.98h-14.73v-2.98h14.73Zm-4.13,4.49c.96.41,1.69,1,2.21,1.76.52.77.78,1.65.78,2.64s-.26,1.85-.78,2.61c-.52.77-1.26,1.35-2.21,1.76-.96.41-2.03.62-3.22.62s-2.25-.21-3.19-.62c-.94-.41-1.67-1-2.19-1.76-.52-.76-.78-1.64-.78-2.61s.26-1.88.78-2.64c.52-.76,1.25-1.35,2.19-1.76.94-.41,2-.62,3.19-.62s2.26.21,3.22.62Zm-3.3,10.72v5.77h-3.76v-5.77h3.76Zm13.36,4.48v3.07h-17.12v-3.07h17.12Zm-15.16-12.34c-.47.36-.71.88-.71,1.55,0,.63.24,1.13.71,1.49.47.36,1.1.54,1.88.54s1.43-.18,1.89-.54c.46-.36.7-.86.7-1.49,0-.67-.23-1.19-.7-1.55-.46-.36-1.1-.54-1.89-.54s-1.41.18-1.88.54Zm3.74-10.04v4.13h-3.73v-4.13h3.73Zm10.52.03v19.34h-3.76v-19.34h3.76Zm3.31,7.83v3.16h-4.34v-3.16h4.34Z"/>
        <path class="cls-3" d="m359.05,95.15c-1.74,3.15-4.6,5.75-8.59,7.82l-2.09-2.93c2.21-1.15,4.02-2.46,5.43-3.93,1.41-1.47,2.46-3.12,3.15-4.95.69-1.83,1.03-3.93,1.03-6.3v-.66h3.67c0,4.15-.87,7.8-2.6,10.95Zm.85-10.95v3.07h-10.13v-3.07h10.13Zm8.43-2.67v25.86h-3.76v-25.86h3.76Zm3.45,9.84v3.16h-4.4v-3.16h4.4Z"/>
        <path class="cls-3" d="m382.88,91.9c-2,2.34-4.88,4.02-8.64,5.05l-1.42-3.04c2.97-.78,5.23-1.96,6.79-3.52,1.56-1.56,2.34-3.32,2.34-5.29v-1.92h3.92c0,3.48-1,6.39-2.99,8.72Zm1.49-8.72v3.07h-10.16v-3.07h10.16Zm9.19,14.78v9.38h-3.73v-6.34h-13.39v-3.04h17.12Zm-3.34-6.77v3.07h-5.79v-3.07h5.79Zm.22-5.48v3.01h-5.76v-3.01h5.76Zm3.12-4.13v15.32h-3.73v-15.32h3.73Z"/>
        <path class="cls-3" d="m145.23,135.6v3.16h-22.69v-3.16h22.69Zm-6.6-17.43c1.43.62,2.56,1.51,3.38,2.65.83,1.15,1.24,2.45,1.24,3.9s-.41,2.81-1.24,3.95c-.83,1.14-1.95,2.02-3.38,2.64-1.43.62-3.02.93-4.76.93s-3.36-.31-4.8-.93c-1.44-.62-2.57-1.5-3.38-2.64-.82-1.14-1.22-2.45-1.22-3.95s.41-2.75,1.22-3.89c.82-1.14,1.94-2.02,3.38-2.66,1.44-.63,3.04-.95,4.8-.95s3.33.31,4.76.93Zm-7.75,2.73c-.86.35-1.54.86-2.02,1.52-.48.66-.72,1.43-.72,2.31s.24,1.68.72,2.34c.48.66,1.15,1.16,2.02,1.51.86.34,1.86.52,2.99.52s2.08-.17,2.95-.52c.87-.34,1.55-.85,2.05-1.51.49-.66.74-1.44.74-2.34s-.25-1.65-.74-2.31c-.49-.66-1.17-1.17-2.03-1.52-.86-.35-1.85-.53-2.96-.53s-2.13.18-2.99.53Z"/>
        <path class="cls-3" d="m169.76,135.89v3.13h-22.69v-3.13h22.69Zm-2.51-18.25v8.7h-13.92v4.25h-3.7v-7.26h13.89v-2.64h-13.92v-3.04h17.65Zm.53,11.45v3.07h-18.15v-3.07h18.15Zm-7.54,1.98v6.08h-3.73v-6.08h3.73Z"/>
        <path class="cls-3" d="m183.84,120.22v2.61c0,2.05-.19,3.99-.56,5.83-.37,1.84-.97,3.49-1.8,4.96-.83,1.47-1.88,2.62-3.16,3.44l-2.2-2.84c1.15-.76,2.09-1.75,2.83-2.97.73-1.21,1.26-2.53,1.57-3.95.31-1.42.47-2.91.47-4.48v-2.61h2.84Zm4.37-1.69v3.13h-11.16v-3.13h11.16Zm-3.56,1.69v2.61c0,1.53.16,2.98.47,4.33.32,1.36.83,2.6,1.53,3.73.71,1.13,1.64,2.05,2.81,2.75l-2.2,2.78c-1.28-.78-2.32-1.87-3.13-3.24-.81-1.38-1.39-2.95-1.75-4.72-.36-1.77-.54-3.65-.54-5.64v-2.61h2.81Zm5.93,4.56v3.13h-4.12v-3.13h4.12Zm2.48-8.38v24.28h-3.48v-24.28h3.48Zm5.12-.43v25.86h-3.54v-25.86h3.54Z"/>
        <path class="cls-3" d="m222.96,127.48v3.1h-22.58v-3.1h22.58Zm-6.69,5.19c1.35.4,2.38.97,3.1,1.71.72.74,1.09,1.6,1.09,2.6s-.36,1.89-1.09,2.62-1.76,1.3-3.1,1.69c-1.35.39-2.93.59-4.75.59s-3.37-.2-4.7-.59c-1.34-.39-2.37-.96-3.09-1.69-.72-.74-1.09-1.6-1.09-2.6s.36-1.89,1.09-2.64c.72-.75,1.76-1.31,3.1-1.71,1.35-.39,2.92-.59,4.72-.59s3.37.2,4.72.6Zm2.46-15.53v3.04h-15.84v-3.04h15.84Zm-10.02,18.05c-.78.15-1.37.38-1.77.67-.4.3-.6.67-.6,1.11s.2.81.6,1.1c.4.3.99.52,1.77.67.78.15,1.73.23,2.84.23s2.04-.08,2.83-.23c.79-.15,1.38-.38,1.78-.67.4-.3.6-.67.6-1.1s-.2-.81-.6-1.11c-.4-.3-.99-.52-1.78-.67-.79-.15-1.73-.23-2.83-.23s-2.06.08-2.84.23Zm3.67-12.17v5.22h-3.73v-5.22h3.73Zm7.93-5.88v2.12c0,1.4-.04,2.61-.11,3.63-.07,1.02-.27,2.12-.58,3.29l-3.67-.4c.28-1.19.45-2.24.53-3.17.07-.93.11-2.04.11-3.34v-2.12h3.73Z"/>
        <path class="cls-3" d="m234.11,124.47v1.4h-9.69v-1.4h9.69Zm-2.67,3.39c.64.39,1.14.93,1.49,1.62.36.69.53,1.47.53,2.34s-.18,1.68-.53,2.38c-.36.7-.85,1.24-1.49,1.62-.64.38-1.36.57-2.16.57s-1.52-.19-2.15-.57-1.12-.92-1.48-1.62c-.36-.7-.53-1.49-.53-2.38s.18-1.65.53-2.34c.36-.69.85-1.23,1.48-1.62.63-.39,1.35-.59,2.15-.59s1.52.2,2.16.59Zm-3.54,1.26c-.4.27-.72.63-.95,1.1-.23.47-.35,1-.35,1.6s.11,1.13.35,1.6c.23.47.55.83.95,1.1.4.27.86.4,1.38.4s.98-.13,1.39-.4c.41-.27.73-.63.96-1.1.23-.47.35-1,.35-1.6s-.12-1.11-.35-1.58c-.23-.47-.55-.85-.96-1.11s-.87-.4-1.39-.4-.98.13-1.38.4Zm2.2-7.57v3.77h-1.65v-3.77h1.65Zm6.61-.09v18.6h-1.58v-18.6h1.58Zm3.14,8.01v1.42h-3.74v-1.42h3.74Zm1.05-8.49v20.09h-1.58v-20.09h1.58Z"/>
        <path class="cls-3" d="m261.06,136.87v1.42h-17.66v-1.42h17.66Zm-2.27-14.03v1.42h-11.47v7h-1.65v-8.43h13.12Zm.22,7.81v1.4h-13.34v-1.4h13.34Z"/>
        <path class="cls-3" d="m271.25,121.97v5.37h-7.15v3.74h-1.63v-5.1h7.15v-2.62h-7.19v-1.4h8.82Zm-2.27,8.04c1.4-.09,2.84-.26,4.32-.5l.2,1.42c-1.51.26-2.97.43-4.38.52-1.4.08-3.1.13-5.09.13h-1.56v-1.42h1.56c1.9,0,3.55-.05,4.94-.14Zm-2.47,3.03v2.43h9.26v-2.43h1.65v7.76h-12.56v-7.76h1.65Zm0,6.34h9.26v-2.53h-9.26v2.53Zm10.91-18.39v11.02h-1.69v-11.02h1.69Z"/>
        <path class="cls-3" d="m282.86,122.95v12.42h-1.67v-12.42h1.67Zm9.26,10.47l.22,1.47c-1.63.34-3.23.58-4.79.73-1.56.15-3.15.23-4.77.23h-1.6v-1.49h1.6c3.31,0,6.42-.31,9.33-.94Zm3.72-12.44v20.09h-1.65v-20.09h1.65Z"/>
        <path class="cls-3" d="m308.51,122.95v1.4h-7.39v10.91h-1.65v-12.31h9.04Zm-2.55,11.5c1.34-.09,2.7-.28,4.06-.55l.2,1.47c-1.43.28-2.82.46-4.2.55-1.37.09-3.06.14-5.04.14h-1.51v-1.47h1.51c1.97,0,3.63-.05,4.98-.14Zm7.6-13.5v20.13h-1.67v-20.13h1.67Zm3.23,7.99v1.45h-3.63v-1.45h3.63Z"/>
        <path class="cls-3" d="m319.08,137.7c.2.21.3.48.3.82s-.1.63-.3.85c-.2.21-.46.32-.79.32s-.6-.11-.81-.33c-.22-.22-.32-.5-.32-.84s.1-.61.31-.82c.21-.21.48-.31.82-.31s.59.1.79.31Z"/>
      </g>
      <g>
        <circle class="cls-3" cx="221.68" cy="13.73" r="13.73"/>
        <path class="cls-2" d="m224.93,12.77l-4.88,5.56h6.6v1.93h-9.59v-1.75l6.06-6.92c.78-.88,1.08-1.59,1.08-2.51,0-1.61-1.06-2.75-2.55-2.75-1.59,0-2.55,1.1-2.55,2.75v.42h-2.25v-.44c0-2.59,1.73-4.68,4.8-4.68s4.78,2.09,4.78,4.68c-.02,1.51-.34,2.39-1.49,3.71Z"/>
      </g>
    </g>
  </g>
</svg>