<?xml version="1.0" encoding="UTF-8"?>
<svg id="_레이어_2" data-name="레이어 2" xmlns="http://www.w3.org/2000/svg" viewBox="0 0 622.23 8.23">
  <defs>
    <style>
      .cls-1 {
        fill: #ff4d3b;
        stroke-width: 0px;
      }
    </style>
  </defs>
  <g id="Layer_1" data-name="Layer 1">
    <g>
      <path class="cls-1" d="m.15,4.8c-.33.17-.14.56.76.48l.64-.67-1.4.18Z"/>
      <path class="cls-1" d="m6.23,5.99c1.06-.33,2.28-.9,1.59-1.5-1.05.64-1.3.38-2.43,1.14-.9.08-1.58-.2-1.43-.45-.32.17-1.4-.14-1.89.28,1.18.51,2.67.52,4.22.09.33.14.01.32-.06.44Z"/>
      <path class="cls-1" d="m94.44,6.57l-.57-.08c.16.04.35.07.57.08Z"/>
      <path class="cls-1" d="m149.09,6.65c-.42.02-.59.08-.61.14.39-.05.7-.09.61-.14Z"/>
      <path class="cls-1" d="m158.43,7.33c-.2-.02-.37-.03-.55-.04.21.06.42.09.55.04Z"/>
      <path class="cls-1" d="m94.44,6.57l1.46.2c.1-.22-.75-.16-1.46-.2Z"/>
      <path class="cls-1" d="m18.38,4.33c-.31.03-.56.1-.79.18.25-.03.49-.05.74-.07.01-.04.02-.07.05-.1Z"/>
      <path class="cls-1" d="m70.35,7.23h-.44c-.13.08-.25.17-.37.27l.81-.27Z"/>
      <path class="cls-1" d="m51.86,7.43c.42.02.56-.54.72-.79-.24.23-.54.34-.91.39,0,.11.05.23.19.4Z"/>
      <path class="cls-1" d="m22.54,6.59l-.52.08c.14-.02.36-.05.52-.08Z"/>
      <path class="cls-1" d="m83.58,7.29c.03.08.1.16.17.2,0-.07-.07-.14-.17-.2Z"/>
      <path class="cls-1" d="m600.7.39s0,.07,0,.1c.11-.06.14-.1,0-.1Z"/>
      <path class="cls-1" d="m622.15,3.07l-.3.03c-.03.11-.06.21-.06.32l.36-.35Z"/>
      <path class="cls-1" d="m175.51,7.97s-.04,0-.08-.01c-.45.07-.19.05.08.01Z"/>
      <path class="cls-1" d="m332.27,6.74c-1.78-.49,2.89-.66.21-1.2.25.22-2.43.89-.21,1.2Z"/>
      <path class="cls-1" d="m18.86,4.41c.25,0,.5-.01.76,0-.35-.02-.58-.01-.76,0Z"/>
      <path class="cls-1" d="m332.48,5.54h0s-.28-.06-.28-.06c.11.02.18.04.28.06Z"/>
      <path class="cls-1" d="m214.85,7.43c-.08-.1-.24-.17-.4-.24.01.06.1.13.4.24Z"/>
      <path class="cls-1" d="m185.53,6.78l.73.07c-.29-.05-.52-.07-.73-.07Z"/>
      <path class="cls-1" d="m230.07,6.55c.39.04.53.12,1.07.04-.05-.03-.1-.05-.16-.07-.19.08-.45.12-.9.03Z"/>
      <path class="cls-1" d="m245.91,6.47c-.08-.04-.2-.07-.29-.11-.16.01-.34.02-.5.03l.79.08Z"/>
      <path class="cls-1" d="m552.56.91c.35.16.57.33.73.5-.25-.4,2.08-.55-.73-.5Z"/>
      <path class="cls-1" d="m18.39,4.65c.09-.14.23-.21.47-.24-.18,0-.36.02-.53.03-.05.08-.06.16.06.21Z"/>
      <path class="cls-1" d="m230.69,2.12l2.52.07c-.7-.05-1.62-.07-2.52-.07Z"/>
      <path class="cls-1" d="m438.92,1.58l.58-.07c-.22-.01-.43,0-.58.07Z"/>
      <path class="cls-1" d="m240.67,2.06c.45.2.93.31,1.42.38.1-.05.22-.08.29-.15l-1.71-.23Z"/>
      <path class="cls-1" d="m553.3,1.42s0,0,0,0c0,0,0,0,0,0Z"/>
      <path class="cls-1" d="m569.87,0c-2.4,0-1.12.73-1.63,1.16-2.86.22-1.33-.54-2.3-.91-1.79.21-3.15.89-4.49.87-.1-.12-.36-.16-.06-.32-1.89.6-5.61.06-7.81.81-.16-.06-.25-.13-.29-.18.36.37.41.74.34,1.01-1.07.02-1.99.48-2.4,0,.66.01.71-.18,1.02-.34l-1.12.22c-1.02-.69,1.54-.25,1.53-.76-2.2.24-4.75.82-6.44.64-.35-.68,3.94-.25,1.69-.84l2.61.25c-2-1.06,1.58.07-.25-1.07-3.43-.18-3.83.37-7.25.19-.77.38.26.56-.51.94-4.86.7-3.83-1.69-7.4-.77-.92.46-1.28,1.32-3.82.88l.86-.77c-3.32-.06-1.89,1.11-5.37.61.62-.31,2.61-.27,2.1-.36-2.25-.59-1.59.44-3.32.45l-.36-.68c-3.53.13-7.42.64-11.33.78.22-.2.88-.42-.03-.62-4.93.37-10.54-.03-15.3-.41l-1.82.6c-.42,0-.79-.26-.33-.38-1.86-.21-.09.37-.98.61-1.06.05-1.4-.33-.73-.51-3.27.51-9.32,1.12-12.77.51l.67-.18c-2.69-.22-3.02,1.22-5.52.68l.48-.11c-5.83-.22-12.27.35-16.72-.52-.84.85-5.77-.35-6.14.83-3.33-.57-2.38-.78-7.07-1.15-1.25-.05-1.86.75-3.41.88l-.04-.62-2.1.66-1.12-.73-1.45.17c.58.03,1.23.27,1.14.45-2.27.29-5.53-.4-5.59-.72l-5.36.55c.12-.25,1.02-.34,1.73-.5-2.86.64-.52-.65-3.14-.06.35.14-.19.37-.25.49-1.31-.37-4.29-.35-6.49-.19l.42-.43c-3.98-.09-8.39.25-12.85.26,1.6.19,1.24.93-.07,1.01l-.53-.65c-.84.41,1.37.24-.36.74-1.67-.07-1.13-.73-.17-.95l-2.03.24c-.12-.19.35-.3.48-.55-.83.41-3.5-.64-4.7.07l-.12-.19c-4.46.02-6.49.25-10.13.3-.07.56-1.49.45-2.57.91-2.67-.17-5.64-.59-8.86-.53-2.26.29-.66.48-1.67.82-.17-.51-3.38-.45-1.72-.82-3.86.1-4.94.13-9.82.57.53.21,1.13.3.82.47-.89.09-2.02-.2-1.89-.45l.23-.05c-5.48.8-12.67-1.43-17.03-.34l.24-.05-4.53.58c-2.08-.08,1.25-.39-.3-.7-4.88.88-7.72-.08-11.74.51-3.12-1.5-11.05.16-15.27-.78l.24.35c-1.08.35-1.32-.2-2.12-.27.11.28,1.18.31.51.51-9.2.48-19.01-.42-28.45-.69-3.45-.08-1.95,1.85-6.31,1.02l1.23-.67c-6.96.83-14.25.05-21.06.75.41-.15.42-.35,1.08-.35-1.44-.47-5.33,0-5.35.4-1.06-.04-.25-.35-.9-.55-1.45-.28-3.62.63-4.39.16-.13-.08.41-.16.67-.2-.94.24-4.39-.04-3.48.51-2.56-.25-4.9.27-6.94-.05-1.33.63-4.38-.28-4.8.6.18-.91-4.49-.71-6.11-.27.54-.28-1.41-.28-.78-.66-1.85.02-3.54.2-3.21.66-3.41-1.07-6.84.91-8.76-.47-5.48.51-10.56.87-15.49,1.11.17-.9,5.46-.12,5.24-1.06-4.68.4-7.38,1.18-12.02.99-1.2-.12.68-.4,1.09-.55-4.68.4-9.05-.04-13.2.48.01-.08.46-.18.88-.25-.82.03-1.91-.12-1.81.29l.8-.12c1.31.59-3.25,1.26-3.4,1.58,1.39-1.18-4.11-.27-1.91-1.77-.54.08-1.22.28-1.09.55-.8-.08-1.06-.23-.25-.55-2.94.24-1.89.67-4.55.67,0-.2.55-.28.82-.51-1.35.39-2.7.79-4.95.63.13-.12-.13-.27.54-.28-3.86.08-6.58,1.07-10.82.71,1.25-.87-1.44-.28-1.67-1.02l-2.28.23.92.36c-2,0-3.76.55-5.48.31l1.48-.32-3.74.16,2.12.27c-2.02.4.22.94-2.44.75.54-.08-2,0-3.04-.43,0,0,0,0,0,0-.99.24-2,.5-3.48.32-.38-.24.3-.83.05-.99-.97.63-4.67.2-5.91.87.41-.16.43-.55.29-.63l-.82.51c-.93-.16-1.06-.24-.91-.55-2.78-.08.89.94-2.41.55.26-.04.13-.12.67-.2-3.32-.2-6.41.35-9.45.12-.9-.75,2.66-.2,1.63-.83-4.39.16-9.09.95-13.35.79l.79.08c-.58,1.06-3.17-.51-5.32,0,.53-.08.69-.59.55-.47-2.91-.16-5.95.29-10.36.65l.55-.28c-1.72-.23-4.52-.12-6.37-.23-.55.27-1.61.24-.96.63-5.72-1.52-10.9.89-15.97-.38.61,0,1.44-.25.96-.24l-4.32.27c.34.46.57.28,1.48.63-.54.28-1.76.5-2.83.5,1.94-.32-.02-.74-.86-1,.14.14-.15.3-.07.44-2.26-.81-.37.93-3.46.39l.16-.24c-1.15.13-2.21.46-3.46.39-.52-.53,1.23-.26,1.3-.7-1.75.04-3.44,1.03-5.02.51.74-.15,1.81-.16,2.55-.31-1.72-.62-1.92-.46-3.2-.55h.13s-2.96-.26-2.96-.26l.75.17c-2.18,1.41-4.45.28-7.39,1.21,2.86-.88.47-.5.69-1.11-.75-.16-1.9-.35-1.57-.52-1.39.5-2.32-.37-4.28.35-.09-.19-1.49-.01-1.18-.5-1.81.16.43.34.28.58-2.78.68-6.56-.77-10.56.16-3.46.39-4.09,1.06-7.3,1.4-1.09-.31.88-.72.88-.72-1.75-.28-3.06-.22-4.71.01.33-.17-.01-.31-.52-.53-1.32.06-.88.71-2.62.44.3-.22.68-.57,1.32-.79-1.56.19-3.09.56-4.7.74-.43-.34.97-.52,1.54-.75-1.81.16-4.69.33-5.25.87l1.16.19c-.66.03-.34-.46.14-.56,1.55-.43,2.24.17,2.33.37l-1.15.13c1.19,1.14,4.61-.21,6.92-.15l-.96.84,2.37-.7c.51.21.85.68-.29.81,1.66.4,1.47-.3,2.89.15.16.07.09.11-.06.14l1.62-.26c-.32.18.27.59-.72.47,2.91.47,4.68-.65,5.78-.02l-.24.05c4.03-.3.39-.61,3.41-1.35l2.04,1.5.39-.61c.42.02,1.24.06,1.09.31,1.55-.43-.27-.26.63-.66,2,.55,5.52-.29,5.98.68.72-.47-1.92-.35.22-.68.62,1.04,2.47-.19,4.3.28-.56.54-2.29.27-.46.74,1.1-.92,3.56.18,5.1,0,.07-.73,3.35-.32,5.94-.58-.16.25,4.87.37,7.28.62l-.07.12c.46-.74,2.95-.61,4.75-.77-.07.44-.39.62-1.37.82h1.7c.4-.25.93-.38,2.03-.47l-.42.55c2.26-.04,4.55-.67,7.47-.32.16-.51-2.32-1.41.75-1.77.12.28.23.75-.57.87.26-.04.94-.23,1.47-.12l-1.23.47c1.33.2.69-.39,1.75-.35-.02.4.79.28.64.59-.27.04-.93-.16-1.33,0,1.2.06,2.64.29,3.12.59-.1-.22,0-.53.87-.59,2.26-.04.78.47,2.1.67.55-.28,1.99,0,2.03-.59.66,0,.79.27,1.04.43,1.17-.27,5.47-.1,4.15-.72l-.3-.04c.06-.01.12-.01.19-.03h0,0c3.84-.61,7.98.29,11.78.02v.2c2.27-.24,5.06-.16,6.68-.59.67,0,1.59.35,1.3.59,1.74-.16,1.93-.38,4.44-.07-1.75.35.6.3-1.79.26,2.26.16,2.77.47,5.19-.08-.82.51,1.7.63,2.78.47l-1.58-.35c1.21-.08,2.26-.04,3.33,0l-.58.67c4.63.79,8.33-1.42,11.85-.08,1.22-.47-2.51-.31-1.42-.86,2.13.08,4.35,1.02,5.01,1.02,2.91.35,2.71-.99,5.76-.75-.39-.23-.76-.87,1.51-1.1,2.13.08,2.62.98,1.28,1.18-.51.02-.76-.05-.74-.13-.69.09-1.59.2-.74.45l.27-.24c1.06.24,3.98.2,3.3.59,1.61-.23.69-.39-.51-.51,2.73.33,4.26-.01,7.07.2-.45-.13-.86-.41-.42-.41,4.12.27,1.81-.46,4.6-.58,1.59.35-.56.87,2.24.55,1.72.24.37.63-.31.82,2.56-.47,4.78.28,6.25.35l-1.35.2c.81-.12,1.47-.12,2.14-.12l-.77-.47c.79.08,1.46.08,1.45.27.81-.32-.63-.79.99-1.22,1.06.24,3.21-.28,3.58.35-3.32-.2.37.63-2.44.75.54-.08,1.2-.08,2,0,.12.07-.11.13-.33.17,3.18.55,1.46-.72,4.75-.72-.42.36.77.67,1.3.59-1.33,0-.64-.59.58-.87,2.11.27,2.29-.22,3.4-.19l-1.26-.12c.43-.36,1.48-.32,2.95-.44.13.28-1.34.2-.81.32,1.63-.63,3.7.63,5.97.19,1.06.23.11.67,1.03.82,2.55-.47,2.77.47,5.45.08-.78-.47-.91-.36.98-.83l-4.41.36,2.83-.71c-1.33,0-2.81.31-3.61.24,1.35-.4,1.21-.28.57-.67,1.83.71,3.61-.44,5.72.04l-.06,1.18c3.17.51,5.62-.64,9.73-.36l-1.32-.2c.55-.47,2.54-.08,3.87-.28-.12.4.71.53,1.28.78-.07-.29,3.01.01,3.38-.78l1.84.51c3.32.2,3.78-1.14,6.97-1.03-.96.43.49.71-1.64,1.02,1.07,0,2.02.07,2.04-.21.62.24,2.95-.55,3.93-.18.45-.18.59-.59,1.79-.56.13.08,0,.19,0,.19,0-.19,1.87-.27.82-.71,3.29,1.22,9.17-.14,12.04.91,2.32-.14,5.13-.29,7.24-.33-.13.12,0,.2-.41.16,2.91.35,1.78-1.14,5.1-.75,1.7.63-1.76.35-.7.59.47,1.3,4-.2,6.23.55l-.54.08c1.71.43,4.16-.51,6.94-.44,0,0-.13.12-.02.2,1.9-.67,5.51-.91,8.18-1.11-.83.51-1.22.28-.7.79,1.2-.08-.36-.83,2.04-.98.78.27,2.51.51,2.74,1.06l-2.26.04c1.16.71,2.93-.04,4.12.08l-.15.31c3.46-.12,3.51-.91,7.23-.87l-.39-.23c2.03-.79,1.71.43,3.74-.16l.62.79c1.34-.2,4.7-.79,7.11-.95-1.36.59-4.18.91-5.92,1.26,1.33,0,4.52-.08,5.21-.47-.54.08-1.21.28-1.74.16,1.63-.63,3.78-.95,6.43-.95-.46,1.53,6.92.35,8.85,1.53,4.69-.59,9.31.19,14.78.07-1.94-1.18,1.6-.04,1.25-1.26,1.27-.08,1.76-.07,1.87.01l3.86.71c.92.35-1.21.28-1.09.55,2.79.08,1.17.51,3.02.83-.38-.44.97-.63,2.56-.47l-2.24-.55c3.89-.67,3.37,1.01,7.3.34l-1.24.39c2.01-.24,7.43-.03,9.4-1.02.36.14.83.47-.06.56,4.82.12,10.72-1.1,14.46-.51l-.36.3c.9-.09,1.56-.57,2.69-.27-.06.12-.36.3.06.32.48-.11,2.38-.54,3.58-.37l-1.02.34c4.7.37,7.21-.86,11.14-1.08,0,.88,3.69,1.15,5.54,1.28l-.06.12c5.47.08,9.29-.78,14.35-1.15,3.15.94,10.65.34,15.71.85-.77-.16.12-.69,1.02-.78,1.19.17,3.28-.63,3.09.18h-.42c.9.77,3.33.55,5.24.56l.31-1.06c4.99,1.51,13.04-.63,15.76.73,1.2-.27,2.69-.28,3.88-.54l-.06.57c3.33.13,4.99.19,9.1.03l-.84.41c2.32.02,2.92-1.65,5.06-1.69l.65.84c4.05-.03,8.15.69,12.15-.1-.06.12-.18.37-.84.41,1.91.01,7.37.53,6.68-.62.05.76,4.18.05,6.36-.29l-.34.56c1.84-.72,1.9-.92,4.48-1.13.61.07.54.44-.27.3,2.04.28,1.58-.54,4.05-.25l-.92.36c2.09.03,1.93-.16,3.08-.58,1.32-.23,3.97.12,4.28.62.28-.31,1.43-.73,2.66-.59.17.19-.28.31-.51.37,3.5.36,5.2-.67,7.61-.14.05.18.21.28.41.33-2.78,0-5.02-.02-4.81-.06,0,.51,2.25.59.47,1.31,1.8-.4,4.88-1.25,7.07-1.02.11.05.21.1.29.18l-.23.06c.51.05.96,0,1.38-.09.7.08,1.14.14,1.81.15.26.42,2.58.22,3.7.23-.1-.56,1.37-.48,0-.94.18.04-.21.07-.96.1-.17.02-.37.03-.48.06.02-.02.05-.03.08-.05-.74.02-1.69.04-2.78.05.88-.29,1.81-.53,3.05-.23.57-.36,1.2-.74,1.56-.92,1.54.78,4.49,1.19,4.91,1.67,3.42-.33,8.06-.25,10.2-1.32.97-.14,1.12.3,1.48.46-.56.11-1.23.1-1.53.25,1.94-.28,5.76-.14,6.22-.88,2.45.32-1.37.69,1.99.55l-.45.23c6.63,1.15,10.76-1.94,18.11-.46-.51-.09-.76-.13-.87-.25,8.38.62,17.25-.72,25.52.3,2.35.2,2.6-.27,4.03-.64l.51.6,2.45-.71c3.47-.53,6.03,1.45,10.42.46l-.57-.4c1.58.07,5-.27,4.74.2.16-.08.52-.43,1.14-.22l.05.32,3.88-.56c3.01.21-.46,1.26,3.93,1.3,1.63-.13,4.64-.94,4.03-1.15-.66-.01-1.68-.19-1.74-.5l1.49-.17c.27-.93,1.41-1.89-2.26-2.52l-2.55.58-.83-.45,2.15-.04c-1.22-.42-1.99-.04-2.86.22-.21-.24-.57-.41-1.07-.49l-2.5.9c-.31-.36,1.12-.73-.56-.92-1.17.42,1.13.81-.81,1.09-1.22-.42-.87-.76-2.3-.39-.2-.24.1-.39.67-.5-1.28.29-3.38.14-4.03.64-1.28-.52-4.31.16-4.19-.72-.4.21-2.24.7-3.42.75,2.14-1.07-4.39-.04-3.83-1.17-1.58.96-5.72.45-8.53.99.16-.08.46-.23.71-.18-1.58-.07-2.04-.35-3.06-.53-.2.78-2.66.98-3.98,1.47-1.94-.75,1.17-.93.56-1.65.1.63-3.36.65-2.7,1.18-1.48-.46-1.28-.22-2.04-.87-.25.98-1.38.17-2.6.78-2.15-.47-.56-.92-2.91-.61C567.78.36,569.87,0,569.87,0Zm-56,1.98h0c.48-.03.89-.04,1.16-.05-.24,0-.57.02-1.16.05Zm-4.71.03c.57.02,1.29.02,2.04.01.17.19-.01.39-.49.39.26-.13-.85-.24-1.56-.4Zm9.98,3.84c-.74.08-.99-.03-1.1-.14.35-.01.76-.03,1.3-.07.02-.02.07-.05.09-.07-.07.11-.15.21-.29.28Z"/>
      <path class="cls-1" d="m520.47,5.12c.11-.01.17-.04.31-.04-.15-.05-.3-.09-.45-.12-.09.06-.18.12-.26.18.14,0,.27,0,.4-.01Z"/>
      <path class="cls-1" d="m93.77,6.48h.1c-.08,0-.16-.03-.21-.07.07.03.07.04.11.07Z"/>
      <polygon class="cls-1" points="444.16 1.28 444.16 1.42 444.57 1.29 444.16 1.28"/>
      <path class="cls-1" d="m67.83,4.69s-.15-.1-.34-.14c.01.04.16.09.34.14Z"/>
      <path class="cls-1" d="m56.64,4.62l-1.59-.19c.69.11,1.19.16,1.59.19Z"/>
      <path class="cls-1" d="m48.02,4.38c-.11.1-.14.17-.17.24,0,0,.01,0,.02,0l.15-.25Z"/>
      <path class="cls-1" d="m184.92,3.02c.12,0,.23-.01.33-.03.78-.11.25-.07-.33.03Z"/>
      <path class="cls-1" d="m144.19,4.54c.43-.1.86-.21,1.31-.27-.73-.04-1.29-.05-1.31.27Z"/>
      <path class="cls-1" d="m230.41,2.11s0,0,0,0c.1,0,.18,0,.28,0h-.28Z"/>
      <path class="cls-1" d="m147.39,4.27c-.73-.11-1.33-.08-1.89,0,.59.03,1.3.09,1.89,0Z"/>
      <path class="cls-1" d="m10.7,4.32l-.41-.02s-.02.07-.05.09l.46-.07Z"/>
      <path class="cls-1" d="m10.24,4.39l-.46.07c.21,0,.39,0,.46-.07Z"/>
      <path class="cls-1" d="m8.81,4.61l.97-.15c-.34,0-.75-.02-.97.15Z"/>
      <path class="cls-1" d="m22.1,4.52l.13-.2c-.07.04-.12.11-.13.2Z"/>
      <path class="cls-1" d="m25.57,4.45c-.83-.04-2.08-.42-3.23-.29l-.11.16c.54-.31,2.55.48,3.33.13Z"/>
      <path class="cls-1" d="m40.04,6.89l-2.9-.15c.51.21,1.18.5-.14.56,3.66.63-.76-.48,3.05-.41Z"/>
      <path class="cls-1" d="m49.04,7.16c-1.56.11.02.32-.06.44.99-.2,1.23-.25.06-.44Z"/>
      <path class="cls-1" d="m114.08,6.83l-.15.51c1.2-.08.01-.2.15-.51Z"/>
      <polygon class="cls-1" points="126.5 4.12 125.33 3.81 124.77 4.28 126.5 4.12"/>
      <polygon class="cls-1" points="133.86 7.73 133.34 7.8 135.34 7.61 133.86 7.73"/>
      <path class="cls-1" d="m243.09,6.98l-.37-.63c-.81.12-.98.83.37.63Z"/>
      <path class="cls-1" d="m290.25,6.1c.51.31,1.84.51,2.66.19-1.06-.04-2.12-.28-2.66-.19Z"/>
      <polygon class="cls-1" points="431.68 6.39 430.73 6.61 432.52 6.42 431.68 6.39"/>
    </g>
  </g>
</svg>