<?xml version="1.0" encoding="UTF-8"?>
<svg id="_레이어_2" data-name="레이어 2" xmlns="http://www.w3.org/2000/svg" viewBox="0 0 250.78 97.44">
  <defs>
    <style>
      .cls-1 {
        fill: red;
        stroke-width: 0px;
      }
    </style>
  </defs>
  <g id="Layer_1" data-name="Layer 1">
    <g>
      <path class="cls-1" d="m108.41,88.92c-.06,0-.23-.15-.21-.16.31-.25.37-.46-.21-.67-.39-.14-.93-.23-.97-.58,0-.01-.33-.04-.33-.03-.12.3-.8.23-.99.49-.18.25-.7.13-1.05.2-.03,0-.22-.12-.21-.17.08-.45-.09-.71-.63-.82-.06-.01-.27.08-.26.12.02.14.11.27.16.41.09.26-.07.33-.45.16-.46-.21-.93.13-1.35-.06-.46-.21-1.1-.06-1.51-.33-.67.28-1.37-.23-2.03-.07-.69.17-1.23,0-1.76-.26-.27-.13-.38-.04-.49.07-.08.08-.18.15-.24.23-.26.31-.63.37-1.13.12-.17-.08-.22-.06-.34.05-.11.1-.31.2-.5.22-1.95.21-3.9.4-5.85.61-.35.04-.61-.02-.89-.13-.04-.02-.23.05-.28.11-.18.17-.41.22-.77.17-1.25-.18-1.86-.15-2.54.21-.37.2-.66.18-1.01.01-.19-.09-.26-.09-.33.05-.15.26-.6.26-.97.27-.2,0-.46-.16-.63-.13-.24.03-.39.21-.62.26-.18.03-.46-.02-.65-.08-.46-.16-.74-.08-.95.14-.04.04-.08.08-.12.11-.36-.22-.88-.13-1.28-.25-.1-.03-.21-.18-.17-.24.18-.29.34-.58,1.04-.6,1.25-.04,2.09-.43,2.71-1,.1-.09.47-.2.55-.17.49.22.7.12,1.07-.09.27-.15.9-.11,1.36-.15.45.31.71.06,1.01-.07.34.19.71.18,1.11.12.46-.06.93-.14,1.4-.14.63,0,.86-.32,1.33-.42.51-.11,1.22-.03,1.59-.2.39-.18.56-.3,1.07-.09.22.09.59-.12.55-.29-.02-.09-.09-.18-.11-.27-.08-.36.1-.43.83-.27.24.05.39.11.51-.05.06-.08.17-.15.24-.23.03-.03.07-.08.05-.1-.04-.04-.14-.08-.2-.08-1.01.09-2.03.18-3.04.29-.27.03-.53,0-.59-.14-.13-.31-.43-.4-.86-.28-.52.15-.86-.23-1.34-.16-.37.06-.56-.16-.85-.22-.23-.05-.27-.11-.14-.19.05-.03.11-.07.12-.11.12-.3.79-.24.96-.5.18-.27.31-.56.51-.83.12-.16.33-.3.48-.45.09-.09.2-.09.35.02.05.03.07.08.08.13.1.31-.5.56-.07.95.05-.07-.11-.14-.25-.04-.32.24-.58.51-.86.77,0,0,.07.06.12.08.06.02.14.04.21.05.49.03.54-.26.84-.37.18-.07.36-.13.54-.19-.19-.08-.38-.16-.61-.31.13-.15.34-.21.44-.31.26-.28.59-.49,1.22-.5.17,0,.29-.18.46-.25.38-.15.8-.24,1.27-.07.21.07.29.08.52-.02.69-.31.83-.28,1.05.16.09.18.14.36.25.53.02.04.29.08.34.05.38-.19.72-.4,1.1-.59.03-.01.22.08.33.12l-.3.98c-1,.11-1,.72-1.56,1.05-.29.18.14.19.25.27.09.07.17.14.08.31-.11.13-.01.18,0,.17.09-.04.17-.09.22-.15.02-.03,0-.1-.05-.11-.04-.02-.16,0-.2.02-.07.05-.11.12.02.08.45-.17.82-.09,1.02-.28.1-.1.3-.2.49-.23.43-.07.87-.03.77-.48-.1-.44.96-.49,1.25-.84.49.1,1,.18,1.48.29.3.07.55.22.84.31.37.12.11.21.03.3-.07.08-.17.15-.24.23-.07.07-.14.15-.21.22.14.03.3.09.43.08.4-.02.97,0,1.14-.13.53-.41,1.32-.41,2.07-.46.34-.03.73.15,1.09.15.76,0,1.49-.28,2.29.05.08.03.38-.1.55-.17.62-.27.69-.31,1.42-.15.33.07.68.15.82-.02.25-.31.73-.29,1.18-.34,1.01-.11,2.03-.21,3.05-.31,1.02-.1,2.03-.21,3.05-.31,1.09-.11,2.21-.18,3.28-.35.94-.14,2.15.07,2.75-.54.68.36,1.35.08,2.03.08.48,0,.58-.23.85-.35.67.4,1.36,0,2.03.1.11.02.18.14.09.31-.11.13-.01.18,0,.17.09-.04.17-.09.22-.15.02-.03,0-.1-.05-.11s-.16,0-.2.02c-.07.05-.11.12.02.08.89-.23,1.83-.08,2.21-.59.74.08,1.01-.34,1.57-.43.68-.11,1.39-.18,2.11-.22.75-.03,1.47-.37,2.28,0,.36-.11.57-.32,1.08-.36,1.26-.09,2.51-.24,3.75-.37.3-.03.74-.05.84-.16.26-.3.76-.27,1.2-.33.46-.06,1.09-.01,1.37-.17.37-.21.59-.33,1.05-.08.68-.06,1.31-.18,2.05.06.39.12.57-.22.79-.39.46-.35.68-.4,1.57-.22.34.07.68.13.8-.06.29-.42,1.44-.14,1.62-.64,0-.02.47-.02.64.05.5.2,1.07.14,1.29-.02.32-.24.71-.3,1.17-.35.22-.02.52-.03.64-.12.6-.43,1.47-.39,2.32-.4.49.28.59.02.81-.14.08-.05.33-.08.45-.05.33.09.48.24.91,0,.54-.31,1.2-.61,2.15-.61.63,0,1.26-.1,1.87-.18.24-.03.35-.15.24-.31-.12-.16.02-.27.27-.3.37-.04.71-.11,1.14.03.54.19,1.03.11,1.41-.19.29-.23.76-.24,1.26-.14.17.04.32.23.53.02.26-.26.46-.56,1.08-.62.31-.39.75-.36,1.32-.11.09.04.41.02.44-.03.29-.41.98-.37,1.58-.44.7-.08,1.41-.14,2.11-.22.62-.06,1.25-.13,1.87-.19.31-.48,1.14-.38,1.8-.46.34-.04.48-.18.72-.28.34-.15.67-.31,1.01-.46.28-.12.75-.03,1-.26.33-.3.72.14,1.18.04.91-.19,2.11-.06,2.5-.76.02-.04.1-.1.14-.1.74.07,1.02-.33,1.57-.44.84-.17,1.91-.03,2.52-.54.05-.04.45.02.64.08.32.11.62.14.83-.02.19-.15.34-.28.71-.29.67-.01,1.19-.14,1.47-.52.25-.34.8-.36,1.39-.21.2.05.35.16.52-.01.26-.26.92-.29,1.09-.61.09-.18.33-.27.69-.3.47-.03.94-.14,1.41-.13.59.01.62-.37,1.09-.41.38-.03.74-.06.97-.29.26-.25.86-.14,1.29-.22.43-.08.51-.43,1.09-.41.3.01.77-.02.87-.12.26-.28.75-.26,1.15-.37.44-.12.73-.4,1.17-.54.57-.18.87-.55,1.65-.6,1.04-.06,1.05-.09,2.13-.61.24-.12.45-.21.77-.24.45-.05.88-.06,1.18-.33.25-.23,1.12-.04,1.28-.45.39-.06.58-.25.87-.36.31-.12.61-.22.82-.41.12-.11.61-.01.78.14.04.04.02.1.07.13.13.09.19.22.48.05.43-.24.1-.62.48-.85.13-.08.1-.28.42-.21.11.02.16.15.24.22.25.24.28.24.44.12.29-.21.24-.51.42-.71.24-.28,1-.14,1.48-.28.12-.03.14-.19.26-.21.64-.12.9-.44,1.2-.74.24-.24.5-.42,1.06-.43.18,0,.38-.13.49-.23.47-.41.9-.83,1.37-1.24.24-.21.35-.65,1.1-.25.18-.38.81-.34,1.3-.44.08-.02.13-.16.1-.23-.08-.31.22-.52.6-.65.27-.09.5-.11.46-.36-.07-.4.58-.6.81-.92.5.03.57-.25.87-.36.24-.09.68-.03.88-.14.17-.09.06-.33.17-.48.18-.24.42-.47,1.01-.46.35,0,.4-.13.49-.33.21-.46-.07-1.11,1.13-1.26.08-.01.15-.15.13-.23-.12-.37.06-.36.57-.18.32.11.77,0,.74-.14-.02-.12-.17-.24-.3-.35-.09-.07-.36-.15-.35-.16.27-.27.67-.51.82-.8.17-.33.29-.66.64-.95.49-.4.84-.86,1.39-1.23.49-.32.29-.77.72-1.07-.34-.3.26-.47.19-.75-.08-.28.2-.52.67-.61.26-.05.47-.14.38-.26-.36-.49.37-.95-.1-1.44-.08-.09.08-.24.1-.37.03-.13,0-.26.05-.38.15-.33.83-.52.61-.96-.05-.09.23-.22.34-.34.11-.11.33-.27.26-.34-.55-.58.26-1.14-.22-1.71-.17-.21-.27-.45-.29-.68-.01-.21.22-.38.26-.61.05-.25.24-.47.11-.76-.82-1.81-1.59-3.62-2.39-5.44-.12-.26.19-.27.47-.35.41-.11.35-.37-.07-.52-.26-.1-.56-.16-.85-.23-.14-.03-.42-.02-.43-.05-.11-.38-1-.47-1.01-.9,0-.27-.17-.55-.73-.67.05-.34-.72-.37-.8-.64-.08-.29-.31-.51-.77-.67-.09-.03-.03-.25.02-.37.19-.4.21-.4-.39-.65-.32-.13-.77-.2-.8-.49-.05-.46-.52-.75-1.22-.96-.53-.16-.79-.39-1.04-.72-.3-.39-.82-.82-1.61-.93-.41-.06-.7-.01-.86-.31-.11-.19-.52-.31-.74-.51-.25-.22-.7-.37-.72-.67-.02-.18-.28-.22-.48-.29-.55-.22-1.12-.41-1.65-.64-.17-.07-.34-.21-.37-.33-.08-.36-.39-.45-.97-.42-.14,0-.34-.38-.53-.39-.87-.06-1.51-.22-1.68-.78-.03-.1-.29-.22-.48-.28-.69-.22-1.24-.63-2.13-.6-.08,0-.25-.12-.28-.2-.1-.28-.27-.51-.78-.66-.58-.18-1.1-.43-1.67-.62-.62-.2-1.11-.52-1.9-.59-.61-.05-.73-.53-1.37-.69-.67-.16-1.26-.46-1.88-.7-.55-.21-1.11-.42-1.66-.63-.42-.16-.83-.32-1.25-.47-.27-.1-.49-.24-.87-.19-.61.08-.41-.42-.76-.42-.62,0-1.04-.19-1.51-.36-.9-.33-1.76-.76-2.73-.95-1.12-.22-1.95-.66-2.92-.99-.43-.15-.92-.03-1.32-.25-.35-.19-.82-.33-1.24-.48-.05-.02-.16,0-.23,0-.48.08-.84-.33-1.33-.15-.48-.18-.97-.37-1.45-.55-.67-.25-1.29-.51-2.12-.61-.66-.08-1.13-.51-1.91-.56-.74-.05-1.31-.62-2.2-.34-.07.02-.28-.07-.41-.12-.42-.16-.81-.35-1.25-.46-.42-.1-.87-.11-1.3-.27-.98-.38-2.3-.27-3.22-.78-.03-.02-.16,0-.23.02-.49.12-.89,0-1.34-.16-.46-.17-.87-.55-1.47-.39-.61.16-1.03-.27-1.58-.14-.29.07-.58.05-.9-.07-.33-.12-.58-.32-1.06-.31-.35,0-.73-.1-1.09-.16-.9-.16-1.83-.27-2.56-.67-.06-.03-.04-.15.02-.19.14-.12.18-.25-.13-.27-.19-.01-.42.08-.57.16-.07.04.05.17.03.25-.02.07-.12.13-.19.19-.42-.16-.9-.28-1.23-.48-.53-.32-1.07.01-1.57-.14-.15-.04-.28-.1-.42-.16-.28-.11-.58-.19-.82-.32-.52-.28-.58.22-.79.14-.69-.24-1.8-.1-2.07-.76-.05-.12-.24-.1-.33.01-.18.22-.5.39-.91.17-.57-.29-1.26.18-1.79-.21-.06-.04-.31-.04-.44-.01-.72.13-1.39.08-2-.24-.53-.28-1.14-.42-1.76-.22-.6.19-1.02-.36-1.57-.14-.06-.06-.17-.12-.19-.18-.1-.35-.1-.35-.37-.32-.94.09-1.87.2-2.81.28-.24.02-.47-.05-.38-.24.15-.07.27-.17.24-.19-.24-.15-.32-.02-.39.08-.02.03,0,.1.05.11s.13,0,.1,0c-.96.08-1.05.09-1.17-.24-.12-.33-.49-.47-.91-.61-.32-.11-.51-.19-.21-.39.15-.1.29-.21.37-.34.22-.34.52-.13.87-.04.14.04.53-.06.56-.14.07-.21.02-.42.27-.61.3-.23.55-.32.94-.13.64.3,1.27.36,2,.24.37-.06.77-.1,1.17-.12.12,0,.32.05.4.11.09.07.16.22.1.26-.39.26-.44.68-1.43.85-.27.03-.2.01-.12.01.42,0,.52-.09.36-.32-.1-.13-.06-.3-.2-.39-.12-.08-.42-.08-.64-.08-.1,0-.17.11-.26.17.56.19.83.35-.05.43-.06,0-.1.12-.11.19,0,.02.13.07.2.07.16,0,.31-.03.82-.08.41.1.46.23.53.37.02.03.14.08.19.08.36-.04.37-.33.83-.33.21,0,.21-.17.21-.31.03-.39.36-.65,1.12-.66.16,0,.31-.03.46-.05,1.09-.11,1.29-.02,1.84.72.03.04.07.08.11.11.16.11.24.09.34-.02.28-.33.8-.34,1.37-.23.66.12,1.32.23,1.91.49.28.12.54.01.76-.13.33-.21.36-.19.53.08.05.09.08.18-.06.37-.11.13-.01.18,0,.17.09-.04.17-.09.22-.15.02-.03,0-.1-.05-.11s-.16,0-.2.02c-.07.05-.11.12.02.08.65-.15,1.12-.2,1.59-.24.23-.02.62-.11.68-.06.54.41,1.27-.03,1.78.22.57.27,1.26-.18,1.79.21.06.04.32.04.44,0,.82-.25,1.69.23,2.51.03,1.18.34,2.53.34,3.69.71.53.17.99.29,1.56.19.1-.02.39.06.39.1.09.44.57.37,1.05.31l1.75.29c.28.1.46.22.62.4.28.33.37,0,.57-.06.33-.08.75-.19,1.07-.14.45.08.97.25,1.23.47.55.47.74-.47,1.27,0,.19.16.74-.01,1.07.19.43.26.97.31,1.54.2.52-.1.94-.07,1.01.33.42.12.73.41,1.3.29.31-.07.6-.05.89.09.46.23.94.36,1.54.24.16-.03.44.07.63.14.63.23,1.25.47,1.87.71.28.11.28.11-.32.33-.06.02-.1.07-.12.11-.01.02.03.08.07.09.56.14,1.07-.05,1.19-.43.02-.06.14-.12.23-.16.02,0,.18.04.19.08.19.43.73.56,1.42.57.53.36,1.22.04,1.77.2.59.17,1.14.4,1.66.63.35.16.76.1,1.09.19,1.13.31,2.47.29,3.44.84,1.39.16,2.41.74,3.58,1.14.28.1.55.22.84.27.43.08.9.07,1.32.17.44.1.9.24,1.25.43.41.21.91.14,1.31.27.5.16,1.03.33,1.44.56.46.25,1.07.14,1.52.34.13.06.3.09.41.16.2.13.37.39.54.4.33.01.58.06.89.13.65.13,1.4.09,1.66.63.06.13.55.32.79.3.74-.04,1.19.25,1.71.46.24.09.32.32.56.41.24.09.61.05.86.13.43.13.82.31,1.23.48-.05.33.66.36.8.65.15.32.4.17.54,0,.09-.12.14-.09.35-.03.47.13.6.48.96.57.4.11.86.15,1.29.28.74.23.94.76,1.77.92.13.02.26.12.31.19.09.13.1.28.2.4.05.07.26.16.35.15.5-.07.75.03.82.33.06.24.17.41.75.4.32,0,.91.18.98.33.17.34.63.44,1.02.56.6.18.93.49,1.36.75.32.19.46.46.92.61.28.1.02.53.47.58.48.05.91.11,1.29.3.11.05.19.15.22.23.08.24.23.43.64.55.27.08.53.21.73.35.73.51,1.43,1.04,2.16,1.55.44.31,1.14.57,1.31.91.23.45,1.09.7,1.07,1.19.51.19.76.46.84.79.07.27.23.54.35.82.58.11.64.5,1.11.69.4.17.44.45.31.73-.1.2-.89.34-.25.61.48.2.21.57.65.7.42.12.47.36.72.53.65.42.64.42.42.92-.1.23-.14.26.26.45.37.18.57.33.3.56-.26.22-.19.41.24.56.45.16.46.35.2.57-.09.07-.16.15-.25.22-.39.3-.26.62.21.84.39.18.52.37.54.59.03.3-.41.56-.1.89.05.06-.08.16-.11.24-.13.46-.55.89-.16,1.4.08.1.01.3-.12.36-.54.25-.27.68-.62.96-.34.26-.5.53-.26.87.1.14-.04.26-.33.27-.4.01-.43.23-.61.36-.06.05-.05.13-.03.2,0,.02.14.06.2.05.24-.02.47-.06.7-.06.14,0,.29.05.43.07-.08.06-.14.17-.23.18-.59.03-1.07.15-1.25.48-.06.11-.07.32.05.37.34.15.64.24.27.49-.3.2-.58.43-.72.68-.09.14.03.33-.14.5-.21.21.02.54-.39.72-.42.18-.17.5-.37.73-.2.22-.64.38-.46.72.07.13-.15.22-.43.24-.24.01-.47.04-.7.07-.62.08-.63.08-.48.45.11.27.37.56.32.81-.06.25-.41.47-.68.68-.24.19-.28.38-.27.61,0,.12-.18.27-.36.33-.55.17-.91.43-1.21.73-.06.06-.25.08-.39.1-.22.04-.49.04-.65.12-.3.15.04.34.04.51,0,.08-.02.24-.06.24-.75.04-.56.42-.72.67-.65.04-.71.43-1.11.6-.45.2-.82.47-1.41.57-.2.04-.17.15.02.19.4.09.36.19.2.39-.21.27-.8.23-1,.49-.19.24-.48.46-.73.68-.04.03-.09.08-.15.09-.3.05-.64.05-.9.13-.35.11.21.51-.31.55-.57.05-.63.5-1.32.44-.53-.05-.52.42-1.09.4-.06,0-.18.22-.14.33.09.28.3.57-.48.57-.41.62-1.36.77-2.42.82-.12,0-.22.1-.33.15.05.03.12.05.14.09.08.1.65.12.29.26-1.62.61-3,1.4-4.65,1.99-.17.32-.76.25-1.12.38-.35.13-.78.27-.99.46-.24.2-.72.18-.87.37-.19.25-.61.23-.96.3-.19.04-.38.14-.47.25-.26.3-.63.49-1.25.48-.5.43-1.71.37-2,.94-.03.07-.21.13-.34.14-.5.03-.76.23-1.13.37-.41.15-1.03.13-1.29.45-.75-.09-1,.4-1.57.42-.76.03-1.26.28-1.77.5-.42.19-.75.41-1.35.4-.46,0-.72.15-.86.36-.19.29-.6.36-1.08.42-.25.03-.39.25-.64.33-.32.1-.84-.02-1.02.24-.26.37-1.26.09-1.48.54-.04.09-.55.1-.85.14-.3.04-.6.05-.77.23-.3.32-1.3.09-1.42.55-.46.05-.93.17-1.39.14-.71-.05-.64.46-1.33.46-.67,0-1.45.02-1.8.45-.83-.09-1.2.32-1.73.52-.94.35-.89.42-2.05.26-.32-.04-.39,0-.48.11-.18.21-.68.14-.87.38-.22.27-.84.16-1.28.23-.37.06-.7.09-.97.29-.34.25-1.24.11-1.45.53-.56.1-1.33-.03-1.61.4-.61.08-1.22.15-1.82.23-.22.03-.56.04-.62.12-.23.31-.72.33-1.18.33-.58,0-.65.35-1.09.4-.7.08-1.4.15-2.11.22-.32.47-1.14.38-1.8.46-.69.09-1.4.15-2.11.22-.31.03-.62.06-.94.1-.07-.19-.27-.26-.92-.33-.43-.06-.53,0-.64.04.18.04.37.11.53.1.13-.01.55.09.37-.16-.04-.06-.24-.09-.38-.11-.06-.01-.14.01.11.13.4.3.6.37.92.33-.03.34-.25.57-.87.66-.64.09-1.51-.04-1.81.45-.54.06-1.1.1-1.63.18-.5.07-1.08.01-1.45.33-.32.27-1.02.16-1.52.26-.35.07-.86-.03-1.04.22-.25.35-.7-.09-.84.03-.24.2-.51.3-.93.33-.55.04-1.1.11-1.64.16-.57.52-1.63.41-2.51.53-.19.03-.45-.05-.65-.11-.52-.15-.34.21-.6.24-.62.07-1.25.19-1.88.18-.73-.01-1.02.34-1.57.45-.51.1-1.09.19-1.63.16-.76-.03-.99.37-1.57.45-.73.11-1.58.06-2.04.49-.03.03-.15.02-.23.03-.29.04-.49-.31-.76-.12-.2.15-.39.24-.73.28-.52.06-1.22-.03-1.51.25-.44.43-.9-.24-1.41.01-.41.2-1.3-.01-1.6.41,0,.01-.26-.02-.35-.06-.4-.18-.76-.02-1.14-.02-.37.42-1.15.35-1.79.47-.92.17-2.16-.08-2.74.55-.5-.33-.74-.09-1.03.1-.07.05-.31.04-.45.01-.22-.04-.48-.2-.63-.17-.85.16-1.97-.05-2.56.49-.01.01-.27-.04-.37-.1-.18-.1-.29-.1-.35,0-.19.33-.76.24-1.19.32-.51-.34-.68.01-1.04.08-.54.11-.85.75-1.71.23-1.09.1-2.18.2-3.27.3-.37.41-1.14.37-1.79.47-.45.07-.75-.05-1.1-.18-.56-.21-.6-.21-.84.03-.38.37-.78.61-1.7.37-.96-.25-1.84.11-2.77.15-.19,0-.34.14-.51.22-.38.17-.38.17-.79.1-.22-.04-.47-.14-.65-.12-.59.1-1.35-.04-1.75.28-.36.3-.68.24-1.18.08-.27-.09-.29.1-.23.24.04.09.08.18.12.27-.31.03-.63.06-.94.1-.02-.05-.01-.11-.06-.13-.57-.24-1.19-.09-1.56.04-.44.16-.63.53-.92.82,0,0,.14.07.2.07.24-.01.47-.04.73,0,.14.09.32.17.35.15.24-.12.01-.18-.17-.23-.05-.01-.17,0-.2.02-.03.02.03.08.02.06-.03-.69.8-.74,1.61-.8.2.28.05.65.68.82.23.06.29.14.08.18-.42.08-.87.15-1.32.18-.71.06-1.05.28-1.07.68-.13-.01-.29,0-.4-.05-.25-.09-.47-.21-.62.03-.09.14-.18.29-.27.43-.39.04-.78.09-1.17.11ZM240.71,29.4c.06-.02.1-.07.11-.11.03-.14-.06-.15-.28-.11-.28.05-.6.05-.88.1-.09.02-.13.11-.18.18,0,0,.12.07.19.07.15,0,.29-.01.55-.02.81-.43.93-.53.9-.55-.24-.15-.32-.02-.39.08-.02.03,0,.1.05.11.04.02.13,0,.2-.02-.66.35-.46.31-.26.26ZM155.9,2.96c.08.05.18.11.28.14.05.02.14-.01.21-.02-.02-.04-.01-.1-.06-.12-.09-.04-.22-.07-.32-.1,1.9.38,1.89.24,1.74,0-.04-.06-.21-.1-.32-.15-.16.28-.56.36-1.04.38.02.04.02.09.06.13.04.03.12.07.18.08.22,0,.44,0,.35,0-1.02-.39-1.1-.34-1.09-.33Zm80.29,24.11c.68.11.58-.51,1.27-.42.03,0,.12-.14.15-.22.02-.04-.01-.09-.06-.13-.09-.07-.21-.13-.31-.19-.22.38-1.19.35-1.3.79,0,.03.02.06.04.09.07.03.14.06.21.07Zm-60.66-21.49c.09-.17-.1-.41-.37-.42-.19,0-.38.09-.58.14.08.06.14.12.23.17.12.06.26.1.4.15.06.02.13.04.19.07.04-.04.1-.07.12-.11Zm-26.07-2.94c.12,0,.2-.11.3-.16-.14-.03-.3-.1-.41-.09-.2.02-.37.1-.74.21.42.03.64.06.85.05Zm76.41,15.2c.19-.13.07-.39-.21-.45-.04,0-.12,0-.15.02-.19.13-.06.39.21.45.05,0,.12,0,.15-.02Zm3.53,4.15c.23.12.7.07.77-.08.01-.03-.01-.07-.05-.09-.23-.12-.69-.07-.77.08.02.03.02.07.05.09Zm12.95,7.44c.14.03.3.11.41.09.19-.03.35-.12.53-.19-.21-.04-.42-.07-.6-.1-.15.08-.24.14-.34.2Zm-74.59,46.79c.14.03.3.11.41.09.19-.03.35-.12.53-.19-.21-.04-.42-.07-.6-.1-.14.08-.24.14-.34.2Zm73-48.76s.13-.08.11-.1c-.05-.06-.15-.11-.23-.17-.04.04-.08.07-.12.11.08.05.16.1.24.16Zm-5.58-.09s.12.05.19.07c.03-.07.07-.13.07-.2,0-.02-.12-.05-.19-.07-.03.07-.07.13-.07.2Zm-7.7-4.52c.03-.07.07-.13.07-.2,0-.02-.12-.05-.19-.07-.03.06-.06.13-.09.19.08.03.14.05.21.08Zm1.23-.75s.08-.07.12-.1c-.12-.02-.24-.05-.35-.05-.04,0-.08.07-.12.1.12.02.24.05.35.05Zm-21.23-9.15s.13-.08.11-.1c-.05-.06-.15-.11-.23-.17-.04.04-.08.07-.12.11.08.05.16.1.24.16Zm-20.26-3.96s.08-.07.12-.1c-.12-.02-.24-.05-.35-.05-.04,0-.08.07-.12.1.12.02.24.05.35.05Zm-21.91-5.11s.13-.08.11-.1c-.05-.06-.15-.11-.23-.17-.04.04-.08.07-.12.11.08.05.16.1.24.16Zm-6.4-.63c.12.02.24.05.35.05.04,0,.08-.07.12-.1-.12-.02-.23-.04-.34-.07-.05.04-.09.08-.12.11Zm2.35-.24c.12.02.24.05.35.05.04,0,.08-.07.12-.1-.12-.02-.23-.04-.34-.07-.05.04-.09.08-.12.11Zm-10.86-.74s-.13.08-.11.1c.05.06.15.11.23.17.04-.04.08-.07.12-.11-.08-.05-.16-.1-.24-.16Zm-29.87,82.45c.07.03.15.08.19.07.1-.03.19-.08.28-.12-.07-.02-.13-.05-.21-.08-.08.04-.17.08-.26.13Zm-22.05.34s.08-.07.12-.1c-.12-.02-.24-.05-.35-.05-.04,0-.08.07-.12.1.12.02.24.05.35.05Z"/>
      <path class="cls-1" d="m72.99,78.9c.25-.04.35-.13.3-.28-.07-.2-.26-.33-.62-.25-.14.03-.54-.08-.42.11-.18-.26-.02-.56-.63-.58-.82-.04-1.57-.31-2.41-.33-.24,0-.36-.11-.18-.26.22-.18.37-.38.85-.38.31,0,.66-.02.92-.1.28-.09.07-.21-.15-.27-.21-.06-.29-.12-.16-.18.32-.16,1.1-.22,1.26-.06.21.2.24.42.8.36.6-.07.36.43.74.43.68,0,1.3.36,2.02.15.17-.05.42.1.44.25,0,.04.05.1.02.13-.13.15-.28.27-.27.48.02.39-.8.62-.6,1.07.01.03-.08.07-.11.11-.16.21-.62.26-.79.4-.26.22-.25.55-.35.84-.08,0-.19,0-.23.03-.2.16-.29.42-.81.15-.26-.14-.32-.12-.17-.38.06-.11.04-.11-.12-.2-.6-.33-.58-.34.11-.61.08-.03.11-.12.12-.19,0-.02-.14-.08-.19-.07-.78.07-1.58.13-2.34.25-.27.04-.1.21.14.27.21.05.28.11.17.18-.05.03-.1.07-.16.08-.31.04-.65.04-.93.1-.75.18-.64-.38-1-.4-.76-.06-1.36-.16-1.64-.63-.07-.12-.26-.11-.34,0-.25.31-.59.32-1.14.13-.81-.28-1.48-.76-2.54-.77-.07,0-.29-.27-.23-.33.22-.21.31-.53.94-.52.03,0,.06-.13.06-.2,0-.02-.14-.07-.2-.06-.44.06-.98,0-1.18.33-.07.12-.2.26-.38.33-.15.07-.49.12-.61.07-.5-.22-1.21-.3-1.47-.7-.16-.25-.48-.18-.79-.15-.65.05-.88-.06-.92-.41-.01-.09-.06-.18-.01-.26.15-.25.69-.4.56-.7-.2-.43.64-.28.8-.52.09-.13.46-.18.69-.28.15-.07.07-.13-.14-.19-.15-.04-.27-.11-.42-.15-.42-.13-.75-.06-.83.2-.04.12-.02.33-.12.35-.68.13-.93.38-.87.79.02.11-.21.23-.33.34-.2.18-.51.25-.76.16-.7-.26-1.39-.53-2.08-.79-1.05,0-1.72-.47-2.54-.75-.31-.11-.31-.31-.09-.47.17-.12.14-.27-.14-.26-.48,0-.93.12-1.41.12-.85,0-1.66-.15-2.38-.46-.19-.43-.73-.51-1.41-.58-.51-.06-1.05-.25-1.1-.65-.02-.2-.2-.35-.63-.29-.79.11-1.49-.13-2.21-.29-.48-.1-.5-.34-.49-.58.15-.07.27-.17.24-.19-.24-.15-.32-.02-.39.08-.02.03,0,.1.05.11.04.02.13,0,.1,0-.46,0-.91.23-1.12-.11-.19-.31-.63-.42-1.06-.51-.42-.09-.89-.09-1.32-.16-.45-.08-.86-.19-1.1-.48-.15-.19-.45-.35-.7-.52-.31-.21-.65-.41-1.18-.4-.14,0-.41-.03-.42-.07-.14-.37-.72-.48-1.18-.66-.4-.16.03-.21.06-.31.12-.29-.06-.47-.51-.45-.38.01-.72.11-1.13-.06-.37-.15-.88-.07-1.3-.27-.64-.3-1.35-.56-2.07-.79-.51-.16-.63-.4-.75-.67-.03-.07-.26-.2-.3-.19-.84.22-.77-.35-1.21-.48-.24-.07-.32-.33-.55-.41-.62-.18-.26-.33-.1-.51.03-.03-.03-.09.05-.14.15-.07.27-.17.24-.19-.24-.15-.32-.02-.39.08-.02.03,0,.1.05.11.04.02.13,0,.1,0-.34.03-.66.13-.79.07-.72-.3-1.65-.45-2.12-.92-.27-.28-.72-.39-1.13-.51-.55-.16-.68-.63-1.14-.64-.57,0-.88-.2-1.3-.31-.04-.39-.52-.38-1-.39-.08,0-.22-.13-.26-.21-.14-.27-.24-.54-.26-.82.15-.07.27-.17.24-.19-.24-.15-.32-.02-.39.08-.02.03,0,.1.05.11s.13,0,.1,0c-.61.03-.94-.17-1.23-.37-.1-.06-.05-.3.06-.33.24-.08.57-.07.84-.13.21-.04.34-.15.22-.3.15-.02.31-.02.46-.05.37-.07.48-.2.33-.38-.11-.13-.29-.21-.56-.16-.15.03-.31.03-.67.07-.13-.05.33.1.14-.15-.04-.06-.28-.12-.38-.1-.34.05-.57-.06-.84-.14-.22-.07-.37.05-.24.22.08.1.25.23.42.26.2.03.44-.03.89-.08.29.16.37.34.45.52-.16.02-.31.03-.47.05-.85.1-1.71.23-2.18-.45-.05-.07-.4-.07-.6-.12-.29-.07-.6-.14-.84-.25-.16-.08-.35-.29-.29-.34.55-.43-.23-1.12.73-1.46-.04-.23-.04-.44.25-.61-.11-.04-.24-.13-.34-.13-.62,0-.72.1-.94.5-.11.2-.42.36-.24.62,0,.01-.18.07-.29.09-.04,0-.15-.06-.16-.09-.08-.3-.35-.35-.84-.32-.28.02-.53-.28-.39-.41.23-.22.38-.49.96-.51.05,0,.11-.07.12-.11,0-.02-.07-.06-.12-.08-.06-.02-.14-.04-.21-.04-1.5-.02-1.53-.03-2.47-.75-.08-.06-.28-.07-.43-.09-.15-.02-.41,0-.43-.03-.19-.3-.34-.6-.49-.9-.01-.03.06-.1.12-.11.77-.09,1.55-.17,2.32-.26.37.22.9.13,1.3.26.31.1.77.2.84.06.25-.46,1.38-.2,1.61-.65.03-.05.27-.1.4-.09.22.03.47.19.63.16.25-.04.42-.2.63-.29.05-.02.21-.04.22-.02.42.36,1.21.6,1.25,1.09.01.14-.18.19-.41.25-.44.12-.44.28-.1.5.05.03.13.06.21.08.42.13,0,.2-.02.3,0,.04-.06.07-.09.11.14.03.34.11.42.08.31-.1.57-.25.88-.36.1-.03.29.02.44.03-.02.07,0,.15-.07.2-.19.14-.09.23.17.26.29.03.83-.19.52.28-.27.41.03.65.68.9.32.12.35-.01.49-.09.39-.21.47-.22.78-.11.43.14.82.29.87.62.04.24.1.22-.56.18-.37-.02-.74.04-1.11.08-.06,0-.12.07-.11.11,0,.03.12.08.18.08.5-.03.96.07,1.29.28.52.33,1.07-.04,1.57.14.21.07.47.14.61.24.12.09.16.25.13.36-.09.35-.1.36.35.33.5-.04.92-.11,1.06.32.04.14.55.16.65.38.05.11.32.19.47.29.27.2-.27.27-.17.44.13.21.08.44.5.6.41.15.55.13.66-.19.02-.06.21-.16.22-.15,1.05.43,2.23.75,3.06,1.36.31.23.32.36.13.58-.2.24-.09.43.18.45.21.01.44-.02.62-.08.12-.04.17-.14.26-.22.39.16.85.15,1.28.22.13.41.75.35,1.2.47.27.07.62.22.69.36.17.34.29.56,1.07.55.4,0,.88.37,1.25.35.76-.04.58.38.99.49.63.18.41.57.65.86.11.14.29.2.57.16.38-.06.73-.1,1.13.08.3.14.59.32,1.07.26.6-.07.36.43.75.43.51,0,.91.11,1.3.28.45.2,1.1.35,1.31.6.31.39,1.18.36,1.36.76-.22.02-.45.08-.66.06-.8-.07-.8-.08-.62.37.03.09.07.17-.07.36-.11.13-.01.18,0,.17.09-.04.17-.09.22-.15.02-.03,0-.1-.05-.11-.04-.02-.16,0-.2.02-.07.05-.11.12.02.08.4-.12.62-.14.84-.17q.7-.08.51-.62c.55-.03.87.23,1.26.38.45.17,1.09.26,1.16.66.36.06.73.11,1.09.19.43.1.71.35,1.3.29.36-.03.53.36.23.52-.05.03-.15.02-.23.03-.47.03-.4.22-.29.4.1.16.54.21.8.09.06-.03.07-.08.13-.11.69-.32.96-.34,1.62-.1.07.03.14.05.21.08.07.03.14.05.21.08.18.08.51.17.51.24,0,.12-.23.22-.33.34-.09.1-.18.21-.19.32,0,.12.46.1.76-.11.21-.15.44-.22.76-.24.62-.05,1.25.19,1.41.56.13.29-.16.7-.57.77-.38.06-.77.1-1.17.12-.24,0-.41-.11-.45-.26-.02-.09-.06-.18-.12-.27-.14-.22-.16-.22-.56-.01-.33.17-.38.17-.79.09-.22-.04-.43-.09-.65-.12-.07,0-.2,0-.21.03-.04.06-.07.17-.02.19.4.17.85.3,1.22.49.29.14.45.39.76.48.23.07.6-.05.91-.04.4.01.38.25.54.39.13.12.24.1.34,0,.11-.11.16-.26.47-.25.08.27.46.29.7.2.29-.12.46-.33.68-.51.32-.25.6-.21.99.12.1.08.15.3.45.1.14-.09.29-.2.49-.24.29-.06.61-.11.92-.09.36.02.72.14,1.09.16.92.03.92.02,1.12.41.07.13.09.28.19.4.05.07.24.16.35.15.31,0,.62-.06.93-.08.76-.07.89.02.63.52-.06.11-.14.15.04.2.28.08.55.21.84.25.37.04.46-.18.66-.3.23-.14.61-.11.8.05.09.07.06.21.16.25.58.21.77.35-.06.44-.09,0-.15.23-.11.34.05.14.25.21.54.17.13-.02.39,0,.42.05.12.16-.09.2-.32.22-.78.08-1.55.16-2.32.23.02-.08.04-.16.06-.25.03-.1.41-.18,0-.3-.07-.02-.15-.05-.2-.08-.27-.15-1.03-.19-.45-.55-.29-.13-.61-.37-.86-.36-.51.02-1.14-.04-1.49.24-.23.18-.39.25-.56-.03-.05-.09-.1-.18-.12-.27-.03-.16-.21-.27-.44-.26-.46.02-.91.1-1.36.16-.06,0-.11.07-.11.11,0,.02.1.08.13.08.63-.05.92.19,1.2.46.12.11.3.2.28.39-.11.13-.01.18,0,.17.09-.04.17-.09.22-.15.02-.03,0-.1-.05-.11-.04-.02-.16,0-.2.02-.07.05-.11.12.02.08.7-.17,1.17-.24,1.37.22.07.16.34.02.42-.08.14-.17.34-.11.45,0,.11.11.12.25.18.38-.22.02-.46.02-.64.07-.15.04-.36.16,0,.25.42.11.29.22.12.36-.07.06-.04.15-.23.33-.11.13-.01.18,0,.17.09-.04.17-.09.22-.15.02-.03,0-.1-.05-.11s-.16,0-.2.02c-.07.05-.11.12.02.08.91-.04,1.79-.64,2.36.16.03.04.29.06.43.04.39-.04.73-.08,1.12.09.29.13.26-.13.42-.18.13-.04.3-.12.4-.09.65.16,1.34.31,1.69.72.26.3.38.16.58,0,.3-.25.87-.14,1.32-.16.13.38.33.48.74.42Zm-51.26-17.52c.41-.05.48-.3.07-.5-.32-.16-.61-.26-.46-.54.26-.46.22-.45-.48-.58-.58-.1-1.15-.3-1.71-.06-.06.02-.11.07-.12.11-.03.14.06.17.29.11.31-.08.6-.04.87.1.2.1.6.14.3.37-.26.2-.04.49-.34.72-.22.16.24.4.67.36.15-.01.31-.03.46-.05-2.48-1.25-2.38-1.2-2.36-1.21.09-.04.17-.09.22-.15.02-.03,0-.1-.05-.11-.04-.02-.16,0-.2.02-.07.05-.11.12-.16.18,2.7,1.27,2.85,1.25,3.01,1.23Zm28.14,11.75c.16-.14.39-.27.24-.48-.24-.35-.16-.67,0-1.03.17-.37-.33-.61-.96-.51-.7.12-1.22,0-1.78-.25-.28-.13-.5-.09-.47.05.02.09.07.18.13.27.03.04.14.05.2.08.16.07.45.11.21.28-.29.21-.17.37.2.57.53.28.49.31-.24.6-.06.02-.11.07-.12.11,0,.02.07.07.12.08.06.02.17.06.21.04.68-.19,1.22.03,1.76.26.07.03.14.05.21.08.09-.05.19-.1.26-.17Zm-31.46-14.91c.41.36,1.15.21,1.69.4.22.08.58,0,.88,0,.29,0,.37-.12.35-.26-.03-.21-.25-.31-.63-.28-.31.03-.61.05-.91.09-.43.06-.52-.1-.63-.29-.04-.07-.19-.16-.32-.18-.14-.02-.33,0-.44.04-.1.04-.11.14-.17.22.06.08.1.17.18.24Zm6.16,4.53c.15-.16.35-.26.69-.31.27-.04.29-.36.05-.45-.4-.14-.74-.41-1.3-.27-.32.08-.61.02-.88-.12-.14-.07-.27-.05-.3.08-.02.08.04.18.09.27.02.04.12.09.17.09.89-.06,1.02.29,1.13.66,0,.03.13.05.2.08.05-.01.13-.01.15-.03Zm-7.26-6.32c.32-.02.61-.03.86.12.18.1.27.1.32-.03.01-.04.05-.09.02-.12-.11-.11-.28-.3-.37-.3-.32.02-.61.03-.86-.12-.18-.11-.27-.1-.32.03-.01.04-.02.08-.04.17.11.07.27.26.39.25Zm11.11,6.24c.06-.02.11-.07.11-.11,0-.02-.1-.07-.16-.08-.36-.04-.76.01-1.07-.18,0,0-.27.09-.26.11.07.12.14.28.3.33.17.06.43.01.57.01.23-.04.37-.06.5-.1Zm-3.68-2.14c.3-.02.38-.12.37-.26-.02-.22-.27-.34-.61-.28-.17.03-.29.14-.39.18.05.29.27.38.63.36Zm-12.74-5.59c-.1-.13-.27-.21-.55-.17-.35.05-.5.19-.31.38.09.09.32.14.41.18.48-.05.61-.19.45-.4Zm3.32,2.85c.11-.05.2-.11.3-.17-.14-.03-.28-.09-.42-.09-.23,0-.47.03-.68.07-.12.03-.2.11-.31.17.14.03.28.09.42.09.15,0,.3-.03.46-.04.08,0,.17,0,.22-.03Zm-1.68-2.44c-.05-.07-.2-.13-.3-.19-.04.03-.09.06-.13.09-.08.07-.17.14-.23.22-.05.06-.06.13-.09.2.14.02.28.04.43.05.41-.03.44-.19.32-.37Zm17.73,11.39c.05.07.21.12.31.18.04-.04.08-.07.12-.11.08-.07.17-.14.23-.22.04-.06.04-.13.06-.2-.14-.01-.28-.03-.43-.04-.36.05-.45.15-.3.38Zm20.88,6.89c.06-.01.13-.08.11-.1-.06-.06-.18-.16-.25-.15-.31.01-.61.05-.91.09-.06,0-.13.08-.11.1.06.06.16.14.25.15.15.02.3-.02.46-.04s.31-.02.45-.05Zm16.29,5.55c-.14-.14-.64-.09-.76.07-.02.02,0,.09.03.09.14.03.28.04.51.07.07-.07.27-.18.22-.22Zm-30.04-11.25c.05-.08.17-.17.13-.23-.07-.11-.24-.21-.37-.32-.05.12-.1.23-.14.33.16.09.27.15.38.21Zm-15.41-7.24c.05-.08.17-.17.13-.23-.07-.11-.24-.21-.37-.32-.03.12-.1.24-.07.36.02.06.2.12.31.18Zm-5.24-3.59c-.12-.02-.24-.05-.35-.05-.04,0-.08.07-.12.1.12.02.23.04.34.07.05-.04.09-.08.12-.11Zm-2.24-1.39s.08-.07.12-.1c-.12-.02-.24-.05-.35-.05-.04,0-.08.07-.12.1.12.02.24.05.35.05Zm14.06,7.72c.03-.07.07-.13.07-.2,0-.02-.12-.05-.19-.07-.03.06-.06.13-.09.19.08.03.14.05.21.08Zm-17.06-8.78c.03-.07.07-.13.07-.2,0-.02-.12-.05-.19-.07-.03.06-.06.13-.09.19.08.03.14.05.21.08Zm1.88-.19c.03-.07.07-.13.07-.2,0-.02-.12-.05-.19-.07-.03.06-.06.13-.09.19.08.03.14.05.21.08Zm13.6,9.27c-.07-.02-.15-.08-.19-.07-.1.03-.19.08-.28.12.07.02.13.05.21.08.08-.04.17-.08.26-.13Zm1.41.23s.08-.07.12-.1c-.12-.02-.24-.05-.35-.05-.04,0-.08.07-.12.1.12.02.24.05.35.05Zm0,.76c.12.02.24.05.35.05.04,0,.08-.07.12-.1-.12-.02-.23-.04-.34-.07-.05.04-.09.08-.12.11Zm-.17,1.3s.13-.08.11-.1c-.05-.06-.15-.11-.23-.17-.04.04-.08.07-.12.11.08.05.16.1.24.16Zm3.47,1.01s.08-.07.12-.1c-.12-.02-.24-.05-.35-.05-.04,0-.08.07-.12.1.12.02.24.05.35.05Zm6.87,1.34c.03-.07.07-.13.07-.2,0-.02-.12-.05-.19-.07-.03.06-.06.13-.09.19.08.03.14.05.21.08Zm-2.99.45c.12.02.24.05.35.05.04,0,.08-.07.12-.1-.12-.02-.23-.04-.34-.07-.05.04-.09.08-.12.11Zm8.16,1.3c-.03.07-.07.13-.07.2,0,.02.12.05.19.07.03-.06.06-.13.09-.19-.08-.03-.14-.05-.21-.08Zm1.99.08s-.13.08-.11.1c.05.06.15.11.23.17.04-.04.08-.07.12-.11-.08-.05-.16-.1-.24-.16Z"/>
      <path class="cls-1" d="m1.03,42.3c-.24-.15-.32-.02-.39.08-.02.03,0,.1.05.11.04.02.13,0,.18-3.19-.09-3.31-.15-3.44-.2-3.58-.1-.24-.02-.36.4-.36.84,0,1.61-.4,2.53-.05.04.02.34-.21.52-.33.13-.08.08-.16-.15-.18-.15-.02-.31,0-.46.02-.31.03-.62.07-.94.09-.09,0-.21-.09-.3-.14-.02-.01.07-.1.12-.1.61,0,.91-.3.91-.51,0-.27-.66,0-.94-.2-.1-.07-.27-.11-.41-.16-.07-.03-.18-.05-.19-.08-.01-.03.05-.1.11-.11.73-.16,1.47-.29,2.2.09.26.14.55.18.88.12.22-.04.46-.06.7-.07.46-.03.75.15.6.41-.26.44-.61.87-.28,1.38-.64.47-.02.96.16,1.43.11.27-.24.42-.22.62.05.39-.44.74-.04,1.16.23.24.23.54.38.81.16.3-.08.35-.5.46-.43.11-.19.51,0,.59.75.33.79.79.99,1.22.27.59.46,1.18.79,1.76.25.44.17.8-.33,1.12-.16.1-.16.16.07.19.15.02.32.03.45,0,.13-.03.2-.12.31-.17.09-.04.2-.07.3-.1.08.08.22.16.21.23-.03.16-.27.35-.17.44.15.14.51.2.58.42.02.07.21.14.34.18.21.06.29.12.16.19-.44.24-.04.51-.03.77.02.43.01.42.3.58.44.25.86.52,1.28.78-.17.44.89.56.87.93-.02.47.83.67.97,1.06.07.19.22.32.52.44.44.17-.28.31-.09.39.38.16.45.23.26.5-.22.32.07.46.94.66.15.03.27.11.42.16.42.14.38.16.21.39-.23.31-.71.34-1.16.33-.56-.01-.43-.33-.56-.53-.1-.15-.27-.24-.53-.19-.38.06-.61-.1-.86-.2-.79-.33-1.54-.23-2.12.06-.37.19-.94.26-1.12.59-.24.44-1.04.3-1.6.4-.32-.18-.66-.36-.95-.55-.14-.1-.25-.24-.27-.37-.05-.35-.51-.54-.82-.8-.19-.16-.38-.28-.63-.4-.02,0,.08-.14.18-.18.12-.05.33-.03.42-.08.3-.17-.1-.22-.24-.27-.52-.17-.94-.37-.98-.74-.02-.13-.07-.35-.21-.38-.66-.17-.63-.52-.8-.81-.18-.3.05-.41.53-.44.05,0,.1-.18.08-.19-.58-.18-.71-.62-1.36-.76-.34-.07-.45-.23-.54-.43-.15-.32-.3-.62.12-.89-.29-.46-.17-1.01-1.06-1.34-.08-.03-.11-.19-.05-.25.13-.16.31-.31.48-.45.27-.24.11-.41-.3-.56-.47-.17-.4-.37-.13-.57.42-.31-.26-.2-.38-.3-.29-.25-.22-.43.25-.49.23-.03.47-.07.7-.07.62,0,.68-.32.94-.52.14-.11-.23-.39-.51-.38-.24,0-.47.06-.7.06-.25,0-.47-.07-.47-.24,0-.08.01-.23.08-.24.61-.07.86-.33.98-.64.03-.08-.2-.27-.37-.31-.2-.04-.46.04-.69.05-.14,0-.29-.03-.44-.05.03-.07.08-.14.1-.21.03-.12.11-.26.05-.38-.22-.44.14-.66.74-.83.56-.15.08-.22-.12-.34-.39-.22-.35-.48.08-.5.64-.03.98-.22,1.2-.52.02-.02-.18-.15-.25-.15-.31.01-.63.08-.77-.17-.07-.13-.12-.27-.15,2.77.07,3.11.19,3.02.16,3Zm2.95-1.88c.24-.12.01-.18-.17-.23-.05-.01-.17,0-.2.02s.03.08.04.12c-.75-.56-.7-.34-.46-.17.04.03.12.06.19.07.24.03.28-.02.17-.15-.1-.11-.18-.23-.28-.34-.02-.02-.11-.02-.17-.03.67.65.84.72.88.7Zm2.13,2.62c.24-.12.01-.18-.17-.23-.05-.01-.17,0-.2.02-.03.02.03.08.04.12-1.35-.27-1.5-.26-1.65-.24-.07,0-.16.02-.19.05-.28.21,0,.42.09.63.06.12.31.17.57.14.27-.04.4-.13.33-.27-.16-.32.16-.39.58-.39.24,0,.31-.04.16-.16-.04-.03-.13-.08-.19-.08-.3,0-.6.01-.67.02,1.08.34,1.26.42,1.29.4Zm-2.75-6.79c.3-.02.38-.12.37-.26-.02-.22-.27-.34-.61-.28-.17.03-.29.14-.39.18.05.29.27.38.63.36Zm1.21,8.39c.36-.01.49-.17.33-.37-.1-.13-.27-.21-.55-.17-.35.05-.47.18-.28.45.13.02.33.1.51.09Zm2.52,1.24c.07.07.21.12.32.18.04-.04.08-.07.12-.11.46-.39.44-.4-.3-.65-.18-.06-.27-.07-.3.06-.02.08.03.17.05.25.04.09.05.18.12.26Zm-.63,1.41c.06-.01.1-.06.12-.1.01-.03,0-.08-.03-.09-.34-.09-.57-.34-1.02-.28-.13.02-.23.08-.35.12.08.2.91.43,1.28.34Zm-.99-5.59c.08-.03.1-.12.1-.19,0-.02-.13-.08-.19-.07-.31.02-.62.05-.91.1-.07.01-.09.12-.1.19,0,.02.13.07.19.07.15,0,.31-.03.46-.04.15-.02.33-.01.45-.05Zm-3.05-2.24c.12-.02.2-.11.3-.16-.06-.03-.12-.05-.18-.08-.13-.05-.26-.11-.4-.15-.11-.03-.24-.04-.35-.06-.02.08-.04.16-.05.24.12.21.29.27.69.21Zm1.13,1.66c.03.07.2.12.31.18.05-.08.16-.16.13-.23-.06-.12-.2-.22-.42-.44-.02.24-.06.36-.02.48Zm-1.37,3.99c.19-.13.07-.39-.21-.45-.05,0-.12,0-.15.02-.19.13-.06.39.21.45.05,0,.12,0,.15-.02Zm7.88,4.22c-.21-.03-.43-.07-.64-.07-.11,0-.2.11-.3.16.14.03.28.07.48.12.14-.06.3-.14.46-.21Zm-3.98,2.11c.12.02.24.05.35.05.04,0,.08-.07.12-.1-.12-.02-.23-.04-.34-.07-.05.04-.09.08-.12.11Zm-1.44-6.3s.08-.07.12-.1c-.12-.02-.24-.05-.35-.05-.04,0-.08.07-.12.1.12.02.24.05.35.05Zm-2.35-1.27c.12.02.24.05.35.05.04,0,.08-.07.12-.1-.12-.02-.23-.04-.34-.07-.05.04-.09.08-.12.11Zm2.8-3.69c-.07-.02-.15-.08-.19-.07-.1.03-.19.08-.28.12.07.02.13.05.21.08.08-.04.17-.08.26-.13Zm-.54-1.79s-.13.08-.11.1c.05.06.15.11.23.17.04-.04.08-.07.12-.11-.08-.05-.16-.1-.24-.16Zm-1.53-.13s-.13.08-.11.1c.05.06.15.11.23.17.04-.04.08-.07.12-.11-.08-.05-.16-.1-.24-.16Zm-.24-1.68c-.03.07-.07.13-.07.2,0,.02.12.05.19.07.03-.06.06-.13.09-.19-.08-.03-.14-.05-.21-.08Z"/>
      <path class="cls-1" d="m8.27,26.69c.1.04.17.06.23.09-.45.39-.64.93-1.76.9-.43,0-.58.1-.65.39-.09.42-.5.81-1.29.98-.09.02-.1.26-.01.36.12.15.63.16.81.02.22-.18.42-.38.63-.56,0,0,.13.03.19.05.06.03.12.06.14.1.21.32-.26.49-.46.71-.24.26-.07.43.35.55.22.07.28.12.1.19-.12.05-.3.11-.41.08-.3-.06-.6-.15-.84-.27-.38-.19-.74-.15-1.12-.09-.14.02-.37.09-.36.12.09.28-.24.49-.26.74,0,.09.3.29.39.28.5-.05.74.03.86.32.02.05.39.1.6.11.3,0,.57-.08.91.04.3.1.59.41.94.25.24-.11-.04-.42.26-.6.1-.06-.08-.26-.05-.38.11-.37.05-.77.45-1.1.31-.25.55-.54.88-.78.3-.23-.03-.28-.26-.39-.04-.02.01-.18.07-.19.3-.04.69-.04.58-.3-.15-.34.21-.37.62-.4.31-.02.62-.04.56-.31-.03-.12.14-.24.13-.37-.04-.38,1.09-.16.91-.64-.12-.33.37-.58.71-.8.32-.21.81-.3.72-.67-.03-.11.18-.29.36-.33.66-.12.76-.57,1.23-.71.62-.18.84-.48,1.18-.76.36-.29.68-.6.99-.9.24-.24.48-.45,1.05-.44.13,0,.32-.05.38-.11.29-.31.66-.56,1.22-.72-.26-.46.32-.46.84-.57.46-.1.94-.3,1.15-.54.39-.44,1.34-.57,1.64-1.05.05-.09.37-.14.58-.15.49-.03.56-.15.57-.43.02-.29.32-.58,1.02-.59.46,0,.82-.12,1.18-.33.49-.28,1.1-.57,1.94-.56.13,0,.35-.05.37-.11.14-.3.76-.24,1.01-.49.2-.2.67-.3.99-.47.29-.15.96-.03,1.13-.36.79-.22,1.36-.6,2.1-.86.38-.14.55-.35,1.06-.09.06.03.47-.07.55-.16.34-.38.82-.66,1.62-.61.77.05.96-.42,1.57-.44.56-.02.68-.32,1.09-.4.35-.07.8-.02.98-.28.21-.29.99-.04,1.16-.33.11-.19.04-.41.25-.61.25-.23.44-.06.71-.03.37.04.77-.04,1.15-.04.59,0,.64-.48,1.33-.43.47.03.82-.11,1.16-.34.29-.2,1.07-.08,1.3-.45.03-.04.42,0,.64,0,.18,0,.37.27.53.03.18-.27.8-.22,1-.49.12-.17.51-.14.81,0,.3.13.61.15.82,0,.19-.14.34-.26.7-.3.44-.05.96.01,1.23-.29.25-.27.86-.15,1.27-.25.13-.03.28-.07.36-.13.15-.1.28-.21.37-.34.29-.4.83-.59,1.56-.66.05,0,.11-.07.12-.11s-.03-.09-.05-.14c-.55.2-1.04-.17-1.56-.12-.63.05-1.34.05-1.85.21-.48.15-1.05.31-1.33.63-.57-.08-.66.65-1.43.21-.48.51-1.49.35-2.26.5-.31.48-1.16.35-1.79.47-.21.04-.5.09-.56.18-.33.49-1.04.64-1.86.63-.79-.01-1.28.27-1.77.5-.5.24-.81.53-1.53.14-.07-.04-.42,0-.44.04-.28.52-1.12.65-1.82.88-.12.04-.22.18-.3.17-.77-.1-.95.42-1.57.45-.45.02-.61.23-.9.34-.33.12-.56.27-.84.39-.28.12-.75.14-1.15.13-.79-.02-1.01.53-1.8.48-.73-.05-.92.4-1.52.48-.18.02-.31.28-.43.27-.78-.08-.95.43-1.57.45-.72.03-.94.6-1.8.48-.04,0-.14.06-.14.09.18.74-.91.53-1.55.63-.32.05-.53.12-.72.28-.51.41-1.76.95-2.7,1.22l-1.36.6c-.41.25-.49.63-1.12.8-.45.12-.73.4-1.33.43-.22.01-.5.24-.53.39-.07.32-.08.6-.84.59-.5,0-.94.09-1.09.39-.18.37-.98.37-1.24.72-.22.31-.55.61-1.18.74-.18.04-.28.21-.38.33-.43.52-.41.53-1.23.89-.38.16-.7.34-.64.63.03.16-.02.31-.25.31-.92-.02-1.16.39-1.48.72-.17.17-.07.47-.3.58-.2.1-.54.12-.69.29-.13.15-.4.28.07.38Z"/>
      <path class="cls-1" d="m108.54,1.41c.14-.03.33-.04.39-.1.17-.18.42-.32.42-.58,0-.34.38-.37.94-.18.37.13.52.32.74.5.08.06.59.07.62.03.28-.41.98-.36,1.56-.43-.02.08-.03.17-.07.25-.04.08-.12.15-.19.22.14.03.3.09.43.08.78-.07,1.57-.15,2.34-.24.47-.05.91-.1,1.35.13.07.04.44-.05.57-.13.21-.13.31-.31.52-.44.14-.08.5-.16.58-.12.45.23.88.15,1.35.13.61-.03.39.17.2.3-.13.1-.06.11.11.2.42.21.4.26,0,.31-.39.05-.8.05-1.16.13-.24.05-.22.19.07.27.29.08.3.24.07.26-.59.05-1.14.26-1.83,0-.26-.1-.84.08-1.1-.02-.49-.19-.9-.16-1.36-.1-.93.12-1.84.21-2.68-.27-.12-.07-.49.02-.65-.05-.33-.13-.43-.11-.7.05-.35.21-.84.33-1.07.62-.23.29-.84.34-1.19.22-.51-.17-.92-.15-1.36-.08-.56.09-.91.02-1.03-.34-.01-.04-.27-.07-.42-.08-.27-.01-.46.09-.44.23.02.18.16.37-.3.41-.23.02-.49.02-.7.08-.62.17-1.2-.06-1.8-.09-.46-.02-.5-.15-.63-.32-.08-.11-.29-.24-.45-.03-.14.19-.45.2-.76.24-.36.05-.81,0-1.03.23-.22.24-.55.27-.96.1-.07-.03-.16-.08-.2-.07-.62.12-1.56-.58-1.95.16-.55.06-1.09.11-1.64.17-.59.07-1.28.02-1.56.43-.69-.39-1.36-.07-2.03-.06-1.15,0-2.2.48-3.44.07-.09-.03-.35.02-.4.08-.19.22-.49.31-.92.33-.98.05-1.91.32-2.98.03-.33-.09-.41.29-.63.31-.97.06-1.89.48-2.96.05-.09-.04-.41,0-.44.05-.2.29-.62.35-1.11.39-.63.05-1.24.15-1.88.18-.73.03-1.24.26-1.8.46-.31.11-.75.11-1.12.16-.32.54-.96.23-1.52.12-.05,0-1.36.15-1.48.15-.79-.05-1.01.48-1.79.48-.71,0-1.41.21-2.11.18-.91-.04-1.18.51-2.02.52-.79.01-1.56.14-2.34.22-.07,0-.17.01-.21.04-.64.58-1.81.37-2.75.51-.39-.22-.64-.17-.84.08-.04.05-.31.03-.41.09-.16.08-.28.2-.41.3-.17-.13-.33-.28-.53-.39-.09-.05-.28-.04-.43-.06.12-.12.99-.67,1.11-.68.47-.05.93-.12,1.4-.14.63-.02.97-.21,1.24-.5.1-.1.28-.21.48-.24.45-.07.93-.1,1.4-.15.39-.04.78-.13,1.17-.11.6.03.6-.37,1.09-.41.63-.05,1.24-.15,1.87-.17.26-.01.61.19.81.14.24-.05.43-.21.63-.32.46-.25.95-.4,1.59-.43.14,0,.33-.04.4-.1.17-.15.32-.31.69-.29.41.02.38.25.54.39.14.12.26.1.34,0,.06-.08.13-.19.25-.22.49-.11,1.19.01,1.5-.27.41-.37,1.13-.23,1.69-.33.32-.06.47-.21.71-.28.73-.22,1.52-.37,2.42-.12.16.05.49.02.62-.05.21-.12.31-.28.68-.31.63-.04,1.25-.12,1.87-.18.55-.06,1.09-.18,1.63-.15.78.05.95-.4,1.56-.46,1.02-.1,2.02-.21,3.04-.3.3-.03.61-.04.92-.03.19,0,.18.1.03.19-.08.05-.09.14-.14.21.22.01.45.03.67.03.05,0,.09-.07.13-.1.21-.17.43-.34.64-.52.32.18.7.19,1.09.19.07,0,.15.04.21.08.25.13.37.06.49-.06.28-.28.49.08.72.06.11,0,.16-.14.26-.19.32-.16.71-.27,1.01-.46.22-.13.77-.17,1.13-.12.61.09,1.18.21,1.79.12.05,0,.19.05.2.07.13.55.76.36,1.25.3.74-.08,1.59-.05,2.03-.49.81-.1,1.72-.07,2.26-.51.86-.09,1.71-.19,2.58-.25.11,0,.31.16.43.27.08.08.07.18.13.27.13.21.23.23.55,0,.24-.17.57-.11.84-.18.12.05,1.49.42,1.56.41Zm-4.25-.42c-.03.07-.07.13-.07.2,0,.02.12.05.19.07.03-.06.06-.13.09-.19-.08-.03-.14-.05-.21-.08Z"/>
      <path class="cls-1" d="m122.91,90.84c.09-.04.17-.09.22-.15.02-.03,0-.1-.05-.11-.04-.02-.16,0-.2.02-.07.05-.11.12.02.08,1.03-.05,1.27-.7,2.18-.6,0,0,.09-.16.04-.19-.18-.09-.4-.16-.6-.24-.14-.05-.27-.1-.41-.16.15-.07.3-.15.46-.2.25-.08.59-.11.76-.22.29-.2.56-.28.96-.1.31.14.59.06.89.06.21,0,.51.01.63.09.14.09.14.26-.22.52-.31.24.08.23.36.11.05-.02.09-.07.1-.11.03-.13-.06-.16-.27-.11-.18.05-.39.09-.57.14-.03,0-.03.06.38-.03.96-.18,1.51-.24,2.05-.29.59.34,1.2.15,1.8.1.46-.04.5.15.6.32.23.41.24.41.96.37.15,0,.31-.03.46-.02.24.03.23.09.14.19-.46.47-.63.51-1.43.22-.44-.16-.83-.28-1.33-.17-.21.05-.48.04-.69.08-.07.01-.09.12-.09.19,0,.02.13.05.2.08.21.08.41.17.62.24.38.12.13.2-.03.26-.35.14-.72.27-1.09.4-.48.16-.88-.15-1.32-.14-.37.01-.73.04-1,.25-.34.27-.84.21-1.45.11-1.16-.18-2.32-.57-3.56-.33-.06.01-.18.01-.22-.01-.29-.15-.77-.18-.89-.45-.11-.27.27-.24.5-.34.58-.25.8-.68.39-.92-.47-.28-.71-.58-.95-.91-.02-.03-.15-.06-.19-.05-.06.02-.14.08-.12.11.14.3.25.61.47.9.25.33.29.32-.08.37-.37.05-.76.09-1.12.17-.07.01-.05.16-.07.24-.37.04-.75.06-1.1.12-.39.06-.73.02-1.04-.14-.33-.18-.87-.21-.92-.51.15-.07.27-.17.24-.19-.24-.15-.32-.02-.39.08-.02.03,0,.1.05.11.04.02.13,0,.1,0-.82-.01-1.17-.29-1.48-.62-.09-.1-.26-.06-.3.07-.03.12.07.28-.03.37-.1.08-.4.14-.58.11-.4-.07-.1-.19-.03-.28.03-.04.08-.07.12-.11-.13-.04-.26-.1-.39-.11-.37-.02-.46.18-.67.3-.33.18-.73.1-.87-.16-.09-.18-.16-.36-.24-.53,1.04-.04,1.95-.18,2.35-.8.03-.05.32-.01.43-.06.21-.09.14-.17-.08-.28-.42-.21-.84-.23-1.3-.15-.04-.09-.1-.18-.11-.27-.01-.08,0-.23.06-.24.83-.1,1.66-.18,2.5-.26.42.26.91.17,1.33.09.66-.12,1.17.09,1.42.35.25.26.41.33.88.28,1.25-.13,1.25-.1,2.26.04.58.08,1.07.18,1.21.56.11.32.64.74-.43.82-.18.23-.64.39-.38.72.16.21.21.45.13.77-.11.13-.01.18,0,.17Zm-2.85-2.66c-.13-.07-.57-.11-.61-.07-.33.33-.94.36-1.48.47-.06.01-.08.07-.12.11.07.03.13.06.2.08.49.12,1.06-.29,1.43.13.42-.01.83-.56.57-.71Zm-3.33-.66c-.22.06-.35.15-.23.31.03.04.02.1.06.13.22.13.33.06.49-.05.12-.09.35-.12.52-.2.1-.05.17-.12.26-.18-.14-.03-.28-.07-.42-.09-.07,0-.15.01-.23.02-.15.02-.32.02-.45.05Z"/>
      <path class="cls-1" d="m136.91,2.22c-.24-.34-.2-.59.51-.66.05,0,.11-.07.11-.11,0-.03-.11-.07-.17-.08-.22,0-.45.02-.67.01-.22,0-.52,0-.63-.07-.22-.15-.11-.32.05-.48.18-.18.57-.3.43-.57-.16.02-.31.03-.47.05-.41.06-.99-.02-.83.44.05.16-.33.34-.52.52-.33-.17-.68-.19-1.1-.16-.58.05-1.19.29-1.8-.04-.14.08-.26.18-.41.25-.28.12-.58.09-.81-.06-.53-.35-.95-.44-1.41-.15-.49.3-.97.38-1.61.16-.19-.07-.26-.08-.33.05-.11.19-.41.25-.74.25-.36,0-.55.13-.69.29-.07.08-.16.15-.24.23.14.04.29.11.41.1.7-.06,1.4-.14,2.1-.21.31-.03.62-.09.93-.09.64,0,.33.19.17.32-.11.09-.08.17.15.18.53.02,1.06-.16,1.57.14.06.04.4.01.43-.03.28-.41.98-.36,1.57-.44-.13-.23.1-.32.42-.32.16,0,.41.1.48.18.14.17.09.33-.32.36.31.21.63.28.84.18.2-.1.2-.32.67-.33.03,0-.06.02-.1,0-.04-.02-.07-.08-.05-.11.07-.1.15-.23.39-.08.03.02-.09.12-.24.19-.09.17.12.26.34.24.52-.03,1.03-.1,1.55-.15Z"/>
      <path class="cls-1" d="m145.19,92.76c-.24-.14-.17-.46-.78-.39-.62.07-.13.39-.34.54-.05.03-.07.08-.13.11-.18.09-.15.14.06.2.35.1.62.3,1.09.23.18-.03.43.06.22.24-.23.2-.42.32-.58.25-.3-.13-.58-.13-.9-.09-.46.06-.93.09-1.4.13-.06,0-.13-.06-.21-.07-.66-.1-1.3-.25-1.97-.31-.22-.02-.14-.08-.08-.2.21-.37,1.07-.35,1.23-.72.39-.04.78-.08,1.2-.06.28.22.56.19.82.11.06-.02.12-.09.11-.1-.09-.05-.21-.13-.3-.13-.22,0-.44.04-.65.06,0,0,.01.09.03.06-.12-.28-.14-.53-.62-.63-.2-.04-.23-.16-.02-.19.6-.09,1.22-.19,1.85-.21.34,0,.64.21,1.1.18.3-.01.66.25,1.09.16.02,0,.2.13.18.17-.13.25-.65.39-.55.7-.15-.02-.35,0-.43-.06Zm-1.51-.65s.08-.07.12-.1c-.12-.02-.24-.05-.35-.05-.04,0-.08.07-.12.1.12.02.24.05.35.05Z"/>
      <path class="cls-1" d="m120.8,2.44c-.28.03-.49-.04-.52-.19-.02-.11.05-.24.16-.34.07-.06.37-.03.41-.08.32-.43.89-.68,1.69-.76.19-.33.49-.17.85-.05.26.08.58-.06.63-.25.01-.04-.05-.09-.05-.13,0-.15.07-.24.37-.27.29-.03.43.04.57.17.12.11.23.24.41.31.42.18.43.36.17.57-.13.11-.22.24-.38.33-.34.22-.38.56-1.04.65-.68.09-1.05-.18-1.51-.34-.2-.07-.27-.09-.34.04-.14.26-.59.24-1.19.3.07,0-.08,0-.24.02Zm2.96-.59c.03-.07.07-.13.07-.2,0-.02-.12-.05-.19-.07-.03.06-.06.13-.09.19.08.03.14.05.21.08Z"/>
      <path class="cls-1" d="m139.72,1.93c.13.16-.03.24-.24.31-.17.06-.33.13-.5.2.21.08.4.18.62.23.2.05.44.06.66.05.31-.01.66-.13.92-.07.44.09.82.27,1.02-.12.04-.08.13-.17.25-.22.17-.07.38-.12.59-.13.08,0,.25.11.3.18.09.13.09.27.19.4.11.13.33.2.58.14.13-.03.32-.09.32-.15.01-.29-.37-.62.14-.87-.11-.05-.24-.1-.34-.16-.34-.21-.35-.23-.23-.46q.13-.26-.18-.38c-.43-.16-.41-.16-.57.16-.08.16-.25.31-.35.47-.08.13-.14.12-.34.04-.18-.07-.44-.13-.63-.12-.62.04-1.24.12-1.85.18.09.19-.02.29-.35.32Z"/>
      <path class="cls-1" d="m2.81,32.31c.38.13.39.21-.03.32-.54.13-.48.13-.17.3.51.27,1.03.2,1.55.12.45-.07.74-.04.86.28.05.13.28.19.56.16.28-.03.35-.13.36-.27.01-.12.02-.26.12-.36.17-.18.18-.35-.12-.46-.31-.11-.71-.48-1.04-.03,0,0-.3-.02-.33-.06-.1-.13-.12-.27-.19-.4-.11-.19-.51-.31-.7-.21-.31.17-.6.35-1.01.45-.16.04-.09.13.14.18Z"/>
      <path class="cls-1" d="m131.34,92.58c.54,0,.85-.21,1.13-.49.34-.33.39-.31,1.1-.13.16.04.5.23.36-.08-.08-.19-.11-.35.13-.49.16-.09.13-.18-.1-.18-.46,0-.92.06-1.37.09-.79-.37-1.05.19-1.61.23.07.33-.17.54-.7.65-.06.01-.05.16,0,.24.05.07.18.18.29.19.23.02.46-.02.77-.04Z"/>
      <path class="cls-1" d="m86.44,82.93c-.82.15-1.08.06-1.18-.45-.12.04-.24.09-.36.13-.14.06-.12.29-.46.12-.28-.14-.65-.19-.83-.05-.23.18-.5.29-.84.39-.1.03-.12.31-.02.35.36.16.69.4,1.25.33.76-.1,1.55-.15,2.31-.25.42-.06.27-.27.18-.44-.02-.04-.04-.09-.06-.13Z"/>
      <path class="cls-1" d="m134.01,90.77c.07.03.14.07.2.07.15,0,.31-.02.46-.03.83-.04.96.04.74.49-.03.07-.05.14-.08.21.15.02.36.08.43.04.47-.25,1.14-.38,1.42-.73.08-.1.07-.25.03-.37-.01-.04-.22-.07-.33-.1-.37.5-.89.3-1.49.07-.7-.27-1.04-.19-1.38.27-.02.03,0,.07-.01.1Z"/>
      <path class="cls-1" d="m78.09,78.95c.31-.03.62-.08.94-.09.25,0,.32-.04.17-.16-.04-.04-.15-.05-.2-.08-.47-.31-1.16-.24-1.73-.4-.79-.21-1.27.19-.9.69.05.07.23.18.32.18.47-.03.94-.09,1.41-.13Z"/>
      <path class="cls-1" d="m159.04,95.26c.23.18.37.35.59.46.43.21.9.39,1.35.58.05.02.14.03.17.02.06-.02.08-.07.13-.11.25-.19.39-.53.25-.61-.29-.15-.59-.07-.89-.05-.54.02-.54.02-.76-.36-.03-.04-.02-.1-.06-.13-.08-.07-.18-.14-.27-.21-.09.05-.2.09-.27.15-.11.1-.2.21-.24.25Z"/>
      <path class="cls-1" d="m82.03,81.57c.84.35-.04.5-.14.73-.05.11-.12.16.13.19.15.02.37.03.44-.01.23-.16.41-.35.61-.52-.44-.36.07-.67.05-1.01,0-.04-.05-.08-.1-.12-.16-.11-.24-.1-.34,0-.18.19-.41.37-.6.56-.05.05-.03.13-.04.17Z"/>
      <path class="cls-1" d="m137.24,92c-.05.01-.12.02-.15.04-.25.22-.53.43-.71.67-.07.09,0,.29.13.35.14.07.47.08.64.04.25-.07.25-.29.61-.35.48-.08.5-.33.09-.52-.19-.09-.41-.16-.61-.24Z"/>
      <path class="cls-1" d="m80.2,81.12c.52-.39.43-.8-.13-1.2-.1-.07-.34-.09-.53-.11-.28-.02-.29.06-.16.21.25.3.18.54-.43.63-.56.08-.53.21-.05.39.15.06.26.15.36.24.35.31.47.33.67.13.09-.09.17-.19.26-.3Z"/>
      <path class="cls-1" d="m151.11,95.23c.12.04.23.1.35.12.22.04.45.03.66.07.61.1,1.04,0,1.21-.33.02-.03.05-.07.04-.1-.08-.14-1.15-.37-1.28-.26-.22.18-.41.36-.85.39-.05,0-.08.07-.13.12Z"/>
      <path class="cls-1" d="m141.08,1.22c.3-.03.62-.04.9-.1.21-.05.31-.17.18-.32-.07-.07-.19-.19-.27-.19-.45.01-.93.02-1.34.11-.24.05-.37.24-.55.37-.05.03-.1.07-.11.11-.03.14.06.15.28.11.29-.05.6-.07.9-.1Z"/>
      <path class="cls-1" d="m112.51,88.8c.46-.03.43-.21.31-.39-.09-.13-.29-.19-.57-.16-.46.06-.92.1-1.39.15-.05.11-.1.23-.17.34-.02.04-.07.07-.11.11.12.04.25.11.36.11.37-.02.73-.07,1.09-.1.02-.08,0-.21.06-.23.26-.07.36.05.4.18Z"/>
      <path class="cls-1" d="m85.5,82.46c.17-.19.36-.38.82-.38.02,0,.07-.17.03-.19-.33-.11-.73,0-1.08-.18-.25-.13-.25.13-.41.18-.19.06-.4.09-.58.16-.2.07-.16.14.06.19.31.07.82-.13.93.24.08,0,.15-.02.24-.02Z"/>
      <path class="cls-1" d="m77.88,81.09c-.34.1-.68.18-1.09.03-.02,0-.23.11-.21.13.18.19.63.23.76.49.09.18.35-.02.54-.01.22.01.44.06.66.06.24,0,.28-.06.14-.17-.2-.16-.83-.16-.57-.49-.07-.02-.15-.04-.23-.06Z"/>
      <path class="cls-1" d="m150.69,94.01c-.14.03-.35.03-.4.08-.2.21.03.51-.35.7-.06.03.04.17.09.25.02.03.1.07.17.09.05.02.15.03.16.01.29-.25.57-.5.84-.76.13-.13-.2-.37-.51-.37Z"/>
      <path class="cls-1" d="m134.13,92.85c.36-.02.73-.06.57-.39-.03-.07.04-.17.12-.23.14-.12.18-.24-.12-.28-.22-.02-.67.04-.66.06.06.31-.43.45-.58.69-.02.03-.04.1-.04.1.14.03.29.06.43.07.07,0,.15-.01.28-.03Z"/>
      <path class="cls-1" d="m79.56,79.37c.07,0,.15-.02.22-.02.3-.03.62-.05.54-.29-.03-.08-.1-.17-.2-.22-.24-.12-.43-.08-.82.13-.15.08-.34.13-.5.2-.11.05-.2.11-.3.16.13.04.26.1.38.1.23,0,.45-.04.67-.06Z"/>
      <path class="cls-1" d="m138.47,91.56c.15-.2.4-.33.82-.39.25-.04.17-.39-.11-.45-.19-.04-.55-.04-.62.02-.24.2-.66.38-.41.72.09.12.1.18.32.1Z"/>
      <path class="cls-1" d="m128.93.19c-.59-.02-.7.27-.94.47-.02.02,0,.08.03.09.14.03.29.06.42.05.49-.01.46-.45,1.05-.4.02,0,.06-.12.1-.19-.14-.02-.28-.04-.43-.05-.07,0-.15.01-.23.02Z"/>
      <path class="cls-1" d="m140.79,92.46c.15-.02.33-.01.45-.05.08-.03.1-.12.11-.19,0-.02-.14-.08-.19-.07-.46.04-.93.08-1.38.14-.07,0-.1.12-.11.19,0,.02.13.08.19.07.31-.02.61-.06.92-.09Z"/>
      <path class="cls-1" d="m140.07,1.61c-.04-.09-.08-.18-.12-.27-.49.01-.9.1-1.05.39-.03.06-.05.13-.07.2.14.02.29.04.43.04.15,0,.3-.03.46-.04-.09-.19.02-.29.35-.32Z"/>
      <path class="cls-1" d="m81.08,82.9c.09-.08.52.09.37-.17-.05-.08-.04-.18-.13-.25-.06-.05-.22-.07-.33-.1-.15.21-.43.32-.81.36-.05,0-.12.09-.11.1.1.05.22.13.32.13.23,0,.45-.04.68-.06Z"/>
      <path class="cls-1" d="m81.09,79.64c.08.03.14.06.21.08.31.06.67-.03.7-.19.02-.08-.02-.19-.11-.26-.19-.13-.35-.08-.47.05-.1.11-.22.21-.33.32Z"/>
      <path class="cls-1" d="m107.2.98c.63-.06.7-.1.58-.37-.03-.07-.17-.13-.26-.19-.01,0-.11.01-.14.04-.16.14-.31.28-.45.42-.03.03,0,.1.06.12.05.02.14,0,.21-.02Z"/>
      <path class="cls-1" d="m137.33,2.17c-.09.08-.55-.08-.36.17.04.06.26.11.38.1.29-.02.58-.06.86-.11.06,0,.12-.09.11-.1-.1-.05-.21-.13-.32-.13-.23,0-.45.04-.69.06Z"/>
      <path class="cls-1" d="m168.07,96c.11.06.21.12.32.18.04-.03.08-.07.12-.1.12-.11.26-.21.34-.33.02-.02-.15-.14-.25-.15-.48-.04-.69.12-.54.4Z"/>
      <path class="cls-1" d="m157.04,96.16c.31.06.72-.01.72-.17,0-.11-.18-.23-.27-.34-.09.04-.21.06-.28.11-.1.06-.14.15-.25.21-.17.09-.15.15.09.19Z"/>
      <path class="cls-1" d="m156.3,95.43c.15-.02.33-.01.45-.05.08-.03.1-.12.1-.19,0-.02-.13-.08-.19-.07-.31.02-.62.05-.91.1-.07.01-.09.12-.1.19,0,.02.13.07.19.07.15,0,.31-.03.46-.04Z"/>
      <path class="cls-1" d="m157.42,95.17c.14.05.2.09.27.1.5.06.71-.12.55-.48-.02-.04-.02-.1-.06-.12-.05-.02-.18,0-.21.02-.19.15-.37.32-.55.48Z"/>
      <path class="cls-1" d="m145.68,92.94c.25.15.53.13.79.05.06-.02.12-.09.11-.1-.09-.05-.21-.13-.3-.13-.22,0-.44.04-.65.06,0,0,.01.09.05.12Z"/>
      <path class="cls-1" d="m153.01,93.94c.1.11.5.11.78-.02.05-.02.09-.07.1-.11.03-.13-.06-.16-.27-.11-.18.05-.39.09-.57.14-.03,0-.03.06-.04.09Z"/>
      <path class="cls-1" d="m146.73,94.41c-.1.05-.2.1-.31.15.18.04.37.11.53.1.13-.01.55.09.37-.16-.04-.06-.24-.09-.38-.11-.06-.01-.14.01-.22.02Z"/>
      <path class="cls-1" d="m152.13,94.13c-.14.06-.3.14-.46.21.21.03.43.07.64.07.11,0,.2-.11.3-.16-.14-.03-.28-.07-.48-.12Z"/>
      <path class="cls-1" d="m147.45,94.75c.25.16.53.13.79.05.06-.02.12-.09.11-.1-.09-.05-.21-.13-.3-.13-.22,0-.44.04-.65.06,0,0,.01.09.05.12Z"/>
      <path class="cls-1" d="m145.22,2.91c.2.31,1.15.45,1.58.22.07-.03.11-.12.07-.18-.19-.31-1.14-.45-1.58-.23-.07.03-.06.12-.08.18Z"/>
      <path class="cls-1" d="m172.74,97.44c.11,0,.2-.11.3-.16-.14-.03-.3-.11-.41-.09-.19.03-.35.12-.53.19.21.03.43.07.64.07Z"/>
      <path class="cls-1" d="m64.7,76.9c.14.08.27.21.43.23.2.03.42-.03.63-.05-.14-.08-.27-.21-.43-.23-.2-.03-.42.03-.63.05Z"/>
      <path class="cls-1" d="m126.49.62c.2.12.66.08.78-.07.02-.02,0-.07-.03-.09-.19-.13-.66-.08-.77.07-.02.02.02.06.03.09Z"/>
      <path class="cls-1" d="m70.78,80.56c.07-.07.27-.18.22-.22-.14-.14-.64-.09-.76.07-.02.02,0,.09.03.09.14.03.28.04.51.07Z"/>
      <path class="cls-1" d="m73.69,80.66c.25.16.53.13.79.05.06-.02.12-.09.11-.1-.09-.05-.21-.13-.31-.13-.22,0-.44.04-.65.06,0,0,.01.09.05.12Z"/>
      <path class="cls-1" d="m84.23,81.07c.2.12.66.08.78-.07.02-.02,0-.07-.03-.09-.19-.13-.66-.08-.77.07-.02.02.02.06.03.09Z"/>
      <path class="cls-1" d="m75.74,80.45c.6.37,2.01.25,2.36-.22.05-.07,0-.22-.09-.28-.58-.38-2.01-.25-2.36.22-.05.07.05.19.08.28Z"/>
      <path class="cls-1" d="m86.83,81.59c.11.03.29.11.32.09.24-.12.01-.18-.17-.23-.05-.01-.17,0-.2.02-.03.02.03.08.04.12Z"/>
      <path class="cls-1" d="m12.15,52.88c.08.03.14.06.21.08.03-.07.07-.13.07-.2,0-.02-.12-.05-.19-.07-.03.06-.06.13-.09.19Z"/>
      <path class="cls-1" d="m168.04,96.89c.08.05.16.1.24.16.04-.04.13-.08.11-.1-.05-.06-.15-.11-.23-.17-.04.04-.08.07-.12.11Z"/>
      <path class="cls-1" d="m165.07,96.57s-.09.08-.12.11c.12.02.24.05.35.05.04,0,.08-.07.12-.1-.12-.02-.23-.04-.34-.07Z"/>
      <path class="cls-1" d="m160.88,95.06c.08.05.16.1.24.16.04-.04.13-.08.11-.1-.05-.06-.15-.11-.23-.17-.04.04-.08.07-.12.11Z"/>
      <path class="cls-1" d="m158.39,94.65c.05-.06.17-.16.14-.18-.24-.15-.32-.02-.39.08-.02.03.03.08.05.12.07,0,.14-.01.21-.02Z"/>
      <path class="cls-1" d="m154.36,93.76c.11.03.29.11.32.09.24-.12.01-.18-.17-.23-.05-.01-.17,0-.2.02-.03.02.03.08.04.12Z"/>
      <path class="cls-1" d="m154.31,93.64c-.04-.13-.14-.25-.4-.18-.07.02-.05.15-.06.23.16-.02.31-.03.47-.05Z"/>
      <path class="cls-1" d="m152.81,93.41c.08.03.14.05.21.08.03-.07.07-.13.07-.2,0-.02-.12-.05-.19-.07-.03.06-.06.13-.09.19Z"/>
      <path class="cls-1" d="m138.28,92.84c.11.03.29.11.32.09.24-.12.01-.18-.17-.23-.05-.01-.17,0-.2.02-.03.02.03.08.04.12Z"/>
      <path class="cls-1" d="m57.27,73.96c.05-.06.17-.16.14-.18-.24-.15-.32-.02-.39.08-.02.03.03.08.05.12.07,0,.14-.01.21-.02Z"/>
      <path class="cls-1" d="m139.04,91.78c-.03.07-.07.13-.07.2,0,.02.12.05.19.07.03-.07.07-.13.07-.2,0-.02-.12-.05-.19-.07Z"/>
      <path class="cls-1" d="m137.86,91.79c.07.03.17.08.19.07.09-.04.17-.09.22-.15.02-.03,0-.1-.05-.11s-.16,0-.2.02c-.07.05-.11.12-.16.18Z"/>
      <path class="cls-1" d="m146.3,2.22c.42.03.25-.23.37-.34.39-.15-.69-.15-1.04-.16-.12,0-.84.1-.35.3.34.07.69.13,1.02.19Z"/>
      <path class="cls-1" d="m120.2,90.7c.11.03.29.11.32.09.24-.12.01-.18-.17-.23-.05-.01-.17,0-.2.02-.03.02.03.08.04.12Z"/>
      <path class="cls-1" d="m65.76,77.08c.04.13.14.25.4.18.07-.02.05-.15.06-.23-.16.02-.31.03-.47.05Z"/>
      <path class="cls-1" d="m132.92,2.06c.07.19.27.26.59.22-.07-.19-.27-.26-.59-.22Z"/>
      <path class="cls-1" d="m138.63.72c-.08-.03-.14-.05-.21-.08-.03.07-.07.13-.07.2,0,.02.12.05.19.07.03-.06.06-.13.09-.19Z"/>
      <path class="cls-1" d="m57.08,8.59c.08-.04.17-.08.26-.13-.07-.02-.15-.08-.19-.07-.1.03-.19.08-.28.12.07.02.13.05.21.08Z"/>
      <path class="cls-1" d="m112.63,89.07l-.12-.27c-.16.02-.31.03-.47.05.07.19.27.26.59.22Z"/>
      <path class="cls-1" d="m136.75.24c.05-.06.17-.16.14-.18-.24-.15-.32-.02-.39.08-.02.03,0,.1.05.11.04.02.13,0,.2-.02Z"/>
      <path class="cls-1" d="m109.63,88.94c.11.03.29.11.32.09.24-.12.01-.18-.17-.23-.05-.01-.17,0-.2.02s.03.08.04.12Z"/>
      <path class="cls-1" d="m116.28.58c.08-.04.17-.08.26-.13-.07-.02-.15-.08-.19-.07-.1.03-.19.08-.28.12.07.02.13.05.21.08Z"/>
      <path class="cls-1" d="m113.41.63c.05-.06.17-.16.14-.18-.24-.15-.32-.02-.39.08-.02.03.03.08.05.12.07,0,.14-.01.21-.02Z"/>
      <path class="cls-1" d="m113.67,88c.07.03.17.08.19.07.09-.04.17-.09.22-.15.02-.03,0-.1-.05-.11s-.16,0-.2.02c-.07.05-.11.12-.16.18Z"/>
      <path class="cls-1" d="m113.49,86.55c.11.03.29.11.32.09.24-.12.01-.18-.17-.23-.05-.01-.17,0-.2.02-.03.02.03.08.04.12Z"/>
      <path class="cls-1" d="m85.81,80.54c-.08-.03-.14-.05-.21-.08-.03.07-.07.13-.07.2,0,.02.12.05.19.07.03-.06.06-.13.09-.19Z"/>
      <path class="cls-1" d="m86.4,81.25s-.12.09-.11.1c.08.05.18.11.28.14.05.02.17,0,.2-.02.03-.02,0-.09-.05-.11-.09-.04-.22-.07-.32-.1Z"/>
      <path class="cls-1" d="m86.79,82.61c-.33.03-.44.13-.35.32.33-.03.44-.13.35-.32Z"/>
      <path class="cls-1" d="m81.56,82.98c.11.03.29.11.32.09.24-.12.01-.18-.17-.23-.05-.01-.14.01-.21.02.02.04.04.08.05.12Z"/>
      <path class="cls-1" d="m80.67,81.91c.08.05.16.1.24.16.04-.04.13-.08.11-.1-.05-.06-.15-.11-.23-.17-.04.04-.08.07-.12.11Z"/>
      <path class="cls-1" d="m87,82.59c.05-.06.17-.16.14-.18-.24-.15-.32-.02-.39.08-.02.03,0,.1.05.11.04.02.13,0,.2-.02Z"/>
      <path class="cls-1" d="m79.86,81.89c-.03.07-.07.13-.07.2,0,.02.12.05.19.07.03-.07.07-.13.07-.2,0-.02-.12-.05-.19-.07Z"/>
      <path class="cls-1" d="m48.94,72.07c.08.05.16.1.24.16.04-.04.13-.08.11-.1-.05-.06-.15-.11-.23-.17-.04.04-.08.07-.12.11Z"/>
    </g>
  </g>
</svg>