<?xml version="1.0" encoding="UTF-8"?>
<svg xmlns="http://www.w3.org/2000/svg" xmlns:xlink="http://www.w3.org/1999/xlink" viewBox="0 0 879.96 430.68">
  <defs>
    <style>
      .cls-1 {
        fill: url(#linear-gradient);
      }

      .cls-1, .cls-2, .cls-3, .cls-4, .cls-5, .cls-6, .cls-7, .cls-8, .cls-9, .cls-10, .cls-11, .cls-12, .cls-13 {
        stroke-width: 0px;
      }

      .cls-2 {
        fill: #ff331f;
      }

      .cls-3 {
        fill: url(#linear-gradient-6);
      }

      .cls-4 {
        fill: #808285;
      }

      .cls-5 {
        fill: #58595b;
      }

      .cls-14 {
        isolation: isolate;
      }

      .cls-7 {
        fill: url(#linear-gradient-5);
      }

      .cls-8 {
        fill: #fff;
      }

      .cls-9 {
        fill: url(#linear-gradient-2);
      }

      .cls-15 {
        mix-blend-mode: multiply;
        opacity: .35;
      }

      .cls-10 {
        fill: url(#linear-gradient-7);
      }

      .cls-11 {
        fill: url(#linear-gradient-3);
      }

      .cls-12 {
        fill: #231f20;
      }

      .cls-13 {
        fill: url(#linear-gradient-4);
      }
    </style>
    <linearGradient id="linear-gradient" x1="199.24" y1="24.01" x2="306.23" y2="131" gradientUnits="userSpaceOnUse">
      <stop offset="0" stop-color="#fff"/>
      <stop offset=".48" stop-color="#fcfcfc"/>
      <stop offset=".77" stop-color="#f4f4f4"/>
      <stop offset="1" stop-color="#e6e7e8"/>
    </linearGradient>
    <linearGradient id="linear-gradient-2" x1="201.8" y1="26.57" x2="303.82" y2="128.59" gradientUnits="userSpaceOnUse">
      <stop offset="0" stop-color="#e6e7e8"/>
      <stop offset=".23" stop-color="#f4f4f4"/>
      <stop offset=".52" stop-color="#fcfcfc"/>
      <stop offset="1" stop-color="#fff"/>
    </linearGradient>
    <linearGradient id="linear-gradient-3" x1="24.01" y1="263.59" x2="131" y2="370.58" xlink:href="#linear-gradient"/>
    <linearGradient id="linear-gradient-4" x1="26.57" y1="266.15" x2="128.59" y2="368.17" xlink:href="#linear-gradient-2"/>
    <linearGradient id="linear-gradient-5" x1="363.58" y1="263.59" x2="470.57" y2="370.58" xlink:href="#linear-gradient"/>
    <linearGradient id="linear-gradient-6" x1="366.14" y1="266.15" x2="468.16" y2="368.17" xlink:href="#linear-gradient-2"/>
    <linearGradient id="linear-gradient-7" x1="705.6" y1="524.79" x2="713.85" y2="-14.03" gradientUnits="userSpaceOnUse">
      <stop offset="0" stop-color="#ef812c"/>
      <stop offset="1" stop-color="#ff331f"/>
    </linearGradient>
  </defs>
  <g class="cls-14">
    <g id="_레이어_2" data-name="레이어 2">
      <g id="Layer_1" data-name="Layer 1">
        <g>
          <g>
            <g class="cls-15">
              <path class="cls-6" d="m254.33,157.96c-21.07,0-40.87-8.2-55.77-23.1-14.9-14.9-23.1-34.7-23.1-55.77s8.2-40.87,23.1-55.77C213.46,8.44,233.26.23,254.33.23s40.87,8.2,55.77,23.1c14.9,14.9,23.1,34.7,23.1,55.77s-8.2,40.87-23.1,55.77c-14.9,14.9-34.7,23.1-55.77,23.1Z"/>
            </g>
            <circle class="cls-1" cx="254.33" cy="79.1" r="79.1"/>
            <circle class="cls-9" cx="254.33" cy="79.1" r="75.43"/>
          </g>
          <g>
            <g class="cls-15">
              <path class="cls-6" d="m79.1,397.54c-21.07,0-40.87-8.2-55.77-23.1C8.44,359.55.23,339.74.23,318.68s8.2-40.87,23.1-55.77c14.9-14.9,34.7-23.1,55.77-23.1s40.87,8.2,55.77,23.1c14.9,14.9,23.1,34.7,23.1,55.77s-8.2,40.87-23.1,55.77c-14.9,14.9-34.7,23.1-55.77,23.1Z"/>
            </g>
            <circle class="cls-11" cx="79.1" cy="318.68" r="79.1"/>
            <circle class="cls-13" cx="79.1" cy="318.68" r="75.43"/>
          </g>
          <g>
            <g class="cls-15">
              <path class="cls-6" d="m418.66,397.54c-21.07,0-40.87-8.2-55.77-23.1-14.9-14.9-23.1-34.7-23.1-55.77s8.2-40.87,23.1-55.77c14.9-14.9,34.7-23.1,55.77-23.1s40.87,8.2,55.77,23.1c14.9,14.9,23.1,34.7,23.1,55.77s-8.2,40.87-23.1,55.77c-14.9,14.9-34.7,23.1-55.77,23.1Z"/>
            </g>
            <circle class="cls-7" cx="418.66" cy="318.68" r="79.1"/>
            <circle class="cls-3" cx="418.66" cy="318.68" r="75.43"/>
          </g>
          <g>
            <path class="cls-2" d="m190.17,415.93v1.61h-5.57v8.3h-2.01v-9.9h7.58Zm-2.24,8.99c1.11-.07,2.24-.21,3.37-.42l.2,1.68c-1.15.21-2.29.35-3.43.42-1.14.07-2.52.11-4.16.11h-1.33v-1.68h1.33c1.56,0,2.9-.04,4.01-.11Zm6.66-10.56v16.32h-2.03v-16.32h2.03Zm2.47,6.18v1.66h-2.92v-1.66h2.92Z"/>
            <path class="cls-2" d="m204.8,416.25c.64.47,1.14,1.14,1.5,2.01.36.87.54,1.88.54,3.04s-.18,2.17-.54,3.05c-.36.88-.86,1.55-1.5,2.02-.64.47-1.37.7-2.18.7s-1.54-.23-2.18-.7c-.64-.47-1.14-1.14-1.5-2.02-.36-.88-.54-1.89-.54-3.05s.18-2.17.54-3.04c.36-.87.86-1.54,1.5-2.01.64-.47,1.37-.7,2.18-.7s1.54.24,2.18.7Zm-3.38,1.59c-.35.31-.62.76-.8,1.35-.19.59-.28,1.3-.28,2.11s.09,1.52.28,2.12c.19.6.46,1.05.8,1.37.35.32.75.48,1.2.48s.85-.16,1.2-.48c.35-.32.61-.77.8-1.37.19-.6.28-1.3.28-2.12s-.09-1.52-.28-2.11c-.19-.59-.46-1.04-.8-1.35-.35-.31-.75-.47-1.2-.47s-.85.16-1.2.47Zm9.9-3.48v16.32h-2.03v-16.32h2.03Z"/>
            <path class="cls-2" d="m220.27,415.58v4.81h-3.78v2.92h-1.92v-4.39h3.75v-1.75h-3.8v-1.59h5.76Zm-1.52,6.62c.85-.06,1.72-.17,2.61-.34l.2,1.59c-.91.16-1.82.27-2.7.32-.89.05-1.96.08-3.22.08h-1.08v-1.57h1.08c1.22,0,2.25-.03,3.11-.08Zm8.9,3.02v5.43h-1.99v-3.82h-8.99v-1.61h10.98Zm-3.76-6.87v1.63h-3.03v-1.63h3.03Zm.51-3.65v9.72h-1.88v-9.72h1.88Zm3.25-.33v10.14h-1.9v-10.14h1.9Z"/>
            <path class="cls-2" d="m244.57,427.06v1.63h-14.73v-1.63h14.73Zm-1.75-11.42v1.61h-9.15v6.1h-2.03v-7.71h11.18Zm.15,7.25v1.61h-11.33v-1.61h11.33Zm-.51-3.65v1.57h-9.41v-1.57h9.41Z"/>
            <path class="cls-2" d="m252.85,415.71v4.07h3.89v-4.07h1.97v11.11h-7.86v-11.11h1.99Zm0,9.5h3.89v-3.86h-3.89v3.86Zm10.58-10.85v16.32h-2.01v-16.32h2.01Z"/>
            <path class="cls-2" d="m280.68,422.24v1.57h-14.69v-1.57h14.69Zm-4.26-7.22c.88.24,1.55.6,2.03,1.07.48.47.71,1.02.71,1.65s-.24,1.18-.71,1.64-1.15.82-2.03,1.06c-.88.24-1.91.37-3.09.37s-2.21-.12-3.09-.37c-.88-.24-1.55-.6-2.03-1.06-.48-.46-.71-1.01-.71-1.64s.24-1.18.71-1.65c.47-.47,1.15-.83,2.03-1.07.88-.24,1.91-.37,3.09-.37s2.21.12,3.09.37Zm1.01,10.54c.99.51,1.49,1.23,1.49,2.16s-.5,1.66-1.49,2.17c-.99.51-2.37.77-4.12.77s-3.15-.26-4.14-.77c-.99-.51-1.49-1.24-1.49-2.17s.5-1.64,1.49-2.16c.99-.51,2.37-.77,4.14-.77s3.13.26,4.12.77Zm-6.04-5.7v3.02h-1.99v-3.02h1.99Zm-.09-3.49c-.56.12-.99.3-1.29.53-.3.23-.45.51-.45.84,0,.5.33.88.99,1.15.66.27,1.58.4,2.78.4s2.1-.13,2.76-.4c.66-.27.99-.65.99-1.15,0-.33-.15-.61-.45-.84-.3-.23-.73-.41-1.29-.53-.56-.12-1.24-.18-2.03-.18s-1.45.06-2.01.18Zm.04,10.11c-.54.1-.94.26-1.21.47-.27.21-.41.46-.41.77,0,.46.31.81.92,1.05.61.24,1.51.36,2.68.36s2.06-.12,2.67-.36c.61-.24.91-.59.91-1.05,0-.3-.14-.56-.41-.77-.27-.21-.68-.36-1.21-.47-.53-.1-1.19-.16-1.96-.16s-1.44.05-1.97.16Zm5.88-6.62v3.02h-1.99v-3.02h1.99Z"/>
            <path class="cls-2" d="m291.62,418.47v1.06c0,1.15-.18,2.26-.53,3.33-.35,1.08-.87,2.03-1.54,2.85-.67.82-1.46,1.45-2.38,1.87l-1.1-1.54c.82-.39,1.52-.93,2.12-1.62.6-.69,1.05-1.46,1.36-2.31.31-.85.47-1.72.47-2.59v-1.06h1.59Zm3.8-1.37v1.59h-8.83v-1.59h8.83Zm-3.38-2.38v3.22h-2.01v-3.22h2.01Zm0,3.75v1.06c0,.83.16,1.65.48,2.47.32.82.77,1.56,1.37,2.22.6.66,1.3,1.18,2.12,1.56l-1.06,1.52c-.93-.4-1.73-1-2.4-1.8-.68-.8-1.19-1.71-1.55-2.75-.36-1.04-.54-2.11-.54-3.22v-1.06h1.59Zm6.12,2.27v1.63h-3.62v-1.63h3.62Zm1.52-6.38v16.32h-1.99v-16.32h1.99Z"/>
            <path class="cls-2" d="m310.61,415.82v6.1h-5.56v3.89h-2.03v-5.5h5.56v-2.89h-5.59v-1.61h7.62Zm-2.03,9.25c1.21-.07,2.44-.22,3.71-.44l.2,1.63c-1.29.22-2.56.37-3.79.45-1.24.08-2.66.12-4.27.12h-1.41v-1.64h1.41c1.56,0,2.94-.04,4.15-.11Zm7-10.71v16.32h-2.01v-16.32h2.01Z"/>
          </g>
          <g>
            <path class="cls-12" d="m253.67,128.84v1.61h-14.69v-1.61h14.69Zm-10.87,2.7v3.51h-1.99v-3.51h1.99Zm9.23,2.92v1.63h-11.22v-1.63h11.22Zm-9.15-13.72v1.75h6.91v-1.75h2.01v6.58h-10.91v-6.58h1.99Zm0,5.01h6.91v-1.7h-6.91v1.7Zm4.44.71v3.05h-2.01v-3.05h2.01Z"/>
            <path class="cls-12" d="m260.36,121.46v2.56c0,1.29-.18,2.53-.53,3.73-.35,1.19-.87,2.25-1.54,3.17-.68.92-1.48,1.62-2.42,2.09l-1.21-1.63c.84-.4,1.57-.99,2.18-1.76.61-.77,1.08-1.65,1.41-2.62.32-.97.48-1.97.48-2.98v-2.56h1.63Zm.37,0v2.56c0,.97.16,1.93.47,2.87.31.94.76,1.78,1.34,2.51.58.74,1.29,1.31,2.1,1.71l-1.22,1.59c-.9-.46-1.67-1.14-2.32-2.02-.65-.88-1.14-1.9-1.47-3.05-.34-1.15-.5-2.35-.5-3.61v-2.56h1.61Zm6.87-1.32v16.26h-2.03v-16.26h2.03Zm2.49,6.38v1.68h-2.94v-1.68h2.94Z"/>
          </g>
          <g>
            <path class="cls-12" d="m392.18,143.86c.65.34,1.15.81,1.52,1.42.37.6.55,1.29.55,2.07s-.18,1.43-.55,2.03c-.37.6-.87,1.07-1.52,1.41-.65.34-1.36.51-2.16.51s-1.51-.17-2.15-.51c-.64-.34-1.14-.81-1.51-1.42-.37-.6-.55-1.28-.55-2.04s.18-1.45.55-2.06c.37-.6.87-1.08,1.51-1.42.64-.34,1.35-.51,2.15-.51s1.51.17,2.16.51Zm-3.53,1.19c-.41.22-.73.53-.96.93-.23.4-.34.86-.34,1.37s.12.93.35,1.32c.23.39.55.7.96.92s.86.34,1.36.34.97-.11,1.37-.34c.4-.23.72-.53.96-.92.24-.39.36-.83.36-1.32s-.12-.97-.36-1.37c-.24-.4-.56-.71-.97-.93-.41-.22-.86-.33-1.36-.33s-.96.11-1.37.33Zm1.21,7.73v4.35h-1.55v-4.35h1.55Zm9.3,3.91v1.3h-10.85v-1.3h10.85Zm-.49-14.44v11.71h-1.59v-11.71h1.59Z"/>
            <path class="cls-12" d="m407.97,144.15v1.26h-4.44v8.24h-1.5v-9.5h5.94Zm-1.72,9c.82-.05,1.65-.17,2.5-.34l.13,1.28c-.85.17-1.69.28-2.52.34-.83.05-1.92.08-3.29.08h-1.04v-1.28h1.04c1.3,0,2.36-.03,3.18-.08Zm1.01-4.63v1.22h-4.17v-1.22h4.17Zm3.86-.22v1.3h-3.02v-1.3h3.02Zm.73-5.7v14.91h-1.48v-14.91h1.48Zm3.29-.37v16.08h-1.54v-16.08h1.54Z"/>
            <path class="cls-12" d="m425.75,143.73v5.81h-5.81v4.13h-1.61v-5.43h5.83v-3.23h-5.87v-1.28h7.46Zm-2,9.32c1.22-.07,2.5-.22,3.83-.44l.16,1.28c-1.34.23-2.63.38-3.86.46-1.24.07-2.63.11-4.19.11h-1.35v-1.3h1.35c1.49,0,2.84-.04,4.07-.11Zm6.88-10.83v16.13h-1.59v-16.13h1.59Z"/>
            <path class="cls-12" d="m439.76,144.15c.61.46,1.08,1.12,1.43,1.97.34.85.51,1.84.51,2.96s-.17,2.13-.51,2.98c-.34.85-.82,1.51-1.43,1.97-.61.46-1.3.69-2.08.69s-1.47-.23-2.08-.69c-.61-.46-1.08-1.12-1.43-1.97-.34-.85-.51-1.84-.51-2.96s.17-2.13.51-2.98.82-1.51,1.43-1.97c.61-.46,1.3-.69,2.08-.69s1.47.23,2.08.69Zm-3.39,1.25c-.38.35-.69.83-.9,1.46-.22.63-.33,1.37-.33,2.24s.11,1.58.33,2.21c.22.63.52,1.12.9,1.46.38.34.82.51,1.31.51s.94-.17,1.32-.51c.38-.34.67-.83.89-1.46.21-.63.32-1.37.32-2.21s-.11-1.61-.32-2.24c-.21-.63-.51-1.12-.89-1.46-.38-.35-.82-.52-1.32-.52s-.92.17-1.31.52Zm9.38,2.91v1.28h-4.57v-1.28h4.57Zm.88-6.1v16.13h-1.55v-16.13h1.55Z"/>
            <path class="cls-12" d="m399.98,172.66v1.28h-14.51v-1.28h14.51Zm-3.17,3.07c.96.44,1.43,1.08,1.43,1.92s-.48,1.48-1.43,1.92c-.96.44-2.32.66-4.1.66s-3.12-.22-4.08-.66c-.95-.44-1.43-1.08-1.43-1.92s.48-1.48,1.43-1.92c.95-.44,2.31-.66,4.08-.66s3.15.22,4.1.66Zm1.42-11.09v1.24h-9.26v4.71h-1.59v-5.96h10.85Zm.09,5.3v1.22h-10.95v-1.22h10.95Zm-.49-2.69v1.21h-9.36v-1.21h9.36Zm-8.02,9.36c-.67.24-1,.58-1,1.03s.33.81,1,1.04,1.64.35,2.92.35,2.25-.12,2.92-.35c.67-.23,1-.58,1-1.04s-.34-.79-1.01-1.03-1.65-.36-2.91-.36-2.25.12-2.92.36Zm3.71-5.98v2.58h-1.59v-2.58h1.59Z"/>
            <path class="cls-12" d="m410.97,165.79v1.26h-9.48v-1.26h9.48Zm-2.72,2.32c.58.23,1.04.56,1.36.98.32.42.48.92.48,1.49s-.16,1.06-.48,1.49c-.32.43-.78.76-1.36,1-.58.23-1.26.35-2.03.35s-1.42-.12-2-.36c-.58-.24-1.03-.57-1.35-1-.32-.43-.48-.92-.48-1.48s.16-1.07.48-1.49c.32-.42.77-.75,1.35-.98.58-.23,1.25-.35,2.02-.35s1.43.12,2.01.35Zm-2.89,6.1v1.66h7.03v-1.66h1.55v5.83h-10.14v-5.83h1.55Zm-.83-4.83c-.43.3-.65.7-.65,1.2s.22.9.65,1.2c.43.3,1,.45,1.71.45s1.26-.15,1.69-.45c.43-.3.65-.7.65-1.2s-.22-.9-.65-1.2c-.43-.3-1-.45-1.71-.45s-1.26.15-1.69.45Zm.83,9.38h7.03v-1.68h-7.03v1.68Zm1.68-14.75v2.47h-1.59v-2.47h1.59Zm6.91.16v9.34h-1.59v-9.34h1.59Zm2.36,4.06v1.33h-3.03v-1.33h3.03Z"/>
            <path class="cls-12" d="m422.61,172.36c1.7-.07,3.27-.21,4.72-.4l.11,1.13c-1.49.26-3.07.43-4.74.52-1.68.09-3.42.14-5.24.14l-.18-1.28c1.85,0,3.63-.04,5.33-.11Zm2.73-6.96v1.3h-7.07v-1.3h7.07Zm-4.04,9.76v3.84h-1.55v-3.84h1.55Zm9.17,3.45v1.3h-10.73v-1.3h10.73Zm-8.3-9.61v4.02h-1.55v-4.02h1.55Zm4.09-3.6v.88c0,.8-.02,1.57-.07,2.28-.05.72-.16,1.54-.35,2.47l-1.53-.16c.18-.91.3-1.71.34-2.4.04-.69.06-1.42.06-2.18v-.88h1.55Zm3.69-1.24v12.12h-1.57v-12.12h1.57Zm2.27,5.19v1.32h-2.96v-1.32h2.96Z"/>
            <path class="cls-12" d="m441.72,165.66v5.81h-5.81v4.13h-1.61v-5.43h5.83v-3.23h-5.87v-1.28h7.46Zm-2,9.32c1.22-.07,2.5-.22,3.83-.44l.16,1.28c-1.34.23-2.63.38-3.86.46-1.24.07-2.63.11-4.19.11h-1.35v-1.3h1.35c1.49,0,2.84-.04,4.07-.11Zm6.88-10.83v16.13h-1.59v-16.13h1.59Z"/>
          </g>
          <g>
            <path class="cls-12" d="m66.48,143.86c.65.34,1.15.81,1.52,1.42.37.6.55,1.29.55,2.07s-.18,1.43-.55,2.03c-.37.6-.87,1.07-1.52,1.41-.65.34-1.36.51-2.16.51s-1.51-.17-2.15-.51c-.64-.34-1.14-.81-1.51-1.42-.37-.6-.55-1.28-.55-2.04s.18-1.45.55-2.06c.37-.6.87-1.08,1.51-1.42.64-.34,1.36-.51,2.15-.51s1.51.17,2.16.51Zm-3.53,1.19c-.41.22-.73.53-.96.93-.23.4-.34.86-.34,1.37s.12.93.35,1.32c.23.39.55.7.96.92.41.23.86.34,1.36.34s.97-.11,1.37-.34c.4-.23.72-.53.96-.92.24-.39.36-.83.36-1.32s-.12-.97-.36-1.37c-.24-.4-.56-.71-.97-.93-.41-.22-.86-.33-1.36-.33s-.96.11-1.37.33Zm1.21,7.73v4.35h-1.55v-4.35h1.55Zm9.3,3.91v1.3h-10.85v-1.3h10.85Zm-.49-14.44v11.71h-1.59v-11.71h1.59Z"/>
            <path class="cls-12" d="m82.26,144.15v1.26h-4.44v8.24h-1.5v-9.5h5.94Zm-1.72,9c.82-.05,1.65-.17,2.5-.34l.13,1.28c-.85.17-1.69.28-2.52.34-.83.05-1.92.08-3.29.08h-1.04v-1.28h1.04c1.3,0,2.36-.03,3.18-.08Zm1.01-4.63v1.22h-4.17v-1.22h4.17Zm3.86-.22v1.3h-3.02v-1.3h3.02Zm.73-5.7v14.91h-1.48v-14.91h1.48Zm3.29-.37v16.08h-1.54v-16.08h1.54Z"/>
            <path class="cls-12" d="m100.04,143.73v5.81h-5.81v4.13h-1.61v-5.43h5.83v-3.23h-5.87v-1.28h7.46Zm-2,9.32c1.22-.07,2.5-.22,3.83-.44l.16,1.28c-1.34.23-2.63.38-3.86.46-1.24.07-2.63.11-4.19.11h-1.35v-1.3h1.35c1.49,0,2.84-.04,4.07-.11Zm6.88-10.83v16.13h-1.59v-16.13h1.59Z"/>
            <path class="cls-12" d="m114.06,144.15c.61.46,1.08,1.12,1.43,1.97.34.85.51,1.84.51,2.96s-.17,2.13-.51,2.98c-.34.85-.82,1.51-1.43,1.97-.61.46-1.3.69-2.08.69s-1.47-.23-2.08-.69c-.61-.46-1.08-1.12-1.43-1.97-.34-.85-.51-1.84-.51-2.96s.17-2.13.51-2.98c.34-.85.82-1.51,1.43-1.97.61-.46,1.3-.69,2.08-.69s1.47.23,2.08.69Zm-3.39,1.25c-.38.35-.69.83-.9,1.46-.22.63-.33,1.37-.33,2.24s.11,1.58.33,2.21c.22.63.52,1.12.9,1.46.38.34.82.51,1.31.51s.94-.17,1.32-.51c.38-.34.67-.83.89-1.46.21-.63.32-1.37.32-2.21s-.11-1.61-.32-2.24c-.21-.63-.51-1.12-.89-1.46-.38-.35-.82-.52-1.32-.52s-.92.17-1.31.52Zm9.38,2.91v1.28h-4.57v-1.28h4.57Zm.88-6.1v16.13h-1.55v-16.13h1.55Z"/>
            <path class="cls-12" d="m74.28,172.66v1.28h-14.51v-1.28h14.51Zm-3.17,3.07c.96.44,1.43,1.08,1.43,1.92s-.48,1.48-1.43,1.92c-.96.44-2.32.66-4.1.66s-3.12-.22-4.08-.66c-.95-.44-1.43-1.08-1.43-1.92s.48-1.48,1.43-1.92c.95-.44,2.31-.66,4.08-.66s3.15.22,4.1.66Zm1.42-11.09v1.24h-9.26v4.71h-1.59v-5.96h10.85Zm.09,5.3v1.22h-10.95v-1.22h10.95Zm-.49-2.69v1.21h-9.36v-1.21h9.36Zm-8.02,9.36c-.67.24-1,.58-1,1.03s.33.81,1,1.04c.67.23,1.64.35,2.92.35s2.25-.12,2.92-.35c.67-.23,1-.58,1-1.04s-.34-.79-1.01-1.03c-.68-.24-1.65-.36-2.91-.36s-2.25.12-2.92.36Zm3.71-5.98v2.58h-1.59v-2.58h1.59Z"/>
            <path class="cls-12" d="m85.26,165.79v1.26h-9.48v-1.26h9.48Zm-2.72,2.32c.58.23,1.04.56,1.36.98.32.42.48.92.48,1.49s-.16,1.06-.48,1.49c-.32.43-.78.76-1.36,1-.58.23-1.26.35-2.03.35s-1.42-.12-2-.36c-.58-.24-1.03-.57-1.35-1-.32-.43-.48-.92-.48-1.48s.16-1.07.48-1.49c.32-.42.77-.75,1.35-.98.58-.23,1.25-.35,2.02-.35s1.43.12,2.01.35Zm-2.89,6.1v1.66h7.03v-1.66h1.55v5.83h-10.14v-5.83h1.55Zm-.83-4.83c-.43.3-.65.7-.65,1.2s.22.9.65,1.2c.43.3,1,.45,1.71.45s1.26-.15,1.69-.45c.43-.3.65-.7.65-1.2s-.22-.9-.65-1.2c-.43-.3-1-.45-1.71-.45s-1.26.15-1.69.45Zm.83,9.38h7.03v-1.68h-7.03v1.68Zm1.68-14.75v2.47h-1.59v-2.47h1.59Zm6.91.16v9.34h-1.59v-9.34h1.59Zm2.36,4.06v1.33h-3.03v-1.33h3.03Z"/>
            <path class="cls-12" d="m96.91,172.36c1.7-.07,3.27-.21,4.72-.4l.11,1.13c-1.49.26-3.07.43-4.74.52-1.68.09-3.42.14-5.24.14l-.18-1.28c1.85,0,3.63-.04,5.33-.11Zm2.73-6.96v1.3h-7.07v-1.3h7.07Zm-4.04,9.76v3.84h-1.55v-3.84h1.55Zm9.17,3.45v1.3h-10.73v-1.3h10.73Zm-8.3-9.61v4.02h-1.55v-4.02h1.55Zm4.09-3.6v.88c0,.8-.02,1.57-.07,2.28-.05.72-.16,1.54-.35,2.47l-1.53-.16c.18-.91.3-1.71.34-2.4.04-.69.06-1.42.06-2.18v-.88h1.55Zm3.69-1.24v12.12h-1.57v-12.12h1.57Zm2.27,5.19v1.32h-2.96v-1.32h2.96Z"/>
            <path class="cls-12" d="m116.01,165.66v5.81h-5.81v4.13h-1.61v-5.43h5.83v-3.23h-5.87v-1.28h7.46Zm-2,9.32c1.22-.07,2.5-.22,3.83-.44l.16,1.28c-1.34.23-2.63.38-3.86.46-1.24.07-2.63.11-4.19.11h-1.35v-1.3h1.35c1.49,0,2.84-.04,4.07-.11Zm6.88-10.83v16.13h-1.59v-16.13h1.59Z"/>
          </g>
          <g>
            <g>
              <path class="cls-12" d="m376.12,354.44c.66.35,1.18.84,1.56,1.46.38.63.57,1.32.57,2.09s-.19,1.48-.57,2.1c-.38.62-.9,1.11-1.56,1.46-.66.35-1.4.53-2.2.53s-1.56-.18-2.22-.53c-.66-.35-1.19-.84-1.57-1.46-.38-.62-.58-1.32-.58-2.1s.19-1.46.58-2.09c.38-.63.91-1.12,1.57-1.46.66-.35,1.4-.52,2.22-.52s1.54.17,2.2.52Zm-3.44,1.51c-.37.19-.65.47-.86.82-.21.35-.31.77-.31,1.24s.1.87.31,1.21c.21.35.49.62.86.81.37.2.77.29,1.22.29s.86-.1,1.22-.29c.37-.19.65-.47.86-.81.21-.35.31-.75.31-1.21s-.1-.89-.31-1.24c-.21-.35-.49-.63-.86-.82-.37-.2-.77-.29-1.22-.29s-.86.1-1.22.29Zm1.35,7.49v4.37h-1.99v-4.37h1.99Zm9.12,3.75v1.61h-11.11v-1.61h11.11Zm-.44-14.33v11.75h-2.01v-11.75h2.01Z"/>
              <path class="cls-12" d="m391.78,354.71v1.59h-4.13v8.06h-1.9v-9.65h6.03Zm-1.79,9.03c.82-.05,1.64-.15,2.49-.31l.16,1.61c-.85.16-1.69.26-2.52.31-.83.05-1.92.07-3.27.07h-1.1v-1.61h1.1c1.28,0,2.33-.02,3.14-.07Zm1.13-4.62v1.54h-4.02v-1.54h4.02Zm3.73-.26v1.63h-2.96v-1.63h2.96Zm.93-5.68v15.18h-1.88v-15.18h1.88Zm3.36-.33v16.26h-1.92v-16.26h1.92Z"/>
              <path class="cls-12" d="m409.69,354.29v6.1h-5.56v3.89h-2.03v-5.5h5.56v-2.89h-5.59v-1.61h7.62Zm-2.03,9.25c1.21-.07,2.44-.22,3.71-.44l.2,1.63c-1.29.22-2.56.37-3.79.45-1.24.08-2.66.12-4.27.12h-1.41v-1.64h1.41c1.56,0,2.94-.04,4.15-.11Zm7-10.71v16.32h-2.01v-16.32h2.01Z"/>
              <path class="cls-12" d="m423.72,354.72c.63.47,1.12,1.14,1.47,2.01.35.87.53,1.88.53,3.04s-.18,2.17-.53,3.05c-.35.88-.84,1.55-1.47,2.02-.63.47-1.34.7-2.15.7s-1.5-.23-2.13-.7c-.63-.47-1.12-1.14-1.47-2.02-.35-.88-.53-1.89-.53-3.05s.18-2.17.53-3.04c.35-.87.84-1.54,1.47-2.01.63-.47,1.34-.7,2.13-.7s1.52.24,2.15.7Zm-3.31,1.59c-.34.31-.6.76-.79,1.35-.19.59-.28,1.3-.28,2.11s.09,1.52.28,2.12c.19.6.45,1.05.79,1.37.33.32.72.48,1.16.48s.85-.16,1.19-.48c.34-.32.6-.77.79-1.37.18-.6.27-1.3.27-2.12s-.09-1.52-.27-2.11c-.18-.59-.44-1.04-.79-1.35-.34-.31-.74-.47-1.19-.47s-.83.16-1.16.47Zm9.16,2.53v1.61h-4.48v-1.61h4.48Zm1.13-6.01v16.32h-1.99v-16.32h1.99Z"/>
              <path class="cls-12" d="m443.99,354.05c.65.33,1.15.78,1.52,1.36.37.58.55,1.24.55,1.98s-.18,1.4-.55,1.98c-.37.58-.87,1.03-1.52,1.36-.65.33-1.37.49-2.17.49s-1.53-.16-2.18-.49c-.65-.33-1.16-.78-1.53-1.36-.37-.58-.55-1.24-.55-1.98s.18-1.4.55-1.98c.37-.58.87-1.03,1.53-1.36.65-.33,1.38-.49,2.18-.49s1.53.16,2.17.49Zm-3.38,1.43c-.35.18-.63.43-.83.76-.2.33-.3.71-.3,1.13s.1.82.3,1.15c.2.33.48.58.83.76.35.18.75.26,1.21.26s.85-.09,1.21-.26c.35-.18.63-.43.82-.76.19-.33.29-.71.29-1.15s-.1-.8-.29-1.13c-.2-.33-.47-.58-.82-.76-.35-.18-.76-.27-1.21-.27s-.85.09-1.21.27Zm1.61,6.86v1.72h6.65v-1.72h1.99v6.58h-10.65v-6.58h2.01Zm0,4.97h6.65v-1.7h-6.65v1.7Zm7.51-10.76v1.63h-4.18v-1.63h4.18Zm1.13-3.69v8.72h-2.01v-8.72h2.01Z"/>
              <path class="cls-12" d="m457.86,357.23v.59c0,1.15-.13,2.25-.4,3.31-.27,1.06-.67,2.01-1.22,2.86-.54.85-1.22,1.51-2.04,1.98l-1.13-1.52c.73-.43,1.34-.99,1.83-1.7.49-.71.85-1.48,1.08-2.33.23-.85.35-1.71.35-2.6v-.59h1.53Zm3.07-1.53v1.63h-7.31v-1.63h7.31Zm-2.69-2.3v3.58h-1.92v-3.58h1.92Zm0,3.84v.59c0,.87.12,1.7.36,2.5.24.8.6,1.53,1.1,2.19.49.66,1.1,1.18,1.82,1.57l-1.11,1.5c-.82-.44-1.5-1.05-2.06-1.85-.55-.79-.97-1.7-1.23-2.71-.27-1.02-.4-2.09-.4-3.21v-.59h1.53Zm4.44,1.88v1.63h-2.76v-1.63h2.76Zm1.21-5.96v15.18h-1.86v-15.18h1.86Zm3.33-.31v16.26h-1.92v-16.26h1.92Z"/>
            </g>
            <g>
              <g>
                <path class="cls-5" d="m414.23,315.98c-9.03,0-16.38-7.46-16.38-16.62v-2.29c0-.48.39-.87.87-.87s.87.39.87.87v2.29c0,8.21,6.57,14.88,14.64,14.88s14.64-6.68,14.64-14.88v-2.29c0-.48.39-.87.87-.87s.87.39.87.87v2.29c0,9.16-7.35,16.62-16.37,16.62Z"/>
                <path class="cls-5" d="m416.9,279.9s-.07,0-.1,0c-.48-.05-.82-.48-.77-.96l1.29-11.4c0-.38-.58-.78-1.26-.78h-4.45c-.68,0-1.25.4-1.25.88l1.28,11.3c.05.48-.29.91-.77.96-.48.05-.91-.29-.96-.76l-1.29-11.4c0-1.54,1.33-2.71,2.98-2.71h4.45c1.65,0,2.99,1.17,2.99,2.61l-1.29,11.5c-.05.44-.43.77-.86.77Z"/>
                <path class="cls-5" d="m431.37,287.35c-.48,0-.87-.39-.87-.87,0-6.54-3.3-12.57-8.61-15.74-.41-.25-.55-.78-.3-1.19.25-.41.78-.54,1.19-.3,5.83,3.48,9.46,10.09,9.46,17.23,0,.48-.39.87-.87.87Z"/>
                <path class="cls-5" d="m396.29,287.35c-.48,0-.87-.39-.87-.87,0-7.15,3.62-13.75,9.45-17.23.41-.25.94-.11,1.19.3.25.41.11.94-.3,1.19-5.31,3.17-8.61,9.2-8.61,15.74,0,.48-.39.87-.87.87Z"/>
                <path class="cls-5" d="m430.93,293.17h-34.17c-2.03,0-3.69-1.65-3.69-3.69s1.65-3.69,3.69-3.69h1.38c3.43,0,6.88-.33,10.25-.97l.42-.08c3.34-.64,6.73-.64,10.06,0l.61.12h0c3.24.62,6.56.94,9.86.94h1.58c2.03,0,3.69,1.65,3.69,3.69s-1.65,3.69-3.69,3.69Zm-34.17-5.64c-1.08,0-1.95.88-1.95,1.95s.88,1.95,1.95,1.95h34.17c1.08,0,1.95-.88,1.95-1.95s-.88-1.95-1.95-1.95h-1.58c-3.41,0-6.84-.33-10.19-.97l-.61-.12c-3.12-.6-6.29-.6-9.41,0l-.42.08c-3.48.67-7.04,1-10.58,1h-1.38Z"/>
              </g>
              <g>
                <path class="cls-5" d="m422.89,318.58c-.48,0-.87-.39-.87-.87v-5.14c0-.48.39-.87.87-.87s.87.39.87.87v5.14c0,.48-.39.87-.87.87Z"/>
                <path class="cls-5" d="m404.79,318.58c-.48,0-.87-.39-.87-.87v-5.14c0-.48.39-.87.87-.87s.87.39.87.87v5.14c0,.48-.39.87-.87.87Z"/>
              </g>
              <g>
                <path class="cls-5" d="m405.57,331.87c-.19,0-.38-.02-.58-.07-.8-.18-1.44-.72-1.76-1.47l-4.04-9.35c-.34-.78-.26-1.67.2-2.38l.94-1.45c.72-1.11,2.19-1.48,3.35-.84l9.52,5.24h0c.73.4,1.21,1.13,1.3,1.96.09.82-.24,1.64-.86,2.18l-6.41,5.56c-.47.41-1.05.62-1.65.62Zm-3.11-14.14c-.26,0-.52.13-.67.37l-.94,1.45c-.15.22-.17.51-.06.75l4.04,9.35c.1.24.3.41.56.46.25.06.51,0,.7-.18l6.41-5.56c.2-.17.3-.42.27-.69-.03-.26-.18-.49-.41-.62l-9.52-5.24c-.12-.07-.25-.1-.38-.1Z"/>
                <path class="cls-5" d="m382.23,341.73c-.48,0-.87-.39-.87-.87v-8.81c0-4.57,3.07-8.62,7.46-9.87l10.73-3.04c.46-.13.94.14,1.07.6.13.46-.14.94-.6,1.07l-10.73,3.04c-3.65,1.03-6.2,4.4-6.2,8.2v8.81c0,.48-.39.87-.87.87Z"/>
                <path class="cls-5" d="m422.11,331.87c-.6,0-1.18-.21-1.65-.62l-6.41-5.56c-.63-.54-.95-1.36-.86-2.18.09-.82.57-1.55,1.3-1.96h0l9.52-5.24c1.16-.64,2.63-.27,3.35.84l.94,1.45c.46.71.54,1.6.2,2.38l-4.04,9.35c-.32.75-.97,1.28-1.76,1.47-.19.04-.38.07-.57.07Zm-6.79-8.8c-.23.13-.38.35-.41.62-.03.26.07.51.27.69l6.41,5.56c.19.17.45.23.7.18.25-.06.45-.23.56-.46l4.04-9.35c.11-.25.08-.53-.06-.75l-.94-1.45c-.23-.35-.69-.47-1.06-.27l-9.52,5.24Z"/>
                <path class="cls-5" d="m445.45,341.73c-.48,0-.87-.39-.87-.87v-8.81c0-3.79-2.55-7.16-6.2-8.2l-10.73-3.04c-.46-.13-.73-.61-.6-1.07.13-.46.61-.73,1.07-.6l10.73,3.04c4.39,1.24,7.46,5.3,7.46,9.87v8.81c0,.48-.39.87-.87.87Z"/>
                <path class="cls-5" d="m409.74,342.39c-.07,0-.13,0-.2-.02-.47-.11-.75-.58-.64-1.05l1.87-7.81-3.45-3.41c-.34-.34-.34-.89,0-1.23.34-.34.89-.35,1.23,0l3.8,3.75c.22.21.31.53.23.82l-1.99,8.28c-.1.4-.45.67-.84.67Z"/>
                <path class="cls-5" d="m417.86,342.39c-.39,0-.75-.27-.84-.67l-1.99-8.28c-.07-.29.02-.61.23-.82l3.8-3.75c.34-.34.89-.33,1.23,0,.34.34.33.89,0,1.23l-3.45,3.41,1.87,7.81c.11.47-.18.93-.64,1.05-.07.02-.14.02-.2.02Z"/>
                <g>
                  <path class="cls-5" d="m433.53,341.73c-.48,0-.87-.39-.87-.87v-6.3c0-.48.39-.87.87-.87s.87.39.87.87v6.3c0,.48-.39.87-.87.87Z"/>
                  <path class="cls-5" d="m393.11,341.73c-.48,0-.87-.39-.87-.87v-6.3c0-.48.39-.87.87-.87s.87.39.87.87v6.3c0,.48-.39.87-.87.87Z"/>
                </g>
              </g>
              <g>
                <path class="cls-5" d="m456.41,322.09c-.48,0-.87-.39-.87-.87v-36.38c0-3.87-3.11-6.99-6.94-6.99h-2.54v39.53c0,.48-.39.87-.87.87s-.87-.39-.87-.87v-40.39c0-.48.39-.87.87-.87h3.41c4.79,0,8.68,3.89,8.68,8.68v36.42c0,.48-.39.87-.87.87Z"/>
                <path class="cls-5" d="m450.14,328.35c-.48,0-.87-.39-.87-.87s.39-.87.87-.87c2.98,0,5.4-2.42,5.4-5.4s-2.42-5.4-5.4-5.4c-1.68,0-3.24.76-4.27,2.09-.3.38-.84.45-1.22.15-.38-.29-.45-.84-.15-1.22,1.36-1.76,3.42-2.77,5.64-2.77,3.93,0,7.14,3.2,7.14,7.13s-3.2,7.14-7.14,7.14Z"/>
                <path class="cls-5" d="m445.18,281.87h-9.72c-.48,0-.87-.39-.87-.87s.39-.87.87-.87h9.72c.48,0,.87.39.87.87s-.39.87-.87.87Z"/>
              </g>
              <path class="cls-5" d="m440.33,297.31h-2.34c-.48,0-.87-.39-.87-.87s.39-.87.87-.87h2.34c.48,0,.87.39.87.87s-.39.87-.87.87Z"/>
              <path class="cls-5" d="m440.33,303.09h-2.34c-.48,0-.87-.39-.87-.87s.39-.87.87-.87h2.34c.48,0,.87.39.87.87s-.39.87-.87.87Z"/>
              <path class="cls-5" d="m440.33,315.27h-6.79c-.48,0-.87-.39-.87-.87v-6.79c0-.48.39-.87.87-.87h6.79c.48,0,.87.39.87.87v6.79c0,.48-.39.87-.87.87Zm-5.92-1.74h5.06v-5.06h-5.06v5.06Z"/>
            </g>
          </g>
          <g>
            <g>
              <path class="cls-12" d="m54.41,361.3c-1.16,1.97-3.02,3.6-5.57,4.89l-1.13-1.52c1.46-.74,2.67-1.6,3.63-2.56.96-.96,1.67-2.04,2.14-3.23.47-1.19.7-2.52.7-3.98v-.35h1.97c0,2.53-.58,4.78-1.74,6.75Zm.8-6.75v1.63h-6.65v-1.63h6.65Zm5.21-1.72v16.28h-2.03v-16.28h2.03Zm2.39,6.38v1.66h-2.91v-1.66h2.91Z"/>
              <path class="cls-12" d="m70.73,354.25v7.14h-6.36v-7.14h6.36Zm-4.5,1.53v4.09h2.63v-4.09h-2.63Zm8.78,7.57c.83.25,1.48.6,1.93,1.06.45.46.68,1,.68,1.62s-.23,1.18-.68,1.64c-.45.46-1.09.82-1.93,1.06-.83.24-1.81.37-2.93.37s-2.1-.12-2.92-.37c-.83-.24-1.47-.6-1.92-1.06s-.68-1.01-.68-1.64.23-1.16.68-1.62c.45-.46,1.09-.81,1.92-1.06.83-.25,1.8-.37,2.92-.37s2.1.12,2.93.37Zm-4.83,1.35c-.52.12-.93.29-1.21.51-.28.23-.42.5-.42.81,0,.49.31.87.92,1.13.62.27,1.48.4,2.6.4s1.99-.13,2.6-.4c.62-.27.92-.65.92-1.13,0-.32-.14-.59-.42-.81-.28-.23-.68-.4-1.21-.51-.52-.12-1.16-.17-1.9-.17s-1.38.06-1.9.17Zm3.87-11.54v8.99h-1.88v-8.99h1.88Zm2.14,3.73v1.63h-2.76v-1.63h2.76Zm1.33-4.04v9.79h-1.9v-9.79h1.9Z"/>
              <path class="cls-12" d="m85.24,354.36v1.15c0,1.01-.18,1.97-.53,2.87-.35.9-.87,1.69-1.55,2.37-.68.68-1.5,1.19-2.47,1.53l-1.02-1.61c.83-.28,1.54-.68,2.13-1.21.59-.53,1.04-1.14,1.34-1.82.3-.68.46-1.39.46-2.12v-1.15h1.64Zm3.73-.6v1.61h-8.73v-1.61h8.73Zm4.24,9.25v5.92h-10.73v-5.92h10.73Zm-7.58-8.64v1.13c0,.68.15,1.34.44,1.97.29.63.72,1.2,1.3,1.71.57.51,1.26.89,2.06,1.16l-1,1.59c-.94-.32-1.74-.8-2.39-1.45-.66-.65-1.15-1.4-1.49-2.26-.34-.85-.5-1.76-.5-2.72v-1.13h1.59Zm-1.17,10.21v2.76h6.8v-2.76h-6.8Zm7.29-7.86v1.64h-3.31v-1.64h3.31Zm1.46-3.86v9.43h-2.01v-9.43h2.01Z"/>
              <path class="cls-12" d="m110.4,361.94v1.63h-14.71v-1.63h14.71Zm-6.76-7.35v.55c0,.95-.27,1.83-.81,2.62-.54.8-1.3,1.47-2.27,2.01-.97.54-2.09.9-3.34,1.09l-.75-1.61c1.07-.13,2.02-.41,2.85-.82.83-.41,1.47-.91,1.92-1.49.45-.58.68-1.18.68-1.8v-.55h1.74Zm5.39-.84v1.61h-12.01v-1.61h12.01Zm-5.02,9.32v6.07h-2.01v-6.07h2.01Zm.18-8.48v.55c0,.62.23,1.22.68,1.8.45.58,1.09,1.08,1.92,1.49.83.41,1.78.69,2.85.82l-.75,1.61c-1.25-.18-2.37-.54-3.34-1.09-.97-.54-1.73-1.21-2.27-2.01-.54-.8-.81-1.67-.81-2.62v-.55h1.74Z"/>
            </g>
            <g>
              <g>
                <path class="cls-5" d="m118.31,345.3c-.49,0-.89-.4-.89-.89,0-10.43-9.69-19.54-23.03-21.66-.49-.08-.82-.53-.74-1.02.08-.49.53-.82,1.02-.74,6.82,1.08,13.03,3.98,17.48,8.15,4.55,4.27,7.06,9.69,7.06,15.27,0,.49-.4.89-.89.89Z"/>
                <path class="cls-5" d="m88.38,319.12c-.32,0-.63-.17-.79-.47-.41-.78-.68-1.62-.8-2.49l-.34-2.47c-.07-.49.27-.94.76-1,.49-.07.94.27,1,.76l.34,2.47c.09.67.3,1.31.61,1.9.23.43.07.97-.37,1.2-.13.07-.28.1-.42.1Z"/>
                <path class="cls-5" d="m69.82,319.12c-.14,0-.28-.03-.42-.1-.43-.23-.6-.77-.37-1.2.31-.59.52-1.23.61-1.9l.34-2.47c.07-.49.52-.83,1-.76.49.07.83.52.76,1l-.34,2.47c-.12.88-.39,1.71-.8,2.49-.16.3-.47.47-.79.47Z"/>
                <path class="cls-5" d="m39.89,345.3c-.49,0-.89-.4-.89-.89,0-5.58,2.51-11.01,7.06-15.27,4.45-4.17,10.66-7.06,17.48-8.15.48-.08.94.25,1.02.74.08.49-.25.94-.74,1.02-13.35,2.12-23.04,11.23-23.04,21.66,0,.49-.4.89-.89.89Z"/>
                <path class="cls-5" d="m79.1,317.46c-3.07,0-6.07-1.09-8.68-3.14-3-2.37-5.38-5.95-6.75-10.14-.58-.05-1.16-.27-1.7-.65-1.26-.89-2.2-2.59-2.51-4.56-.52-3.31.84-6.27,3.1-6.72.27-.06.56-.07.85-.05.49.04.85.48.81.97-.04.49-.47.85-.97.81-.12-.01-.23,0-.34.02-1.12.23-2.09,2.21-1.7,4.7.23,1.48.91,2.78,1.78,3.38.39.28.78.38,1.15.31.45-.09.89.18,1.02.62,1.22,4.13,3.48,7.65,6.35,9.91,2.29,1.81,4.91,2.76,7.58,2.76s5.29-.95,7.58-2.76c2.87-2.27,5.13-5.79,6.35-9.91.13-.44.57-.71,1.02-.62.37.07.76-.03,1.15-.31.86-.61,1.54-1.9,1.78-3.38.39-2.49-.58-4.48-1.7-4.7-.11-.02-.22-.03-.34-.02-.49.04-.92-.32-.97-.81-.04-.49.32-.92.81-.97.29-.03.58-.01.85.05,2.26.46,3.62,3.41,3.1,6.72-.31,1.97-1.25,3.67-2.51,4.56-.54.38-1.12.6-1.7.65-1.37,4.19-3.75,7.77-6.75,10.14-2.61,2.06-5.61,3.14-8.68,3.14Z"/>
                <path class="cls-5" d="m97.13,291.5c-.45,0-.84-.34-.88-.8-.82-8.32-4.42-18.24-16.87-18.24s-16.04,9.92-16.86,18.24c-.05.49-.48.85-.97.8-.49-.05-.85-.48-.8-.97.59-5.96,2.3-10.68,5.08-14.03,3.21-3.86,7.77-5.82,13.56-5.82s10.35,1.96,13.56,5.82c2.78,3.35,4.49,8.07,5.08,14.03.05.49-.31.93-.8.97-.03,0-.06,0-.09,0Z"/>
                <path class="cls-5" d="m71.06,286.99c-.8,0-1.54-.02-2.22-.05-.49-.02-.87-.44-.85-.93.02-.49.44-.87.93-.85,3.33.16,8.34.02,13.33-1.56,1.78-.57,3.42-1.27,4.88-2.11.43-.24.97-.1,1.21.33.24.43.1.97-.33,1.21-1.57.9-3.33,1.66-5.22,2.26-4.21,1.34-8.43,1.7-11.73,1.7Z"/>
                <path class="cls-5" d="m94.91,293.95c-.18,0-.36-.05-.51-.16-2.24-1.58-4.17-3.92-5.73-6.94-.68-1.31-1.29-2.76-1.8-4.3-.16-.47.09-.97.56-1.13.46-.16.97.09,1.13.56.49,1.46,1.06,2.82,1.7,4.06,1.43,2.76,3.17,4.88,5.17,6.3.4.28.5.84.21,1.24-.17.25-.45.38-.73.38Z"/>
                <path class="cls-5" d="m63.21,293.95c-.34,0-.66-.19-.81-.52-.2-.45,0-.98.44-1.18,1.1-.5,3.12-1.68,4.29-3.94.35-.69.6-1.43.75-2.2.09-.48.55-.8,1.04-.71.48.09.8.55.71,1.04-.17.94-.48,1.85-.91,2.69-1.04,2.03-2.86,3.71-5.13,4.74-.12.05-.25.08-.37.08Z"/>
                <g>
                  <path class="cls-5" d="m75.7,330.36c-.16,0-.32-.04-.45-.12l-12.23-7.25c-.2-.12-.35-.32-.41-.55-.06-.23-.02-.47.1-.67l3.4-5.74c.25-.42.8-.56,1.22-.31l12.23,7.25c.42.25.56.8.31,1.22l-3.4,5.74c-.12.2-.32.35-.55.41-.07.02-.15.03-.22.03Zm-11.01-8.45l10.7,6.34,2.49-4.21-10.7-6.34-2.5,4.21Z"/>
                  <path class="cls-5" d="m82.5,330.36c-.3,0-.6-.16-.77-.44l-3.4-5.74c-.12-.2-.16-.45-.1-.67.06-.23.21-.42.41-.55l12.23-7.25c.42-.25.97-.11,1.22.31l3.4,5.74c.12.2.16.45.1.67-.06.23-.21.42-.41.55l-12.23,7.25c-.14.08-.3.12-.45.12Zm-2.18-6.32l2.49,4.21,10.7-6.34-2.49-4.21-10.7,6.34Z"/>
                </g>
              </g>
              <path class="cls-5" d="m101.65,340.63h-9.61c-.49,0-.89-.4-.89-.89s.4-.89.89-.89h9.61c.49,0,.89.4.89.89s-.4.89-.89.89Z"/>
            </g>
          </g>
          <g>
            <path class="cls-2" d="m250.04,401.29c30.01,0,59.5-4.85,87.66-14.41l-.95-2.8c-27.85,9.46-57.02,14.25-86.71,14.25-34.31,0-67.73-6.36-99.34-18.9l-1.09,2.75c31.96,12.68,65.75,19.11,100.43,19.11Z"/>
            <polygon class="cls-2" points="331.76 377.98 349.19 381.1 337.77 394.63 331.76 377.98"/>
          </g>
          <g>
            <path class="cls-5" d="m261.04,105.55c-.64,0-1.16-.52-1.16-1.16v-52.72h-26.03v52.72c0,.64-.52,1.16-1.16,1.16s-1.16-.52-1.16-1.16v-53.88c0-.64.52-1.16,1.16-1.16h28.34c.64,0,1.16.52,1.16,1.16v53.88c0,.64-.52,1.16-1.16,1.16Z"/>
            <path class="cls-5" d="m277.53,105.55c-.64,0-1.16-.52-1.16-1.16v-56.26l-24.24-7.25v5.12c0,.64-.52,1.16-1.16,1.16s-1.16-.52-1.16-1.16v-6.68c0-.37.17-.71.47-.93.29-.22.67-.29,1.02-.18l26.56,7.95c.49.15.83.6.83,1.11v57.12c0,.64-.52,1.16-1.16,1.16Z"/>
            <path class="cls-5" d="m235.59,51.67c-.64,0-1.16-.52-1.16-1.16v-7.57c0-.64.52-1.16,1.16-1.16h11.27c.64,0,1.16.52,1.16,1.16s-.52,1.16-1.16,1.16h-10.12v6.42c0,.64-.52,1.16-1.16,1.16Z"/>
            <path class="cls-5" d="m218.95,105.55c-.64,0-1.16-.52-1.16-1.16v-28.35c0-.45.26-.87.68-1.05l13.74-6.27c.58-.27,1.27-.01,1.53.57.27.58,0,1.27-.57,1.53l-13.07,5.96v27.61c0,.64-.52,1.16-1.16,1.16Z"/>
            <path class="cls-5" d="m290.06,105.55c-.64,0-1.16-.52-1.16-1.16v-38.01h-7.6c-.64,0-1.16-.52-1.16-1.16s.52-1.16,1.16-1.16h8.76c.64,0,1.16.52,1.16,1.16v39.17c0,.64-.52,1.16-1.16,1.16Z"/>
            <path class="cls-5" d="m274.8,47.6c-.64,0-1.16-.52-1.16-1.16v-10.8c0-.64.52-1.16,1.16-1.16s1.16.52,1.16,1.16v10.8c0,.64-.52,1.16-1.16,1.16Z"/>
            <path class="cls-5" d="m268.71,45.78c-.64,0-1.16-.52-1.16-1.16v-5.31c0-.64.52-1.16,1.16-1.16s1.16.52,1.16,1.16v5.31c0,.64-.52,1.16-1.16,1.16Z"/>
            <path class="cls-5" d="m277.53,56.16h-5.69c-.64,0-1.16-.52-1.16-1.16s.52-1.16,1.16-1.16h5.69c.64,0,1.16.52,1.16,1.16s-.52,1.16-1.16,1.16Z"/>
            <path class="cls-5" d="m277.53,66.53h-5.69c-.64,0-1.16-.52-1.16-1.16s.52-1.16,1.16-1.16h5.69c.64,0,1.16.52,1.16,1.16s-.52,1.16-1.16,1.16Z"/>
            <path class="cls-5" d="m277.53,76.91h-5.69c-.64,0-1.16-.52-1.16-1.16s.52-1.16,1.16-1.16h5.69c.64,0,1.16.52,1.16,1.16s-.52,1.16-1.16,1.16Z"/>
            <path class="cls-5" d="m277.53,87.29h-5.69c-.64,0-1.16-.52-1.16-1.16s.52-1.16,1.16-1.16h5.69c.64,0,1.16.52,1.16,1.16s-.52,1.16-1.16,1.16Z"/>
            <path class="cls-5" d="m277.53,97.66h-5.69c-.64,0-1.16-.52-1.16-1.16s.52-1.16,1.16-1.16h5.69c.64,0,1.16.52,1.16,1.16s-.52,1.16-1.16,1.16Z"/>
            <path class="cls-5" d="m222.95,82.52h-3.69c-.64,0-1.16-.52-1.16-1.16s.52-1.16,1.16-1.16h3.69c.64,0,1.16.52,1.16,1.16s-.52,1.16-1.16,1.16Z"/>
            <path class="cls-5" d="m222.95,97.55h-3.69c-.64,0-1.16-.52-1.16-1.16s.52-1.16,1.16-1.16h3.69c.64,0,1.16.52,1.16,1.16s-.52,1.16-1.16,1.16Z"/>
            <path class="cls-5" d="m295.02,105.55h-81.39c-.64,0-1.16-.52-1.16-1.16s.52-1.16,1.16-1.16h81.39c.64,0,1.16.52,1.16,1.16s-.52,1.16-1.16,1.16Z"/>
            <path class="cls-5" d="m253.61,59.47h-13.48c-.64,0-1.16-.52-1.16-1.16s.52-1.16,1.16-1.16h13.48c.64,0,1.16.52,1.16,1.16s-.52,1.16-1.16,1.16Z"/>
            <path class="cls-5" d="m253.61,68.66h-13.48c-.64,0-1.16-.52-1.16-1.16s.52-1.16,1.16-1.16h13.48c.64,0,1.16.52,1.16,1.16s-.52,1.16-1.16,1.16Z"/>
            <path class="cls-5" d="m253.61,77.85h-13.48c-.64,0-1.16-.52-1.16-1.16s.52-1.16,1.16-1.16h13.48c.64,0,1.16.52,1.16,1.16s-.52,1.16-1.16,1.16Z"/>
            <path class="cls-5" d="m253.61,87.04h-13.48c-.64,0-1.16-.52-1.16-1.16s.52-1.16,1.16-1.16h13.48c.64,0,1.16.52,1.16,1.16s-.52,1.16-1.16,1.16Z"/>
            <path class="cls-5" d="m253.61,96.23h-13.48c-.64,0-1.16-.52-1.16-1.16s.52-1.16,1.16-1.16h13.48c.64,0,1.16.52,1.16,1.16s-.52,1.16-1.16,1.16Z"/>
          </g>
          <g>
            <g>
              <path class="cls-4" d="m385.92,224.77c-7.5-34.37-26.93-65.36-54.72-87.26l1.04-1.32c28.1,22.14,47.74,53.47,55.32,88.22l-1.64.36Z"/>
              <polygon class="cls-4" points="381.5 224.14 388.11 231.68 391.33 222.19 381.5 224.14"/>
            </g>
            <polygon class="cls-4" points="337.81 135.07 328.43 131.53 330.04 141.42 337.81 135.07"/>
          </g>
          <g>
            <g>
              <path class="cls-4" d="m114.56,224.77c7.5-34.37,26.93-65.36,54.72-87.26l-1.04-1.32c-28.1,22.14-47.74,53.47-55.32,88.22l1.64.36Z"/>
              <polygon class="cls-4" points="118.98 224.14 112.37 231.68 109.14 222.19 118.98 224.14"/>
            </g>
            <polygon class="cls-4" points="162.67 135.07 172.05 131.53 170.43 141.42 162.67 135.07"/>
          </g>
          <polygon class="cls-10" points="820.69 253.8 820.69 19.03 596.33 19.03 596.33 253.8 539.54 253.8 709.75 424.01 879.96 253.8 820.69 253.8"/>
          <g>
            <g>
              <path class="cls-8" d="m626.52,92.31v-1.44h7.34v-5.4h1.67v5.4h7.4v1.44h-16.41Zm8.18-10.68c-1.3,2.29-4.1,3.94-7.42,4.56v-1.48c3.38-.68,6.58-2.74,6.58-6.43v-.21h-6.35v-1.44h6.35v-2.64h1.67v2.64h6.39v1.44h-6.39v.21c0,3.69,3.11,5.75,6.56,6.43v1.48c-3.36-.62-6.06-2.29-7.38-4.56Z"/>
              <path class="cls-8" d="m652.68,78.91v-2.45h-7.01v-1.44h8.66v3.73c0,6.99-2.72,11.63-8.78,13.24v-1.55c4.8-1.44,7.13-5.46,7.13-11.52Zm7.63-4.23v18.43h-1.67v-18.43h1.67Z"/>
              <path class="cls-8" d="m670.23,79.84c0-1.81.56-3.22,1.53-4.12.8-.74,1.92-1.15,3.26-1.15s2.45.41,3.24,1.15c.99.91,1.55,2.31,1.55,4.12s-.56,3.24-1.55,4.14c-.78.76-1.9,1.15-3.24,1.15s-2.45-.39-3.26-1.15c-.97-.91-1.53-2.31-1.53-4.14Zm15.46,13.38h-14.06v-6.04h1.67v4.62h12.39v1.42Zm-13.85-13.38c0,1.32.35,2.35,1.01,3.03.54.54,1.26.83,2.16.83s1.63-.29,2.16-.83c.64-.68.99-1.71.99-3.03s-.35-2.35-.99-3.03c-.54-.52-1.26-.8-2.16-.8s-1.63.29-2.16.8c-.66.68-1.01,1.71-1.01,3.03Zm13.5,7.69h-1.65v-12.84h1.65v12.84Z"/>
              <path class="cls-8" d="m690.34,82.62h4.39v1.42h-4.39v6.37h2.68c1.24,0,2.43-.1,3.32-.49v1.38c-.87.41-2.08.54-3.4.54h-4.21v-16.82h6.45v1.44h-4.84v6.16Zm9.46,10.31h-1.61v-9.09h-2.49v-1.46h2.49v-7.59h1.61v18.14Zm3.94.21h-1.61v-18.45h1.61v18.45Z"/>
              <path class="cls-8" d="m715.32,91.84h-8.2v-9.21h6.76v-6.16h-6.76v-1.44h8.39v9.05h-6.76v6.35h6.86c1.88,0,3.53-.49,4.47-1.38v-14.35h1.67v18.43h-1.67v-2.7c-.91.93-2.7,1.42-4.76,1.42Z"/>
              <path class="cls-8" d="m725.07,83.4c0-3.46.41-6.02,1.65-7.42.72-.85,1.77-1.3,3.07-1.3s2.35.45,3.07,1.3c1.11,1.24,1.55,3.4,1.63,6.29h3.77v-7.59h1.67v18.45h-1.67v-9.44h-3.75c-.02,3.3-.43,5.75-1.65,7.13-.72.87-1.79,1.26-3.07,1.26s-2.35-.39-3.07-1.26c-1.24-1.42-1.65-3.98-1.65-7.42Zm7.79,0c0-3.13-.29-5.38-1.22-6.45-.43-.54-1.07-.82-1.86-.82s-1.4.29-1.88.82c-.89,1.07-1.2,3.32-1.2,6.45s.31,5.38,1.2,6.47c.47.54,1.11.8,1.88.8s1.42-.27,1.86-.8c.93-1.09,1.22-3.36,1.22-6.47Z"/>
              <path class="cls-8" d="m751.89,81.8h5.5v-6.78h1.63v16.82h-8.76v-16.82h1.63v6.78Zm5.5,8.62v-7.17h-5.5v7.17h5.5Zm7.5-15.73v18.43h-1.67v-18.43h1.67Z"/>
              <path class="cls-8" d="m768.62,78.02c0-.91.41-1.61,1.15-2.14,1.26-.87,3.46-1.2,6.29-1.2s5.03.33,6.29,1.2c.72.54,1.15,1.24,1.15,2.14s-.43,1.63-1.15,2.14c-.52.37-1.2.64-2,.82v2.54h4v1.42h-16.62v-1.42h4.1v-2.52c-.85-.19-1.55-.47-2.06-.84-.74-.52-1.15-1.22-1.15-2.14Zm0,12.31c0-1.01.47-1.75,1.38-2.29,1.26-.74,3.32-1.09,6.06-1.09s4.78.35,6.04,1.09c.91.54,1.4,1.28,1.4,2.29s-.49,1.75-1.4,2.31c-1.26.74-3.3,1.05-6.04,1.05s-4.8-.31-6.06-1.05c-.91-.56-1.38-1.32-1.38-2.31Zm1.67-12.31c0,.45.21.82.64,1.11.91.6,2.68.84,5.13.84s4.25-.25,5.11-.84c.45-.29.66-.66.66-1.11s-.21-.78-.66-1.07c-.87-.62-2.66-.87-5.11-.87s-4.23.25-5.13.87c-.43.29-.64.64-.64,1.07Zm0,12.31c0,.47.25.87.72,1.15.91.56,2.6.82,5.05.82s4.14-.27,5.05-.82c.49-.29.72-.68.72-1.15s-.23-.85-.72-1.15c-.91-.56-2.6-.83-5.05-.83s-4.14.27-5.05.83c-.47.31-.72.7-.72,1.15Zm8.41-9.05c-.8.08-1.69.12-2.64.12s-1.81-.04-2.6-.12v2.25h5.24v-2.25Z"/>
            </g>
            <g>
              <path class="cls-8" d="m636.44,223.65c0-7.34.91-12.29,3.49-15.03,1.59-1.75,3.81-2.62,6.58-2.62s5.04.87,6.58,2.62c2.54,2.74,3.49,7.69,3.49,15.03s-.95,12.37-3.49,15.11c-1.55,1.71-3.81,2.54-6.58,2.54s-5-.83-6.58-2.54c-2.58-2.74-3.49-7.69-3.49-15.11Zm13.32,0c0-6.23-.44-9.64-1.47-11.06-.48-.56-1.11-.83-1.78-.83-.71,0-1.35.28-1.78.83-1.03,1.43-1.43,4.84-1.43,11.06s.4,9.76,1.43,11.14c.44.56,1.07.79,1.78.79.67,0,1.31-.24,1.78-.79,1.03-1.39,1.47-4.84,1.47-11.14Zm10.43-17.69h6.94v37.16h-6.94v-37.16Z"/>
              <path class="cls-8" d="m677.88,206.2h6.9v4.4c0,6.19,2.74,8.8,7.3,10.07v5.75c-4.24-.44-8.53-2.42-10.71-5.04-2.1,2.7-6.46,4.96-10.79,5.51v-5.79c4.64-1.31,7.3-4.36,7.3-10.51v-4.4Zm-4.72,29.5c0-2.14.87-3.89,2.42-5.16,2.58-2.14,7.02-3.05,12.25-3.05s9.6.91,12.17,3.05c1.59,1.27,2.46,3.01,2.46,5.16s-.87,3.97-2.46,5.24c-2.58,2.1-6.98,3.01-12.17,3.01s-9.68-.91-12.25-3.01c-1.55-1.27-2.42-3.01-2.42-5.24Zm6.86,0c0,.63.32,1.15.87,1.59,1.11.79,3.45,1.11,6.94,1.11s5.75-.32,6.9-1.11c.56-.44.87-.95.87-1.59s-.32-1.07-.87-1.51c-1.15-.79-3.49-1.15-6.9-1.15s-5.83.36-6.94,1.15c-.56.44-.87.87-.87,1.51Zm14.67-29.74h6.94v7.65h4.88v5.75h-4.88v7.69h-6.94v-21.1Z"/>
              <path class="cls-8" d="m731.93,212.03h-12.02v-5.63h18.88v3.53c0,11.18-6.31,16.38-19.71,17.33v-5.71c8.8-.75,12.69-3.77,12.85-9.52Zm17.93,31.45h-28v-15.31h28v15.31Zm-6.9-5.43v-4.32h-14.28v4.32h14.28Zm-.04-32.08h6.94v7.65h4.88v5.75h-4.88v7.38h-6.94v-20.78Z"/>
              <path class="cls-8" d="m767.94,235.9v-9.72h6.98v9.72h13.13v5.67h-33.15v-5.67h13.05Zm3.49-15.55c-2.86,3.73-9.12,7.1-15.78,7.97v-5.79c7.81-1.71,12.29-5.83,12.29-13.96v-2.18h6.94v2.18c0,8.01,4.4,12.21,12.37,13.96v5.79c-6.46-.87-12.97-4.24-15.82-7.97Z"/>
            </g>
            <g>
              <path class="cls-8" d="m625.07,168.11h-15.26v-4.99h7.19v-6.5h6.15v6.5h2.62c2.69,0,4.3-.38,5.38-1.4v-24.62h6.11v32.76h-6.11v-3.32c-1.12,1.08-3,1.57-6.08,1.57Zm3.7-22.77h-5.8c.38,4.23,2.79,6.15,6.32,7.2v5.17c-3.6-.66-7.51-2.51-9.33-4.85-1.75,2.3-5.69,4.47-9.57,5.31v-5.17c3.56-1.12,5.97-3.35,6.36-7.65h-5.97v-5.06h6.01v-4.09h6.11v4.09h5.87v5.06Z"/>
              <path class="cls-8" d="m651.01,167.76h-9.12v-30.11h12.33v4.99h-6.85v20.15h4.4c2.2,0,3.7-.21,4.79-1.08v-24.41h5.31v12.01h1.82v-12.22h5.41v32.73h-5.41v-15.4h-1.82v15.09h-5.31v-3c-1.12.91-2.86,1.26-5.55,1.26Z"/>
            </g>
            <g>
              <path class="cls-8" d="m703.48,160.73c0-5.53-2.24-7.57-7.37-7.57h-4.01v-9.34h4.01c3.68,0,6.12-1.71,6.12-6.18,0-3.49-1.78-5.46-4.74-5.46s-4.74,1.97-4.74,5.46v.92h-11.71v-1.45c0-8.55,6.05-14.41,16.45-14.41s16.51,5.92,16.51,14.21c0,6.32-3.22,9.87-8.03,11.32,6.25,1.51,9.61,6.25,9.61,13.03,0,9.54-7.24,15.79-18.09,15.79s-18.03-6.25-18.03-15.79v-1.65h12.04v1.12c0,4.41,2.17,6.84,5.99,6.84s5.99-2.43,5.99-6.84Z"/>
              <path class="cls-8" d="m732.2,153.75h-11.25l1.32-30.13h29.41v9.47h-18.16l-.66,11.97c1.51-1.78,4.15-3.03,7.57-3.03,8.09,0,13.88,5.53,13.88,17.57,0,10.72-6.19,17.44-17.63,17.44s-16.98-6.12-17.57-15.86h12.17c.33,4.15,2.04,6.38,5.39,6.38,3.62,0,5.53-2.5,5.53-8.29,0-5.26-1.51-8.29-5.53-8.29-2.24,0-3.68,1.18-4.47,2.76Z"/>
              <path class="cls-8" d="m767.56,122.7c7.96,0,11.71,4.93,11.71,14.21s-3.75,14.15-11.58,14.15-11.71-4.87-11.71-14.15,3.75-14.21,11.58-14.21Zm.07,21.32c2.17,0,2.89-1.58,2.89-7.11s-.72-7.17-2.89-7.17-2.9,1.58-2.9,7.17.79,7.11,2.9,7.11Zm31.19-20.4l-21.52,52.5h-8.49l21.52-52.5h8.49Zm1.32,53.43c-8.03,0-11.78-4.94-11.78-14.21s3.75-14.15,11.65-14.15,11.65,4.87,11.65,14.15-3.75,14.21-11.51,14.21Zm-.13-21.32c-2.11,0-2.89,1.58-2.89,7.11s.79,7.17,2.89,7.17,2.96-1.58,2.96-7.17-.79-7.11-2.96-7.11Z"/>
            </g>
          </g>
        </g>
      </g>
    </g>
  </g>
</svg>