<?xml version="1.0" encoding="UTF-8"?>
<svg id="_레이어_2" data-name="레이어 2" xmlns="http://www.w3.org/2000/svg" viewBox="0 0 160.86 160.86">
  <defs>
    <style>
      .cls-1 {
        fill: #ff331f;
      }

      .cls-1, .cls-2 {
        stroke-width: 0px;
      }

      .cls-2 {
        fill: #fff;
      }
    </style>
  </defs>
  <g id="Layer_1" data-name="Layer 1">
    <g>
      <circle class="cls-1" cx="80.43" cy="80.43" r="80.43"/>
      <g>
        <path class="cls-2" d="m43.17,74.88l-6.46-.1v-29.79l-6.96,3.25-2.35-5.56,9.36-4.51h6.41v36.7Z"/>
        <path class="cls-2" d="m56.37,70.02c.65.67.98,1.52.98,2.55s-.33,1.94-.98,2.6c-.65.67-1.49,1-2.53,1s-1.89-.33-2.58-1c-.68-.67-1.03-1.53-1.03-2.6s.34-1.89,1.03-2.55c.68-.67,1.54-1,2.58-1s1.88.33,2.53,1Z"/>
        <path class="cls-2" d="m88.56,59.63c1.12,1.69,1.68,3.31,1.68,4.88,0,2.14-.54,4.04-1.63,5.71-1.09,1.67-2.6,2.97-4.53,3.91-1.94.93-4.16,1.4-6.66,1.4s-4.69-.47-6.66-1.4c-1.97-.93-3.51-2.24-4.61-3.91-1.1-1.67-1.65-3.57-1.65-5.71,0-1.6.58-3.25,1.73-4.93,1.15-1.69,2.63-3.01,4.43-3.98-1.47-1.03-2.68-2.29-3.63-3.76-.95-1.47-1.43-2.85-1.43-4.16,0-1.97.5-3.72,1.5-5.26,1-1.54,2.4-2.73,4.21-3.58,1.8-.85,3.84-1.28,6.11-1.28s4.34.43,6.11,1.28c1.77.85,3.16,2.05,4.18,3.58,1.02,1.54,1.53,3.29,1.53,5.26,0,1.34-.48,2.74-1.43,4.21-.95,1.47-2.18,2.7-3.68,3.71,1.84,1,3.31,2.35,4.43,4.03Zm-7.86,9.71c.95-.48,1.69-1.17,2.23-2.05.53-.88.8-1.89.8-3.03s-.27-2.2-.8-3.1c-.53-.9-1.28-1.61-2.23-2.13-.95-.52-2.05-.78-3.28-.78s-2.33.26-3.28.78c-.95.52-1.7,1.23-2.25,2.13-.55.9-.83,1.94-.83,3.1s.27,2.15.8,3.03c.53.88,1.28,1.57,2.25,2.05.97.48,2.07.73,3.3.73s2.33-.24,3.28-.73Zm-7.09-17.95c1,.94,2.27,1.4,3.81,1.4s2.85-.47,3.83-1.4c.98-.93,1.48-2.14,1.48-3.61s-.49-2.59-1.48-3.46c-.99-.87-2.26-1.3-3.83-1.3s-2.85.43-3.83,1.3c-.99.87-1.48,2.02-1.48,3.46s.5,2.67,1.5,3.61Z"/>
        <path class="cls-2" d="m101.56,37.78v10.07h5.31v-10.07h6.26v30.5h-17.88v-30.5h6.31Zm0,25.14h5.31v-9.86h-5.31v9.86Zm21.23-28.44v42.36h-6.26v-42.36h6.26Zm5.56,16.47v5.36h-7.26v-5.36h7.26Zm4.41-17.23v45.12h-6.36v-45.12h6.36Z"/>
        <path class="cls-2" d="m69.89,105.18v5.31H29.07v-5.31h40.81Zm-19.08-16.02v1c0,2.3-.67,4.41-2,6.31-1.34,1.9-3.34,3.48-6.01,4.73-2.67,1.25-5.93,2.06-9.76,2.43l-2.25-5.26c3.17-.27,5.81-.83,7.91-1.68,2.1-.85,3.66-1.84,4.66-2.98,1-1.13,1.5-2.32,1.5-3.56v-1h5.96Zm15.42-2.65v5.36h-33.5v-5.36h33.5Zm-5.36,28.52c2.77,1.49,4.16,3.55,4.16,6.18s-1.39,4.73-4.16,6.18c-2.77,1.45-6.61,2.18-11.52,2.18s-8.75-.73-11.52-2.18c-2.77-1.45-4.16-3.51-4.16-6.18s1.39-4.7,4.18-6.18c2.79-1.48,6.62-2.23,11.49-2.23s8.75.74,11.52,2.23Zm-18.2,3.73c-1.49.53-2.23,1.35-2.23,2.45s.73,1.9,2.2,2.4c1.47.5,3.71.75,6.71.75s5.28-.25,6.73-.75c1.45-.5,2.18-1.3,2.18-2.4s-.74-1.92-2.23-2.45c-1.49-.53-3.71-.8-6.68-.8s-5.2.27-6.69.8Zm11.44-29.59v1c0,1.2.5,2.38,1.5,3.53,1,1.15,2.55,2.15,4.66,3,2.1.85,4.74,1.41,7.91,1.68l-2.3,5.26c-3.84-.37-7.09-1.18-9.74-2.43-2.65-1.25-4.65-2.83-5.98-4.73-1.34-1.9-2-4.01-2-6.31v-1h5.96Z"/>
        <path class="cls-2" d="m110.57,108.11c-3.12,5.49-8.27,10.04-15.45,13.65l-3.76-5.11c3.97-2,7.23-4.29,9.76-6.86,2.54-2.57,4.42-5.45,5.66-8.64,1.23-3.19,1.85-6.85,1.85-10.99v-1.15h6.61c0,7.24-1.56,13.61-4.68,19.1Zm1.53-19.1v5.36h-18.23v-5.36h18.23Zm15.17-4.66v45.12h-6.76v-45.12h6.76Zm6.21,17.18v5.51h-7.91v-5.51h7.91Z"/>
      </g>
    </g>
  </g>
</svg>