<?xml version="1.0" encoding="UTF-8"?>
<svg id="_레이어_2" data-name="레이어 2" xmlns="http://www.w3.org/2000/svg" xmlns:xlink="http://www.w3.org/1999/xlink" viewBox="0 0 975.76 201.07">
  <defs>
    <style>
      .cls-1 {
        fill: #ef812c;
      }

      .cls-1, .cls-2, .cls-3, .cls-4, .cls-5, .cls-6 {
        stroke-width: 0px;
      }

      .cls-2 {
        fill: #58595b;
      }

      .cls-3 {
        fill: none;
      }

      .cls-4 {
        fill: #fff;
      }

      .cls-5 {
        fill: #231f20;
      }

      .cls-7 {
        clip-path: url(#clippath);
      }

      .cls-6 {
        fill: #414042;
      }
    </style>
    <clipPath id="clippath">
      <rect class="cls-3" x="843.43" width="104.97" height="104.97"/>
    </clipPath>
  </defs>
  <g id="Layer_1" data-name="Layer 1">
    <g>
      <g>
        <g>
          <g>
            <path class="cls-1" d="m549.01,136.86c-.73,1.46-1.79,2.72-3.19,3.77-1.39,1.05-3.07,1.87-5.02,2.47l-1.03-2.01c2.45-.74,4.35-1.8,5.7-3.19,1.35-1.39,2.02-2.97,2.02-4.74v-1.2h2.62c0,1.8-.37,3.44-1.1,4.9Zm-.2-4.9v2.04h-8.19v-2.04h8.19Zm-3.59,11.77v5.69h-2.47v-5.69h2.47Zm11.01,4.81v2.04h-13.48v-2.04h13.48Zm-.76-18.13v14.82h-2.47v-14.82h2.47Zm2.78,5.92v2.08h-3.48v-2.08h3.48Z"/>
            <path class="cls-1" d="m569.03,132.07v2.06h-6.41v6.71h-2.47v-8.76h8.88Zm-2.04,7.55c1.27-.08,2.51-.26,3.72-.52l.25,2.01c-1.26.28-2.55.47-3.89.57-1.34.1-3.11.15-5.3.15h-1.61v-2.08h1.61c2.21,0,3.96-.04,5.23-.13Zm-2.27,4.13v5.8h-2.47v-5.8h2.47Zm11.01,4.79v2.04h-13.48v-2.04h13.48Zm-.79-18.15v14.89h-2.47v-14.89h2.47Zm2.78,5.83v2.06h-3.5v-2.06h3.5Z"/>
            <path class="cls-1" d="m590.38,132.67v2.01h-11.75v-2.01h11.75Zm-3.35,3.4c.74.32,1.32.78,1.73,1.38.41.59.62,1.28.62,2.05s-.21,1.46-.62,2.06c-.41.6-.99,1.06-1.73,1.39-.74.32-1.58.49-2.52.49s-1.78-.16-2.51-.49c-.73-.32-1.3-.79-1.72-1.39-.41-.6-.62-1.29-.62-2.06s.21-1.45.62-2.05c.41-.59.98-1.05,1.72-1.38.73-.32,1.57-.49,2.51-.49s1.78.16,2.52.49Zm-3.04,8.53v4.81h-2.47v-4.81h2.47Zm11.04,3.93v2.04h-13.5v-2.04h13.5Zm-12.33-10.49c-.46.35-.68.83-.68,1.45s.23,1.1.68,1.44c.46.35,1.06.52,1.81.52s1.35-.17,1.81-.52c.46-.35.68-.83.68-1.44s-.23-1.1-.68-1.45c-.46-.35-1.06-.52-1.81-.52s-1.35.17-1.81.52Zm3.04-7.67v3.28h-2.47v-3.28h2.47Zm8.48.02v15.4h-2.47v-15.4h2.47Zm2.78,6.45v2.1h-3.48v-2.1h3.48Z"/>
            <path class="cls-1" d="m620.55,146.41v2.08h-18.08v-2.08h18.08Zm-8.25-13.37v.95c0,1.4-.35,2.69-1.04,3.87-.7,1.18-1.65,2.17-2.87,2.98-1.22.81-2.61,1.37-4.16,1.68l-.99-2.01c1.33-.21,2.53-.65,3.59-1.3,1.06-.65,1.89-1.43,2.49-2.36.6-.92.9-1.88.9-2.87v-.95h2.09Zm6.71-.97v2.03h-15.03v-2.03h15.03Zm-6.26,9.62v5.32h-2.47v-5.32h2.47Zm.02-8.65v.95c0,.99.3,1.93.91,2.84.61.91,1.45,1.68,2.52,2.31,1.08.63,2.29,1.06,3.63,1.27l-.96,2.01c-1.57-.31-2.97-.86-4.21-1.64-1.23-.79-2.2-1.77-2.9-2.94-.7-1.17-1.05-2.46-1.05-3.86v-.95h2.06Z"/>
            <path class="cls-1" d="m631.57,132.21v7.72h-6.82v4.93h-2.49v-6.96h6.82v-3.65h-6.86v-2.03h9.35Zm-2.49,11.7c1.48-.09,3-.28,4.55-.55l.25,2.06c-1.59.28-3.14.47-4.65.57-1.52.1-3.26.15-5.24.15h-1.73v-2.08h1.73c1.91,0,3.61-.05,5.09-.14Zm8.59-13.55v20.65h-2.47v-20.65h2.47Z"/>
            <path class="cls-1" d="m652.03,132.07v3.24c0,1.71-.22,3.33-.67,4.87-.45,1.53-1.1,2.88-1.96,4.04-.86,1.16-1.9,2.04-3.11,2.64l-1.48-2.1c1.06-.49,1.99-1.23,2.77-2.2.79-.97,1.39-2.08,1.81-3.34.42-1.26.63-2.56.63-3.9v-3.24h2.02Zm.47,0v3.24c0,1.28.2,2.52.61,3.72.4,1.2.99,2.27,1.76,3.2s1.68,1.64,2.73,2.12l-1.44,2.06c-1.18-.57-2.2-1.41-3.06-2.53-.86-1.12-1.51-2.41-1.95-3.88-.44-1.47-.66-3.03-.66-4.68v-3.24h2.02Zm8.97-1.71v20.65h-2.47v-20.65h2.47Z"/>
            <path class="cls-1" d="m681.91,146.27v2.08h-18.08v-2.08h18.08Zm-8.3-14.61v1.53c0,1.46-.35,2.84-1.05,4.13-.7,1.29-1.67,2.38-2.92,3.27-1.24.89-2.64,1.5-4.19,1.83l-1.05-2.1c1.33-.25,2.54-.73,3.62-1.46,1.08-.72,1.93-1.59,2.55-2.59.61-1,.92-2.03.92-3.08v-1.53h2.13Zm.47,0v1.53c0,1.06.31,2.1.92,3.1.61,1,1.46,1.86,2.55,2.58,1.08.72,2.3,1.2,3.65,1.45l-1.08,2.1c-1.56-.32-2.95-.93-4.19-1.82-1.24-.89-2.21-1.97-2.92-3.26-.7-1.29-1.05-2.67-1.05-4.15v-1.53h2.13Z"/>
            <path class="cls-1" d="m690.89,131.65v2.04h-5.16v7.21h-2.35v-9.25h7.51Zm-2.3,7.98c1.01-.06,2.04-.19,3.08-.37l.2,1.99c-1.05.2-2.08.33-3.1.39-1.02.06-2.38.09-4.08.09h-1.32v-2.01h1.32c1.58,0,2.88-.03,3.89-.09Zm1.56-3.98v1.94h-5.14v-1.94h5.14Zm9.31,7.93v7.15h-13.35v-7.15h13.35Zm-10.92,1.99v3.14h8.55v-3.14h-8.55Zm5.67-10.15v2.04h-3.19v-2.04h3.19Zm1.35-4.72v11.82h-2.31v-11.82h2.31Zm3.9-.3v12.3h-2.33v-12.3h2.33Z"/>
          </g>
          <g>
            <path class="cls-6" d="m539.43,165.91c.58.45,1.02,1.09,1.35,1.92.32.83.48,1.79.48,2.88s-.16,2.07-.48,2.9c-.32.83-.77,1.47-1.35,1.92-.58.45-1.23.68-1.97.68s-1.39-.22-1.97-.68c-.58-.45-1.02-1.09-1.35-1.92-.32-.83-.48-1.79-.48-2.88s.16-2.07.48-2.9c.32-.83.77-1.47,1.35-1.92.58-.45,1.23-.68,1.97-.68s1.39.22,1.97.68Zm-3.2,1.22c-.36.34-.65.81-.85,1.42-.21.61-.31,1.34-.31,2.18s.1,1.54.31,2.15c.21.62.49,1.09.85,1.42.36.33.77.5,1.23.5s.89-.17,1.24-.5c.36-.33.64-.81.84-1.42.2-.62.3-1.33.3-2.15s-.1-1.57-.3-2.18c-.2-.61-.48-1.08-.84-1.42-.36-.34-.77-.51-1.24-.51s-.87.17-1.23.51Zm8.86,2.84v1.25h-4.31v-1.25h4.31Zm.83-5.94v15.71h-1.47v-15.71h1.47Z"/>
            <path class="cls-6" d="m555,165.44v5.66h-5.14v4h-1.48v-5.25h5.14v-3.15h-5.16v-1.26h6.64Zm-2.06,9.28c1.01-.06,2.06-.18,3.15-.35l.12,1.26c-1.09.18-2.15.3-3.17.37-1.02.06-2.19.1-3.51.1h-1.16v-1.28h1.16c1.27,0,2.4-.03,3.41-.1Zm6.2-2.85v1.26h-3.31v-1.26h3.31Zm.09-4.29v1.26h-3.3v-1.26h3.3Zm1.12-3.56v15.71h-1.5v-15.71h1.5Z"/>
            <path class="cls-6" d="m576.12,171.94v1.26h-13.75v-1.26h13.75Zm-4.07-7.12c.81.25,1.43.62,1.86,1.1.44.48.66,1.03.66,1.66s-.22,1.2-.66,1.68c-.44.48-1.06.85-1.86,1.1-.81.25-1.74.38-2.81.38s-2.01-.13-2.81-.38c-.81-.25-1.43-.62-1.88-1.09-.45-.47-.67-1.03-.67-1.67s.22-1.2.66-1.68c.44-.48,1.07-.85,1.89-1.1.82-.25,1.75-.38,2.81-.38s2.01.13,2.81.38Zm-6.44,9.97v3.65h-1.52v-3.65h1.52Zm8.99,3.31v1.26h-10.51v-1.26h10.51Zm-7.34-12.18c-.57.15-1.01.37-1.32.66-.31.28-.47.62-.47,1.01s.16.75.47,1.03c.31.29.75.5,1.32.66.57.15,1.23.23,1.98.23s1.4-.08,1.97-.23c.56-.15,1-.37,1.31-.66.31-.28.47-.62.47-1.01s-.16-.75-.47-1.03c-.31-.29-.75-.5-1.31-.66-.56-.15-1.22-.23-1.97-.23s-1.41.08-1.98.23Zm2.84,6.83v3.58h-1.52v-3.58h1.52Z"/>
            <path class="cls-6" d="m594.47,176.44v1.26h-13.75v-1.26h13.75Zm-6.37-10.41v.91c0,1.03-.29,1.99-.86,2.86s-1.33,1.62-2.27,2.21c-.94.6-1.94,1.01-2.99,1.24l-.6-1.21c.91-.15,1.78-.49,2.62-1,.84-.51,1.52-1.13,2.04-1.85.52-.72.78-1.48.78-2.26v-.91h1.29Zm5.21-.6v1.28h-11.46v-1.28h11.46Zm-4.97,7.26v4.16h-1.5v-4.16h1.5Zm.02-6.65v.91c0,.78.26,1.53.79,2.25.52.72,1.21,1.33,2.06,1.82.85.5,1.74.82,2.66.96l-.6,1.21c-1.08-.21-2.09-.61-3.03-1.2-.94-.59-1.7-1.32-2.28-2.19-.58-.87-.87-1.82-.87-2.86v-.91h1.28Z"/>
            <path class="cls-6" d="m603.01,165.5v5.66h-5.49v4.02h-1.52v-5.28h5.5v-3.15h-5.54v-1.25h7.04Zm-1.89,9.07c1.16-.07,2.36-.21,3.61-.43l.16,1.25c-1.27.23-2.48.37-3.65.45-1.17.07-2.49.11-3.96.11h-1.28v-1.26h1.28c1.4,0,2.68-.04,3.84-.11Zm6.5-10.55v15.71h-1.5v-15.71h1.5Z"/>
            <path class="cls-6" d="m627.26,176.35v1.25h-13.75v-1.25h13.75Zm-6.42-11.26v1.19c0,1.1-.28,2.13-.85,3.08-.57.95-1.33,1.75-2.27,2.39-.94.65-1.95,1.09-3.02,1.34l-.64-1.28c.91-.18,1.79-.54,2.64-1.09.85-.55,1.54-1.22,2.06-2.01.52-.79.78-1.6.78-2.43v-1.19h1.29Zm.26,0v1.19c0,.85.26,1.67.79,2.46.53.78,1.22,1.45,2.06,1.99.85.55,1.73.91,2.67,1.08l-.69,1.28c-1.06-.25-2.05-.7-2.98-1.34-.93-.65-1.69-1.45-2.26-2.4-.58-.95-.86-1.98-.86-3.07v-1.19h1.28Z"/>
            <path class="cls-6" d="m634.36,168.45l-5.76.46-.24-1.25,6-.28v1.07Zm-.12,1.27c-1.2,1.33-2.96,2.31-5.28,2.93l-.52-1.25c2.01-.51,3.52-1.28,4.52-2.31,1-1.03,1.5-2.25,1.5-3.65v-.71h1.57c0,1.99-.6,3.66-1.79,4.99Zm1-4.99v1.21h-6.12v-1.21h6.12Zm5.23,8.24v3.74h-8.33v2.08h-1.47v-3.2h8.33v-1.41h-8.37v-1.21h9.83Zm.5,5.35v1.23h-10.3v-1.23h10.3Zm-.5-14.27v8.13h-1.48v-8.13h1.48Z"/>
            <path class="cls-6" d="m651.62,170.28c1.55-.06,2.98-.17,4.3-.34l.1,1.1c-1.37.21-2.84.36-4.4.45-1.56.09-3.17.13-4.81.13l-.16-1.25c1.76-.01,3.42-.05,4.97-.11Zm3.59-5.19v1.23h-8.14v-1.23h8.14Zm-5.25.57v5.28h-1.45v-5.28h1.45Zm8.92,7.24v3.82h-8.45v2.28h-1.47v-3.42h8.42v-1.5h-8.45v-1.19h9.96Zm.54,5.41v1.25h-10.46v-1.25h10.46Zm-5.68-12.65v5.28h-1.43v-5.28h1.43Zm5.14-1.6v8.09h-1.52v-8.09h1.52Z"/>
            <path class="cls-6" d="m674.5,176.45v1.26h-13.75v-1.26h13.75Zm-4.03-10.97c.83.33,1.49.81,1.97,1.42.48.62.72,1.33.72,2.13s-.24,1.53-.71,2.13c-.47.61-1.12,1.07-1.96,1.41s-1.79.5-2.87.5-2.04-.17-2.87-.5-1.49-.8-1.96-1.41c-.47-.6-.71-1.32-.71-2.13s.24-1.52.71-2.13,1.12-1.09,1.96-1.42c.83-.33,1.79-.5,2.87-.5s2.02.17,2.86.5Zm-4.98,1.09c-.62.23-1.1.56-1.45.99-.35.43-.52.92-.52,1.48s.17,1.07.52,1.49c.35.43.83.76,1.45.99.62.23,1.33.35,2.12.35s1.5-.12,2.11-.35c.62-.23,1.1-.56,1.44-.99.35-.43.52-.93.52-1.49s-.18-1.05-.53-1.48c-.35-.43-.83-.76-1.44-.99-.61-.23-1.31-.35-2.11-.35s-1.5.12-2.12.35Zm.07,5.5v4.64h-1.48v-4.64h1.48Zm5.61,0v4.64h-1.48v-4.64h1.48Z"/>
            <path class="cls-6" d="m685.28,165.18c.6.3,1.07.73,1.41,1.27.34.55.51,1.17.51,1.89s-.17,1.34-.51,1.89c-.34.55-.81.97-1.41,1.27-.6.3-1.27.45-2.01.45s-1.42-.15-2.02-.45c-.6-.3-1.06-.73-1.4-1.27-.33-.54-.5-1.17-.5-1.89s.17-1.34.5-1.89c.33-.55.8-.97,1.4-1.27.6-.3,1.27-.44,2.02-.44s1.42.15,2.02.45Zm-3.3,1.12c-.37.2-.66.47-.87.83-.21.36-.31.76-.31,1.21s.1.85.31,1.21c.21.36.5.63.87.84s.8.3,1.29.3.91-.1,1.29-.3c.37-.2.67-.48.88-.84.21-.36.32-.76.32-1.21s-.1-.85-.31-1.21c-.21-.36-.5-.63-.88-.83-.38-.2-.81-.29-1.29-.29s-.91.1-1.29.29Zm.27,6.93v1.89h2.5v-1.89h1.38v6.26h-5.3v-6.26h1.41Zm0,5.07h2.5v-2.03h-2.5v2.03Zm7.9-5.18v1.28c0,1.13-.27,2.17-.81,3.12s-1.32,1.65-2.33,2.09l-.74-1.16c.59-.25,1.08-.59,1.49-1.02.41-.43.72-.91.92-1.44.21-.53.31-1.06.31-1.59v-1.28h1.16Zm.64-5.46v1.26h-4.04v-1.26h4.04Zm-.33,5.46v1.28c0,.57.1,1.12.3,1.65.2.53.51,1,.92,1.43.41.43.92.75,1.52.98l-.74,1.16c-1.05-.43-1.83-1.11-2.35-2.04-.52-.94-.79-1.99-.79-3.17v-1.28h1.14Zm1.17-9.07v8.27h-1.5v-8.27h1.5Z"/>
            <path class="cls-6" d="m699.72,165.91c.59.45,1.04,1.09,1.37,1.92.33.83.49,1.79.49,2.88s-.16,2.07-.49,2.9c-.33.83-.79,1.47-1.37,1.92-.59.45-1.25.68-2,.68s-1.43-.22-2.02-.68c-.59-.45-1.04-1.09-1.37-1.92-.33-.83-.49-1.79-.49-2.88s.16-2.07.49-2.9c.33-.83.79-1.47,1.37-1.92.59-.45,1.26-.68,2.02-.68s1.41.22,2,.68Zm-3.28,1.22c-.37.34-.65.81-.85,1.42-.2.61-.3,1.34-.3,2.18s.1,1.54.3,2.15c.2.62.49,1.09.85,1.42.37.33.79.5,1.28.5s.88-.17,1.25-.5c.37-.33.66-.81.86-1.43.2-.62.3-1.34.3-2.16s-.1-1.54-.3-2.15c-.2-.62-.49-1.09-.86-1.43-.37-.34-.79-.51-1.25-.51-.48,0-.91.17-1.28.51Zm9.28-3.1v15.71h-1.48v-15.71h1.48Z"/>
            <path class="cls-6" d="m567.57,197.8v1.26h-13.75v-1.26h13.75Zm-1.64-11.13v7.42h-10.52v-7.42h10.52Zm-9.06,1.23v4.96h7.61v-4.96h-7.61Zm4.54,5.92v4.3h-1.48v-4.3h1.48Z"/>
            <path class="cls-6" d="m581.9,193.28v1.25h-13.72v-1.25h13.72Zm-1.71-7.22v1.25h-8.82v3.47h-1.47v-4.71h10.28Zm.14,4.29v1.28h-10.42v-1.28h10.42Zm-8.94,5.75v3.68h-1.47v-3.68h1.47Zm9.06,3.36v1.26h-10.52v-1.26h10.52Z"/>
            <path class="cls-6" d="m592.88,187.16v9.73h-5.81v-9.73h5.81Zm-4.42,1.23v7.27h3.02v-7.27h-3.02Zm7.16,2.86v1.26h-3.49v-1.26h3.49Zm.79-5.53v14.53h-1.41v-14.53h1.41Zm3.02-.34v15.65h-1.43v-15.65h1.43Z"/>
            <path class="cls-6" d="m615.02,194.08v1.26h-13.73v-1.26h13.73Zm-10.51-7.92v5.07h-1.48v-5.07h1.48Zm8.89,4.46v1.26h-10.37v-1.26h10.37Zm-7.13,3.91v6.53h-1.5v-6.53h1.5Zm5.23,0v6.53h-1.48v-6.53h1.48Z"/>
            <path class="cls-6" d="m624.97,192.13c1.59-.05,3.11-.18,4.56-.38l.12,1.12c-1.5.25-3.03.41-4.6.49-1.57.08-3.31.12-5.22.12l-.19-1.26c1.96,0,3.73-.03,5.32-.08Zm.18-6.36v.76c0,1.14-.38,2.13-1.13,2.97-.75.84-1.78,1.42-3.08,1.74l-.64-1.16c.74-.18,1.38-.44,1.93-.8.55-.36.98-.77,1.28-1.25.3-.47.45-.98.45-1.51v-.76h1.19Zm-1.67,9.36v1.64h7.06v-1.64h1.48v5.71h-10.02v-5.71h1.48Zm0,4.48h7.06v-1.65h-7.06v1.65Zm2.12-6.94v2.9h-1.45v-2.9h1.45Zm-.1-6.9v.76c0,.76.33,1.44.99,2.05.66.6,1.54,1.03,2.63,1.28l-.62,1.17c-1.29-.3-2.31-.85-3.07-1.65-.76-.81-1.14-1.75-1.14-2.85v-.76h1.21Zm6.52-.39v9h-1.48v-9h1.48Z"/>
            <path class="cls-6" d="m639.88,191.37c-.39,1.25-1,2.42-1.84,3.5-.84,1.08-1.93,2.02-3.26,2.83l-.86-1.1c1.16-.72,2.12-1.54,2.87-2.45.75-.91,1.31-1.91,1.67-3s.54-2.25.54-3.5v-.29h1.45c0,1.42-.19,2.76-.58,4.01Zm-.32-4.01v1.26h-4.97v-1.26h4.97Zm3.09,4.38v1.25h-3.73v-1.25h3.73Zm1.04-5.94v14.46h-1.41v-14.46h1.41Zm3.17-.41v15.65h-1.41v-15.65h1.41Z"/>
            <path class="cls-6" d="m658.43,193.41c-1.11,1.89-2.85,3.45-5.22,4.69l-.85-1.19c1.39-.71,2.55-1.55,3.48-2.52.93-.97,1.62-2.04,2.08-3.22.46-1.18.69-2.46.69-3.85v-.27h1.48c0,2.35-.55,4.47-1.66,6.36Zm.97-6.36v1.26h-6.31v-1.26h6.31Zm4.62-1.69v15.67h-1.52v-15.67h1.52Zm2.38,6.31v1.28h-2.78v-1.28h2.78Z"/>
            <path class="cls-6" d="m681.45,192.69v1.26h-13.72v-1.26h13.72Zm-3.05,3.36c.92.5,1.38,1.19,1.38,2.08s-.46,1.6-1.38,2.11c-.92.5-2.2.76-3.83.76s-2.91-.25-3.83-.76c-.92-.5-1.38-1.21-1.38-2.11s.46-1.58,1.38-2.08c.92-.5,2.2-.75,3.83-.75s2.91.25,3.83.75Zm-7.33-10.35v4.54h-1.48v-4.54h1.48Zm8.83,3.98v1.25h-10.32v-1.25h10.32Zm-8.07,7.23c-.65.29-.97.7-.97,1.22s.32.92.97,1.21c.65.28,1.56.43,2.73.43s2.08-.14,2.73-.43c.64-.29.97-.69.97-1.21s-.32-.93-.97-1.22c-.64-.29-1.55-.44-2.73-.44s-2.08.15-2.73.44Z"/>
            <path class="cls-6" d="m685.2,196.48h-1.35l-.26-9.82h1.85l-.24,9.82Zm0,1.85c.17.18.25.41.25.69s-.08.52-.25.7c-.17.18-.39.28-.66.28s-.5-.1-.68-.29c-.18-.19-.27-.42-.27-.69s.09-.52.26-.69c.17-.18.4-.27.69-.27s.5.09.66.27Z"/>
          </g>
        </g>
        <g>
          <path class="cls-5" d="m624.47,99.94h-10.66c-15.85,0-28.75-12.9-28.75-28.75v-10.88c0-.8.65-1.45,1.45-1.45h65.26c.8,0,1.45.65,1.45,1.45v10.88c0,15.85-12.9,28.75-28.75,28.75Zm-36.51-38.18v9.43c0,14.25,11.6,25.85,25.85,25.85h10.66c14.25,0,25.85-11.6,25.85-25.85v-9.43h-62.36Z"/>
          <path class="cls-5" d="m639.32,88.09c-.35,0-.69-.12-.97-.37-.59-.54-.64-1.45-.1-2.05,3.7-4.1,5.74-9.4,5.74-14.92v-4.43c0-.8.65-1.45,1.45-1.45s1.45.65,1.45,1.45v4.43c0,6.24-2.3,12.23-6.48,16.86-.29.32-.68.48-1.08.48Z"/>
          <path class="cls-5" d="m659.58,67.35h-7.82c-.8,0-1.45-.65-1.45-1.45s.65-1.45,1.45-1.45h7.82c.74,0,1.35-.61,1.35-1.35s-.61-1.35-1.35-1.35h-7.82c-.8,0-1.45-.65-1.45-1.45s.65-1.45,1.45-1.45h7.82c2.34,0,4.25,1.91,4.25,4.25s-1.91,4.25-4.25,4.25Z"/>
          <path class="cls-5" d="m586.27,67.35h-7.82c-2.34,0-4.25-1.91-4.25-4.25s1.91-4.25,4.25-4.25h7.82c.8,0,1.45.65,1.45,1.45s-.65,1.45-1.45,1.45h-7.82c-.74,0-1.35.61-1.35,1.35s.61,1.35,1.35,1.35h7.82c.8,0,1.45.65,1.45,1.45s-.65,1.45-1.45,1.45Z"/>
          <path class="cls-5" d="m627.12,52.83c-.54,0-1.06-.3-1.31-.82l-12.54-26c-.17-.35-.19-.74-.06-1.11.13-.36.39-.66.74-.83l37.72-18.19c.72-.35,1.59-.05,1.93.68l12.54,26c.17.35.19.74.06,1.11-.13.36-.39.66-.74.83l-37.72,18.19c-.2.1-.42.14-.63.14Zm-10.61-26.77l11.28,23.39,35.11-16.94-11.28-23.39-35.11,16.94Z"/>
          <path class="cls-5" d="m619.43,61.55c-.8,0-1.45-.65-1.45-1.45,0-6.47,8.23-9.92,8.58-10.06.74-.3,1.59.05,1.89.79.3.74-.05,1.59-.79,1.89h0c-.07.03-6.79,2.86-6.79,7.38,0,.8-.65,1.45-1.45,1.45Z"/>
          <path class="cls-5" d="m608.73,54.5c-.22,0-.44-.05-.64-.15-.72-.36-1.01-1.23-.65-1.94,4.66-9.36,14.54-11.18,14.96-11.25.79-.14,1.54.39,1.68,1.18.14.79-.39,1.54-1.18,1.68h0c-.09.02-8.88,1.67-12.87,9.69-.25.51-.77.8-1.3.8Z"/>
          <path class="cls-5" d="m616.65,55.57c-.2,0-.41-.04-.6-.13-.73-.33-1.05-1.19-.71-1.92,1.61-3.52,4.72-4.95,4.85-5.01.73-.33,1.59,0,1.92.72.33.73,0,1.58-.71,1.91-.05.02-2.28,1.1-3.41,3.58-.24.53-.77.85-1.32.85Z"/>
        </g>
      </g>
      <g>
        <g>
          <g>
            <path class="cls-1" d="m834.26,132.3v4.9h1.64v-4.9h2.02v13.81h-5.72v-13.81h2.06Zm0,11.77h1.64v-4.83h-1.64v4.83Zm6.57-11.77v4.9h1.66v-4.9h2.02v13.81h-5.72v-13.81h2.04Zm0,11.77h1.66v-4.83h-1.66v4.83Zm7.4-13.67v20.58h-2.42v-20.58h2.42Zm2.22,7.75v2.1h-3.59v-2.1h3.59Z"/>
            <path class="cls-1" d="m869.15,141.62v2.04h-18.08v-2.04h18.08Zm-2.27-10.68v5.5h-11.13v2.36h-2.4v-4.19h11.1v-1.73h-11.15v-1.94h13.57Zm.43,7.26v1.92h-13.95v-1.92h13.95Zm-11.46,6.77v4.42h-2.47v-4.42h2.47Zm11.51,3.56v2.04h-13.97v-2.04h13.97Z"/>
            <path class="cls-1" d="m883.32,132.6v13.09h-7.76v-13.09h7.76Zm-5.47,1.99v9.11h3.19v-9.11h-3.19Zm8.77,3.38v2.06h-4.53v-2.06h4.53Zm1.32-7.19v19.22h-2.31v-19.22h2.31Zm4.04-.39v20.58h-2.33v-20.58h2.33Z"/>
            <path class="cls-1" d="m912.13,141.64v2.06h-18.06v-2.06h18.06Zm-13.37-10.27v6.61h-2.47v-6.61h2.47Zm11.3,5.69v2.04h-13.77v-2.04h13.77Zm-9.2,5.3v8.65h-2.49v-8.65h2.49Zm6.91,0v8.65h-2.44v-8.65h2.44Z"/>
            <path class="cls-1" d="m924.38,141.15c2.02-.09,3.9-.26,5.65-.52l.18,1.83c-1.81.36-3.69.58-5.65.68-1.96.1-4.09.15-6.39.15l-.29-2.01c2.32,0,4.49-.04,6.5-.13Zm2.11-9.37c.75.35,1.33.83,1.75,1.46.42.62.63,1.35.63,2.16s-.21,1.51-.63,2.14c-.42.62-1.01,1.11-1.76,1.46-.76.35-1.6.52-2.55.52s-1.81-.17-2.57-.52c-.76-.35-1.34-.83-1.76-1.46-.42-.62-.63-1.34-.63-2.14s.21-1.54.63-2.16c.42-.62,1.01-1.11,1.76-1.46.75-.35,1.61-.52,2.57-.52s1.81.17,2.56.52Zm-3.41,12.98v4.65h-2.49v-4.65h2.49Zm11.24,3.75v2.06h-13.73v-2.06h13.73Zm-11.78-15.06c-.4.18-.72.44-.94.77-.22.34-.34.73-.34,1.18s.11.86.34,1.19c.22.33.54.59.94.76.4.18.87.27,1.39.27s.98-.09,1.38-.27c.4-.18.71-.43.93-.76.22-.33.34-.73.34-1.19s-.11-.84-.34-1.18c-.22-.34-.54-.6-.93-.77-.4-.18-.86-.27-1.38-.27s-.99.09-1.39.27Zm2.65,5.35v3.12h-2.47v-3.12h2.47Zm8.43-8.39v15.7h-2.47v-15.7h2.47Zm2.69,6.64v2.08h-3.59v-2.08h3.59Z"/>
            <path class="cls-1" d="m943.53,131.51v1.92c0,1.37-.22,2.65-.65,3.84-.43,1.19-1.08,2.22-1.93,3.1-.85.88-1.88,1.53-3.1,1.97l-1.28-2.06c1.06-.35,1.96-.88,2.69-1.57.73-.69,1.29-1.5,1.66-2.4.37-.91.56-1.87.56-2.87v-1.92h2.04Zm8.02,12.58c1.2.69,1.81,1.67,1.81,2.91s-.6,2.22-1.79,2.91c-1.2.69-2.85,1.04-4.96,1.04s-3.77-.35-4.98-1.04c-1.21-.69-1.82-1.67-1.82-2.91s.61-2.22,1.82-2.91c1.21-.69,2.87-1.04,4.98-1.04s3.74.35,4.95,1.04Zm-7.59-12.58v1.83c0,.96.18,1.85.53,2.69.35.84.87,1.58,1.56,2.23.69.65,1.53,1.13,2.53,1.46l-1.3,1.99c-1.15-.42-2.12-1.03-2.92-1.85-.79-.82-1.39-1.78-1.79-2.89-.4-1.11-.61-2.32-.61-3.63v-1.83h2Zm.29,13.74c-.64.15-1.13.38-1.46.67-.33.29-.49.66-.49,1.09s.16.79.49,1.09c.33.29.82.52,1.46.67.64.15,1.43.23,2.35.23s1.69-.08,2.33-.23c.64-.15,1.13-.38,1.47-.67.34-.29.5-.66.5-1.09s-.17-.79-.5-1.09c-.34-.29-.83-.52-1.47-.67-.64-.15-1.42-.23-2.33-.23s-1.71.08-2.35.23Zm6.98-10.89v2.1h-4.33v-2.1h4.33Zm2.04-3.95v12.09h-2.47v-12.09h2.47Z"/>
          </g>
          <g>
            <path class="cls-6" d="m830.06,176.26v1.28h-13.73v-1.28h13.73Zm-2.54-10.67v1.26h-9.75v-1.26h9.75Zm-4.45,5.11v6.21h-1.47v-6.21h1.47Zm5.38-5.11v1.55c0,1.32-.03,2.5-.09,3.57-.06,1.06-.22,2.3-.46,3.71l-1.52-.18c.25-1.34.41-2.53.47-3.58.06-1.04.09-2.22.09-3.52v-1.55h1.5Z"/>
            <path class="cls-6" d="m835.43,170.1c-.98,1.39-2.43,2.49-4.35,3.31l-.76-1.12c1.67-.7,2.93-1.6,3.78-2.71.85-1.11,1.28-2.39,1.28-3.85v-.53h1.52c0,1.89-.49,3.52-1.47,4.91Zm.48-4.91v1.26h-4.95v-1.26h4.95Zm7.19,8.8v5.71h-1.5v-4.46h-8.73v-1.25h10.23Zm-3.33-9.66v8.84h-1.41v-8.84h1.41Zm2.36,3.59v1.26h-2.81v-1.26h2.81Zm.97-3.9v9.23h-1.43v-9.23h1.43Z"/>
            <path class="cls-6" d="m854.82,165.91v1.23h-4.19v8.02h-1.41v-9.25h5.61Zm-1.62,8.76c.77-.05,1.56-.16,2.36-.33l.12,1.25c-.81.17-1.6.28-2.38.33-.78.05-1.82.08-3.11.08h-.98v-1.25h.98c1.23,0,2.23-.03,3-.08Zm.95-4.51v1.19h-3.93v-1.19h3.93Zm3.64-.21v1.26h-2.85v-1.26h2.85Zm.69-5.55v14.51h-1.4v-14.51h1.4Zm3.11-.36v15.65h-1.45v-15.65h1.45Z"/>
            <path class="cls-6" d="m869.51,165.91c.59.45,1.04,1.09,1.37,1.92.33.83.49,1.79.49,2.88s-.16,2.07-.49,2.9c-.33.83-.79,1.47-1.37,1.92-.59.45-1.25.68-2,.68s-1.43-.22-2.02-.68c-.59-.45-1.04-1.09-1.37-1.92-.33-.83-.49-1.79-.49-2.88s.16-2.07.49-2.9c.33-.83.79-1.47,1.37-1.92.59-.45,1.26-.68,2.02-.68s1.41.22,2,.68Zm-3.28,1.22c-.37.34-.65.81-.85,1.42-.2.61-.3,1.34-.3,2.18s.1,1.54.3,2.15c.2.62.49,1.09.85,1.42.37.33.79.5,1.28.5s.88-.17,1.25-.5c.37-.33.66-.81.86-1.43.2-.62.3-1.34.3-2.16s-.1-1.54-.3-2.15c-.2-.62-.49-1.09-.86-1.43-.37-.34-.79-.51-1.25-.51-.48,0-.91.17-1.28.51Zm9.28-3.1v15.71h-1.48v-15.71h1.48Z"/>
            <path class="cls-6" d="m891.32,170.74v1.25h-13.72v-1.25h13.72Zm-1.76,2.6v3.56h-8.8v1.87h-1.47v-2.99h8.82v-1.28h-8.87v-1.16h10.32Zm.47,5.02v1.19h-10.73v-1.19h10.73Zm-9.13-14.03v1.41h7.14v-1.41h1.5v5.18h-10.13v-5.18h1.48Zm0,3.98h7.14v-1.41h-7.14v1.41Z"/>
            <path class="cls-6" d="m902.13,170.65c.58.36,1.04.85,1.36,1.49.33.64.49,1.36.49,2.17s-.16,1.53-.49,2.17c-.33.64-.78,1.14-1.36,1.49-.58.36-1.25.53-1.99.53s-1.4-.18-1.98-.53c-.59-.36-1.04-.86-1.37-1.5-.33-.65-.49-1.37-.49-2.16s.16-1.53.49-2.17c.33-.64.79-1.14,1.37-1.49.59-.36,1.25-.53,1.98-.53s1.41.18,1.99.53Zm-.75,6.18c.37-.24.66-.58.86-1.02.21-.44.31-.94.31-1.49s-.1-1.07-.31-1.5c-.21-.43-.49-.77-.86-1.02-.37-.25-.79-.37-1.26-.37s-.89.12-1.25.37c-.36.25-.64.59-.85,1.02-.2.43-.3.93-.3,1.5s.1,1.06.3,1.49c.2.44.48.78.85,1.02.36.24.79.36,1.27.36s.87-.12,1.24-.36Z"/>
            <path class="cls-6" d="m907.86,170.88c.3-.27.64-.48,1.02-.63.38-.15.77-.22,1.17-.2v1.42c-.47-.02-.91.09-1.33.34-.41.25-.74.59-.99,1.01-.25.43-.37.88-.37,1.37v4.22h-1.43v-8.29h1.43v1.72l-.17-.05c.15-.34.37-.65.67-.92Z"/>
            <path class="cls-6" d="m916.66,165.53v3.77h3v-3.77h1.4v10.28h-5.81v-10.28h1.42Zm0,9.02h3v-4.02h-3v4.02Zm7.57-10.17v14.53h-1.4v-14.53h1.4Zm2.45,5.84v1.26h-2.85v-1.26h2.85Zm.93-6.17v15.65h-1.43v-15.65h1.43Z"/>
            <path class="cls-6" d="m936.66,164.94v1.23h-5.23v4.68h-1.5v-5.91h6.73Zm-1.64,5.06c1.01-.08,2.02-.22,3.02-.42l.17,1.23c-1,.21-2.02.36-3.05.44-1.03.08-2.38.12-4.06.12h-1.17v-1.25h1.17c1.6,0,2.9-.04,3.92-.12Zm6.06,2.68v3.93h-8.18v2.35h-1.48v-3.54h8.18v-1.53h-8.2v-1.21h9.68Zm.54,5.57v1.25h-10.2v-1.25h10.2Zm-.54-14.21v7.88h-1.5v-7.88h1.5Zm2.21,3.26v1.28h-2.62v-1.28h2.62Z"/>
            <path class="cls-6" d="m952.64,166.01v1.23c0,.95-.17,1.84-.52,2.69-.35.84-.84,1.58-1.48,2.21-.64.63-1.38,1.11-2.23,1.43l-.78-1.25c.76-.27,1.42-.67,1.99-1.19.57-.52,1.01-1.12,1.33-1.79s.47-1.37.47-2.11v-1.23h1.21Zm3.57-.73v1.25h-8.13v-1.25h8.13Zm-4.33,9.23v4.25h-1.5v-4.25h1.5Zm8.66,3.59v1.26h-10.16v-1.26h10.16Zm-7.61-12.1v1.23c0,.65.15,1.3.45,1.93.3.63.72,1.2,1.28,1.69.55.49,1.19.87,1.91,1.13l-.74,1.21c-.83-.31-1.55-.76-2.17-1.37-.62-.6-1.1-1.3-1.43-2.09-.33-.79-.5-1.62-.5-2.5v-1.23h1.21Zm6.52,2.31v1.26h-3.78v-1.26h3.78Zm.67-4.27v11.46h-1.5v-11.46h1.5Z"/>
            <path class="cls-6" d="m969.13,164.94v1.23h-5.23v4.68h-1.5v-5.91h6.73Zm-1.64,5.06c1.01-.08,2.02-.22,3.02-.42l.17,1.23c-1,.21-2.02.36-3.05.44-1.03.08-2.38.12-4.06.12h-1.17v-1.25h1.17c1.6,0,2.9-.04,3.92-.12Zm6.06,2.68v3.93h-8.18v2.35h-1.48v-3.54h8.18v-1.53h-8.2v-1.21h9.68Zm.54,5.57v1.25h-10.2v-1.25h10.2Zm-.54-14.21v7.88h-1.5v-7.88h1.5Zm2.21,3.26v1.28h-2.62v-1.28h2.62Z"/>
            <path class="cls-6" d="m900.17,191.4v1.25h-13.75v-1.25h13.75Zm-8.52-5.41v1.26h-3.97v-1.26h3.97Zm6.87,8.22v1.17h-8.89v4.59h-1.48v-5.76h10.37Zm.1,5.44v1.21h-10.47v-1.21h10.47Zm-.48-2.72v1.12h-9.13v-1.12h9.13Zm-5.5-10.94v.5c0,.77-.04,1.58-.13,2.44-.09.85-.28,1.84-.6,2.95l-1.43-.21c.3-1.11.49-2.07.57-2.86.08-.79.12-1.56.12-2.31v-.5h1.47Zm5.06,0v1.26h-4.05v-1.26h4.05Zm.79,0v.73c0,.82-.03,1.63-.1,2.44-.07.81-.24,1.73-.52,2.77l-1.43-.21c.26-1.04.43-1.94.5-2.7.07-.75.1-1.52.1-2.3v-.73h1.45Z"/>
            <path class="cls-6" d="m903.94,196.48h-1.35l-.26-9.82h1.85l-.24,9.82Zm0,1.85c.17.18.25.41.25.69s-.08.52-.25.7c-.17.18-.39.28-.66.28s-.5-.1-.68-.29c-.18-.19-.27-.42-.27-.69s.09-.52.26-.69c.17-.18.4-.27.69-.27s.5.09.66.27Z"/>
          </g>
        </g>
        <g class="cls-7">
          <path class="cls-5" d="m872.95,60.7c-.91,0-1.64-.73-1.64-1.64v-9.84c0-.91.73-1.64,1.64-1.64s1.64.73,1.64,1.64v9.84c0,.91-.73,1.64-1.64,1.64Z"/>
          <path class="cls-5" d="m877.87,60.7c-.91,0-1.64-.73-1.64-1.64v-9.84c0-.91.73-1.64,1.64-1.64s1.64.73,1.64,1.64v9.84c0,.91-.73,1.64-1.64,1.64Z"/>
          <g>
            <path class="cls-5" d="m878.03,68.4c-.66,0-1.28-.4-1.53-1.06-.32-.85.1-1.79.95-2.12,2.25-.86,3.71-2.96,3.71-5.35v-10.66c0-.91.73-1.64,1.64-1.64s1.64.73,1.64,1.64v10.66c0,3.71-2.34,7.09-5.82,8.41-.19.07-.39.11-.58.11Z"/>
            <path class="cls-5" d="m872.8,68.4c-.19,0-.39-.03-.58-.11-3.48-1.33-5.82-4.71-5.82-8.41v-10.66c0-.91.73-1.64,1.64-1.64s1.64.73,1.64,1.64v10.66c0,2.39,1.46,4.49,3.71,5.35.85.32,1.27,1.27.95,2.12-.25.66-.87,1.06-1.53,1.06Z"/>
            <path class="cls-5" d="m875.41,90.21c-1.51,0-2.97-.63-4.01-1.73-1.04-1.1-1.58-2.59-1.5-4.1l1.26-17.74c.06-.9.84-1.59,1.75-1.52.9.06,1.58.85,1.52,1.75l-1.26,17.71c-.03.6.18,1.19.61,1.64.85.9,2.4.9,3.25,0,.43-.45.64-1.04.61-1.66l-1.26-17.69c-.06-.9.62-1.69,1.52-1.75.92-.07,1.69.62,1.75,1.52l1.26,17.71c.09,1.53-.46,3.03-1.5,4.12-1.04,1.1-2.5,1.73-4.01,1.73Z"/>
          </g>
          <g>
            <path class="cls-5" d="m895.76,68.4c-.19,0-.39-.03-.58-.11-3.48-1.33-5.82-4.71-5.82-8.41v-.82c0-4.62,3.79-11.48,9.02-11.48s9.02,6.86,9.02,11.48v.82c0,3.71-2.34,7.09-5.82,8.41-.85.32-1.79-.1-2.12-.95-.32-.85.1-1.79.95-2.12,2.25-.86,3.71-2.96,3.71-5.35v-.82c0-3.43-2.89-8.2-5.74-8.2s-5.74,4.77-5.74,8.2v.82c0,2.39,1.46,4.49,3.71,5.35.85.32,1.27,1.27.95,2.12-.25.65-.87,1.06-1.53,1.06Z"/>
            <path class="cls-5" d="m898.37,90.21c-1.51,0-2.97-.63-4.01-1.73-1.04-1.1-1.58-2.59-1.5-4.1l1.26-17.74c.06-.9.85-1.59,1.75-1.52.9.06,1.58.85,1.52,1.75l-1.26,17.71c-.03.6.18,1.19.61,1.64.85.9,2.4.9,3.25,0,.43-.45.64-1.04.61-1.66l-1.26-17.69c-.06-.9.62-1.69,1.52-1.75.92-.07,1.69.62,1.75,1.52l1.26,17.71c.08,1.53-.46,3.03-1.5,4.12-1.04,1.1-2.5,1.73-4.01,1.73Z"/>
          </g>
          <path class="cls-5" d="m915.6,22.96h-57.4c-.58,0-1.12-.31-1.42-.82-.29-.51-.3-1.13,0-1.64l6.56-11.48c.45-.79,1.45-1.06,2.24-.61.79.45,1.06,1.45.61,2.24l-5.16,9.03h54.58c.91,0,1.64.73,1.64,1.64s-.73,1.64-1.64,1.64Z"/>
          <path class="cls-5" d="m915.47,22.96c-.28,0-.56-.07-.82-.22-.78-.46-1.05-1.46-.59-2.24l6.68-11.48c.46-.78,1.46-1.05,2.24-.59.78.46,1.05,1.46.59,2.24l-6.68,11.48c-.3.52-.85.82-1.42.82Z"/>
          <path class="cls-5" d="m915.47,22.96c-.28,0-.56-.07-.82-.22-.78-.46-1.05-1.46-.59-2.24l6.68-11.48c.46-.78,1.46-1.05,2.24-.59.78.46,1.05,1.46.59,2.24l-6.68,11.48c-.3.52-.85.82-1.42.82Z"/>
          <path class="cls-5" d="m935.28,42.64c-.64,0-1.25-.38-1.51-1l-13.12-31.16c-.35-.83.04-1.8.88-2.15.84-.35,1.8.04,2.15.88l13.12,31.16c.35.83-.04,1.8-.88,2.15-.21.09-.42.13-.64.13Z"/>
          <g>
            <path class="cls-5" d="m915.6,50.84c-.14,0-.28-.02-.42-.06-.88-.23-1.4-1.13-1.16-2.01l6.56-24.6c.23-.88,1.13-1.39,2.01-1.16.88.23,1.4,1.13,1.16,2.01l-6.56,24.6c-.2.73-.86,1.22-1.58,1.22Z"/>
            <path class="cls-5" d="m858.19,50.84c-.21,0-.42-.04-.62-.12-.84-.34-1.24-1.3-.89-2.14l11.48-27.88c.35-.84,1.3-1.23,2.14-.89.84.34,1.24,1.3.89,2.14l-11.48,27.88c-.26.63-.87,1.02-1.52,1.02Z"/>
          </g>
          <path class="cls-5" d="m867.96,22.96h-3.21c-.91,0-1.64-.73-1.64-1.64s.73-1.64,1.64-1.64h3.21c.91,0,1.64.73,1.64,1.64s-.73,1.64-1.64,1.64Z"/>
          <path class="cls-5" d="m922.16,11.48h-57.4c-.91,0-1.64-.73-1.64-1.64s.73-1.64,1.64-1.64h57.4c.91,0,1.64.73,1.64,1.64s-.73,1.64-1.64,1.64Z"/>
          <path class="cls-5" d="m915.6,100.05h-57.4c-.91,0-1.64-.73-1.64-1.64v-49.21c0-.91.73-1.64,1.64-1.64s1.64.73,1.64,1.64v47.56h54.12v-47.56c0-.91.73-1.64,1.64-1.64s1.64.73,1.64,1.64v49.21c0,.91-.73,1.64-1.64,1.64Z"/>
          <path class="cls-5" d="m915.6,100.05c-.47,0-.94-.2-1.26-.59-.58-.7-.49-1.73.21-2.31l9.84-8.2c.22-.19.49-.31.78-.36l8.47-1.41v-46.17c0-.91.73-1.64,1.64-1.64s1.64.73,1.64,1.64v47.56c0,.8-.58,1.49-1.37,1.62l-9.4,1.57-9.5,7.92c-.31.26-.68.38-1.05.38Z"/>
        </g>
      </g>
      <g>
        <g>
          <g>
            <path class="cls-1" d="m302.8,139.52c2.05-.08,4.01-.23,5.88-.46l.13,1.8c-1.88.32-3.84.54-5.88.65-2.03.11-4.28.17-6.73.18l-.31-2.04c2.56-.01,4.86-.06,6.91-.14Zm2.11-7.92c.75.3,1.33.73,1.75,1.28.42.56.63,1.19.63,1.9s-.21,1.36-.63,1.92c-.42.56-1,.98-1.75,1.28-.75.3-1.61.45-2.58.45s-1.83-.15-2.58-.45c-.75-.3-1.33-.73-1.75-1.28-.42-.55-.63-1.19-.63-1.92s.21-1.34.63-1.9c.42-.55,1.01-.98,1.76-1.28.75-.3,1.62-.45,2.59-.45s1.81.15,2.56.45Zm-3.93,12.92v4.58h-2.47v-4.58h2.47Zm12.09,4.02v2.04h-14.56v-2.04h14.56Zm-12.63-15.07c-.48.32-.72.75-.72,1.31s.24.99.72,1.31c.48.32,1.11.47,1.91.47s1.4-.16,1.87-.47c.47-.32.71-.75.71-1.31s-.24-.99-.71-1.31c-.47-.32-1.1-.47-1.87-.47s-1.43.16-1.91.47Zm3.39,7.41v4.51h-2.47v-4.51h2.47Zm6.89,1.55v1.76h-4.44v-1.76h4.44Zm1.88-12.05v15.63h-2.47v-15.63h2.47Z"/>
            <path class="cls-1" d="m324.38,139.54l.13,1.87c-2.3.45-5.53.67-9.69.67l-.27-2.08c4.31,0,7.58-.15,9.82-.46Zm-.29-7.42v2.04h-9.17v-2.04h9.17Zm-5.56,1.34v6.98h-2.22v-6.98h2.22Zm13.1,10.48v7.05h-2.45v-5.04h-11.39v-2.01h13.84Zm-8.95-10.48v6.98h-2.22v-6.98h2.22Zm4.82-2.75v12.16h-2.29v-12.16h2.29Zm2.6,4.95v2.06h-3.41v-2.06h3.41Zm1.53-5.25v12.56h-2.36v-12.56h2.36Z"/>
            <path class="cls-1" d="m345.58,132.07v3.24c0,1.71-.22,3.33-.67,4.87-.45,1.53-1.1,2.88-1.96,4.04-.86,1.16-1.9,2.04-3.11,2.64l-1.48-2.1c1.06-.49,1.99-1.23,2.77-2.2.79-.97,1.39-2.08,1.81-3.34.42-1.26.63-2.56.63-3.9v-3.24h2.02Zm.47,0v3.24c0,1.28.2,2.52.61,3.72.4,1.2.99,2.27,1.76,3.2s1.68,1.64,2.73,2.12l-1.44,2.06c-1.18-.57-2.2-1.41-3.06-2.53-.86-1.12-1.51-2.41-1.95-3.88-.44-1.47-.66-3.03-.66-4.68v-3.24h2.02Zm8.97-1.71v20.65h-2.47v-20.65h2.47Z"/>
            <path class="cls-1" d="m375.46,146.27v2.08h-18.08v-2.08h18.08Zm-8.3-14.61v1.53c0,1.46-.35,2.84-1.05,4.13-.7,1.29-1.67,2.38-2.92,3.27-1.24.89-2.64,1.5-4.19,1.83l-1.05-2.1c1.33-.25,2.54-.73,3.62-1.46,1.08-.72,1.93-1.59,2.55-2.59.61-1,.92-2.03.92-3.08v-1.53h2.13Zm.47,0v1.53c0,1.06.31,2.1.92,3.1.61,1,1.46,1.86,2.55,2.58,1.08.72,2.3,1.2,3.65,1.45l-1.08,2.1c-1.56-.32-2.95-.93-4.19-1.82-1.24-.89-2.21-1.97-2.92-3.26-.7-1.29-1.05-2.67-1.05-4.15v-1.53h2.13Z"/>
            <path class="cls-1" d="m384.44,131.65v2.04h-5.16v7.21h-2.35v-9.25h7.51Zm-2.3,7.98c1.01-.06,2.04-.19,3.08-.37l.2,1.99c-1.05.2-2.08.33-3.1.39-1.02.06-2.38.09-4.08.09h-1.32v-2.01h1.32c1.59,0,2.88-.03,3.89-.09Zm1.56-3.98v1.94h-5.14v-1.94h5.14Zm9.31,7.93v7.15h-13.35v-7.15h13.35Zm-10.92,1.99v3.14h8.55v-3.14h-8.55Zm5.67-10.15v2.04h-3.19v-2.04h3.19Zm1.35-4.72v11.82h-2.31v-11.82h2.31Zm3.9-.3v12.3h-2.33v-12.3h2.33Z"/>
          </g>
          <g>
            <path class="cls-6" d="m282.77,172.93v1.26h-13.73v-1.26h13.73Zm-6.42-7.31v.64c0,.9-.27,1.73-.81,2.48-.54.75-1.27,1.39-2.17,1.9s-1.9.86-2.97,1.04l-.57-1.25c.92-.13,1.78-.4,2.59-.81.8-.41,1.45-.91,1.92-1.5.48-.59.72-1.22.72-1.87v-.64h1.29Zm5.09-.6v1.25h-11.13v-1.25h11.13Zm-4.83,8.75v5.94h-1.48v-5.94h1.48Zm.12-8.15v.64c0,.65.24,1.28.73,1.87.49.59,1.13,1.09,1.92,1.5.79.41,1.65.68,2.57.81l-.57,1.25c-1.06-.18-2.04-.53-2.96-1.04-.91-.52-1.64-1.15-2.18-1.9-.54-.75-.81-1.58-.81-2.48v-.64h1.29Z"/>
            <path class="cls-6" d="m297.11,176.51v1.26h-13.75v-1.26h13.75Zm-1.67-11.33v4.8h-8.9v3.06h-1.48v-4.29h8.9v-2.35h-8.92v-1.23h10.4Zm.35,7.24v1.25h-10.73v-1.25h10.73Zm-4.83.8v3.82h-1.48v-3.82h1.48Z"/>
            <path class="cls-6" d="m306.62,165.39v2.72c0,1.16-.18,2.29-.53,3.39-.36,1.1-.85,2.07-1.49,2.93-.64.85-1.37,1.51-2.18,1.96l-.91-1.25c.75-.38,1.42-.94,2.01-1.68.59-.74,1.06-1.58,1.39-2.53.33-.94.5-1.88.5-2.82v-2.72h1.23Zm.26,0v2.72c0,.9.16,1.8.49,2.7.33.9.78,1.71,1.36,2.42.58.71,1.23,1.25,1.96,1.62l-.91,1.21c-.79-.43-1.5-1.05-2.13-1.87-.63-.82-1.11-1.75-1.46-2.81-.35-1.06-.52-2.15-.52-3.27v-2.72h1.21Zm6.54-1.33v15.65h-1.5v-15.65h1.5Zm2.47,6.28v1.3h-2.81v-1.3h2.81Z"/>
            <path class="cls-6" d="m330.7,171.74v1.25h-13.72v-1.25h13.72Zm-4-7.05c.81.23,1.43.57,1.86,1,.44.44.66.96.66,1.57s-.22,1.13-.66,1.57c-.44.44-1.06.77-1.86,1-.81.23-1.75.34-2.85.34s-2.04-.11-2.86-.34c-.81-.23-1.43-.56-1.86-1-.43-.44-.65-.96-.65-1.57s.22-1.13.65-1.57c.43-.44,1.05-.77,1.86-1,.81-.23,1.76-.35,2.86-.35s2.04.12,2.85.35Zm.97,10.16c.92.48,1.38,1.16,1.38,2.04s-.46,1.59-1.38,2.08c-.92.49-2.2.73-3.83.73s-2.92-.24-3.84-.73c-.91-.49-1.37-1.18-1.37-2.08s.46-1.56,1.37-2.04c.91-.48,2.19-.72,3.84-.72s2.91.24,3.83.72Zm-5.87-9.11c-.58.14-1.02.34-1.32.6-.3.26-.46.57-.46.92,0,.55.34.97,1.02,1.27.68.3,1.62.45,2.81.45s2.12-.15,2.79-.45c.68-.3,1.02-.73,1.02-1.27,0-.36-.15-.66-.46-.92-.31-.26-.75-.46-1.33-.6-.58-.14-1.26-.2-2.03-.2s-1.48.07-2.05.2Zm.03,9.75c-.55.12-.97.31-1.27.54s-.44.52-.44.85c0,.52.32.92.97,1.2.65.28,1.56.42,2.73.42s2.08-.14,2.73-.42c.64-.28.97-.68.97-1.2,0-.33-.14-.62-.43-.85-.29-.24-.71-.42-1.27-.54-.56-.12-1.22-.19-1.99-.19s-1.45.06-2,.19Zm-.03-6.15v2.94h-1.47v-2.94h1.47Zm5.56,0v2.94h-1.48v-2.94h1.48Z"/>
            <path class="cls-6" d="m336.98,174.99c1.52-.05,2.99-.16,4.41-.34l.12,1.12c-1.51.24-3.08.4-4.73.48s-3.33.12-5.06.11l-.19-1.28c2.11-.01,3.92-.04,5.44-.09Zm3.36-9.46v1.23h-6.21v4.41h-1.5v-5.64h7.71Zm.09,5.19v1.26h-7.8v-1.26h7.8Zm-3.23,1.01v3.56h-1.5v-3.56h1.5Zm6.66-7.72v15.71h-1.48v-15.71h1.48Z"/>
            <path class="cls-6" d="m359.65,171.97v1.26h-13.75v-1.26h13.75Zm-10.54,2.77v3.65h-1.48v-3.65h1.48Zm9.06,3.33v1.26h-10.54v-1.26h10.54Zm-8.96-13.47v4.71h-1.48v-4.71h1.48Zm8.87,4.07v1.26h-10.35v-1.26h10.35Z"/>
            <path class="cls-6" d="m369.4,171.15c1.6-.06,3.11-.18,4.54-.36l.1,1.08c-1.45.25-2.94.41-4.49.49-1.54.08-3.27.12-5.18.13l-.22-1.26c1.9,0,3.65-.03,5.25-.09Zm1.64-6.14c.56.23,1,.55,1.32.96.32.42.47.9.47,1.44s-.16,1.02-.47,1.43c-.31.41-.75.73-1.31.95-.56.23-1.22.34-1.97.34s-1.39-.11-1.95-.33c-.56-.22-1-.54-1.32-.95-.32-.41-.47-.89-.47-1.44s.16-1.03.47-1.44c.32-.42.76-.74,1.32-.96.56-.22,1.21-.34,1.95-.34s1.39.11,1.95.34Zm-3.26,9.78v3.65h-1.48v-3.65h1.48Zm9.32,3.31v1.26h-10.8v-1.26h10.8Zm-9.69-11.86c-.43.28-.65.67-.65,1.16s.22.86.65,1.15c.43.29.99.44,1.68.44s1.26-.15,1.68-.44c.42-.29.63-.67.63-1.15s-.21-.87-.63-1.16c-.42-.29-.98-.43-1.68-.43s-1.25.14-1.68.43Zm2.6,5.71v3.45h-1.5v-3.45h1.5Zm5.59,1.32v1.1h-3.42v-1.1h3.42Zm1.12-9.23v11.9h-1.48v-11.9h1.48Z"/>
            <path class="cls-6" d="m392.44,173.3v1.25h-13.75v-1.25h13.75Zm-10.56-8.61v2.08h7.35v-2.08h1.47v6.78h-10.3v-6.78h1.48Zm0,5.53h7.35v-2.22h-7.35v2.22Zm4.38,3.65v5.83h-1.48v-5.83h1.48Z"/>
            <path class="cls-6" d="m398.14,166.31v2.44c0,1.09-.19,2.17-.56,3.23-.37,1.06-.89,2.01-1.55,2.85-.66.84-1.38,1.46-2.17,1.88l-.88-1.23c.74-.36,1.41-.9,2.01-1.63.6-.73,1.08-1.55,1.43-2.45.35-.9.53-1.78.53-2.65v-2.44h1.19Zm3.59-.68v1.28h-8.21v-1.28h8.21Zm-3.31.68v2.44c0,.81.17,1.63.51,2.48.34.85.8,1.62,1.39,2.3.59.69,1.25,1.2,1.98,1.55l-.85,1.23c-.81-.4-1.53-1-2.17-1.8-.64-.8-1.14-1.7-1.51-2.7-.37-1.01-.55-2.03-.55-3.06v-2.44h1.19Zm6.52-2.26v15.65h-1.5v-15.65h1.5Zm2.45,6.26v1.3h-2.8v-1.3h2.8Z"/>
            <path class="cls-6" d="m411.61,166.47v1.74c0,1.93-.29,3.62-.88,5.07-.59,1.45-1.46,2.53-2.61,3.24l-.93-1.19c1.07-.63,1.88-1.56,2.43-2.8.55-1.24.83-2.68.83-4.31v-1.74h1.16Zm2.97-.61v1.26h-7.01v-1.26h7.01Zm-2.69.61v1.74c0,1.47.28,2.79.83,3.96.55,1.17,1.35,2.03,2.4,2.59l-.88,1.21c-1.15-.65-2.02-1.66-2.61-3.03-.59-1.37-.89-2.94-.89-4.72v-1.74h1.16Zm5.14-2.1v14.53h-1.41v-14.53h1.41Zm2.42,5.96v1.26h-2.85v-1.26h2.85Zm.9-6.3v15.65h-1.43v-15.65h1.43Z"/>
            <path class="cls-6" d="m271.16,192.5c1.6-.06,3.11-.18,4.54-.36l.1,1.08c-1.45.25-2.94.41-4.49.49s-3.27.12-5.18.13l-.22-1.26c1.9,0,3.65-.03,5.25-.09Zm1.64-6.14c.56.23,1,.55,1.32.96.32.41.47.9.47,1.44s-.16,1.02-.47,1.43c-.31.41-.75.73-1.31.95-.56.23-1.22.34-1.97.34s-1.39-.11-1.95-.33c-.56-.22-1-.54-1.32-.95-.32-.42-.47-.89-.47-1.44s.16-1.03.47-1.44c.32-.42.76-.74,1.32-.96.56-.22,1.21-.34,1.95-.34s1.39.11,1.95.34Zm-3.26,9.78v3.65h-1.48v-3.65h1.48Zm9.32,3.31v1.26h-10.8v-1.26h10.8Zm-9.69-11.86c-.43.28-.65.67-.65,1.16s.22.86.65,1.15c.43.29.99.44,1.68.44s1.26-.15,1.68-.44c.42-.29.63-.67.63-1.15s-.21-.87-.63-1.16c-.42-.29-.98-.43-1.68-.43s-1.25.14-1.68.43Zm2.6,5.71v3.45h-1.5v-3.45h1.5Zm5.59,1.32v1.1h-3.42v-1.1h3.42Zm1.12-9.23v11.9h-1.48v-11.9h1.48Z"/>
            <path class="cls-6" d="m287.96,192.43l.09,1.14c-1.74.33-4.24.5-7.51.5l-.17-1.28c3.32,0,5.86-.12,7.59-.36Zm-.28-5.67v1.26h-7.04v-1.26h7.04Zm-4.45.82v5.46h-1.36v-5.46h1.36Zm10.02,8.11v5.37h-1.48v-4.13h-8.89v-1.25h10.37Zm-6.82-8.11v5.46h-1.36v-5.46h1.36Zm3.64-1.92v9.16h-1.41v-9.16h1.41Zm2.26,3.81v1.26h-2.83v-1.26h2.83Zm.91-4.06v9.5h-1.43v-9.5h1.43Z"/>
            <path class="cls-6" d="m300.23,196.73c1.54-.06,3-.19,4.38-.39l.12,1.12c-1.44.28-2.9.47-4.4.54-1.5.08-3.17.12-5.02.12l-.22-1.3c1.89,0,3.6-.03,5.14-.09Zm4.19-9.48v1.26h-9.08v-1.26h9.08Zm-2.67,2.49c.55.24.97.58,1.28,1.02.3.45.46.96.46,1.54s-.15,1.06-.46,1.49c-.31.44-.73.78-1.28,1.01-.55.24-1.17.36-1.87.36s-1.32-.12-1.86-.36c-.54-.24-.96-.58-1.27-1.01s-.46-.94-.46-1.51.15-1.09.46-1.53.73-.78,1.27-1.01c.54-.24,1.17-.36,1.88-.36s1.31.12,1.85.36Zm-3.45,1.29c-.4.31-.6.73-.6,1.25s.2.94.6,1.25c.4.31.92.46,1.58.46s1.18-.15,1.59-.46c.4-.31.6-.72.6-1.25s-.2-.94-.6-1.25c-.4-.31-.93-.47-1.59-.47s-1.18.16-1.58.47Zm2.32-5.61v2.69h-1.48v-2.69h1.48Zm0,9.29v2.56h-1.48v-2.56h1.48Zm6.38-9.3v15.65h-1.5v-15.65h1.5Zm2.3,6.58v1.32h-2.78v-1.32h2.78Z"/>
            <path class="cls-6" d="m323.54,197.85v1.26h-13.75v-1.26h13.75Zm-1.67-11.33v4.8h-8.9v3.06h-1.48v-4.29h8.9v-2.35h-8.92v-1.23h10.4Zm.35,7.24v1.25h-10.73v-1.25h10.73Zm-4.83.8v3.82h-1.48v-3.82h1.48Z"/>
            <path class="cls-6" d="m341.88,193.41v1.26h-13.75v-1.26h13.75Zm-6.52-6.51v.48c0,.83-.26,1.6-.78,2.29-.52.7-1.23,1.28-2.12,1.74s-1.87.78-2.94.94l-.57-1.25c.92-.12,1.77-.36,2.54-.73.78-.37,1.4-.81,1.85-1.33.46-.52.69-1.08.69-1.67v-.48h1.33Zm5.26-.73v1.25h-11.22v-1.25h11.22Zm-9.27,10.1v3.65h-1.48v-3.65h1.48Zm9.01,3.2v1.26h-10.49v-1.26h10.49Zm-4.49-5.28v3.59h-1.5v-3.59h1.5Zm.12-7.29v.48c0,.58.23,1.14.69,1.66.46.53,1.08.98,1.85,1.34.77.37,1.62.61,2.54.73l-.57,1.25c-1.08-.17-2.06-.48-2.95-.94-.89-.46-1.59-1.04-2.1-1.73-.52-.69-.78-1.46-.78-2.3v-.48h1.33Z"/>
            <path class="cls-6" d="m345.27,186.72v4.07h4.23v-4.07h1.47v10.58h-7.19v-10.58h1.5Zm0,9.32h4.23v-4.04h-4.23v4.04Zm10.09-10.67v15.71h-1.48v-15.71h1.48Z"/>
            <path class="cls-6" d="m362.61,186.74v2.72c0,1.2-.19,2.36-.56,3.48-.37,1.12-.89,2.11-1.55,2.96-.66.85-1.42,1.49-2.27,1.92l-.9-1.28c.75-.37,1.43-.92,2.05-1.65.62-.74,1.11-1.58,1.46-2.53.35-.95.53-1.92.53-2.9v-2.72h1.24Zm.26,0v2.72c0,.94.18,1.87.53,2.78.35.92.83,1.73,1.44,2.45.61.71,1.29,1.24,2.05,1.58l-.9,1.25c-.84-.43-1.59-1.05-2.25-1.87-.66-.82-1.18-1.76-1.54-2.84-.37-1.07-.55-2.19-.55-3.35v-2.72h1.23Zm6.97-1.37v15.71h-1.48v-15.71h1.48Z"/>
            <path class="cls-6" d="m378.74,190.26c-.57,1.1-1.39,2.06-2.45,2.86-1.06.81-2.33,1.45-3.8,1.92l-.62-1.25c1.92-.59,3.42-1.46,4.51-2.61,1.09-1.14,1.63-2.45,1.63-3.9v-.69h1.59c0,1.34-.28,2.56-.85,3.66Zm.06-3.66v1.26h-6.3v-1.26h6.3Zm-3.16,9.04v4.32h-1.48v-4.32h1.48Zm8.68,3.82v1.26h-10.16v-1.26h10.16Zm-.66-14.05v11.38h-1.5v-11.38h1.5Zm2.23,4.68v1.28h-2.67v-1.28h2.67Z"/>
            <path class="cls-6" d="m393.51,187v1.32c0,.63-.1,1.27-.29,1.92-.2.65-.5,1.25-.91,1.8-.41.55-.92.97-1.54,1.28l-.71-1.12c.51-.26.94-.61,1.29-1.06.36-.45.62-.92.8-1.41.18-.5.27-.97.27-1.41v-1.32h1.09Zm1.36-.76v1.26h-4.31v-1.26h4.31Zm1.73,8.27v3.63h-3.31v2.13h-1.43v-3.22h3.3v-1.39h-3.31v-1.16h4.76Zm-1.47,5.15c.57-.03,1.17-.1,1.79-.22l.14,1.16c-.66.13-1.28.21-1.87.25-.59.04-1.44.05-2.54.05h-.79v-1.19h.79c1.08,0,1.91-.01,2.48-.05Zm-1.29-12.66v1.32c0,.43.06.89.19,1.39.13.5.33.98.62,1.46s.67.86,1.16,1.16l-.64,1.16c-.59-.34-1.06-.81-1.41-1.41-.36-.59-.6-1.22-.74-1.87-.14-.65-.21-1.28-.21-1.88v-1.32h1.04Zm3.73,0v1.32c0,.63-.07,1.27-.22,1.93-.15.66-.4,1.28-.74,1.86-.35.58-.82,1.04-1.43,1.37l-.62-1.16c.48-.3.87-.68,1.16-1.15.29-.47.49-.95.62-1.44.13-.49.19-.96.19-1.41v-1.32h1.05Zm2.16-.76v1.26h-4.23v-1.26h4.23Zm-1.79.76v1.32c0,.46.09.94.26,1.44.17.5.44.96.8,1.4s.8.78,1.32,1.04l-.71,1.12c-.62-.31-1.14-.73-1.55-1.27-.41-.54-.72-1.14-.91-1.79-.19-.65-.28-1.3-.28-1.94v-1.32h1.07Zm.95,7.36v1.97h2.14v-1.97h1.33v6.53h-4.85v-6.53h1.38Zm0,5.34h2.14v-2.21h-2.14v2.21Zm3.47-14.3v8.13h-1.47v-8.13h1.47Zm1.88,3.27v1.26h-2.85v-1.26h2.85Z"/>
            <path class="cls-6" d="m410.95,191.37c-.39,1.25-1,2.42-1.84,3.5-.84,1.08-1.93,2.02-3.26,2.83l-.86-1.1c1.16-.72,2.12-1.54,2.87-2.45.75-.91,1.31-1.91,1.67-3s.54-2.25.54-3.5v-.29h1.45c0,1.42-.19,2.76-.58,4.01Zm-.32-4.01v1.26h-4.97v-1.26h4.97Zm3.09,4.38v1.25h-3.73v-1.25h3.73Zm1.04-5.94v14.46h-1.41v-14.46h1.41Zm3.17-.41v15.65h-1.41v-15.65h1.41Z"/>
            <path class="cls-6" d="m422.7,196.48h-1.35l-.26-9.82h1.85l-.24,9.82Zm0,1.85c.17.18.25.41.25.69s-.08.52-.25.7c-.17.18-.39.28-.66.28s-.5-.1-.68-.29c-.18-.19-.27-.42-.27-.69s.09-.52.26-.69c.17-.18.4-.27.69-.27s.5.09.66.27Z"/>
          </g>
        </g>
        <g>
          <path class="cls-5" d="m374.88,102.75c-12.56,0-22.78-10.22-22.78-22.78s10.22-22.78,22.78-22.78,22.78,10.22,22.78,22.78-10.22,22.78-22.78,22.78Zm0-42.05c-10.63,0-19.27,8.65-19.27,19.27s8.65,19.27,19.27,19.27,19.27-8.65,19.27-19.27-8.65-19.27-19.27-19.27Z"/>
          <path class="cls-5" d="m371.37,88.73c-.45,0-.9-.17-1.24-.51l-7.01-7.01c-.68-.68-.68-1.79,0-2.48s1.79-.68,2.48,0l5.77,5.77,12.78-12.78c.68-.68,1.79-.68,2.48,0s.68,1.79,0,2.48l-14.02,14.02c-.34.34-.79.51-1.24.51Z"/>
          <path class="cls-5" d="m343.34,64.2c-.28,0-.57-.07-.83-.21-.57-.3-.93-.9-.93-1.54v-17.52c0-.97.78-1.75,1.75-1.75s1.75.78,1.75,1.75v14.25l7.79-5.19c.81-.54,1.89-.32,2.43.49.54.8.32,1.89-.49,2.43l-10.51,7.01c-.29.2-.63.29-.97.29Z"/>
          <path class="cls-5" d="m343.34,36.17c-.97,0-1.75-.78-1.75-1.75v-7.01c0-.97.78-1.75,1.75-1.75s1.75.78,1.75,1.75v7.01c0,.97-.78,1.75-1.75,1.75Z"/>
          <path class="cls-5" d="m350.35,29.16h-14.02c-.97,0-1.75-.78-1.75-1.75v-7.01c0-.97.78-1.75,1.75-1.75h14.02c.97,0,1.75.78,1.75,1.75v7.01c0,.97-.78,1.75-1.75,1.75Zm-12.26-3.5h10.51v-3.5h-10.51v3.5Z"/>
          <path class="cls-5" d="m371.37,43.18c-.45,0-.9-.17-1.24-.51l-7.01-7.01c-.68-.68-.68-1.79,0-2.48s1.79-.68,2.48,0l7.01,7.01c.68.68.68,1.79,0,2.48-.34.34-.79.51-1.24.51Z"/>
          <path class="cls-5" d="m315.31,43.18c-.45,0-.9-.17-1.24-.51-.68-.68-.68-1.79,0-2.48l7.01-7.01c.68-.68,1.79-.68,2.48,0s.68,1.79,0,2.48l-7.01,7.01c-.34.34-.79.51-1.24.51Z"/>
          <path class="cls-5" d="m363.17,44.37c-.45,0-.9-.17-1.24-.51-.68-.68-.68-1.79,0-2.48l4.69-4.7c.68-.68,1.79-.68,2.48,0,.68.68.68,1.79,0,2.48l-4.69,4.7c-.34.34-.79.51-1.24.51Z"/>
          <path class="cls-5" d="m323.51,44.37c-.45,0-.9-.17-1.24-.51l-4.69-4.7c-.68-.68-.68-1.79,0-2.48.68-.68,1.79-.68,2.48,0l4.69,4.7c.68.68.68,1.79,0,2.48-.34.34-.79.51-1.24.51Z"/>
          <path class="cls-5" d="m343.34,92.24c-9.1,0-17.57-4.07-23.24-11.17-.6-.76-.48-1.86.28-2.46.76-.6,1.86-.48,2.46.28,5,6.26,12.47,9.85,20.5,9.85,1.59,0,3.2-.15,4.8-.44.95-.18,1.86.46,2.04,1.41.17.95-.46,1.86-1.41,2.04-1.8.33-3.62.49-5.42.49Z"/>
          <path class="cls-5" d="m369.49,54.09c-.7,0-1.37-.43-1.63-1.12-1.33-3.42-3.32-6.49-5.92-9.12-4.99-4.95-11.59-7.68-18.59-7.68-10.76,0-20.32,6.45-24.38,16.43-.27.66-.91,1.09-1.62,1.09h-12.55c-.97,0-1.75-.78-1.75-1.75s.78-1.75,1.75-1.75h11.39c4.83-10.68,15.36-17.52,27.15-17.52,7.93,0,15.41,3.09,21.07,8.71,2.96,2.98,5.21,6.46,6.71,10.33.35.9-.1,1.92-1,2.27-.21.08-.42.12-.63.12Z"/>
          <path class="cls-5" d="m315.31,64.2h-21.02c-.97,0-1.75-.78-1.75-1.75s.78-1.75,1.75-1.75h19.32c.04-.66.09-1.31.17-1.96.12-.96.99-1.64,1.95-1.53.96.12,1.65.99,1.53,1.95-.13,1.09-.2,2.17-.2,3.29,0,.97-.78,1.75-1.75,1.75Z"/>
          <path class="cls-5" d="m317.34,74.71h-16.05c-.97,0-1.75-.78-1.75-1.75s.78-1.75,1.75-1.75h13.57c-.13-.43-.26-.86-.37-1.3-.25-.94.31-1.89,1.25-2.14.94-.25,1.89.31,2.14,1.25.31,1.17.68,2.28,1.09,3.29.22.54.16,1.15-.17,1.64s-.87.77-1.45.77Z"/>
        </g>
      </g>
      <g>
        <g>
          <g>
            <path class="cls-1" d="m46.87,141.9v2.06h-18.06v-2.06h18.06Zm-8.3-9.3v.69c0,1.2-.33,2.31-1,3.32-.67,1.01-1.6,1.86-2.79,2.54-1.2.69-2.56,1.14-4.1,1.38l-.92-2.04c1.32-.17,2.48-.52,3.5-1.04s1.8-1.15,2.36-1.88c.55-.73.83-1.49.83-2.28v-.69h2.13Zm6.62-1.06v2.04h-14.74v-2.04h14.74Zm-6.17,11.79v7.68h-2.47v-7.68h2.47Zm.22-10.73v.69c0,.79.28,1.54.83,2.28.55.73,1.34,1.36,2.36,1.88,1.02.52,2.18.87,3.5,1.04l-.92,2.04c-1.54-.23-2.91-.69-4.1-1.38-1.2-.69-2.13-1.53-2.79-2.54-.67-1.01-1-2.12-1-3.32v-.69h2.13Z"/>
            <path class="cls-1" d="m66.55,140.72v2.01h-18.08v-2.01h18.08Zm-13.44,3.91v4.6h-2.47v-4.6h2.47Zm11.44,3.93v2.03h-13.91v-2.03h13.91Zm-.31-17.25v7.49h-13.5v-7.49h13.5Zm-11.08,1.99v3.47h8.66v-3.47h-8.66Zm5.79,8.67v4.51h-2.47v-4.51h2.47Z"/>
            <path class="cls-1" d="m79.36,132.07v3.24c0,1.71-.22,3.33-.67,4.87s-1.1,2.88-1.96,4.04c-.86,1.16-1.9,2.04-3.11,2.64l-1.48-2.1c1.06-.49,1.99-1.23,2.77-2.2.79-.97,1.39-2.08,1.81-3.34.42-1.26.63-2.56.63-3.9v-3.24h2.02Zm.47,0v3.24c0,1.28.2,2.52.61,3.72.4,1.2.99,2.27,1.76,3.2.77.93,1.68,1.64,2.73,2.12l-1.44,2.06c-1.18-.57-2.2-1.41-3.06-2.53-.86-1.12-1.51-2.41-1.95-3.88-.44-1.47-.66-3.03-.66-4.68v-3.24h2.02Zm8.97-1.71v20.65h-2.47v-20.65h2.47Z"/>
            <path class="cls-1" d="m109.24,146.27v2.08h-18.08v-2.08h18.08Zm-8.3-14.61v1.53c0,1.46-.35,2.84-1.05,4.13-.7,1.29-1.67,2.38-2.92,3.27-1.24.89-2.64,1.5-4.19,1.83l-1.05-2.1c1.33-.25,2.54-.73,3.62-1.46,1.08-.72,1.93-1.59,2.55-2.59.61-1,.92-2.03.92-3.08v-1.53h2.13Zm.47,0v1.53c0,1.06.31,2.1.92,3.1.61,1,1.46,1.86,2.55,2.58,1.08.72,2.3,1.2,3.65,1.45l-1.08,2.1c-1.56-.32-2.95-.93-4.19-1.82-1.24-.89-2.21-1.97-2.92-3.26-.7-1.29-1.05-2.67-1.05-4.15v-1.53h2.13Z"/>
            <path class="cls-1" d="m118.22,131.65v2.04h-5.16v7.21h-2.35v-9.25h7.51Zm-2.3,7.98c1.01-.06,2.04-.19,3.08-.37l.2,1.99c-1.05.2-2.08.33-3.1.39-1.02.06-2.38.09-4.08.09h-1.32v-2.01h1.32c1.59,0,2.88-.03,3.89-.09Zm1.56-3.98v1.94h-5.14v-1.94h5.14Zm9.31,7.93v7.15h-13.35v-7.15h13.35Zm-10.92,1.99v3.14h8.55v-3.14h-8.55Zm5.67-10.15v2.04h-3.19v-2.04h3.19Zm1.35-4.72v11.82h-2.31v-11.82h2.31Zm3.9-.3v12.3h-2.33v-12.3h2.33Z"/>
          </g>
          <g>
            <path class="cls-6" d="m13.75,171.94v1.26H0v-1.26h13.75Zm-4.07-7.12c.81.25,1.43.62,1.86,1.1.44.48.66,1.03.66,1.66s-.22,1.2-.66,1.68c-.44.48-1.06.85-1.86,1.1s-1.74.38-2.81.38-2.01-.13-2.81-.38c-.81-.25-1.43-.62-1.88-1.09-.45-.47-.67-1.03-.67-1.67s.22-1.2.66-1.68c.44-.48,1.07-.85,1.89-1.1.82-.25,1.75-.38,2.81-.38s2.01.13,2.81.38Zm-6.44,9.97v3.65h-1.52v-3.65h1.52Zm8.99,3.31v1.26H1.73v-1.26h10.51Zm-7.34-12.18c-.57.15-1.01.37-1.32.66-.31.28-.47.62-.47,1.01s.16.75.47,1.03c.31.29.75.5,1.32.66.57.15,1.23.23,1.98.23s1.4-.08,1.97-.23c.56-.15,1-.37,1.31-.66.31-.28.47-.62.47-1.01s-.16-.75-.47-1.03c-.31-.29-.75-.5-1.31-.66-.56-.15-1.22-.23-1.97-.23s-1.41.08-1.98.23Zm2.84,6.83v3.58h-1.52v-3.58h1.52Z"/>
            <path class="cls-6" d="m20.4,165.42c.6.32,1.08.77,1.41,1.34.34.58.51,1.22.51,1.95s-.17,1.37-.51,1.93c-.34.56-.81,1-1.41,1.32-.6.31-1.27.47-2,.47s-1.41-.16-2.01-.47c-.6-.31-1.08-.76-1.42-1.33-.34-.57-.51-1.21-.51-1.92s.17-1.37.51-1.95c.34-.58.81-1.02,1.42-1.34s1.27-.48,2.01-.48,1.39.16,1.99.48Zm-3.29,1.16c-.38.2-.68.49-.89.86-.21.37-.32.79-.32,1.25s.11.89.32,1.25c.21.36.51.64.89.84.38.2.81.3,1.29.3s.91-.1,1.29-.3c.37-.2.66-.49.87-.85.21-.37.31-.79.31-1.26,0-.45-.1-.86-.31-1.24-.21-.37-.5-.66-.88-.86-.38-.2-.81-.3-1.28-.3s-.91.1-1.29.3Zm8.36,7.88c.9.53,1.35,1.27,1.35,2.21s-.45,1.69-1.35,2.21c-.9.53-2.14.79-3.72.79s-2.82-.27-3.72-.8c-.9-.53-1.35-1.27-1.35-2.21s.45-1.67,1.35-2.21c.9-.53,2.14-.8,3.72-.8s2.81.27,3.72.8Zm-5.64.62c-.54.14-.95.35-1.24.61-.29.27-.44.58-.44.95s.15.71.44.98c.29.27.71.48,1.24.63.53.15,1.18.22,1.92.22s1.39-.07,1.93-.22.95-.36,1.24-.63c.29-.27.43-.6.43-.98s-.14-.68-.43-.95c-.29-.27-.7-.47-1.24-.61-.54-.14-1.18-.21-1.93-.21s-1.39.07-1.92.21Zm5.91-8.79v1.25h-4.61v-1.25h4.61Zm0,3.58v1.26h-4.61v-1.26h4.61Zm1.04-5.82v9.23h-1.5v-9.23h1.5Z"/>
            <path class="cls-6" d="m38.96,165.62c.61.33,1.09.79,1.43,1.38.35.59.52,1.26.52,2.02s-.17,1.39-.52,1.97c-.35.58-.82,1.04-1.43,1.37-.61.33-1.29.5-2.04.5s-1.42-.17-2.03-.5c-.6-.33-1.08-.79-1.42-1.38-.34-.59-.52-1.25-.52-1.98s.17-1.41.52-2c.35-.59.82-1.05,1.42-1.38.6-.33,1.28-.5,2.03-.5s1.43.17,2.04.5Zm-3.33,1.16c-.39.21-.69.52-.91.91-.21.39-.32.84-.32,1.33s.11.9.33,1.28c.22.38.52.68.91.9.39.22.81.33,1.29.33s.91-.11,1.29-.33c.38-.22.68-.52.91-.9s.34-.81.34-1.28c0-.5-.11-.94-.34-1.33-.22-.39-.53-.69-.91-.91-.39-.21-.81-.32-1.29-.32s-.9.11-1.29.32Zm1.14,7.52v4.23h-1.47v-4.23h1.47Zm8.78,3.81v1.26h-10.25v-1.26h10.25Zm-.47-14.05v11.4h-1.5v-11.4h1.5Z"/>
            <path class="cls-6" d="m53.97,164.98v4.5h-5.04v3.06h-1.48v-4.25h5.06v-2.05h-5.11v-1.26h6.57Zm-1.78,6.71c.86-.04,1.73-.15,2.61-.31l.16,1.23c-.9.17-1.79.27-2.67.32-.89.05-2.13.07-3.74.07h-1.09v-1.25h1.09c1.58,0,2.8-.02,3.66-.06Zm7.14,2.82v5.21h-1.5v-3.99h-8.7v-1.23h10.2Zm-1.17-8.17v1.26h-3.21v-1.26h3.21Zm0,3.25v1.25h-3.21v-1.25h3.21Zm1.17-5.55v9.62h-1.5v-9.62h1.5Z"/>
            <path class="cls-6" d="m70.61,175.15c1.56-.06,3.07-.21,4.5-.44l.12,1.12c-1.5.3-3.03.49-4.59.57-1.56.08-3.3.12-5.19.12l-.19-1.28c2,0,3.78-.03,5.35-.09Zm.05-8.32v.34c0,1.35-.39,2.54-1.16,3.55-.78,1.01-1.82,1.73-3.13,2.16l-.69-1.21c.77-.24,1.44-.58,2-1.02.56-.44,1-.96,1.31-1.56.31-.59.47-1.23.47-1.92v-.34h1.21Zm3.73-.76v1.25h-8.33v-1.25h8.33Zm-3.43-1.9v2.44h-1.5v-2.44h1.5Zm0,8.18v3.4h-1.5v-3.4h1.5Zm-.02-5.51v.34c0,.66.16,1.28.48,1.86.32.58.77,1.08,1.34,1.5.57.43,1.23.76,1.98,1l-.69,1.17c-1.31-.4-2.36-1.1-3.13-2.08-.78-.98-1.16-2.13-1.16-3.45v-.34h1.19Zm6.64-2.81v15.71h-1.48v-15.71h1.48Z"/>
            <path class="cls-6" d="m93.36,176.42v1.26h-13.75v-1.26h13.75Zm-6.42-11.37v1.19c0,1.08-.29,2.08-.86,3.01-.58.93-1.34,1.71-2.29,2.35-.95.63-1.96,1.06-3.03,1.29l-.64-1.3c.93-.17,1.82-.51,2.67-1.04.85-.53,1.54-1.17,2.06-1.93.52-.76.78-1.55.78-2.38v-1.19h1.29Zm.22,7.6v4.16h-1.48v-4.16h1.48Zm.03-7.6v1.19c0,.82.27,1.61.8,2.37.53.76,1.23,1.41,2.08,1.94.85.53,1.74.88,2.66,1.05l-.64,1.3c-1.08-.24-2.1-.67-3.05-1.3-.95-.63-1.71-1.4-2.29-2.33-.58-.92-.86-1.93-.86-3.02v-1.19h1.29Z"/>
            <path class="cls-6" d="m99.67,175.39c1.54-.06,3-.19,4.38-.39l.12,1.12c-1.44.28-2.9.47-4.4.54-1.5.08-3.17.12-5.02.12l-.22-1.3c1.89,0,3.6-.03,5.14-.09Zm4.19-9.48v1.26h-9.08v-1.26h9.08Zm-2.67,2.49c.55.24.97.58,1.28,1.02.3.45.46.96.46,1.54s-.15,1.06-.46,1.49c-.31.44-.73.78-1.28,1.01-.55.24-1.17.36-1.87.36s-1.32-.12-1.86-.36c-.54-.24-.96-.58-1.27-1.01s-.46-.94-.46-1.51.15-1.09.46-1.53.73-.78,1.27-1.01c.54-.24,1.17-.36,1.88-.36s1.31.12,1.86.36Zm-3.45,1.29c-.4.31-.6.73-.6,1.25s.2.94.6,1.25c.4.31.92.46,1.58.46s1.18-.15,1.59-.46c.4-.31.6-.72.6-1.25s-.2-.94-.6-1.25c-.4-.31-.93-.47-1.59-.47s-1.18.16-1.58.47Zm2.32-5.61v2.69h-1.48v-2.69h1.48Zm0,9.29v2.56h-1.48v-2.56h1.48Zm6.38-9.3v15.65h-1.5v-15.65h1.5Zm2.29,6.58v1.32h-2.78v-1.32h2.78Z"/>
            <path class="cls-6" d="m123.91,171.29v1.16h-13.75v-1.16h13.75Zm-1.71,2.35v3.4h-8.92v1.76h-1.47v-2.81h8.92v-1.25h-8.96v-1.1h10.42Zm.47,4.75v1.14h-10.85v-1.14h10.85Zm-.52-13.91v3.33h-8.77v1.64h-1.45v-2.69h8.73v-1.17h-8.77v-1.1h10.25Zm.28,4.59v1.12h-10.49v-1.12h10.49Z"/>
            <path class="cls-6" d="m133.79,172.4c1.62-.07,3.17-.22,4.64-.46l.1,1.16c-1.51.3-3.04.48-4.6.56-1.56.08-3.32.13-5.27.15l-.19-1.3c1.92,0,3.69-.04,5.31-.11Zm1.66-7.22c.59.27,1.06.65,1.39,1.14.33.49.5,1.05.5,1.69s-.17,1.19-.5,1.68c-.33.49-.8.88-1.39,1.15-.59.27-1.26.41-2.01.41s-1.42-.14-2-.41c-.59-.27-1.05-.66-1.38-1.15-.33-.49-.5-1.05-.5-1.68s.17-1.2.5-1.69c.33-.49.79-.87,1.38-1.14.59-.27,1.25-.41,2-.41s1.42.14,2.01.41Zm-3.27,1.11c-.37.17-.66.41-.87.7-.21.3-.32.63-.32,1.01s.11.72.32,1.02c.21.3.5.53.87.69.37.15.79.23,1.26.23s.89-.08,1.27-.24c.37-.16.66-.39.87-.69.21-.3.31-.63.31-1.01s-.1-.72-.31-1.01c-.21-.3-.49-.53-.86-.7-.37-.17-.79-.26-1.28-.26s-.89.09-1.26.26Zm2.07,6.66v6.26h-1.48v-6.26h1.48Zm6.71-8.91v15.67h-1.48v-15.67h1.48Z"/>
            <path class="cls-6" d="m150.46,166.69v1.25h-7.49v-1.25h7.49Zm-2.04,2.7c.49.31.88.74,1.16,1.28.28.55.41,1.16.41,1.85s-.14,1.32-.41,1.87c-.28.55-.66.97-1.16,1.27-.5.3-1.06.45-1.68.45s-1.2-.15-1.7-.45c-.5-.3-.89-.73-1.16-1.27-.28-.55-.41-1.17-.41-1.87s.14-1.3.42-1.85c.28-.54.67-.97,1.17-1.28.5-.31,1.06-.46,1.68-.46s1.2.15,1.69.46Zm-2.69,1.14c-.29.2-.52.47-.68.81-.17.34-.25.73-.25,1.16s.08.85.25,1.19c.17.34.39.62.68.82.29.2.62.3.98.3s.72-.1,1.02-.3c.3-.2.53-.47.7-.82.17-.34.25-.74.25-1.19s-.08-.83-.25-1.17c-.17-.34-.4-.61-.7-.81-.3-.2-.63-.29-1-.29s-.71.1-1,.3Zm1.73-6.05v2.97h-1.47v-2.97h1.47Zm5.14-.07v14.53h-1.4v-14.53h1.4Zm2.31,6.19v1.26h-2.81v-1.26h2.81Zm.95-6.56v15.65h-1.41v-15.65h1.41Z"/>
            <path class="cls-6" d="m22.63,191.53c-.43,1.38-1.15,2.67-2.17,3.86-1.02,1.19-2.42,2.24-4.19,3.14l-.79-1.21c1.54-.78,2.78-1.68,3.72-2.7.94-1.02,1.61-2.14,2.03-3.36.41-1.22.62-2.58.62-4.07v-.18h1.43c0,1.64-.21,3.15-.64,4.53Zm-.98.54l-5.88.57-.24-1.35,6.13-.41v1.19Zm.95-5.07v1.25h-6.3v-1.25h6.3Zm5.07-1.62v15.65h-1.5v-15.65h1.5Z"/>
            <path class="cls-6" d="m43.46,197.8v1.26h-13.75v-1.26h13.75Zm-4.03-10.91c.83.35,1.49.83,1.97,1.45.48.62.72,1.34.72,2.17s-.24,1.54-.72,2.16c-.48.62-1.13,1.1-1.97,1.44-.83.34-1.79.51-2.86.51s-2.02-.17-2.86-.5-1.49-.81-1.97-1.43c-.48-.62-.72-1.34-.72-2.16s.24-1.56.72-2.19c.48-.63,1.13-1.11,1.97-1.46.83-.34,1.79-.52,2.86-.52s2.02.17,2.86.52Zm-4.97,1.07c-.62.24-1.1.58-1.45,1.02-.35.44-.53.94-.53,1.51s.18,1.09.53,1.54c.35.45.83.79,1.45,1.02.62.24,1.32.36,2.11.36s1.47-.12,2.09-.36,1.11-.58,1.46-1.03c.35-.45.53-.96.53-1.53s-.18-1.07-.53-1.51c-.35-.44-.84-.78-1.46-1.02-.62-.24-1.32-.36-2.09-.36s-1.5.12-2.11.36Zm2.84,6.25v3.84h-1.48v-3.84h1.48Z"/>
            <path class="cls-6" d="m58.74,197.69v1.25h-13.75v-1.25h13.75Zm-6.42-11.26v1.19c0,1.1-.28,2.13-.85,3.08-.57.95-1.33,1.75-2.27,2.39-.94.65-1.95,1.09-3.02,1.34l-.64-1.28c.91-.18,1.79-.54,2.64-1.09.85-.55,1.54-1.22,2.06-2.01.52-.79.78-1.6.78-2.43v-1.19h1.29Zm.26,0v1.19c0,.85.26,1.67.79,2.46.53.78,1.22,1.45,2.06,1.99.85.55,1.73.91,2.67,1.08l-.69,1.28c-1.06-.25-2.05-.7-2.98-1.34-.93-.65-1.69-1.45-2.26-2.4-.58-.95-.86-1.98-.86-3.07v-1.19h1.28Z"/>
            <path class="cls-6" d="m73.99,197.62v1.28h-13.73v-1.28h13.73Zm-2.76-5.21l-9.54.53-.22-1.26,9.77-.41v1.14Zm.29-5.46v1.26h-9.64v-1.26h9.64Zm.81,0v1.9c0,1.51-.03,2.8-.1,3.89-.07,1.08-.25,2.34-.53,3.78l-1.48-.14c.29-1.34.47-2.55.54-3.64.07-1.08.11-2.38.11-3.89v-1.9h1.47Z"/>
            <path class="cls-6" d="m89.25,197.85v1.26h-13.75v-1.26h13.75Zm-1.67-11.33v4.8h-8.9v3.06h-1.48v-4.29h8.9v-2.35h-8.92v-1.23h10.4Zm.35,7.24v1.25h-10.73v-1.25h10.73Zm-4.83.8v3.82h-1.48v-3.82h1.48Z"/>
            <path class="cls-6" d="m102.73,193.05l.07,1.16c-1.29.21-2.67.36-4.15.43-1.48.07-3.01.11-4.6.11l-.17-1.3c3.83,0,6.78-.13,8.85-.39Zm-.45-6.42v1.25h-7.99v-1.25h7.99Zm-5.07,1.08v5.92h-1.45v-5.92h1.45Zm.88,8.38v4.18h-1.48v-4.18h1.48Zm8.68,3.36v1.26h-10.16v-1.26h10.16Zm-5.95-11.74v5.92h-1.43v-5.92h1.43Zm4.85.62v1.25h-3.24v-1.25h3.24Zm0,2.99v1.26h-3.24v-1.26h3.24Zm.71-5.92v11.62h-1.5v-11.62h1.5Z"/>
            <path class="cls-6" d="m117.31,187.86v1.26h-8.97v-1.26h8.97Zm-2.52,2.98c.56.3,1.01.73,1.33,1.27.32.55.48,1.17.48,1.87s-.16,1.33-.49,1.88c-.33.55-.77.98-1.33,1.28-.56.3-1.19.45-1.89.45s-1.35-.15-1.92-.45c-.57-.3-1.01-.73-1.33-1.28-.32-.55-.47-1.18-.47-1.88s.16-1.31.47-1.86c.32-.55.76-.98,1.33-1.28.57-.3,1.2-.45,1.91-.45s1.35.15,1.92.45Zm-3.09,1.11c-.35.2-.62.48-.81.83-.2.35-.29.76-.29,1.22s.1.85.28,1.2c.19.35.46.62.81.83.35.2.74.3,1.16.3.45,0,.85-.1,1.19-.3.35-.2.62-.48.81-.83s.29-.75.29-1.2-.1-.87-.29-1.23c-.2-.36-.47-.63-.81-.83-.34-.2-.74-.29-1.19-.29s-.81.1-1.16.3Zm1.92-6.35v2.83h-1.52v-2.83h1.52Zm6.52-.2v15.65h-1.5v-15.65h1.5Zm2.45,6.39v1.28h-2.8v-1.28h2.8Z"/>
            <path class="cls-6" d="m128.37,191.37c-.39,1.25-1,2.42-1.84,3.5-.84,1.08-1.93,2.02-3.26,2.83l-.86-1.1c1.16-.72,2.12-1.54,2.87-2.45.75-.91,1.31-1.91,1.67-3s.54-2.25.54-3.5v-.29h1.45c0,1.42-.19,2.76-.58,4.01Zm-.32-4.01v1.26h-4.97v-1.26h4.97Zm3.09,4.38v1.25h-3.73v-1.25h3.73Zm1.04-5.94v14.46h-1.41v-14.46h1.41Zm3.17-.41v15.65h-1.41v-15.65h1.41Z"/>
            <path class="cls-6" d="m140.12,196.48h-1.35l-.26-9.82h1.85l-.24,9.82Zm0,1.85c.17.18.25.41.25.69s-.08.52-.25.7c-.17.18-.39.28-.66.28s-.5-.1-.68-.29c-.18-.19-.27-.42-.27-.69s.09-.52.26-.69c.17-.18.4-.27.69-.27s.5.09.66.27Z"/>
          </g>
        </g>
        <g>
          <path class="cls-5" d="m77.45,104.95h-33.82c-3.37,0-6.12-2.74-6.12-6.12V20.14c0-3.37,2.74-6.12,6.12-6.12h67.64c3.37,0,6.12,2.74,6.12,6.12v33.82c0,.7-.57,1.27-1.27,1.27s-1.27-.57-1.27-1.27V20.14c0-1.97-1.6-3.57-3.57-3.57H43.63c-1.97,0-3.57,1.6-3.57,3.57v78.69c0,1.97,1.6,3.57,3.57,3.57h33.82c.7,0,1.27.57,1.27,1.27s-.57,1.27-1.27,1.27Z"/>
          <path class="cls-5" d="m60.88,80.1h-13.81c-.7,0-1.27-.57-1.27-1.27V23.59c0-.7.57-1.27,1.27-1.27h60.76c.7,0,1.27.57,1.27,1.27v27.62c0,.7-.57,1.27-1.27,1.27s-1.27-.57-1.27-1.27v-26.34h-58.21v52.69h12.53c.7,0,1.27.57,1.27,1.27s-.57,1.27-1.27,1.27Z"/>
          <path class="cls-5" d="m63.46,88.38h-24.67c-.7,0-1.27-.57-1.27-1.27s.57-1.27,1.27-1.27h24.67c.7,0,1.27.57,1.27,1.27s-.57,1.27-1.27,1.27Z"/>
          <path class="cls-5" d="m115.04,104.62c-.7,0-1.27-.57-1.27-1.27v-7.51c0-3.57.66-6.63,1.51-10.5l.37-1.72c.47-2.18.84-6.27,1.06-11.53.03-.67-.21-1.3-.67-1.78-.46-.48-1.08-.75-1.75-.75-1.34,0-2.42,1.09-2.42,2.42,0,.7-.57,1.27-1.27,1.27s-1.27-.57-1.27-1.27c0-2.74,2.23-4.97,4.97-4.97,1.37,0,2.64.54,3.59,1.53.95.99,1.44,2.28,1.38,3.65-.16,3.82-.48,9-1.12,11.96l-.37,1.73c-.84,3.86-1.45,6.66-1.45,9.96v7.51c0,.7-.57,1.27-1.27,1.27Z"/>
          <path class="cls-5" d="m110.59,75.73c-.7,0-1.27-.57-1.27-1.27v-6.22c0-1.58-1.28-2.87-2.86-2.87h0c-.77,0-1.48.3-2.03.84-.54.54-.84,1.26-.84,2.03v1.38c0,.7-.57,1.27-1.27,1.27s-1.27-.57-1.27-1.27v-1.38c0-1.45.56-2.81,1.59-3.83,1.02-1.02,2.38-1.58,3.83-1.58h0c2.98,0,5.41,2.43,5.41,5.42v6.22c0,.7-.57,1.27-1.27,1.27Z"/>
          <path class="cls-5" d="m94.02,75.8c-.7,0-1.27-.57-1.27-1.27v-8.13c0-2.99,2.43-5.42,5.42-5.42s5.42,2.43,5.42,5.42v8.06c0,.7-.57,1.27-1.27,1.27s-1.27-.57-1.27-1.27v-8.06c0-1.58-1.29-2.87-2.87-2.87s-2.87,1.29-2.87,2.87v8.13c0,.7-.57,1.27-1.27,1.27Z"/>
          <path class="cls-5" d="m88.5,104.95c-.7,0-1.27-.57-1.27-1.27v-5.71c0-1.31-.51-2.55-1.43-3.48-2.29-2.32-5.76-6.45-9.43-10.83-2.25-2.68-4.58-5.46-6.81-8.02-.81-.93-1.19-2.16-1.06-3.46.15-1.49.95-2.93,2.15-3.87,1.98-1.54,4.82-1.49,6.74.12,2.07,1.74,4.64,4.21,7.08,6.61v-30.75c0-2.99,2.43-5.42,5.42-5.42s5.42,2.43,5.42,5.42v26.24c0,.7-.57,1.27-1.27,1.27s-1.27-.57-1.27-1.27v-26.24c0-1.58-1.29-2.87-2.87-2.87s-2.87,1.29-2.87,2.87v33.79c0,.51-.31.98-.78,1.18-.47.2-1.02.09-1.39-.27l-.64-.63c-2.68-2.64-6.02-5.93-8.46-7.98-1.01-.85-2.5-.88-3.54-.06-.65.5-1.1,1.31-1.18,2.1-.04.42,0,1.03.45,1.54,2.24,2.58,4.58,5.36,6.84,8.05,3.64,4.33,7.08,8.43,9.29,10.68,1.39,1.41,2.16,3.28,2.16,5.27v5.71c0,.7-.57,1.27-1.27,1.27Z"/>
        </g>
      </g>
      <g>
        <circle class="cls-2" cx="208.9" cy="91.79" r="10.64"/>
        <path class="cls-4" d="m205.76,98c-.31,0-.61-.14-.81-.4-.35-.45-.27-1.1.18-1.44l5.35-4.15-4.68-4.68c-.4-.4-.4-1.05,0-1.46.4-.4,1.05-.4,1.46,0l5.5,5.5c.21.21.32.5.3.79-.02.29-.16.57-.4.75l-6.27,4.86c-.19.15-.41.22-.63.22Z"/>
      </g>
      <g>
        <circle class="cls-2" cx="471.24" cy="91.79" r="10.64"/>
        <path class="cls-4" d="m468.11,98c-.31,0-.61-.14-.81-.4-.35-.45-.27-1.1.18-1.44l5.35-4.15-4.68-4.68c-.4-.4-.4-1.05,0-1.46.4-.4,1.05-.4,1.46,0l5.5,5.5c.21.21.32.5.3.79-.02.29-.16.57-.4.75l-6.27,4.86c-.19.15-.41.22-.63.22Z"/>
      </g>
      <g>
        <circle class="cls-2" cx="764.19" cy="91.79" r="10.64"/>
        <path class="cls-4" d="m761.05,98c-.31,0-.61-.14-.81-.4-.35-.45-.27-1.1.18-1.44l5.35-4.15-4.68-4.68c-.4-.4-.4-1.05,0-1.46.4-.4,1.05-.4,1.46,0l5.5,5.5c.21.21.32.5.3.79-.02.29-.16.57-.4.75l-6.27,4.86c-.19.15-.41.22-.63.22Z"/>
      </g>
    </g>
  </g>
</svg>