<?xml version="1.0" encoding="UTF-8"?>
<svg id="_레이어_2" data-name="레이어 2" xmlns="http://www.w3.org/2000/svg" xmlns:xlink="http://www.w3.org/1999/xlink" viewBox="0 0 462 446">
  <defs>
    <style>
      .cls-1 {
        fill: #ef812c;
      }

      .cls-1, .cls-2, .cls-3, .cls-4, .cls-5, .cls-6, .cls-7 {
        stroke-width: 0px;
      }

      .cls-2 {
        fill: #808285;
      }

      .cls-3 {
        fill: #fff;
        filter: url(#drop-shadow-1);
      }

      .cls-5 {
        fill: #231f20;
      }

      .cls-6 {
        fill: #414042;
      }

      .cls-7 {
        fill: #323031;
      }
    </style>
    <filter id="drop-shadow-1" filterUnits="userSpaceOnUse">
      <feOffset dx="5.8" dy="5.8"/>
      <feGaussianBlur result="blur" stdDeviation="4.14"/>
      <feFlood flood-color="#000" flood-opacity=".15"/>
      <feComposite in2="blur" operator="in"/>
      <feComposite in="SourceGraphic"/>
    </filter>
  </defs>
  <g id="Layer_1" data-name="Layer 1">
    <g>
      <rect class="cls-3" x="7.05" y="7.1" width="435.6" height="420.25"/>
      <g>
        <path class="cls-5" d="m216.71,237.33h3.31v2.42h-3.31v6.56h-2.67v-6.56h-10.12l-.32-2.45,10.54-14.97h2.57v15Zm-2.67,0v-10.27l-7.2,10.27h7.2Z"/>
        <path class="cls-5" d="m232.62,221.49c1.12.55,2.01,1.32,2.65,2.3.64.98.96,2.1.96,3.36s-.32,2.35-.95,3.33c-.63.98-1.52,1.75-2.65,2.3-1.14.55-2.39.83-3.76.83s-2.67-.28-3.77-.83c-1.1-.55-1.97-1.31-2.6-2.29-.63-.97-.95-2.09-.95-3.35s.32-2.38.95-3.36c.63-.98,1.5-1.75,2.62-2.3,1.11-.55,2.36-.83,3.73-.83s2.65.28,3.77.83Zm-6.14,2.04c-.7.34-1.25.83-1.65,1.46-.41.63-.61,1.34-.61,2.14s.2,1.54.61,2.17c.41.63.96,1.12,1.65,1.46.7.34,1.49.51,2.39.51s1.67-.17,2.38-.51c.71-.34,1.26-.83,1.67-1.46.41-.63.61-1.35.61-2.17s-.2-1.51-.61-2.14c-.41-.63-.96-1.11-1.67-1.46-.71-.34-1.5-.51-2.38-.51s-1.7.17-2.39.51Zm17.65,12.37v7.19h-15.58v4.27h-2.67v-6.39h15.48v-2.78h-15.58v-2.29h18.34Zm.93,10.23v2.25h-19.18v-2.25h19.18Zm-.93-26.5v14.87h-2.79v-14.87h2.79Z"/>
      </g>
      <g>
        <path class="cls-6" d="m108.59,316.61c.57.45,1.19.68,1.87.7.9.01,1.61-.2,2.14-.65.53-.44.79-1.03.79-1.77,0-.52-.14-.95-.41-1.29-.27-.34-.61-.61-1.01-.81-.4-.2-.95-.44-1.63-.7-.84-.32-1.52-.62-2.03-.9s-.95-.68-1.3-1.2c-.35-.52-.53-1.18-.53-1.98,0-.74.18-1.36.54-1.89.36-.52.86-.92,1.51-1.2.64-.28,1.36-.41,2.16-.4.63.03,1.2.15,1.72.37.52.22.97.56,1.37,1.02.39.46.7,1.02.91,1.68l-1.39.5c-.2-.66-.53-1.18-1-1.56-.47-.38-1.01-.58-1.63-.61-.5,0-.96.08-1.37.25-.41.17-.72.41-.95.72-.23.32-.34.7-.34,1.14,0,.5.13.91.4,1.24.26.33.6.6,1.01.82.41.22.95.46,1.63.72.85.32,1.53.62,2.03.9.5.29.94.69,1.3,1.2.36.51.54,1.18.54,1.99,0,.76-.19,1.43-.55,2.01-.37.58-.89,1.02-1.56,1.33-.67.31-1.46.46-2.37.45-.95-.03-1.8-.3-2.57-.84-.76-.53-1.43-1.31-2-2.32l1.31-.72c.37.75.84,1.35,1.4,1.8Z"/>
        <path class="cls-6" d="m119.32,317.13h6.28v1.41h-7.83v-13.86h1.55v12.45Z"/>
        <path class="cls-6" d="m128.04,304.68h1.55v6h3.49c.5,0,.91.05,1.21.16.3.11.62.27.95.49.52.34.94.83,1.27,1.45.33.62.5,1.25.5,1.89,0,.74-.16,1.4-.47,1.99-.31.59-.75,1.05-1.31,1.39-.56.34-1.2.5-1.91.5h-5.28v-13.86Zm5.86,5.34c.36-.41.54-.94.54-1.57,0-.69-.21-1.25-.63-1.7-.42-.44-.95-.67-1.61-.67h-4.17v-1.41h4.21c.71,0,1.35.16,1.9.49.55.32.99.77,1.31,1.34.32.57.48,1.22.48,1.94,0,.5-.13,1.01-.4,1.53-.27.53-.6.96-1.01,1.3l-2.05-.61c.58-.03,1.05-.24,1.41-.66Zm.97,6.43c.42-.46.63-1.05.63-1.77,0-.77-.21-1.4-.63-1.88-.42-.48-.95-.71-1.61-.71h-3.68v5.05h3.68c.65,0,1.19-.23,1.61-.69Z"/>
        <path class="cls-6" d="m153.41,311.65v1.35h-14.72v-1.35h14.72Zm-11.29,2.97v3.9h-1.59v-3.9h1.59Zm9.7,3.56v1.35h-11.29v-1.35h11.29Zm-9.59-14.42v5.05h-1.59v-5.05h1.59Zm9.49,4.36v1.35h-11.08v-1.35h11.08Z"/>
        <path class="cls-6" d="m163.83,304.09v1.69c0,1.09-.18,2.12-.55,3.09-.37.96-.89,1.81-1.57,2.54-.68.73-1.48,1.28-2.4,1.65l-.83-1.33c.8-.3,1.51-.76,2.12-1.37.62-.61,1.09-1.31,1.42-2.1.33-.79.5-1.62.5-2.47v-1.69h1.31Zm-1.05,10.23v4.55h-1.59v-4.55h1.59Zm9.4,3.9v1.35h-10.99v-1.35h10.99Zm-8.05-14.13v1.69c0,.81.16,1.6.49,2.35.33.76.79,1.42,1.4,1.99.61.57,1.31,1.01,2.12,1.31l-.83,1.31c-.9-.36-1.69-.88-2.36-1.57-.68-.69-1.2-1.5-1.57-2.42-.37-.92-.55-1.91-.55-2.98v-1.69h1.31Zm7.55-.91v12.26h-1.61v-12.26h1.61Z"/>
        <path class="cls-6" d="m188.58,311.55v1.33h-14.7v-1.33h14.7Zm-2.7-7.31v1.35h-10.14v-1.35h10.14Zm-6.69,8.15v7.56h-1.61v-7.56h1.61Zm5.56,0v7.56h-1.59v-7.56h1.59Zm1.81-8.15v1.22c0,1.12-.03,2.16-.09,3.12-.06.96-.22,2.09-.46,3.37l-1.59-.15c.25-1.24.41-2.34.48-3.29.07-.95.11-1.96.11-3.06v-1.22h1.55Z"/>
        <path class="cls-6" d="m198.9,304.74v1.33c0,1-.19,1.96-.56,2.86-.38.9-.91,1.69-1.59,2.37-.68.68-1.48,1.19-2.37,1.53l-.83-1.31c.8-.29,1.51-.72,2.12-1.28s1.09-1.2,1.42-1.92c.33-.72.5-1.47.5-2.25v-1.33h1.31Zm3.82-.53v1.33h-8.7v-1.33h8.7Zm4.17,9.54v5.96h-10.58v-5.96h10.58Zm-9.01,1.31v3.31h7.46v-3.31h-7.46Zm1.31-10.32v1.31c0,.71.16,1.4.48,2.08.32.67.78,1.27,1.39,1.8.6.53,1.29.93,2.05,1.21l-.81,1.31c-.89-.33-1.66-.82-2.33-1.46-.67-.64-1.17-1.39-1.52-2.25-.35-.86-.53-1.75-.53-2.69v-1.31h1.27Zm6.54,2.59v1.35h-3.55v-1.35h3.55Zm1.16-4.15v9.77h-1.61v-9.77h1.61Z"/>
        <path class="cls-6" d="m223.76,312.68v1.35h-14.7v-1.35h14.7Zm-6.87-7.83v.69c0,.97-.29,1.85-.87,2.66-.58.81-1.35,1.49-2.33,2.04-.97.55-2.03.92-3.18,1.11l-.61-1.33c.98-.14,1.91-.43,2.77-.87s1.55-.97,2.06-1.61c.51-.63.77-1.3.77-2v-.69h1.39Zm5.45-.65v1.33h-11.91v-1.33h11.91Zm-5.17,9.37v6.36h-1.59v-6.36h1.59Zm.13-8.72v.69c0,.7.26,1.37.79,2,.52.63,1.21,1.17,2.06,1.61s1.77.73,2.75.87l-.61,1.33c-1.13-.19-2.19-.56-3.17-1.11-.98-.55-1.76-1.23-2.34-2.04-.58-.81-.87-1.69-.87-2.66v-.69h1.39Z"/>
        <path class="cls-6" d="m226.9,304.13v6.84h-1.59v-6.84h1.59Zm3.74,5.76c1.23-.12,2.45-.31,3.69-.58l.24,1.37c-1.31.27-2.59.46-3.85.58-1.26.12-2.62.18-4.07.18h-1.33v-1.37h1.33c1.44,0,2.77-.06,4-.18Zm6.99,3.53v6.27h-10.53v-6.27h10.53Zm-8.96,1.33v3.6h7.41v-3.6h-7.41Zm8.96-11.6v9.48h-1.59v-9.48h1.59Z"/>
        <path class="cls-6" d="m245.6,314.84c1.68-.07,3.29-.23,4.83-.49l.13,1.2c-1.6.33-3.24.54-4.91.63-1.67.09-3.53.13-5.56.13l-.2-1.37c2.13,0,4.04-.03,5.72-.1Zm1.7-9.98c.66.34,1.18.81,1.55,1.41.38.6.56,1.29.56,2.07s-.19,1.46-.56,2.07c-.38.6-.89,1.07-1.55,1.41-.66.34-1.41.5-2.24.5s-1.59-.17-2.25-.5c-.67-.34-1.19-.81-1.56-1.41-.38-.6-.56-1.29-.56-2.07s.19-1.46.56-2.07c.38-.6.9-1.07,1.56-1.41.66-.34,1.42-.5,2.25-.5s1.58.17,2.24.5Zm-3.69,1.24c-.42.21-.76.51-1.01.9-.25.39-.37.83-.37,1.34s.12.94.37,1.32c.25.39.58.69,1.01.9.42.22.91.32,1.45.32s1.01-.11,1.44-.32c.43-.22.77-.52,1.01-.9.24-.39.36-.83.36-1.32s-.12-.96-.36-1.34c-.24-.39-.58-.69-1.01-.9-.43-.21-.91-.31-1.44-.31s-1.03.11-1.45.31Zm9.47-2.96v16.82h-1.59v-16.82h1.59Z"/>
        <path class="cls-6" d="m266.26,305.06v10.42h-6.23v-10.42h6.23Zm-4.73,1.31v7.79h3.23v-7.79h-3.23Zm8.13-2.86v15.56h-1.5v-15.56h1.5Zm2.66,6.25v1.35h-3.05v-1.35h3.05Zm.96-6.61v16.76h-1.53v-16.76h1.53Z"/>
        <path class="cls-6" d="m280.49,304.96v1.33c0,1.02-.19,1.97-.56,2.87-.38.9-.9,1.68-1.59,2.34-.68.67-1.48,1.17-2.39,1.51l-.83-1.29c.83-.3,1.54-.73,2.15-1.29.61-.55,1.08-1.18,1.41-1.89s.5-1.46.5-2.25v-1.33h1.31Zm3.82-.57v1.35h-8.72v-1.35h8.72Zm1.21,9.66c.81.24,1.42.59,1.85,1.06.42.46.64,1.02.64,1.67,0,.98-.48,1.74-1.43,2.29-.95.55-2.26.83-3.93.83-1.1,0-2.05-.12-2.85-.37-.81-.25-1.43-.61-1.86-1.08-.43-.47-.65-1.03-.65-1.68s.22-1.2.65-1.67c.43-.46,1.05-.82,1.86-1.06.81-.24,1.76-.36,2.87-.36s2.05.12,2.85.36Zm-4.9,1.14c-.57.14-1.01.35-1.32.62-.31.27-.46.59-.46.96,0,.57.34,1.02,1.02,1.35.68.33,1.61.5,2.79.5s2.11-.16,2.78-.5c.67-.33,1.01-.78,1.01-1.35,0-.37-.15-.69-.44-.96-.3-.27-.73-.48-1.3-.62-.57-.14-1.25-.21-2.04-.21s-1.45.07-2.02.21Zm.14-10.23v1.31c0,.72.16,1.41.47,2.06.31.65.76,1.23,1.35,1.73.58.51,1.28.89,2.1,1.14l-.78,1.28c-.91-.3-1.7-.76-2.37-1.37-.67-.61-1.18-1.33-1.53-2.17-.35-.84-.53-1.73-.53-2.67v-1.31h1.29Zm7.07-1.79v10.07h-1.61v-10.07h1.61Zm2.38,4.21v1.35h-2.83v-1.35h2.83Z"/>
        <path class="cls-6" d="m309.59,316.45v1.35h-14.72v-1.35h14.72Zm-4.31-11.68c.89.37,1.59.89,2.11,1.55.51.66.77,1.44.77,2.32s-.26,1.65-.77,2.31c-.51.67-1.21,1.18-2.11,1.54-.89.36-1.91.54-3.06.54s-2.16-.18-3.06-.53c-.89-.36-1.59-.87-2.11-1.53-.51-.67-.77-1.44-.77-2.31s.26-1.67.77-2.34c.51-.67,1.21-1.19,2.11-1.56.89-.37,1.91-.55,3.06-.55s2.16.19,3.06.56Zm-5.32,1.14c-.66.26-1.18.63-1.55,1.09-.38.47-.56,1.01-.56,1.62s.19,1.17.56,1.65c.38.48.89.84,1.55,1.1.66.25,1.41.38,2.26.38s1.57-.13,2.24-.38c.66-.25,1.18-.62,1.56-1.1.38-.48.56-1.03.56-1.64s-.19-1.15-.56-1.62c-.38-.47-.9-.83-1.56-1.09-.67-.26-1.41-.39-2.24-.39s-1.6.13-2.26.39Zm3.04,6.69v4.11h-1.59v-4.11h1.59Z"/>
        <path class="cls-6" d="m324.89,312.07v1.33h-14.69v-1.33h14.69Zm-1.4-8.07v1.33h-11.93v-1.33h11.93Zm-.06,5.01v1.33h-11.8v-1.33h11.8Zm-9.73,5.88v3.73h-1.61v-3.73h1.61Zm9.57,3.35v1.35h-11.18v-1.35h11.18Zm-7.7-13.64v5.01h-1.61v-5.01h1.61Zm5.54,0v5.01h-1.59v-5.01h1.59Z"/>
        <path class="cls-6" d="m335.24,305.27v1.31c0,1.02-.18,1.97-.55,2.88-.37.9-.9,1.69-1.58,2.37-.68.68-1.48,1.19-2.39,1.53l-.83-1.33c.81-.29,1.52-.72,2.13-1.28.61-.56,1.08-1.2,1.42-1.91.34-.72.51-1.47.51-2.26v-1.31h1.29Zm3.82-.78v1.33h-8.7v-1.33h8.7Zm-4.64,9.88v4.55h-1.61v-4.55h1.61Zm9.27,3.85v1.35h-10.88v-1.35h10.88Zm-8.15-12.95v1.31c0,.7.16,1.39.48,2.07s.78,1.28,1.37,1.81c.59.53,1.27.93,2.05,1.21l-.79,1.29c-.89-.33-1.66-.82-2.33-1.47-.66-.65-1.18-1.39-1.53-2.24-.36-.84-.54-1.74-.54-2.68v-1.31h1.29Zm6.98,2.48v1.35h-4.05v-1.35h4.05Zm.72-4.57v12.26h-1.61v-12.26h1.61Z"/>
        <path class="cls-6" d="m140.24,329.4v10.78h-6.39v-10.78h6.39Zm-4.51,1.64v7.5h2.62v-7.5h-2.62Zm7.22,2.78v1.69h-3.73v-1.69h3.73Zm1.09-5.92v15.83h-1.9v-15.83h1.9Zm3.33-.32v16.95h-1.92v-16.95h1.92Z"/>
        <path class="cls-6" d="m163.99,336.84v1.69h-14.87v-1.69h14.87Zm-11.01-8.46v5.45h-2.03v-5.45h2.03Zm9.31,4.69v1.68h-11.34v-1.68h11.34Zm-7.57,4.36v7.12h-2.05v-7.12h2.05Zm5.69,0v7.12h-2.01v-7.12h2.01Z"/>
        <path class="cls-6" d="m183.66,340.76v1.71h-14.89v-1.71h14.89Zm-6.8-11.01v.78c0,1.16-.29,2.22-.86,3.19-.57.97-1.36,1.79-2.36,2.46-1,.67-2.15,1.13-3.43,1.38l-.81-1.66c1.1-.18,2.08-.53,2.96-1.07s1.56-1.18,2.05-1.94c.49-.76.74-1.55.74-2.36v-.78h1.72Zm5.52-.8v1.68h-12.38v-1.68h12.38Zm-5.15,7.92v4.38h-2.03v-4.38h2.03Zm.02-7.12v.78c0,.81.25,1.59.75,2.34.5.75,1.19,1.38,2.08,1.9.89.52,1.88.87,2.99,1.05l-.79,1.66c-1.29-.25-2.45-.7-3.46-1.35-1.02-.65-1.81-1.45-2.39-2.42-.58-.96-.87-2.02-.87-3.18v-.78h1.7Z"/>
        <path class="cls-6" d="m192.77,329.07v6.36h-5.62v4.06h-2.05v-5.73h5.62v-3.01h-5.65v-1.68h7.7Zm-2.05,9.64c1.22-.08,2.47-.23,3.75-.46l.2,1.69c-1.31.23-2.58.38-3.83.47-1.25.08-2.69.12-4.31.12h-1.42v-1.71h1.42c1.58,0,2.97-.04,4.19-.11Zm7.07-11.16v17.01h-2.03v-17.01h2.03Z"/>
        <path class="cls-6" d="m209.16,336.43c1.66-.07,3.21-.21,4.65-.43l.15,1.5c-1.49.29-3.04.48-4.66.56-1.61.08-3.37.12-5.26.12l-.24-1.66c1.91,0,3.69-.04,5.36-.1Zm1.74-7.71c.62.29,1.1.69,1.44,1.2.34.51.52,1.11.52,1.78s-.17,1.25-.52,1.76c-.35.51-.83.91-1.45,1.2-.62.29-1.32.43-2.1.43s-1.49-.14-2.12-.43c-.62-.29-1.1-.69-1.45-1.2-.35-.51-.52-1.1-.52-1.76s.17-1.27.52-1.78c.34-.51.83-.91,1.45-1.2.62-.29,1.33-.43,2.12-.43s1.49.14,2.11.43Zm-2.81,10.69v3.83h-2.05v-3.83h2.05Zm9.25,3.08v1.69h-11.31v-1.69h11.31Zm-9.7-12.41c-.33.15-.59.36-.78.64-.19.28-.28.6-.28.97s.09.71.28.98c.18.27.44.48.78.63s.71.22,1.15.22.81-.07,1.14-.22c.33-.15.58-.36.77-.63.18-.27.28-.6.28-.98s-.09-.69-.28-.97c-.18-.28-.44-.49-.77-.64-.33-.15-.7-.22-1.14-.22s-.81.07-1.15.22Zm2.18,4.41v2.57h-2.03v-2.57h2.03Zm6.95-6.91v12.93h-2.03v-12.93h2.03Zm2.22,5.47v1.71h-2.96v-1.71h2.96Z"/>
        <path class="cls-6" d="m224.97,328.5v1.58c0,1.13-.18,2.18-.54,3.16-.36.98-.89,1.83-1.59,2.55-.7.72-1.55,1.26-2.55,1.62l-1.05-1.69c.87-.29,1.61-.72,2.22-1.29.6-.57,1.06-1.23,1.37-1.98.31-.75.46-1.54.46-2.36v-1.58h1.68Zm6.6,10.36c.99.57,1.49,1.37,1.49,2.4s-.49,1.83-1.48,2.4c-.99.57-2.35.86-4.08.86s-3.1-.29-4.1-.86c-1-.57-1.5-1.37-1.5-2.4s.5-1.83,1.5-2.4,2.36-.86,4.1-.86,3.08.29,4.07.86Zm-6.25-10.36v1.5c0,.79.14,1.53.43,2.22.29.69.72,1.3,1.28,1.84.57.53,1.26.93,2.09,1.2l-1.07,1.64c-.95-.34-1.75-.85-2.4-1.52-.65-.67-1.15-1.47-1.48-2.38s-.5-1.91-.5-2.99v-1.5h1.64Zm.24,11.31c-.53.13-.93.31-1.2.55s-.41.54-.41.89.14.65.41.9.67.43,1.2.55c.53.13,1.18.19,1.94.19s1.39-.06,1.92-.19c.53-.13.93-.31,1.21-.55.28-.24.42-.54.42-.9s-.14-.65-.42-.89c-.28-.24-.68-.43-1.21-.55-.53-.13-1.17-.19-1.92-.19s-1.41.06-1.94.19Zm5.75-8.97v1.73h-3.57v-1.73h3.57Zm1.68-3.26v9.96h-2.03v-9.96h2.03Z"/>
        <path class="cls-6" d="m249.81,340.8v1.71h-14.89v-1.71h14.89Zm-1.79-12v1.68h-9.27v5.52h-2.03v-7.2h11.3Zm.15,6.46v1.68h-11.45v-1.68h11.45Zm-4.82.74v5.39h-2.01v-5.39h2.01Z"/>
        <path class="cls-6" d="m260.16,329.15v1.2c0,1.05-.18,2.05-.54,2.99-.36.94-.88,1.76-1.57,2.47-.69.7-1.52,1.23-2.49,1.59l-1.03-1.68c.84-.29,1.55-.71,2.15-1.27.6-.55,1.05-1.18,1.36-1.89.31-.71.46-1.45.46-2.21v-1.2h1.66Zm3.77-.63v1.68h-8.83v-1.68h8.83Zm4.29,9.64v6.17h-10.84v-6.17h10.84Zm-7.67-9.01v1.18c0,.71.15,1.4.44,2.06.3.66.73,1.25,1.31,1.78.58.53,1.27.93,2.09,1.21l-1.02,1.66c-.95-.33-1.75-.84-2.42-1.51-.66-.68-1.17-1.46-1.51-2.35-.34-.89-.51-1.83-.51-2.84v-1.18h1.61Zm-1.18,10.65v2.88h6.87v-2.88h-6.87Zm7.37-8.19v1.71h-3.34v-1.71h3.34Zm1.48-4.02v9.83h-2.03v-9.83h2.03Z"/>
        <path class="cls-6" d="m276.45,334.11c-1.31,1.5-3.17,2.61-5.58,3.3l-.79-1.64c2-.56,3.53-1.38,4.6-2.47,1.07-1.09,1.61-2.34,1.61-3.76v-.97h2.12c0,2.18-.65,4.03-1.96,5.53Zm1.24-5.53v1.68h-6.74v-1.68h6.74Zm5.95,9.24v6.49h-10.75v-6.49h10.75Zm-8.76,1.66v3.18h6.76v-3.18h-6.76Zm7.02-7.75v1.71h-3.42v-1.71h3.42Zm1.74-4.15v9.56h-2.03v-9.56h2.03Z"/>
        <path class="cls-6" d="m300.41,337.47v1.66h-14.89v-1.66h14.89Zm-11.12-9.22v2.08h7.3v-2.08h2v7.43h-11.31v-7.43h2.01Zm0,5.75h7.3v-2.04h-7.3v2.04Zm4.64,4.27v6.27h-2.03v-6.27h2.03Z"/>
        <path class="cls-6" d="m309.81,329.03v1.71h-5.58v8.72h-2.01v-10.44h7.59Zm-2.33,9.82c1.06-.06,2.12-.18,3.2-.37l.2,1.68c-1.12.19-2.23.32-3.33.38-1.1.06-2.45.1-4.04.1h-1.29v-1.69h1.29c1.59,0,2.91-.03,3.97-.09Zm1.72-5.09v1.66h-5.45v-1.66h5.45Zm4.19-.04v1.68h-3.31v-1.68h3.31Zm1.77-6.17v17.01h-2.01v-17.01h2.01Z"/>
        <path class="cls-6" d="m139.64,365.27v1.69h-14.89v-1.69h14.89Zm-4.33-11.67c.92.38,1.64.92,2.16,1.61.52.69.79,1.5.79,2.41s-.26,1.72-.79,2.41c-.52.69-1.24,1.23-2.16,1.6-.92.37-1.96.56-3.13.56s-2.2-.19-3.12-.56c-.92-.37-1.65-.91-2.17-1.6-.52-.69-.79-1.49-.79-2.41s.26-1.72.79-2.41c.52-.69,1.25-1.23,2.17-1.61.92-.38,1.96-.57,3.12-.57s2.21.19,3.13.57Zm-5.26,1.45c-.62.24-1.1.58-1.44,1.02-.34.44-.52.95-.52,1.53s.17,1.12.52,1.56c.34.44.82.78,1.44,1.02.62.24,1.32.35,2.11.35s1.51-.12,2.13-.35c.62-.23,1.1-.57,1.45-1.02.34-.44.52-.96.52-1.56s-.17-1.1-.52-1.53c-.35-.44-.83-.78-1.45-1.02-.62-.24-1.33-.36-2.13-.36s-1.49.12-2.11.36Zm3.12,6.57v4h-2.01v-4h2.01Z"/>
        <path class="cls-6" d="m154.95,360.93v1.68h-14.85v-1.68h14.85Zm-1.37-8.07v1.68h-12.17v-1.68h12.17Zm-.09,4.91v1.66h-11.97v-1.66h11.97Zm-9.53,6.13v3.66h-2.01v-3.66h2.01Zm9.33,3.12v1.69h-11.34v-1.69h11.34Zm-7.59-13.48v5.05h-2.03v-5.05h2.03Zm5.65,0v5.05h-2.01v-5.05h2.01Z"/>
        <path class="cls-6" d="m161.76,354.08c.54.49.95,1.19,1.25,2.1.3.91.44,1.99.44,3.22s-.15,2.32-.44,3.24-.71,1.62-1.25,2.1c-.54.49-1.16.73-1.87.73s-1.34-.24-1.87-.73c-.53-.49-.94-1.19-1.23-2.1-.29-.91-.43-1.99-.43-3.24s.14-2.3.43-3.22c.29-.91.7-1.62,1.23-2.1.53-.49,1.15-.73,1.87-.73s1.34.24,1.87.73Zm-2.78,1.71c-.25.31-.44.77-.57,1.38-.14.61-.2,1.35-.2,2.23s.07,1.62.2,2.24c.14.62.33,1.08.57,1.4.25.32.55.48.91.48s.66-.16.91-.48c.25-.32.45-.78.58-1.4.14-.62.2-1.36.2-2.24s-.07-1.62-.2-2.23c-.14-.61-.33-1.07-.58-1.38-.25-.31-.56-.47-.91-.47s-.66.16-.91.47Zm6.69,2.66v1.69h-2.86v-1.69h2.86Zm1.24-6.06v15.83h-1.9v-15.83h1.9Zm3.34-.32v16.95h-1.92v-16.95h1.92Z"/>
        <path class="cls-6" d="m181.42,358.63c1.69-.06,3.25-.18,4.67-.36l.11,1.49c-1.45.24-2.99.41-4.62.5s-3.37.14-5.25.15l-.2-1.68c1.83,0,3.6-.03,5.28-.1Zm3.99-5.48v1.64h-8.85v-1.64h8.85Zm-5.47.76v5.62h-1.96v-5.62h1.96Zm9.53,7.64v4.38h-8.94v2.23h-1.99v-3.73h8.92v-1.26h-8.96v-1.62h10.97Zm.52,5.71v1.64h-11.45v-1.64h11.45Zm-6-13.35v5.62h-1.96v-5.62h1.96Zm5.49-1.81v8.72h-2.05v-8.72h2.05Z"/>
        <path class="cls-6" d="m206.12,365.27v1.69h-14.89v-1.69h14.89Zm-4.32-11.73c.92.37,1.64.89,2.16,1.57.52.68.78,1.46.78,2.35s-.26,1.67-.78,2.35c-.52.68-1.24,1.2-2.16,1.57-.92.37-1.97.55-3.14.55s-2.21-.18-3.13-.55c-.92-.37-1.64-.89-2.16-1.57-.52-.68-.79-1.46-.79-2.35s.26-1.67.79-2.35c.52-.68,1.24-1.2,2.16-1.57.92-.37,1.96-.55,3.13-.55s2.22.18,3.14.55Zm-5.26,1.43c-.62.23-1.1.56-1.44.99-.34.43-.52.93-.52,1.5s.17,1.09.51,1.51c.34.43.82.75,1.44.98.62.23,1.33.34,2.13.34s1.51-.11,2.13-.34c.62-.23,1.1-.56,1.44-.98.34-.43.51-.93.51-1.51s-.17-1.07-.52-1.5c-.35-.43-.83-.76-1.44-.99-.62-.23-1.32-.34-2.12-.34s-1.51.11-2.12.34Zm.15,5.75v4.88h-2.03v-4.88h2.03Zm6,0v4.88h-2.03v-4.88h2.03Z"/>
        <path class="cls-6" d="m216.01,353.96v1.66h-9.68v-1.66h9.68Zm-2.76,2.8c.61.27,1.08.64,1.42,1.13.34.49.51,1.05.51,1.69s-.17,1.2-.51,1.69c-.34.5-.81.88-1.42,1.14-.61.27-1.3.4-2.08.4s-1.47-.13-2.07-.4c-.6-.27-1.07-.65-1.41-1.14-.34-.5-.51-1.06-.51-1.69s.17-1.2.51-1.69c.34-.49.81-.87,1.41-1.13.6-.27,1.29-.4,2.07-.4s1.47.13,2.08.4Zm-2.5,7.03v3.96h-2.03v-3.96h2.03Zm9.09,3.24v1.68h-11.12v-1.68h11.12Zm-10.15-8.64c-.38.29-.56.68-.56,1.19s.19.9.56,1.19c.38.29.87.43,1.49.43s1.11-.14,1.49-.43c.38-.29.56-.68.56-1.19s-.19-.9-.56-1.19c-.38-.29-.87-.43-1.49-.43s-1.11.14-1.49.43Zm2.5-6.31v2.7h-2.03v-2.7h2.03Zm6.98.02v12.68h-2.03v-12.68h2.03Zm2.29,5.31v1.73h-2.86v-1.73h2.86Z"/>
        <path class="cls-6" d="m234.3,353.69v1.68h-5.63v8.65h-2.03v-10.32h7.67Zm-2.26,9.37c1.13-.08,2.26-.22,3.41-.44l.2,1.75c-1.16.22-2.31.36-3.46.44s-2.55.11-4.2.11h-1.35v-1.75h1.35c1.58,0,2.93-.04,4.05-.11Zm6.73-11.01v17.01h-2.05v-17.01h2.05Zm2.49,6.44v1.73h-2.96v-1.73h2.96Z"/>
        <path class="cls-6" d="m248.92,353.56c.67.34,1.2.83,1.58,1.45.38.62.57,1.32.57,2.1s-.19,1.47-.57,2.09c-.38.62-.91,1.1-1.58,1.45-.67.34-1.42.51-2.24.51s-1.59-.17-2.25-.51-1.19-.82-1.57-1.44c-.38-.62-.57-1.32-.57-2.1s.19-1.49.57-2.1c.38-.62.91-1.1,1.57-1.44s1.42-.51,2.25-.51,1.57.17,2.24.51Zm3.65,9.28c.83.26,1.46.64,1.9,1.13.44.5.67,1.09.67,1.77s-.22,1.26-.67,1.75c-.44.5-1.08.87-1.9,1.13-.83.26-1.8.39-2.92.39s-2.1-.13-2.93-.39c-.83-.26-1.47-.64-1.91-1.13-.44-.5-.66-1.08-.66-1.75s.22-1.28.66-1.77c.44-.5,1.08-.87,1.91-1.13.83-.26,1.81-.39,2.93-.39s2.09.13,2.92.39Zm-7.13-7.76c-.37.19-.66.46-.87.81-.21.35-.31.75-.31,1.21s.1.88.31,1.23c.21.35.5.62.86.8.36.18.78.28,1.25.28s.88-.09,1.25-.28c.36-.18.65-.45.86-.8.21-.35.31-.76.31-1.23s-.1-.86-.31-1.21c-.21-.35-.5-.62-.87-.81-.37-.19-.78-.29-1.24-.29s-.87.1-1.24.29Zm2.31,9.21c-.52.12-.91.3-1.18.55-.27.25-.41.55-.41.9s.14.64.41.89c.27.25.67.44,1.19.56.52.13,1.15.19,1.89.19s1.37-.06,1.89-.19c.52-.13.92-.31,1.19-.56.27-.25.41-.54.41-.89s-.14-.66-.41-.9c-.27-.25-.67-.43-1.19-.55-.52-.12-1.15-.18-1.89-.18s-1.39.06-1.9.18Zm7.2-12.2v9.94h-2.03v-9.94h2.03Zm2.22,2.25v1.71h-2.83v-1.71h2.83Zm0,3.66v1.71h-2.83v-1.71h2.83Z"/>
        <path class="cls-6" d="m268.26,353.96v1.66h-9.68v-1.66h9.68Zm-2.76,2.8c.61.27,1.08.64,1.42,1.13.34.49.51,1.05.51,1.69s-.17,1.2-.51,1.69c-.34.5-.81.88-1.42,1.14-.61.27-1.3.4-2.08.4s-1.47-.13-2.07-.4c-.6-.27-1.07-.65-1.41-1.14-.34-.5-.51-1.06-.51-1.69s.17-1.2.51-1.69c.34-.49.81-.87,1.41-1.13.6-.27,1.29-.4,2.07-.4s1.47.13,2.08.4Zm-2.5,7.03v3.96h-2.03v-3.96h2.03Zm9.09,3.24v1.68h-11.12v-1.68h11.12Zm-10.15-8.64c-.38.29-.56.68-.56,1.19s.19.9.56,1.19c.38.29.87.43,1.49.43s1.11-.14,1.49-.43c.38-.29.56-.68.56-1.19s-.19-.9-.56-1.19c-.38-.29-.87-.43-1.49-.43s-1.11.14-1.49.43Zm2.5-6.31v2.7h-2.03v-2.7h2.03Zm6.98.02v12.68h-2.03v-12.68h2.03Zm2.29,5.31v1.73h-2.86v-1.73h2.86Z"/>
        <path class="cls-6" d="m285.05,353.11c.67.32,1.19.78,1.56,1.36.38.58.56,1.24.56,1.98s-.19,1.39-.56,1.97c-.38.58-.9,1.03-1.56,1.35-.66.32-1.4.49-2.22.49s-1.57-.16-2.23-.49-1.18-.77-1.55-1.35c-.38-.58-.56-1.23-.56-1.97s.19-1.4.56-1.98c.38-.58.89-1.04,1.55-1.36.66-.32,1.39-.49,2.21-.49s1.57.16,2.24.49Zm-3.45,1.47c-.36.17-.64.42-.84.74-.2.32-.3.7-.3,1.13s.1.81.3,1.12.48.56.84.73c.36.17.76.26,1.22.26s.88-.09,1.24-.26c.36-.17.64-.42.84-.73s.3-.69.3-1.12-.1-.81-.3-1.13c-.2-.32-.49-.57-.85-.74-.36-.17-.77-.26-1.23-.26s-.86.09-1.22.26Zm10.2,6.81v4.44h-8.81v2.25h-1.98v-3.77h8.77v-1.29h-8.81v-1.62h10.82Zm.46,5.81v1.64h-11.25v-1.64h11.25Zm-.46-15.1v8.55h-2.03v-8.55h2.03Z"/>
        <path class="cls-6" d="m308.62,358.86v1.68h-14.85v-1.68h14.85Zm-1.87,2.82v4.28h-9.25v1.73h-1.98v-3.22h9.24v-1.2h-9.29v-1.6h11.29Zm.46,5.58v1.62h-11.69v-1.62h11.69Zm-.52-14.76v1.68h-9.03v3.33h-2.01v-5.01h11.05Zm.17,3.64v1.64h-11.21v-1.64h11.21Z"/>
        <path class="cls-6" d="m324.91,359.08v1.68h-14.85v-1.68h14.85Zm-3.09-5.98c1.03.5,1.55,1.21,1.55,2.15s-.52,1.66-1.55,2.16c-1.03.5-2.48.75-4.34.75s-3.31-.25-4.34-.75c-1.03-.5-1.55-1.22-1.55-2.16s.52-1.66,1.55-2.15c1.03-.5,2.48-.74,4.34-.74s3.31.25,4.34.74Zm1.24,8.78v4.15h-9.25v1.71h-1.98v-3.18h9.24v-1.1h-9.29v-1.58h11.29Zm.46,5.43v1.58h-11.69v-1.58h11.69Zm-8.87-13.07c-.64.23-.96.58-.96,1.04s.32.78.95,1.01c.63.23,1.57.34,2.82.34s2.2-.11,2.84-.34c.64-.23.96-.56.96-1.01s-.32-.8-.97-1.04c-.65-.23-1.59-.35-2.82-.35s-2.19.12-2.83.35Z"/>
        <path class="cls-6" d="m148.71,384.18v1.68h-14.81v-1.68h14.81Zm-9.53-6.91v1.66h-4.08v-1.66h4.08Zm7.68,10.13v5.96h-11.16v-5.96h11.16Zm-6.71-10.13v.69c0,.81-.05,1.63-.14,2.45-.09.82-.32,1.74-.67,2.77l-1.96-.29c.36-1.04.58-1.94.67-2.69.09-.75.14-1.5.14-2.25v-.69h1.96Zm-2.48,11.77v2.65h7.19v-2.65h-7.19Zm4.91-7.83v3.73h-2.01v-3.73h2.01Zm3.45-3.94v1.66h-4.6v-1.66h4.6Zm1.15,0v.93c0,.84-.03,1.64-.09,2.4-.06.76-.2,1.62-.42,2.57l-1.96-.21c.22-.96.36-1.8.42-2.5.06-.7.08-1.46.08-2.26v-.93h1.98Z"/>
        <path class="cls-6" d="m165.02,384.18v1.68h-14.81v-1.68h14.81Zm-9.53-6.91v1.66h-4.08v-1.66h4.08Zm7.68,10.13v5.96h-11.16v-5.96h11.16Zm-6.7-10.13v.69c0,.81-.05,1.63-.14,2.45-.09.82-.32,1.74-.67,2.77l-1.96-.29c.36-1.04.58-1.94.67-2.69.09-.75.14-1.5.14-2.25v-.69h1.96Zm-2.48,11.77v2.65h7.19v-2.65h-7.19Zm4.91-7.83v3.73h-2.01v-3.73h2.01Zm3.45-3.94v1.66h-4.6v-1.66h4.6Zm1.15,0v.93c0,.84-.03,1.64-.09,2.4-.06.76-.2,1.62-.42,2.57l-1.96-.21c.22-.96.36-1.8.42-2.5.06-.7.08-1.46.08-2.26v-.93h1.98Z"/>
        <path class="cls-6" d="m175.5,379.17v1.68h-9.64v-1.68h9.64Zm-2.66,3.32c.63.34,1.12.81,1.47,1.41.35.6.53,1.29.53,2.07s-.18,1.46-.54,2.07c-.36.6-.85,1.07-1.47,1.41-.62.34-1.32.5-2.1.5s-1.49-.17-2.11-.5c-.62-.34-1.11-.81-1.47-1.42-.36-.61-.54-1.29-.54-2.06s.18-1.45.54-2.06c.36-.61.85-1.08,1.47-1.42.62-.34,1.32-.5,2.1-.5s1.5.17,2.12.5Zm-3.24,1.48c-.33.19-.58.46-.76.8-.18.34-.27.74-.27,1.2s.09.86.27,1.2c.18.34.43.61.76.79.33.18.7.28,1.12.28s.79-.09,1.12-.28c.33-.18.58-.45.77-.79.19-.34.28-.74.28-1.2s-.09-.86-.28-1.2c-.18-.34-.44-.61-.77-.8-.33-.19-.7-.29-1.12-.29s-.79.1-1.12.29Zm2.13-7.12v3.01h-2.05v-3.01h2.05Zm7.02-.25v16.95h-2.03v-16.95h2.03Zm2.49,6.74v1.73h-2.96v-1.73h2.96Z"/>
        <path class="cls-6" d="m187.45,383.12c-.39,1.36-1.04,2.62-1.94,3.78-.9,1.16-2.08,2.18-3.55,3.07l-1.16-1.49c1.24-.76,2.25-1.61,3.03-2.55.78-.94,1.34-1.97,1.7-3.1.36-1.13.54-2.39.54-3.77v-.42h1.98c0,1.63-.2,3.12-.59,4.48Zm-.7-4.48v1.69h-5.12v-1.69h5.12Zm3.33,4.61v1.68h-3.73v-1.68h3.73Zm1.46-6.27v15.75h-1.9v-15.75h1.9Zm3.49-.4v16.95h-1.94v-16.95h1.94Z"/>
        <path class="cls-6" d="m206.18,378.16v1.2c0,1.05-.18,2.05-.54,2.99-.36.94-.88,1.76-1.57,2.47-.69.7-1.52,1.23-2.49,1.59l-1.03-1.68c.84-.29,1.55-.71,2.15-1.27.6-.55,1.05-1.18,1.36-1.89.31-.71.46-1.45.46-2.21v-1.2h1.66Zm3.77-.63v1.68h-8.83v-1.68h8.83Zm4.29,9.64v6.17h-10.84v-6.17h10.84Zm-7.67-9.01v1.18c0,.71.15,1.4.44,2.06.3.66.73,1.25,1.31,1.78.58.53,1.27.93,2.09,1.21l-1.02,1.66c-.95-.33-1.75-.83-2.42-1.51-.67-.68-1.17-1.46-1.51-2.35-.34-.89-.51-1.83-.51-2.84v-1.18h1.61Zm-1.18,10.65v2.88h6.87v-2.88h-6.87Zm7.37-8.19v1.71h-3.34v-1.71h3.34Zm1.48-4.02v9.83h-2.03v-9.83h2.03Z"/>
        <path class="cls-6" d="m222.47,383.12c-1.31,1.5-3.17,2.61-5.58,3.3l-.79-1.64c2-.56,3.53-1.38,4.6-2.47,1.07-1.09,1.61-2.34,1.61-3.76v-.97h2.12c0,2.18-.65,4.03-1.96,5.53Zm1.24-5.53v1.68h-6.74v-1.68h6.74Zm5.95,9.24v6.49h-10.75v-6.49h10.75Zm-8.76,1.66v3.18h6.76v-3.18h-6.76Zm7.02-7.75v1.71h-3.42v-1.71h3.42Zm1.74-4.15v9.56h-2.03v-9.56h2.03Z"/>
        <path class="cls-6" d="m239.62,379.52v1.33h-8.02v-1.33h8.02Zm-2.18,2.9c.53.33.94.79,1.24,1.37.3.58.44,1.24.44,1.98s-.15,1.42-.44,2c-.3.58-.71,1.04-1.25,1.36-.54.32-1.14.49-1.8.49s-1.28-.16-1.82-.49c-.54-.32-.95-.78-1.25-1.36s-.44-1.25-.44-2,.15-1.4.45-1.98c.3-.58.72-1.04,1.26-1.37.54-.33,1.14-.5,1.8-.5s1.28.16,1.81.5Zm-2.88,1.22c-.31.22-.55.5-.73.87-.18.36-.27.78-.27,1.25s.09.91.27,1.28c.18.37.42.66.73.88.31.22.66.32,1.05.32s.77-.11,1.09-.32.57-.51.75-.88.27-.79.27-1.28-.09-.89-.27-1.26-.43-.66-.75-.87-.68-.31-1.07-.31-.76.11-1.07.32Zm1.85-6.48v3.18h-1.57v-3.18h1.57Zm5.5-.08v15.56h-1.5v-15.56h1.5Zm2.47,6.63v1.35h-3.01v-1.35h3.01Zm1.02-7.03v16.76h-1.52v-16.76h1.52Z"/>
        <path class="cls-6" d="m266.02,389.84v1.37h-14.72v-1.37h14.72Zm-1.85-11.65v1.37h-9.44v5.69h-1.59v-7.07h11.03Zm.18,6.49v1.33h-11.21v-1.33h11.21Z"/>
        <path class="cls-6" d="m274.51,377.5v4.59h-5.78v3.03h-1.57v-4.3h5.8v-1.98h-5.84v-1.33h7.39Zm-1.88,6.61c1.16-.08,2.35-.22,3.56-.42l.19,1.35c-1.23.22-2.44.36-3.61.43-1.18.07-2.6.1-4.28.1h-1.33v-1.35h1.33c1.6,0,2.98-.04,4.14-.11Zm-1.92,2.63v1.9h7.39v-1.9h1.57v6.49h-10.55v-6.49h1.59Zm0,5.14h7.39v-1.94h-7.39v1.94Zm8.96-15.2v9.24h-1.61v-9.24h1.61Z"/>
        <path class="cls-6" d="m284.28,378.32v10.38h-1.61v-10.38h1.61Zm7.52,8.65l.2,1.39c-1.36.28-2.68.48-3.99.61-1.31.13-2.63.19-3.97.19h-1.37v-1.43h1.37c2.76,0,5.34-.25,7.76-.76Zm3.21-10.28v16.76h-1.59v-16.76h1.59Z"/>
        <path class="cls-6" d="m305.45,378.32v1.33h-5.97v8.91h-1.59v-10.25h7.56Zm-2.16,9.48c1.12-.08,2.25-.22,3.38-.44l.18,1.39c-1.18.23-2.34.38-3.48.45-1.14.07-2.53.1-4.18.1h-1.29v-1.39h1.29c1.61,0,2.98-.04,4.1-.11Zm6.45-11.14v16.82h-1.61v-16.82h1.61Zm2.62,6.57v1.37h-2.99v-1.37h2.99Z"/>
        <path class="cls-6" d="m314.3,390.54c.19.19.28.44.28.74s-.09.56-.28.75c-.18.2-.42.29-.7.29s-.54-.1-.73-.3c-.19-.2-.29-.45-.29-.74s.09-.55.28-.74c.18-.19.43-.29.74-.29.28,0,.52.1.7.29Z"/>
      </g>
      <g>
        <path class="cls-1" d="m158.01,162.3c0,2.62-1.01,4.59-2.74,5.96-1.64,1.28-3.9,2.03-6.59,2.26v5.87h10.07v3.55h-24.32v-3.55h10.19v-5.87c-2.71-.24-4.98-.98-6.65-2.26-1.73-1.37-2.74-3.34-2.74-5.96s1.01-4.59,2.74-5.96c2.06-1.61,5.07-2.38,8.64-2.38s6.62.77,8.64,2.38c1.73,1.37,2.74,3.31,2.74,5.96Zm-4.08,0c0-1.46-.54-2.5-1.49-3.28-1.31-1.04-3.4-1.49-5.81-1.49s-4.5.45-5.81,1.49c-.95.77-1.49,1.82-1.49,3.28s.54,2.47,1.49,3.25c1.31,1.04,3.4,1.49,5.81,1.49s4.5-.45,5.81-1.49c.95-.77,1.49-1.82,1.49-3.25Z"/>
        <path class="cls-1" d="m160.55,167.43h24.62v3.55h-24.62v-3.55Zm19.13-5.75h4.23v3.43h-22.11v-3.43h3.81v-4.17h-3.34v-3.4h21.16v3.4h-3.34v2.29c0,.66-.12,1.37-.42,1.88Zm-13.32,16h17.55v3.58h-21.64v-8.25h4.08v4.68Zm3.34-16h6.02c.24-.45.3-1.07.3-1.61v-2.56h-6.32v4.17Z"/>
        <path class="cls-1" d="m196.74,167.19h24.62v3.55h-9.98v4.74h-4.05v-4.74h-10.58v-3.55Zm1.25-7.66c0-1.67.63-2.89,1.7-3.75,2.03-1.58,5.54-2,9.39-2s7.36.42,9.39,2c1.07.86,1.7,2.09,1.7,3.75s-.63,2.86-1.7,3.73c-2.03,1.58-5.51,2-9.39,2s-7.36-.42-9.39-2c-1.07-.86-1.7-2.09-1.7-3.73Zm4.56,18.15h17.55v3.58h-21.64v-8.25h4.08v4.68Zm-.48-18.15c0,.57.24.98.71,1.31,1.07.77,3.25,1.01,6.29,1.01s5.25-.24,6.29-1.01c.48-.33.71-.75.71-1.31,0-.6-.24-1.01-.71-1.34-1.04-.77-3.25-1.01-6.29-1.01s-5.21.24-6.29,1.01c-.48.33-.71.75-.71,1.34Z"/>
        <path class="cls-1" d="m223.6,160.99c0-2.53.83-4.47,2.29-5.75,1.22-1.04,2.89-1.61,4.89-1.61s3.67.57,4.89,1.61c.33.3.63.63.89.98h5.48v-2.44h4.08v15.94h-4.08v-3.96h-5.48c-.27.36-.57.69-.89.95-1.22,1.07-2.89,1.64-4.89,1.64s-3.67-.57-4.89-1.64c-1.46-1.25-2.29-3.22-2.29-5.72Zm1.61,14.75c0-1.97,1.01-3.37,2.53-4.29,2.15-1.31,5.3-1.7,8.23-1.7s6.11.39,8.22,1.7c1.55.92,2.56,2.32,2.56,4.29s-1.01,3.4-2.56,4.32c-2.12,1.28-5.27,1.67-8.22,1.67s-6.08-.39-8.23-1.67c-1.52-.92-2.53-2.35-2.53-4.32Zm2.38-14.75c0,1.34.36,2.35,1.01,3.01.54.57,1.28.83,2.18.83s1.61-.27,2.18-.83c.66-.66,1.01-1.67,1.01-3.01s-.36-2.35-1.01-3.04c-.57-.54-1.28-.83-2.18-.83s-1.64.3-2.18.83c-.66.68-1.01,1.7-1.01,3.04Zm1.7,14.75c0,.69.36,1.16,1.01,1.55,1.28.72,3.55.95,5.66.95s4.41-.24,5.69-.95c.63-.39,1.01-.86,1.01-1.55s-.39-1.13-1.01-1.52c-1.28-.75-3.55-.95-5.69-.95s-4.38.21-5.66.95c-.66.39-1.01.86-1.01,1.52Zm8.58-16.06c.06.42.09.86.09,1.31,0,.48-.03.92-.09,1.34h4.17v-2.65h-4.17Z"/>
        <path class="cls-1" d="m274.92,154.26v3.55h-5.48v6.14c0,7.69,2.62,10.19,5.72,11.62v3.75c-3.28-.95-6.26-3.25-7.75-5.81-1.49,2.56-4.47,4.86-7.75,5.81v-3.75c3.1-1.43,5.69-3.93,5.69-11.62v-6.14h-5.39v-3.55h14.96Zm7.36,26.88h-4.08v-27.36h4.08v27.36Z"/>
        <path class="cls-1" d="m295.13,168.53v4.14h-4.08v-4.14h-5.42v-3.37h13.89c1.49,0,2.71-.03,3.96-.33v3.19c-1.25.39-2.62.51-4.17.51h-4.17Zm-8.55-9.63c0-1.55.63-2.77,1.67-3.61,1.43-1.16,3.64-1.67,5.99-1.67s4.56.51,5.99,1.67c1.01.83,1.67,2.06,1.67,3.61s-.66,2.77-1.67,3.61c-1.43,1.19-3.64,1.7-5.99,1.7s-4.56-.51-5.99-1.7c-1.04-.83-1.67-2.03-1.67-3.61Zm1.55,22.53v-8.05h4.08v4.5h17.02v3.55h-21.1Zm2.32-22.53c0,.57.24,1.01.66,1.34.63.51,1.76.77,3.13.77s2.47-.27,3.13-.77c.42-.33.63-.77.63-1.34s-.21-1.01-.63-1.34c-.66-.51-1.76-.74-3.13-.74s-2.5.24-3.13.74c-.42.33-.66.77-.66,1.34Zm14.21,15.59v-1.76h-5.69v-3.19h5.69v-15.76h4.08v20.71h-4.08Z"/>
      </g>
      <g>
        <path class="cls-2" d="m217.17,56.74s.02.03.01.04l-2.18,9.36c-.1.42.06.85.41,1.1.18.13.4.2.63.2.19,0,.38-.05.55-.15l8.23-4.96s.03,0,.04,0l8.23,4.96c.17.1.35.15.55.15,0,0,0,0,0,0,.59,0,1.06-.48,1.06-1.07,0-.11-.02-.21-.05-.32l-2.16-9.29s0-.03.01-.04l7.26-6.29c.32-.28.45-.73.32-1.13-.13-.41-.49-.7-.92-.73l-9.57-.82s-.03-.01-.03-.02l-3.74-8.85c-.17-.4-.55-.65-.98-.65s-.82.26-.98.65l-3.74,8.85s-.02.02-.03.02l-9.57.82c-.43.04-.79.32-.92.73-.13.41,0,.85.32,1.13l7.26,6.29Zm-3.9-6.23s.02-.03.04-.03l7.63-.66c.4-.03.74-.28.89-.65l2.98-7.05s.06-.03.08,0l2.98,7.05c.15.37.5.61.89.65l7.63.66s.03.01.04.03c0,.02,0,.03-.01.04l-5.79,5.01c-.3.26-.43.66-.34,1.05l1.73,7.46s0,.03-.02.04c0,0-.02,0-.02,0,0,0-.01,0-.02,0l-6.56-3.95c-.33-.2-.77-.2-1.1,0l-6.56,3.95s-.03,0-.05,0c-.01,0-.02-.03-.02-.04l1.73-7.46c.09-.39-.04-.79-.34-1.05l-5.79-5.01s-.02-.03-.01-.04Z"/>
        <path class="cls-2" d="m219.46,56.62l-1.73,7.46,6.56-3.95c.18-.11.37-.16.57-.16s.4.05.57.16l6.56,3.95-1.73-7.46c-.09-.4.04-.82.35-1.09l5.79-5.01-7.63-.66c-.41-.03-.76-.29-.93-.67l-2.98-7.05-2.98,7.05c-.16.38-.52.64-.93.67l-7.63.66,5.79,5.01c.31.27.45.69.35,1.09Zm1.49-6.72c.43-.04.79-.3.96-.7l2.94-6.96,2.94,6.96c.17.39.53.66.96.7l7.53.65-5.71,4.95c-.32.28-.46.71-.37,1.13l1.71,7.36-6.47-3.9c-.36-.22-.83-.22-1.19,0l-6.47,3.9,1.71-7.36c.1-.42-.04-.85-.37-1.13l-5.71-4.95,7.53-.65Z"/>
        <path class="cls-2" d="m197,59.73s.02.03.01.04l-1.76,7.55c-.09.39.06.8.39,1.04.17.13.38.19.59.19.18,0,.36-.05.52-.14l6.64-4s.03,0,.04,0l6.64,4c.16.09.34.14.52.14.21,0,.42-.07.59-.19.33-.24.48-.64.39-1.04l-1.76-7.55s0-.03.01-.04l1.92-1.66c.2-.18.32-.42.34-.68.02-.27-.07-.53-.24-.73-.19-.22-.47-.35-.76-.35-.24,0-.47.09-.66.24l-2.39,2.07c-.28.24-.4.62-.32.98l1.34,5.76s0,.03-.02.04c-.01,0-.03.01-.05,0l-5.07-3.05c-.31-.19-.72-.19-1.03,0l-5.07,3.05s-.03,0-.04,0c-.01,0-.02-.03-.02-.04l1.34-5.76c.08-.36-.04-.74-.32-.98l-4.47-3.87s-.02-.03-.01-.04c0-.02.02-.03.04-.03l5.89-.51c.37-.03.69-.27.84-.61l2.3-5.45s.06-.03.08,0l2.3,5.45c.16.37.52.61.92.61.13,0,.26-.03.39-.08.25-.1.44-.3.54-.55.1-.25.1-.52,0-.77l-3.26-7.72c-.16-.37-.52-.61-.92-.61s-.77.24-.92.61l-3.02,7.14s-.02.02-.03.02l-7.72.66c-.4.03-.74.3-.87.69-.12.38,0,.8.3,1.07l5.86,5.08Z"/>
        <path class="cls-2" d="m252.69,59.77s0-.03.01-.04l5.86-5.08c.3-.26.42-.68.3-1.07-.12-.38-.46-.65-.87-.69l-7.72-.66s-.03-.01-.03-.02l-3.02-7.14c-.16-.37-.52-.61-.92-.61s-.77.24-.92.61l-3.26,7.72c-.1.25-.11.52,0,.77.1.25.29.44.54.55.12.05.26.08.39.08.4,0,.77-.24.92-.61l2.3-5.45s.06-.03.08,0l2.3,5.45c.14.34.46.58.84.61l5.89.51s.03.01.04.03c0,.02,0,.03-.01.04l-4.47,3.87c-.28.24-.4.62-.32.98l1.34,5.76s0,.03-.02.04c-.01,0-.03.01-.05,0l-5.07-3.05c-.31-.19-.72-.19-1.03,0l-5.07,3.05s-.03,0-.05,0c-.01,0-.02-.03-.02-.04l1.34-5.76c.08-.36-.04-.74-.32-.98l-2.39-2.07c-.18-.16-.41-.24-.66-.24-.29,0-.57.13-.76.35-.36.42-.32,1.05.1,1.41l1.92,1.66s.02.03.01.04l-1.76,7.55c-.09.39.06.8.39,1.04.17.13.38.19.59.19.18,0,.36-.05.52-.14l6.64-4s.01,0,.02,0,.01,0,.02,0l6.64,4c.16.09.33.14.52.14.21,0,.42-.07.59-.19.33-.24.48-.64.39-1.04l-1.76-7.55Z"/>
        <path class="cls-2" d="m191.8,60.83c-.23,0-.44.08-.61.23l-1.86,1.61c-.26.23-.38.58-.3.92l.85,3.67s0,.03-.02.04c-.01,0-.03.01-.05,0l-3.23-1.95c-.29-.18-.67-.18-.97,0l-3.23,1.95s-.03,0-.05,0c-.01,0-.02-.03-.02-.04l.85-3.67c.08-.34-.04-.69-.3-.92l-2.85-2.47s-.02-.03-.01-.04.02-.03.04-.03l3.76-.32c.35-.03.65-.25.78-.57l1.47-3.47s.06-.03.08,0l1.47,3.47c.15.35.49.57.86.57.13,0,.25-.02.36-.07.23-.1.41-.28.5-.51.09-.23.09-.49,0-.72l-2.37-5.6c-.15-.35-.49-.57-.86-.57s-.72.22-.86.57l-2.14,5.06s-.02.02-.03.02l-5.47.47c-.38.03-.69.28-.81.64-.12.36,0,.75.28,1l4.15,3.6s.02.03.01.04l-1.24,5.35c-.09.37.06.75.36.97.16.12.35.18.55.18.17,0,.34-.05.48-.13l4.7-2.84s.01,0,.02,0,.01,0,.02,0l4.7,2.84c.15.09.31.13.48.13.2,0,.39-.06.55-.18.31-.22.45-.6.36-.97l-1.24-5.35s0-.03.01-.04l1.41-1.23c.19-.16.3-.39.32-.64.02-.25-.06-.49-.23-.68-.18-.21-.44-.32-.71-.32Z"/>
        <path class="cls-2" d="m272.64,60.1c.28-.25.39-.64.28-1-.12-.36-.43-.61-.81-.64l-5.47-.47s-.03-.01-.03-.02l-2.14-5.06c-.15-.35-.49-.57-.86-.57s-.72.22-.86.57l-2.37,5.6c-.1.23-.1.48,0,.72.09.23.27.41.5.51.12.05.24.07.36.07.38,0,.72-.22.86-.57l1.47-3.47s.06-.03.08,0l1.47,3.47c.14.32.44.54.78.57l3.76.32s.03.01.04.03,0,.03-.01.04l-2.85,2.47c-.26.23-.38.58-.3.92l.85,3.67s0,.03-.02.04c-.01,0-.03.01-.05,0l-3.23-1.95c-.29-.18-.67-.18-.97,0l-3.23,1.95s-.03,0-.05,0c-.01,0-.02-.03-.02-.04l.85-3.67c.08-.34-.04-.69-.3-.92l-1.86-1.61c-.17-.15-.39-.23-.61-.23-.27,0-.53.12-.71.32-.16.19-.24.43-.23.68.02.25.13.48.32.64l1.42,1.23s.02.03.01.04l-1.24,5.35c-.09.37.06.75.36.97.16.12.35.18.55.18.17,0,.34-.05.48-.13l4.7-2.84s.01,0,.02,0,.01,0,.02,0l4.7,2.84c.15.09.31.13.48.13.2,0,.39-.06.55-.18.3-.22.45-.6.36-.97l-1.24-5.35s0-.03.01-.04l4.15-3.6Z"/>
        <path class="cls-7" d="m240.99,89.09h-8.81s-.03,0-.03-.02c0-.01,0-.03,0-.04,1.2-2.26,1.93-3.97,2.18-5.08,0-.02,0-.05.01-.07.44-2.26.27-4.71-.5-7.07-.76-2.37-2.05-4.42-3.71-5.93-1.06-.97-2.21-1.63-3.41-1.98-1.24-.36-2.49-.36-3.69,0-1.96.58-3.18,1.69-3.61,3.3-.33,1.24-.1,2.46.12,3.65.34,1.77.65,3.44-.65,5.41-.02.03-.03.05-.05.08-.06.11-1.51,2.71-3.45,5.28-2.38,3.17-4.56,5.05-5.99,5.15l-12.14.1c-2.24,0-4.06,1.83-4.06,4.06v24.04c0,2.24,1.82,4.07,4.07,4.07l5.48-.02c.31,0,.6-.12.82-.34.22-.22.34-.51.34-.82,0-.64-.52-1.15-1.16-1.15l-5.48.02c-.97,0-1.75-.79-1.75-1.75v-24.04c0-.97.79-1.75,1.75-1.75l12.18-.1s.04,0,.06,0c1.3-.07,2.67-.77,4.2-2.12,1.11-.98,2.29-2.31,3.53-3.95,1.93-2.57,3.34-5.04,3.6-5.51.8-1.22,1.22-2.49,1.29-3.87.06-1.18-.14-2.25-.32-3.2-.19-1.02-.36-1.89-.16-2.62.15-.55.51-1.24,2.03-1.68.38-.11.77-.17,1.16-.17,1.26,0,2.55.57,3.73,1.64,2.8,2.54,4.23,7,3.49,10.85-.25,1.14-1.29,3.35-2.91,6.23-.2.36-.2.8,0,1.15.21.35.59.57,1,.57h10.83c.92,0,1.69.36,2.23,1.04.7.89.93,2.2.61,3.51-.16.68-.46,1.26-.9,1.75,0,0-.02.02-.03.01-.02,0-.03,0-.05,0h-3.74c-.64,0-1.16.52-1.16,1.16s.52,1.16,1.16,1.16h2.85s.03,0,.03.02c.83,1.16.58,2.73.43,3.35-.2.83-.58,1.52-1.15,2.03,0,0-.02.01-.03.01-.04,0-.08,0-.12,0h-3.74c-.64,0-1.16.52-1.16,1.16s.52,1.16,1.16,1.16h3.4s.03,0,.04.02c.5.89.57,2.07.19,3.26-.32.99-.89,1.79-1.67,2.32,0,0-.01,0-.02,0h-3.66c-.64,0-1.16.52-1.16,1.16s.52,1.16,1.16,1.16h3.33s.03.01.04.03c.3.76.3,1.68,0,2.58-.83,2.45-2.88,3.45-7.06,3.45h-12.95s-.03,0-.04,0c-.31.01-.62.02-.91.02-3.18,0-5.53-.68-6.8-1.97-1.07-1.09-1.05-2.29-1.04-2.43,0-.03,0-.05,0-.08v-.02l.05-15.87c0-.31-.12-.6-.34-.82-.22-.22-.51-.34-.82-.34-.64,0-1.16.52-1.16,1.15l-.05,15.84c-.01.19-.02.7.14,1.36.24,1.02.76,1.97,1.5,2.76,1.73,1.82,4.59,2.74,8.5,2.74.32,0,.65,0,.99-.02h12.93c1.54,0,3.53-.09,5.29-.8,1.95-.79,3.29-2.21,3.97-4.22.48-1.41.47-2.88-.02-4.14,0-.02,0-.03.01-.05.93-.8,1.61-1.85,2.01-3.11.52-1.63.45-3.35-.19-4.74,0-.02,0-.03,0-.05.81-.81,1.36-1.82,1.64-3.02.17-.73.48-2.61-.3-4.35,0-.02,0-.03,0-.05.84-.81,1.4-1.83,1.69-3.03.48-2,.09-4.05-1.05-5.48-.98-1.24-2.41-1.92-4.05-1.92Z"/>
        <path class="cls-7" d="m203.52,114.46c-.68,0-1.24.56-1.24,1.24,0,.16-.13.3-.3.3-.68,0-1.24.56-1.24,1.24s.56,1.24,1.24,1.24c1.53,0,2.77-1.24,2.77-2.77,0-.68-.56-1.24-1.24-1.24Z"/>
      </g>
      <rect class="cls-4" x="67.7" y="279.22" width="314.3" height=".62"/>
    </g>
  </g>
</svg>