<?xml version="1.0" encoding="UTF-8"?>
<svg id="_레이어_2" data-name="레이어 2" xmlns="http://www.w3.org/2000/svg" viewBox="0 0 405.07 496.46">
  <defs>
    <style>
      .cls-1 {
        fill: #58595b;
      }

      .cls-1, .cls-2, .cls-3, .cls-4, .cls-5 {
        stroke-width: 0px;
      }

      .cls-2 {
        fill: #fff;
      }

      .cls-3 {
        fill: #a7a9ac;
      }

      .cls-4 {
        fill: #231f20;
      }

      .cls-5 {
        fill: #414042;
      }
    </style>
  </defs>
  <g id="Layer_1" data-name="Layer 1">
    <g>
      <g>
        <g>
          <g>
            <path class="cls-5" d="m85.84,69.38c-1.1,1.18-2.64,2.06-4.6,2.62l-.48-.91c1.73-.49,3.08-1.22,4.06-2.17.97-.96,1.46-2.07,1.46-3.33v-.48h1.21c0,1.66-.55,3.08-1.65,4.26Zm1.22-4.26v.94h-5.61v-.94h5.61Zm4.58,7.62v4.92h-1.15v-3.96h-7.81v-.95h8.96Zm-.91-4.95v.97h-3.21v-.97h3.21Zm.91-3.55v7.91h-1.15v-7.91h1.15Z"/>
            <path class="cls-5" d="m98.43,65.59v1.12c0,.81-.16,1.57-.48,2.29-.32.72-.76,1.35-1.33,1.89-.57.54-1.22.95-1.94,1.23l-.58-.92c.66-.24,1.24-.58,1.75-1.05.51-.46.91-.99,1.21-1.59.29-.6.44-1.22.44-1.85v-1.12h.94Zm3.2-.35v.95h-7.18v-.95h7.18Zm2.3,8.11c.79.45,1.19,1.06,1.19,1.84s-.39,1.4-1.18,1.84c-.79.44-1.88.65-3.27.65s-2.49-.22-3.28-.65c-.79-.44-1.19-1.05-1.19-1.84,0-.52.18-.97.54-1.34.36-.37.87-.66,1.54-.86.67-.2,1.47-.3,2.39-.3,1.38,0,2.47.22,3.27.67Zm-5.04.43c-.5.13-.88.31-1.14.55-.27.24-.4.53-.4.85s.13.61.4.85c.27.24.65.42,1.14.55.5.13,1.09.19,1.77.19s1.27-.06,1.77-.19c.5-.13.89-.31,1.15-.55.27-.24.4-.52.4-.85s-.13-.61-.4-.85c-.27-.24-.65-.43-1.15-.55-.5-.13-1.09-.19-1.77-.19s-1.28.06-1.77.19Zm-.24-8.18v1.12c0,.57.14,1.13.42,1.68.28.55.67,1.03,1.17,1.45.5.42,1.07.74,1.71.97l-.6.92c-.72-.27-1.35-.65-1.9-1.16-.55-.51-.97-1.09-1.28-1.76-.3-.67-.45-1.37-.45-2.11v-1.12h.94Zm5.62,2.17v.95h-3.09v-.95h3.09Zm.8-3.52v8.01h-1.15v-8.01h1.15Z"/>
            <path class="cls-5" d="m115.46,65.9v.94h-7.94v-.94h7.94Zm-2.31,2.01c.48.21.86.5,1.13.88.27.38.41.82.41,1.32s-.14.93-.41,1.31c-.27.38-.65.67-1.13.88-.48.21-1.04.31-1.68.31s-1.19-.1-1.68-.31c-.48-.2-.86-.5-1.12-.88-.27-.38-.4-.81-.4-1.31s.13-.94.4-1.32c.27-.38.64-.67,1.12-.88.48-.2,1.04-.31,1.68-.31s1.19.1,1.68.31Zm-3.2,1.04c-.38.29-.58.68-.58,1.16s.19.85.58,1.14c.38.29.89.44,1.53.44s1.14-.15,1.53-.44c.38-.29.58-.67.58-1.14s-.19-.87-.58-1.16c-.38-.29-.89-.44-1.53-.44s-1.14.15-1.53.44Zm.75,4.57v3.3h-1.14v-3.3h1.14Zm7.82,2.9v.95h-8.96v-.95h8.96Zm-6.45-12.17v2.14h-1.15v-2.14h1.15Zm5.82,0v10.08h-1.15v-10.08h1.15Zm2.01,4.44v.97h-2.37v-.97h2.37Z"/>
            <path class="cls-5" d="m127.74,65.56v.94h-5.1v7.3h-1.14v-8.24h6.24Zm-1.76,7.7c.93-.06,1.86-.18,2.8-.37l.14.98c-.98.18-1.95.31-2.9.37-.95.06-2.11.09-3.48.09h-1.04v-.98h1.04c1.36,0,2.51-.03,3.43-.09Zm5.25-9.04v13.48h-1.15v-13.48h1.15Zm2.23,5.35v.97h-2.5v-.97h2.5Z"/>
          </g>
          <rect class="cls-4" x="63.82" y="67.11" width="12.23" height="8.76"/>
        </g>
        <g>
          <g>
            <path class="cls-5" d="m188.1,74.98v.97h-12.19v-.97h12.19Zm-9.59-9.79v2.43h6.98v-2.43h1.14v6.85h-9.25v-6.85h1.14Zm0,5.92h6.98v-2.54h-6.98v2.54Zm4.04.61v3.55h-1.14v-3.55h1.14Z"/>
            <path class="cls-5" d="m201.49,71.38v.94h-12.14v-.94h12.14Zm-2.67,2.54c.79.36,1.19.89,1.19,1.59s-.4,1.23-1.19,1.59c-.79.36-1.93.55-3.4.55s-2.61-.18-3.4-.55c-.79-.36-1.19-.89-1.19-1.59s.39-1.23,1.18-1.59c.79-.36,1.93-.55,3.41-.55s2.61.18,3.4.55Zm1.16-9.29v.92h-7.87v4.03h-1.15v-4.95h9.02Zm.08,4.47v.91h-9.1v-.91h9.1Zm-.43-2.27v.89h-7.87v-.89h7.87Zm-6.75,7.74c-.6.22-.9.54-.9.95s.3.72.89.94c.59.22,1.44.32,2.55.32s1.96-.11,2.55-.32c.59-.22.89-.53.89-.94s-.3-.72-.9-.95c-.6-.22-1.45-.33-2.54-.33s-1.94.11-2.54.33Zm3.11-4.96v2.18h-1.15v-2.18h1.15Z"/>
          </g>
          <rect class="cls-1" x="156.66" y="67.11" width="12.23" height="8.76"/>
        </g>
        <g>
          <g>
            <path class="cls-5" d="m250.98,69.38c-1.1,1.18-2.64,2.06-4.6,2.62l-.48-.91c1.73-.49,3.08-1.22,4.06-2.17.97-.96,1.46-2.07,1.46-3.33v-.48h1.21c0,1.66-.55,3.08-1.65,4.26Zm1.22-4.26v.94h-5.61v-.94h5.61Zm4.58,7.62v4.92h-1.15v-3.96h-7.81v-.95h8.96Zm-.91-4.95v.97h-3.21v-.97h3.21Zm.91-3.55v7.91h-1.15v-7.91h1.15Z"/>
            <path class="cls-5" d="m263.57,65.59v1.12c0,.81-.16,1.57-.48,2.29-.32.72-.76,1.35-1.33,1.89-.57.54-1.22.95-1.94,1.23l-.58-.92c.66-.24,1.24-.58,1.75-1.05.51-.46.91-.99,1.21-1.59.29-.6.44-1.22.44-1.85v-1.12h.94Zm3.2-.35v.95h-7.18v-.95h7.18Zm2.3,8.11c.79.45,1.19,1.06,1.19,1.84s-.39,1.4-1.18,1.84c-.79.44-1.88.65-3.27.65s-2.49-.22-3.28-.65c-.79-.44-1.19-1.05-1.19-1.84,0-.52.18-.97.54-1.34.36-.37.87-.66,1.54-.86.67-.2,1.47-.3,2.39-.3,1.38,0,2.47.22,3.27.67Zm-5.04.43c-.5.13-.88.31-1.14.55-.27.24-.4.53-.4.85s.13.61.4.85c.27.24.65.42,1.14.55.5.13,1.09.19,1.77.19s1.27-.06,1.77-.19c.5-.13.89-.31,1.15-.55.27-.24.4-.52.4-.85s-.13-.61-.4-.85c-.27-.24-.65-.43-1.15-.55-.5-.13-1.09-.19-1.77-.19s-1.28.06-1.77.19Zm-.24-8.18v1.12c0,.57.14,1.13.42,1.68.28.55.67,1.03,1.17,1.45.5.42,1.07.74,1.71.97l-.6.92c-.72-.27-1.35-.65-1.9-1.16-.55-.51-.97-1.09-1.28-1.76-.3-.67-.45-1.37-.45-2.11v-1.12h.94Zm5.62,2.17v.95h-3.09v-.95h3.09Zm.8-3.52v8.01h-1.15v-8.01h1.15Z"/>
            <path class="cls-5" d="m280.49,66.41v.95h-7.96v-.95h7.96Zm-2.24,2.5c.49.26.88.62,1.16,1.09.28.47.42,1,.42,1.59s-.14,1.12-.42,1.59c-.28.47-.67.83-1.16,1.09-.49.26-1.05.39-1.66.39s-1.19-.13-1.68-.39c-.5-.26-.89-.62-1.17-1.09-.28-.47-.42-1-.42-1.59s.14-1.12.42-1.59c.28-.47.67-.83,1.17-1.09.5-.26,1.05-.39,1.67-.39s1.18.13,1.67.39Zm-2.78.84c-.33.18-.58.44-.77.75-.18.32-.28.68-.28,1.09s.09.77.28,1.09c.18.32.44.57.77.75.33.18.7.27,1.11.27s.78-.09,1.11-.27c.33-.18.58-.43.77-.75.18-.32.28-.68.28-1.08s-.09-.76-.28-1.08c-.18-.32-.44-.58-.77-.76-.33-.18-.7-.28-1.11-.28s-.78.09-1.11.28Zm1.67-5.35v2.46h-1.17v-2.46h1.17Zm5.79-.15v13.45h-1.15v-13.45h1.15Zm2.23,5.56v.97h-2.5v-.97h2.5Z"/>
            <path class="cls-5" d="m290.55,66.14v2.26c0,.91-.17,1.82-.52,2.72-.35.9-.82,1.7-1.41,2.4-.59.7-1.23,1.22-1.93,1.57l-.66-.91c.62-.31,1.21-.77,1.77-1.39.55-.62.99-1.32,1.32-2.1.33-.78.49-1.54.49-2.29v-2.26h.94Zm3.41-.52v.97h-7.51v-.97h7.51Zm-3.2.52v2.26c0,.74.17,1.47.5,2.21.33.73.78,1.38,1.33,1.95.55.57,1.15,1,1.8,1.28l-.66.92c-.71-.34-1.36-.83-1.96-1.48-.6-.65-1.07-1.4-1.42-2.25-.35-.85-.52-1.73-.52-2.63v-2.26h.94Zm6.22-1.91v13.45h-1.15v-13.45h1.15Z"/>
            <path class="cls-5" d="m304.98,65.41c.53.27.94.64,1.24,1.11.3.47.45,1,.45,1.6s-.15,1.14-.45,1.61c-.3.47-.71.84-1.24,1.1s-1.12.39-1.79.39-1.23-.13-1.76-.39c-.53-.26-.94-.63-1.24-1.11-.3-.48-.45-1.01-.45-1.61s.15-1.13.45-1.6c.3-.47.71-.84,1.24-1.11.53-.27,1.11-.4,1.76-.4s1.26.13,1.79.4Zm-2.98.85c-.35.18-.63.44-.83.76-.2.32-.3.69-.3,1.1s.1.78.3,1.11c.2.33.48.58.83.77s.75.28,1.19.28.85-.09,1.21-.28c.35-.18.63-.44.84-.77.2-.33.31-.7.31-1.11s-.1-.78-.31-1.1c-.21-.32-.48-.58-.84-.76-.35-.18-.76-.28-1.21-.28s-.84.09-1.19.28Zm.02,6.18v4.29h-1.12v-4.29h1.12Zm1.12,3.84c.57-.07,1.12-.19,1.64-.37l.2.94c-.58.19-1.17.33-1.74.39-.58.07-1.15.1-1.7.1h-.65v-.95h.65c.49,0,1.02-.04,1.6-.11Zm8.1-3.76v.86h-6.75v-.86h6.75Zm-1.58,1.88c.46.34.69.8.69,1.38s-.23,1.03-.69,1.38c-.46.34-1.06.51-1.78.51s-1.33-.17-1.79-.51c-.46-.34-.68-.8-.68-1.38s.23-1.03.68-1.38c.46-.34,1.05-.51,1.79-.51s1.32.17,1.78.51Zm-2.83.6c-.27.2-.4.46-.4.78s.13.58.4.78c.27.2.61.3,1.05.3s.78-.1,1.04-.3c.27-.2.4-.46.4-.78s-.13-.58-.4-.78c-.27-.2-.61-.3-1.04-.3s-.78.1-1.05.3Zm1.61-3.71v1.92h-1.14v-1.92h1.14Zm1.44-7.04v6.7h-1.15v-6.7h1.15Zm2.01,3.04v.97h-2.52v-.97h2.52Z"/>
            <path class="cls-5" d="m325.08,71.11v.95h-12.19v-.95h12.19Zm-9.47,2.32v3.23h-1.14v-3.23h1.14Zm8.13,2.98v.95h-9.27v-.95h9.27Zm-8.05-11.68v4.07h-1.14v-4.07h1.14Zm7.98,3.6v.94h-9.11v-.94h9.11Z"/>
            <path class="cls-5" d="m333.17,65.56v.94h-5.1v7.3h-1.14v-8.24h6.24Zm-1.76,7.7c.93-.06,1.86-.18,2.8-.37l.14.98c-.98.18-1.95.31-2.9.37-.95.06-2.11.09-3.48.09h-1.04v-.98h1.04c1.36,0,2.51-.03,3.43-.09Zm5.25-9.04v13.48h-1.15v-13.48h1.15Zm2.23,5.35v.97h-2.5v-.97h2.5Z"/>
          </g>
          <rect class="cls-3" x="225.1" y="67.11" width="12.23" height="8.76"/>
        </g>
      </g>
      <g>
        <path class="cls-4" d="m378.19,42.31H24.78c-11.43,0-20.72-9.3-20.72-20.72v-.86C4.05,9.3,13.35,0,24.78,0h353.42c11.43,0,20.72,9.3,20.72,20.72v.86c0,11.43-9.3,20.72-20.72,20.72ZM24.78,1.01C13.9,1.01,5.06,9.85,5.06,20.72v.86c0,10.87,8.85,19.72,19.72,19.72h353.42c10.87,0,19.72-8.85,19.72-19.72v-.86c0-10.87-8.85-19.72-19.72-19.72H24.78Z"/>
        <g>
          <path class="cls-4" d="m32.86,12.8v1.61h-6.51v11.79h-1.93v-13.4h8.43Zm-2.41,12.54c1.22-.09,2.45-.26,3.68-.52l.23,1.61c-1.28.28-2.55.46-3.8.55-1.25.09-2.81.13-4.68.13h-1.46v-1.64h1.46c1.82,0,3.34-.04,4.57-.13Zm7.2-14.81v21.05h-1.82V10.53h1.82Zm3.85,8.64v1.64h-4.45v-1.64h4.45Zm1.35-9.16v22.77h-1.87V10.01h1.87Z"/>
          <path class="cls-4" d="m58.8,12.82v1.59h-13.45v-1.59h13.45Zm-3.9,3.41c.82.35,1.45.84,1.91,1.48.46.64.69,1.39.69,2.24s-.23,1.57-.69,2.21c-.46.64-1.1,1.14-1.91,1.48-.82.35-1.76.52-2.84.52s-2.02-.17-2.84-.52c-.82-.35-1.45-.84-1.9-1.48-.45-.64-.68-1.38-.68-2.21s.23-1.6.68-2.24c.45-.64,1.08-1.14,1.9-1.48.82-.35,1.76-.52,2.84-.52s2.02.17,2.84.52Zm-5.43,1.76c-.65.49-.98,1.15-.98,1.96s.33,1.44.98,1.94c.65.49,1.51.74,2.59.74s1.94-.25,2.59-.74c.65-.49.98-1.14.98-1.94s-.33-1.47-.98-1.96c-.65-.49-1.51-.74-2.59-.74s-1.94.25-2.59.74Zm1.26,7.74v5.59h-1.93v-5.59h1.93Zm13.25,4.92v1.61h-15.17v-1.61h15.17Zm-10.93-20.61v3.62h-1.95v-3.62h1.95Zm9.86,0v17.07h-1.95V10.04h1.95Zm3.41,7.52v1.64h-4.01v-1.64h4.01Z"/>
          <path class="cls-4" d="m78.74,11.99v10.57h-10.56v-10.57h10.56Zm-8.67,1.59v7.39h6.77v-7.39h-6.77Zm2.91,11.24v6.22h-1.93v-6.22h1.93Zm13.35,5.57v1.59h-15.28v-1.59h15.28Zm-.73-20.35v16.34h-1.98V10.04h1.98Z"/>
          <path class="cls-4" d="m109.31,19.28v1.61h-20.64v-1.61h20.64Zm-2.55,5.88v7.62h-1.93v-6.04h-14v-1.59h15.93Zm-.75-14.03v1.59h-14.68v-1.59h14.68Zm-6.06,9.24v5.41h-1.93v-5.41h1.93Zm6.66-9.24v1.64c0,1.32-.04,2.52-.13,3.6-.09,1.08-.3,2.31-.62,3.68l-1.9-.21c.33-1.35.54-2.55.62-3.59.09-1.04.13-2.2.13-3.49v-1.64h1.9Z"/>
          <path class="cls-4" d="m135.96,19.28v1.61h-20.64v-1.61h20.64Zm-2.55,5.88v7.62h-1.93v-6.04h-14v-1.59h15.93Zm-.75-14.03v1.59h-14.68v-1.59h14.68Zm-6.06,9.24v5.41h-1.93v-5.41h1.93Zm6.66-9.24v1.64c0,1.32-.04,2.52-.13,3.6-.09,1.08-.3,2.31-.62,3.68l-1.9-.21c.33-1.35.54-2.55.62-3.59.09-1.04.13-2.2.13-3.49v-1.64h1.9Z"/>
          <path class="cls-4" d="m148.79,11.99v10.57h-10.56v-10.57h10.56Zm-8.67,1.59v7.39h6.77v-7.39h-6.77Zm2.91,11.24v6.22h-1.93v-6.22h1.93Zm13.35,5.57v1.59h-15.28v-1.59h15.28Zm-.73-20.35v16.34h-1.98V10.04h1.98Z"/>
          <path class="cls-4" d="m171.27,11.26v2.34c0,1.46-.26,2.84-.79,4.15-.53,1.31-1.27,2.45-2.21,3.43-.95.98-2.04,1.72-3.29,2.22l-1.04-1.56c1.11-.43,2.1-1.07,2.97-1.91.87-.84,1.54-1.81,2.03-2.91.49-1.1.73-2.24.73-3.42v-2.34h1.61Zm-1.59,13.92v6.22h-1.95v-6.22h1.95Zm13.32,5.46v1.61h-15.28v-1.61h15.28Zm-11.4-19.39v2.34c0,1.13.24,2.22.73,3.27.49,1.05,1.16,1.97,2.03,2.76.87.79,1.86,1.39,2.97,1.81l-1.04,1.56c-1.23-.49-2.32-1.19-3.27-2.12-.95-.93-1.68-2.02-2.21-3.27-.53-1.25-.79-2.58-.79-4.01v-2.34h1.59Zm10.67-1.22v16.65h-1.95V10.04h1.95Z"/>
          <path class="cls-4" d="m191.6,15.79v1.25c0,1.51-.21,2.99-.62,4.44-.42,1.45-1.02,2.75-1.82,3.9-.8,1.15-1.74,2.06-2.81,2.72l-1.15-1.51c.99-.59,1.86-1.39,2.6-2.41.75-1.01,1.31-2.15,1.7-3.4.39-1.25.59-2.5.59-3.75v-1.25h1.51Zm4.61-1.54v1.61h-10.41v-1.61h10.41Zm-4.24-3.44v4.63h-1.87v-4.63h1.87Zm0,4.97v1.25c0,1.21.2,2.42.6,3.6.4,1.19.97,2.26,1.72,3.23.75.96,1.61,1.71,2.6,2.25l-1.12,1.46c-1.08-.61-2.02-1.46-2.82-2.55-.81-1.09-1.43-2.33-1.86-3.72-.43-1.39-.65-2.81-.65-4.27v-1.25h1.54Zm7.05,3.25v1.61h-4.37v-1.61h4.37Zm1.04-8.48v21.03h-1.82V10.56h1.82Zm4.61-.55v22.77h-1.87V10.01h1.87Z"/>
          <path class="cls-4" d="m213.44,20.19c.29.28.43.64.43,1.09s-.14.82-.43,1.11-.66.43-1.11.43-.82-.14-1.11-.43c-.29-.29-.43-.65-.43-1.11s.14-.82.43-1.09c.29-.28.65-.42,1.11-.42s.82.14,1.11.42Z"/>
          <path class="cls-4" d="m226.08,12.3v1.9c0,1.37-.27,2.66-.81,3.88-.54,1.21-1.29,2.28-2.25,3.2-.96.92-2.06,1.61-3.29,2.08l-.99-1.56c1.11-.4,2.1-.99,2.97-1.77.87-.78,1.55-1.68,2.04-2.69.49-1.01.74-2.06.74-3.14v-1.9h1.59Zm5.41-.6v1.61h-12.15v-1.61h12.15Zm3.89,13.73c1.34.75,2.02,1.79,2.02,3.11s-.67,2.37-2,3.11c-1.34.74-3.18,1.11-5.54,1.11s-4.21-.37-5.56-1.11c-1.34-.74-2.02-1.77-2.02-3.11,0-.88.3-1.64.91-2.28.61-.63,1.48-1.12,2.62-1.46,1.14-.34,2.49-.51,4.05-.51,2.34,0,4.19.38,5.53,1.13Zm-8.54.73c-.84.22-1.49.53-1.94.94-.45.41-.68.89-.68,1.44s.23,1.03.68,1.43c.45.4,1.1.71,1.94.92.84.22,1.84.33,3.01.33s2.14-.11,2.99-.33c.85-.22,1.5-.52,1.95-.92.45-.4.68-.88.68-1.43s-.23-1.04-.68-1.44c-.45-.41-1.1-.72-1.95-.94-.85-.22-1.85-.33-2.99-.33s-2.16.11-3.01.33Zm-.4-13.86v1.9c0,.97.23,1.92.7,2.85.47.93,1.13,1.75,1.98,2.46.85.71,1.81,1.26,2.89,1.64l-1.01,1.56c-1.21-.45-2.29-1.11-3.21-1.96-.93-.86-1.65-1.85-2.16-2.98-.51-1.13-.77-2.32-.77-3.56v-1.9h1.59Zm9.52,3.67v1.61h-5.23v-1.61h5.23Zm1.35-5.96v13.56h-1.95v-13.56h1.95Z"/>
          <path class="cls-4" d="m247.93,11.26v2.34c0,1.46-.26,2.84-.79,4.15-.53,1.31-1.27,2.45-2.21,3.43-.95.98-2.04,1.72-3.29,2.22l-1.04-1.56c1.11-.43,2.1-1.07,2.97-1.91.87-.84,1.54-1.81,2.03-2.91.49-1.1.73-2.24.73-3.42v-2.34h1.61Zm-1.59,13.92v6.22h-1.95v-6.22h1.95Zm13.32,5.46v1.61h-15.28v-1.61h15.28Zm-11.4-19.39v2.34c0,1.13.24,2.22.73,3.27.49,1.05,1.16,1.97,2.03,2.76.87.79,1.86,1.39,2.97,1.81l-1.04,1.56c-1.23-.49-2.32-1.19-3.27-2.12-.95-.93-1.68-2.02-2.21-3.27-.53-1.25-.79-2.58-.79-4.01v-2.34h1.59Zm10.67-1.22v16.65h-1.95V10.04h1.95Z"/>
          <path class="cls-4" d="m277.44,17.08c-.87,1.62-2.09,3.04-3.68,4.24-1.59,1.21-3.46,2.17-5.61,2.9l-.83-1.59c2.86-.95,5.14-2.32,6.83-4.09,1.69-1.77,2.54-3.76,2.54-5.99v-.78h2.06c0,1.91-.43,3.67-1.3,5.3Zm.52-5.3v1.61h-9.5v-1.61h9.5Zm-4.66,13.35v6.3h-1.98v-6.3h1.98Zm12.93,5.52v1.61h-14.91v-1.61h14.91Zm-2.13-13.58v1.64h-5.41v-1.64h5.41Zm1.56-7.05v16.84h-1.95V10.01h1.95Z"/>
          <path class="cls-4" d="m297.38,19.11c-1.87,2.07-4.48,3.6-7.81,4.59l-.83-1.59c2.93-.87,5.23-2.13,6.88-3.8,1.66-1.67,2.49-3.58,2.49-5.75v-.86h2.08c0,2.86-.94,5.33-2.81,7.4Zm1.82-7.4v1.61h-9.47v-1.61h9.47Zm3.93,12.79c1.11.36,1.96.86,2.56,1.52.6.66.9,1.44.9,2.34s-.3,1.68-.9,2.34c-.6.66-1.45,1.16-2.56,1.51-1.11.35-2.41.52-3.9.52s-2.82-.17-3.93-.52c-1.11-.35-1.96-.85-2.56-1.51-.6-.66-.9-1.44-.9-2.34s.3-1.68.9-2.34c.6-.66,1.45-1.17,2.56-1.52,1.11-.36,2.42-.53,3.93-.53s2.79.18,3.9.53Zm-6.78,1.37c-.82.23-1.46.55-1.91.98-.45.43-.68.93-.68,1.52s.23,1.07.68,1.5c.45.43,1.09.75,1.91.98.82.23,1.78.34,2.88.34s2.05-.11,2.88-.34c.82-.23,1.46-.55,1.91-.98.45-.43.68-.92.68-1.5s-.22-1.1-.66-1.52c-.44-.42-1.08-.75-1.9-.98-.82-.23-1.79-.34-2.9-.34s-2.05.11-2.88.34Zm9.98-15.85v13.66h-1.95v-13.66h1.95Zm3.41,5.96v1.64h-3.96v-1.64h3.96Z"/>
          <path class="cls-4" d="m335.97,23.1v1.61h-20.64v-1.61h20.64Zm-6.22-11.53c1.2.4,2.12.97,2.78,1.72.66.75.99,1.62.99,2.63s-.33,1.88-.99,2.63c-.66.75-1.59,1.32-2.78,1.73-1.2.41-2.59.61-4.16.61s-2.94-.2-4.15-.61c-1.21-.41-2.14-.98-2.8-1.73-.66-.75-.99-1.62-.99-2.63s.33-1.88.99-2.63c.66-.75,1.59-1.32,2.78-1.72,1.2-.4,2.58-.6,4.16-.6s2.97.2,4.16.6Zm-7.26,1.38c-.9.28-1.6.67-2.09,1.18-.49.51-.74,1.11-.74,1.78s.25,1.27.74,1.78c.49.51,1.19.91,2.09,1.2.9.29,1.93.43,3.1.43s2.19-.14,3.1-.43c.9-.29,1.6-.69,2.11-1.2.5-.51.75-1.11.75-1.78s-.25-1.27-.75-1.78c-.5-.51-1.21-.91-2.11-1.18-.9-.28-1.93-.42-3.1-.42s-2.19.14-3.1.42Zm4.06,11.14v8.69h-1.93v-8.69h1.93Z"/>
          <path class="cls-4" d="m347.73,12.09v8.07h-7.94v6.06h-1.93v-7.68h7.94v-4.84h-7.99v-1.61h9.91Zm-3.02,13.6c1.53-.1,3.12-.27,4.79-.53l.18,1.64c-1.68.26-3.29.44-4.81.53-1.53.1-3.3.14-5.31.14h-1.69v-1.64h1.69c1.91,0,3.63-.05,5.15-.14Zm9.45-4.2v1.59h-5.13v-1.59h5.13Zm.16-6.25v1.61h-5.13v-1.61h5.13Zm1.38-5.26v22.82h-1.93V9.99h1.93Z"/>
          <path class="cls-4" d="m379.37,28.23v1.64h-20.64v-1.64h20.64Zm-2.65-16.39v1.61h-13.38v7.96h-1.95v-9.58h15.33Zm.26,8.85v1.61h-15.59v-1.61h15.59Zm-7,.68v7.55h-1.93v-7.55h1.93Z"/>
        </g>
      </g>
      <g>
        <rect class="cls-4" x="43.12" y="290.55" width="115.42" height="143.31"/>
        <rect class="cls-1" x="43.12" y="219.54" width="115.42" height="71.71"/>
        <rect class="cls-3" x="244.43" y="161.96" width="115.42" height="71.71"/>
        <rect class="cls-1" x="244.43" y="230.31" width="115.42" height="76.98"/>
        <rect class="cls-3" x="43.12" y="163.82" width="115.42" height="57.75"/>
        <rect class="cls-4" x="244.43" y="305.27" width="115.42" height="129.22"/>
        <g>
          <path class="cls-2" d="m79.09,358.99l4.77-8.35h1.93l-3.51,6.09c.54-.11,1.04-.16,1.49-.16,1.07,0,2.02.24,2.86.71.84.47,1.49,1.13,1.97,1.97.47.84.71,1.79.71,2.86s-.24,2.02-.71,2.86c-.47.84-1.13,1.49-1.97,1.95-.84.47-1.79.7-2.86.7s-2.02-.23-2.86-.7c-.84-.47-1.49-1.12-1.97-1.95-.47-.84-.71-1.79-.71-2.86s.29-2.11.86-3.12Zm6.65,6.63c.59-.34,1.05-.82,1.38-1.43.33-.61.5-1.31.5-2.08s-.17-1.47-.5-2.09c-.33-.62-.79-1.1-1.38-1.44-.59-.34-1.26-.51-2.02-.51s-1.38.17-1.97.51c-.58.34-1.04.82-1.36,1.44-.33.62-.49,1.32-.49,2.09s.16,1.47.49,2.08c.33.61.78,1.09,1.36,1.43.58.34,1.24.51,1.97.51s1.43-.17,2.02-.51Z"/>
          <path class="cls-2" d="m101.14,361.22h2.49v1.49h-2.49v4.72h-1.67v-4.72h-7.35l-.23-1.49,7.63-10.58h1.63v10.58Zm-1.67,0v-7.65l-5.51,7.65h5.51Z"/>
          <path class="cls-2" d="m108.36,365.72c.21.21.31.48.31.83s-.1.64-.31.86c-.21.22-.48.33-.83.33s-.62-.11-.85-.34c-.22-.22-.34-.51-.34-.85s.11-.62.33-.83c.22-.21.5-.31.86-.31s.62.1.83.31Z"/>
          <path class="cls-2" d="m122.54,359.08l-4.77,8.35h-1.93l3.51-6.09c-.54.11-1.04.16-1.49.16-1.07,0-2.02-.24-2.86-.71-.84-.47-1.49-1.13-1.97-1.97-.47-.84-.71-1.79-.71-2.86s.24-2.02.71-2.86c.47-.84,1.13-1.49,1.97-1.95.84-.47,1.79-.7,2.86-.7s2.02.23,2.86.7c.84.47,1.49,1.12,1.97,1.95.47.84.71,1.79.71,2.86s-.29,2.11-.86,3.12Zm-6.65-6.63c-.59.34-1.05.82-1.38,1.43-.33.61-.5,1.31-.5,2.08s.17,1.47.5,2.09c.33.62.79,1.1,1.38,1.44.59.34,1.26.51,2.02.51s1.38-.17,1.97-.51c.58-.34,1.04-.82,1.36-1.44.33-.62.49-1.32.49-2.09s-.16-1.47-.49-2.08c-.33-.61-.78-1.09-1.36-1.43-.58-.34-1.24-.51-1.97-.51s-1.43.17-2.02.51Z"/>
        </g>
        <g>
          <path class="cls-2" d="m288.4,381.87h2.49v1.49h-2.49v4.72h-1.67v-4.72h-7.35l-.23-1.49,7.63-10.58h1.63v10.58Zm-1.67,0v-7.65l-5.51,7.65h5.51Z"/>
          <path class="cls-2" d="m296.29,387.15c-.91-.73-1.61-1.74-2.12-3.04-.5-1.29-.76-2.77-.76-4.43s.25-3.11.76-4.41c.5-1.29,1.21-2.31,2.12-3.04.91-.73,1.94-1.09,3.11-1.09s2.18.36,3.08,1.09c.91.73,1.61,1.74,2.12,3.04.5,1.3.76,2.76.76,4.41s-.25,3.14-.76,4.43c-.5,1.3-1.21,2.31-2.12,3.04-.91.73-1.93,1.09-3.08,1.09s-2.2-.36-3.11-1.09Zm5.32-1.3c.65-.6,1.16-1.44,1.52-2.51.36-1.07.55-2.29.55-3.65s-.18-2.58-.55-3.65c-.36-1.07-.87-1.9-1.52-2.5-.65-.6-1.39-.9-2.21-.9s-1.58.3-2.23.9c-.65.6-1.16,1.43-1.52,2.5-.36,1.07-.55,2.29-.55,3.65s.18,2.58.55,3.65c.36,1.07.87,1.91,1.52,2.51.65.6,1.4.91,2.23.91s1.56-.3,2.21-.91Z"/>
          <path class="cls-2" d="m310.09,386.37c.21.21.31.48.31.83s-.1.64-.31.86c-.21.22-.48.33-.83.33s-.62-.11-.85-.34c-.22-.22-.34-.51-.34-.85s.11-.62.33-.83c.22-.21.5-.31.86-.31s.62.1.83.31Z"/>
          <path class="cls-2" d="m324.27,379.73l-4.77,8.35h-1.93l3.51-6.09c-.54.11-1.04.16-1.49.16-1.07,0-2.02-.24-2.86-.71-.84-.47-1.49-1.13-1.97-1.97-.47-.84-.71-1.79-.71-2.86s.24-2.02.71-2.86c.47-.84,1.13-1.49,1.97-1.95.84-.47,1.79-.7,2.86-.7s2.02.23,2.86.7c.84.47,1.49,1.12,1.97,1.95.47.84.71,1.79.71,2.86s-.29,2.11-.86,3.12Zm-6.65-6.63c-.59.34-1.05.82-1.38,1.43-.33.61-.5,1.31-.5,2.08s.17,1.47.5,2.09c.33.62.79,1.1,1.38,1.44.59.34,1.26.51,2.02.51s1.38-.17,1.97-.51c.58-.34,1.04-.82,1.36-1.44.33-.62.49-1.32.49-2.09s-.16-1.47-.49-2.08c-.33-.61-.78-1.09-1.36-1.43-.58-.34-1.24-.51-1.97-.51s-1.43.17-2.02.51Z"/>
        </g>
        <g>
          <path class="cls-2" d="m82.4,260.69c.2-.19.5-.47.91-.86,1.4-1.3,2.53-2.4,3.4-3.29.87-.89,1.61-1.81,2.22-2.74.61-.94.92-1.79.92-2.57,0-.71-.14-1.35-.43-1.91-.29-.56-.68-1-1.19-1.31-.5-.32-1.08-.48-1.73-.48-.71,0-1.4.24-2.06.73-.66.49-1.16,1.11-1.5,1.87l-1.54-.65c.43-1.01,1.13-1.83,2.08-2.48.95-.64,1.96-.97,3.01-.97.98,0,1.85.22,2.61.66.76.44,1.35,1.05,1.78,1.84.43.78.64,1.68.64,2.69s-.33,2.03-1,3.11c-.67,1.08-1.46,2.09-2.38,3.05-.92.95-2.11,2.09-3.55,3.41-.64.59-1.27,1.19-1.91,1.79l-1.21-1c.42-.4.73-.7.93-.88Zm-.93.88h10.33v1.49h-10.1l-.23-1.49Z"/>
          <path class="cls-2" d="m97.48,252.67c.78-.36,1.54-.53,2.28-.53,1.1,0,2.08.23,2.94.7.86.47,1.53,1.12,2.01,1.95.48.84.72,1.79.72,2.86s-.24,2.06-.72,2.91c-.48.85-1.15,1.52-2.01,2-.86.48-1.84.72-2.94.72-.85,0-1.65-.18-2.4-.53-.74-.36-1.38-.86-1.91-1.5-.53-.64-.88-1.37-1.07-2.18l1.63-.37c.2.88.65,1.61,1.35,2.16.7.56,1.5.84,2.4.84.78,0,1.47-.17,2.07-.51.6-.34,1.08-.82,1.42-1.44.34-.62.51-1.32.51-2.09s-.17-1.44-.51-2.04c-.34-.6-.81-1.06-1.42-1.4-.6-.33-1.29-.5-2.07-.5-.5,0-1.02.13-1.56.4-.54.26-.99.6-1.35,1l-1.26-1.07c.48-.56,1.11-1.02,1.88-1.37Zm-2.3,2.16l.54-8.61h8.37v1.49h-6.77l-.47,7.4-1.68-.28Z"/>
          <path class="cls-2" d="m110.19,261.33c.21.21.31.48.31.83s-.1.64-.31.86c-.21.22-.48.33-.83.33s-.62-.11-.85-.34c-.22-.22-.34-.51-.34-.85s.11-.62.33-.83c.22-.21.5-.31.86-.31s.62.1.83.31Z"/>
          <path class="cls-2" d="m119.2,263.04h-1.67v-14.86l-2.61,1.81-.93-1.28,3.54-2.44h1.67v16.77Z"/>
        </g>
        <g>
          <path class="cls-2" d="m290.55,269.52c.41.73.62,1.46.62,2.19,0,.95-.23,1.79-.69,2.52-.46.74-1.1,1.31-1.92,1.73-.82.42-1.76.63-2.81.63s-1.97-.21-2.79-.63c-.82-.42-1.46-1-1.92-1.73-.46-.74-.69-1.58-.69-2.52h1.67c0,.65.16,1.24.48,1.76.32.52.76.92,1.33,1.21.57.29,1.21.43,1.92.43s1.38-.14,1.94-.43c.57-.29,1.01-.69,1.33-1.2.32-.51.48-1.09.48-1.74s-.16-1.17-.48-1.66c-.32-.49-.76-.87-1.31-1.14-.56-.27-1.19-.41-1.91-.41h-1.23v-1.54h1.23c.67,0,1.26-.12,1.79-.37.53-.25.94-.59,1.23-1.04.29-.44.44-.95.44-1.52,0-.9-.31-1.63-.94-2.2-.63-.57-1.44-.85-2.43-.85-.65,0-1.24.13-1.76.4-.52.26-.92.63-1.21,1.09-.29.47-.43,1-.43,1.61h-1.68c0-.88.22-1.67.65-2.37.43-.7,1.04-1.24,1.8-1.63.77-.39,1.64-.58,2.62-.58s1.85.19,2.62.58c.77.39,1.36.93,1.79,1.63.43.7.64,1.49.64,2.37,0,.65-.18,1.32-.55,2-.36.68-.87,1.24-1.52,1.67.71.43,1.28,1.02,1.69,1.74Z"/>
          <path class="cls-2" d="m294.75,274.1c.2-.19.5-.47.91-.86,1.4-1.3,2.53-2.4,3.4-3.29.87-.89,1.61-1.81,2.22-2.74.61-.94.92-1.79.92-2.57,0-.71-.14-1.35-.43-1.91-.29-.56-.68-1-1.19-1.31-.5-.32-1.08-.48-1.73-.48-.71,0-1.4.24-2.06.73-.66.49-1.16,1.11-1.5,1.87l-1.54-.65c.43-1.01,1.13-1.83,2.08-2.48.95-.64,1.96-.97,3.01-.97.98,0,1.85.22,2.61.66.76.44,1.35,1.05,1.78,1.84.43.78.64,1.68.64,2.69s-.33,2.03-1,3.11c-.67,1.08-1.46,2.09-2.38,3.05-.92.95-2.11,2.09-3.55,3.41-.64.59-1.27,1.19-1.91,1.79l-1.21-1c.42-.4.73-.7.93-.88Zm-.93.88h10.33v1.49h-10.1l-.23-1.49Z"/>
          <path class="cls-2" d="m308.88,274.74c.21.21.31.48.31.83s-.1.64-.31.86c-.21.22-.48.33-.83.33s-.62-.11-.85-.34c-.22-.22-.34-.51-.34-.85s.11-.62.33-.83c.22-.21.5-.31.86-.31s.62.1.83.31Z"/>
          <path class="cls-2" d="m315.96,266.08c.78-.36,1.54-.53,2.28-.53,1.1,0,2.08.23,2.94.7.86.47,1.53,1.12,2.01,1.95.48.84.72,1.79.72,2.86s-.24,2.06-.72,2.91c-.48.85-1.15,1.52-2.01,2-.86.48-1.84.72-2.94.72-.85,0-1.65-.18-2.4-.54-.74-.36-1.38-.86-1.91-1.5-.53-.64-.88-1.37-1.07-2.18l1.63-.37c.2.88.65,1.61,1.35,2.16.7.56,1.5.84,2.4.84.78,0,1.47-.17,2.07-.51.6-.34,1.08-.82,1.42-1.44.34-.62.51-1.32.51-2.09s-.17-1.44-.51-2.04c-.34-.6-.81-1.06-1.42-1.4-.6-.33-1.3-.5-2.07-.5-.5,0-1.02.13-1.56.4-.54.26-.99.6-1.35,1l-1.26-1.07c.48-.56,1.11-1.02,1.88-1.37Zm-2.3,2.16l.54-8.61h8.37v1.49h-6.77l-.47,7.4-1.68-.28Z"/>
        </g>
        <g>
          <path class="cls-2" d="m281.64,203.11c.2-.19.5-.47.91-.86,1.4-1.3,2.53-2.4,3.4-3.29.87-.89,1.61-1.81,2.22-2.74.61-.94.92-1.79.92-2.57,0-.71-.14-1.35-.43-1.91-.29-.56-.68-1-1.19-1.31-.5-.32-1.08-.48-1.73-.48-.71,0-1.4.24-2.06.73-.66.49-1.16,1.11-1.5,1.87l-1.54-.65c.43-1.01,1.13-1.83,2.08-2.48.95-.64,1.96-.97,3.01-.97.98,0,1.85.22,2.61.66.76.44,1.35,1.05,1.78,1.84.43.78.64,1.68.64,2.69s-.33,2.03-1,3.11c-.67,1.08-1.46,2.09-2.38,3.05-.92.95-2.11,2.09-3.55,3.41-.64.59-1.27,1.19-1.91,1.79l-1.21-1c.42-.4.73-.7.93-.88Zm-.93.88h10.33v1.49h-10.1l-.23-1.49Z"/>
          <path class="cls-2" d="m294.45,197.02l4.77-8.35h1.93l-3.51,6.09c.54-.11,1.04-.16,1.49-.16,1.07,0,2.02.24,2.86.71.84.47,1.49,1.13,1.97,1.97.47.84.71,1.79.71,2.86s-.24,2.02-.71,2.86c-.47.84-1.13,1.49-1.97,1.95-.84.47-1.79.7-2.86.7s-2.02-.23-2.86-.7c-.84-.47-1.49-1.12-1.97-1.95-.47-.84-.71-1.79-.71-2.86s.29-2.11.86-3.12Zm6.65,6.63c.59-.34,1.05-.82,1.38-1.43.33-.61.5-1.31.5-2.08s-.17-1.47-.5-2.09c-.33-.62-.79-1.1-1.38-1.44-.59-.34-1.26-.51-2.02-.51s-1.38.17-1.97.51c-.58.34-1.04.82-1.36,1.44-.33.62-.49,1.32-.49,2.09s.16,1.47.49,2.08c.33.61.78,1.09,1.36,1.43.58.34,1.24.51,1.97.51s1.43-.17,2.02-.51Z"/>
          <path class="cls-2" d="m309.42,203.75c.21.21.31.48.31.83s-.1.64-.31.86c-.21.22-.48.33-.83.33s-.62-.11-.85-.34c-.22-.22-.34-.51-.34-.85s.11-.62.33-.83c.22-.21.5-.31.86-.31s.62.1.83.31Z"/>
          <path class="cls-2" d="m323.67,190.15h-9.98v-1.49h9.75l.23,1.49Zm-8.58,15.28l6.77-15.28h1.81l-6.77,15.28h-1.81Z"/>
        </g>
        <g>
          <path class="cls-2" d="m88.17,199.99h-1.67v-14.86l-2.61,1.81-.93-1.28,3.54-2.44h1.67v16.77Z"/>
          <path class="cls-2" d="m94.65,199.06c-.91-.73-1.61-1.74-2.12-3.04-.5-1.29-.76-2.77-.76-4.43s.25-3.11.76-4.41c.5-1.29,1.21-2.31,2.12-3.04.91-.73,1.94-1.09,3.11-1.09s2.17.36,3.08,1.09c.91.73,1.61,1.74,2.12,3.04.5,1.3.76,2.76.76,4.41s-.25,3.14-.76,4.43c-.5,1.29-1.21,2.31-2.12,3.04-.91.73-1.93,1.09-3.08,1.09s-2.2-.36-3.11-1.09Zm5.32-1.3c.65-.6,1.16-1.44,1.52-2.51.36-1.07.55-2.29.55-3.65s-.18-2.58-.55-3.65c-.36-1.07-.87-1.9-1.52-2.5-.65-.6-1.39-.9-2.21-.9s-1.58.3-2.23.9c-.65.6-1.16,1.43-1.52,2.5-.36,1.07-.55,2.29-.55,3.65s.18,2.58.55,3.65c.36,1.07.87,1.91,1.52,2.51.65.6,1.4.91,2.23.91s1.56-.3,2.21-.91Z"/>
          <path class="cls-2" d="m108.44,198.28c.21.21.31.49.31.83s-.1.64-.31.86c-.21.22-.48.33-.83.33s-.62-.11-.85-.34c-.22-.22-.34-.51-.34-.85s.11-.62.33-.83c.22-.21.5-.31.86-.31s.62.1.83.31Z"/>
          <path class="cls-2" d="m117.46,199.99h-1.67v-14.86l-2.61,1.81-.93-1.28,3.54-2.44h1.67v16.77Z"/>
        </g>
      </g>
      <g>
        <path class="cls-4" d="m46.63,450.31v3.09c0,1.45-.27,2.87-.81,4.26-.54,1.39-1.31,2.65-2.32,3.77-1.01,1.12-2.19,1.97-3.55,2.57l-1.35-1.88c1.21-.53,2.28-1.26,3.21-2.2.93-.94,1.65-1.98,2.14-3.13.49-1.14.74-2.27.74-3.39v-3.09h1.94Zm16.15,15.46v6.68h-16.42v4.31h-2.43v-6.22h16.45v-2.8h-16.52v-1.97h18.92Zm1.15,9.74v2.01h-20v-2.01h20Zm-16.88-25.2v3.22c0,1.05.24,2.1.71,3.13.47,1.03,1.15,1.96,2.04,2.8.89.83,1.92,1.47,3.11,1.91l-1.32,1.81c-1.34-.53-2.5-1.28-3.47-2.27-.98-.99-1.72-2.12-2.22-3.39-.5-1.27-.76-2.6-.76-3.98v-3.22h1.91Zm9.54-.72v14.61h-2.37v-14.61h2.37Zm4.67,6.09v2.01h-5.53v-2.01h5.53Zm1.51-6.58v15.36h-2.34v-15.36h2.34Z"/>
        <path class="cls-4" d="m79.83,451.79v9.97h-10.33v7.76h-2.43v-9.77h10.36v-5.96h-10.43v-2.01h12.83Zm-3.54,16.88c1.94-.13,3.92-.37,5.94-.72l.23,2.04c-2.04.37-4.05.62-6.02.76-1.97.13-4.36.2-7.17.2h-2.2v-2.07h2.2c2.74,0,5.08-.07,7.02-.2Zm11.47-8.49v2.04h-6.19v-2.04h6.19Zm1.84-11.15v28.85h-2.43v-28.85h2.43Z"/>
        <path class="cls-4" d="m119.54,471.82v2.04h-26.09v-2.04h26.09Zm-3.36-20.1v2.04h-16.94v10.03h-2.43v-12.07h19.38Zm.33,11.19v2.01h-19.71v-2.01h19.71Z"/>
        <path class="cls-4" d="m144.48,475.44l-2.3-2.63c-1.93,1.89-4.11,2.83-6.55,2.83-2.08,0-3.67-.44-4.75-1.33-1.09-.89-1.79-1.83-2.11-2.81-.32-.99-.48-1.81-.48-2.47,0-.48.1-1.12.31-1.92.21-.8.64-1.67,1.28-2.62.65-.94,1.56-1.75,2.75-2.43l-.59-.59c-.64-.66-1.14-1.33-1.51-2.01-.37-.68-.56-1.47-.56-2.37,0-.77.21-1.57.62-2.42.42-.84,1.05-1.56,1.91-2.15.86-.59,1.9-.89,3.13-.89s2.21.28,3.08.84c.87.56,1.52,1.26,1.97,2.11.45.84.67,1.68.67,2.52,0,1.16-.4,2.19-1.2,3.09-.8.9-1.98,1.78-3.54,2.63l5.53,6.25c.61-.94,1.24-2.03,1.88-3.26l.53-1.02,2.17,1.12-.3.56c-.44.86-.87,1.65-1.28,2.37-.42.72-.87,1.43-1.35,2.11l3.98,4.51h-3.29Zm-13.44-4.79c.21.63.68,1.21,1.41,1.74.73.54,1.79.81,3.18.81,1.8,0,3.44-.75,4.94-2.24l-6.22-7.04c-1.4.68-2.36,1.52-2.86,2.53-.5,1.01-.76,1.86-.76,2.57,0,.46.1,1,.31,1.63Zm1.81-12.14c.3.43.75.94,1.37,1.53l.82.86c1.4-.68,2.4-1.31,2.99-1.89.59-.58.89-1.22.89-1.92,0-.5-.12-.99-.35-1.45-.23-.46-.59-.84-1.09-1.14-.49-.3-1.11-.44-1.86-.44s-1.33.15-1.81.46c-.48.31-.84.69-1.07,1.15-.23.46-.35.93-.35,1.41,0,.53.15,1,.44,1.43Z"/>
        <path class="cls-4" d="m181.1,472.15v2.07h-26.09v-2.07h26.09Zm-2.47-20.3v2.01h-21.29v-2.01h21.29Zm-.03,11.58v2.01h-21.19v-2.01h21.19Zm-14.25-10v10.36h-2.5v-10.36h2.5Zm4.84,11.15v8.49h-2.43v-8.49h2.43Zm4.9-11.15v10.36h-2.43v-10.36h2.43Z"/>
        <path class="cls-4" d="m192.28,461l-9.34.95-.36-2.14,9.71-.66v1.84Zm1.73-1.04c-.65,2.31-1.78,4.49-3.41,6.53-1.62,2.04-3.82,3.83-6.58,5.36l-1.41-1.81c2.5-1.34,4.49-2.9,5.97-4.69,1.48-1.79,2.53-3.71,3.14-5.77.61-2.06.92-4.3.92-6.71v-.39h2.34c0,2.68-.32,5.17-.97,7.48Zm-.41-7.48v2.04h-9.61v-2.04h9.61Zm5.86,7.99v2.01h-6.68v-2.01h6.68Zm1.38-10.66v26.52h-2.34v-26.52h2.34Zm6.02-.76v28.79h-2.37v-28.79h2.37Z"/>
        <path class="cls-4" d="m242.16,465.54v2.04h-26.02v-2.04h26.02Zm-12.24-13.65v1.25c0,1.65-.53,3.16-1.6,4.54-1.06,1.38-2.46,2.54-4.18,3.47-1.72.93-3.55,1.56-5.48,1.89l-.95-2.01c1.67-.24,3.27-.75,4.82-1.51,1.55-.77,2.81-1.71,3.78-2.83.98-1.12,1.46-2.3,1.46-3.55v-1.25h2.14Zm9.71-.99v2.01h-21.02v-2.01h21.02Zm-9.31,15.92v11.02h-2.43v-11.02h2.43Zm.2-14.94v1.25c0,1.25.49,2.43,1.46,3.55.98,1.12,2.24,2.06,3.78,2.83,1.55.77,3.15,1.27,4.82,1.51l-.95,2.01c-1.93-.33-3.76-.96-5.48-1.89-1.72-.93-3.11-2.09-4.18-3.47-1.06-1.38-1.6-2.9-1.6-4.54v-1.25h2.14Z"/>
        <path class="cls-4" d="m269.63,463.86v2.01h-26.09v-2.01h26.09Zm-20.27,5.1v6.91h-2.47v-6.91h2.47Zm17.37,6.22v2.04h-19.84v-2.04h19.84Zm-.49-24.74v10.03h-19.31v-10.03h19.31Zm-16.91,1.97v6.05h14.48v-6.05h-14.48Zm8.69,12.67v6.71h-2.5v-6.71h2.5Z"/>
        <path class="cls-4" d="m297.04,465.34v2.04h-26.02v-2.04h26.02Zm-12.11-15.23v1.65c0,1.76-.54,3.36-1.63,4.8-1.09,1.45-2.51,2.65-4.28,3.6-1.77.95-3.65,1.6-5.64,1.92l-1.02-1.97c1.73-.26,3.4-.79,5-1.6,1.6-.8,2.9-1.79,3.9-2.98,1-1.18,1.5-2.45,1.5-3.78v-1.65h2.17Zm.26,16.75v10.99h-2.43v-10.99h2.43Zm.13-16.75v1.65c0,1.32.5,2.57,1.51,3.75,1.01,1.18,2.31,2.18,3.92,2.99,1.6.81,3.26,1.35,4.97,1.61l-1.02,1.97c-1.97-.33-3.84-.98-5.59-1.94-1.76-.96-3.18-2.18-4.28-3.64-1.1-1.46-1.65-3.04-1.65-4.75v-1.65h2.14Z"/>
        <path class="cls-4" d="m302.33,450.96v5.17h8.06v-5.17h2.43v14.48h-12.93v-14.48h2.43Zm0,12.44h8.06v-5.33h-8.06v5.33Zm3.78,4.9v7.86h-2.47v-7.86h2.47Zm16.65,6.84v2.04h-19.12v-2.04h19.12Zm-2.2-20.76v2.04h-8.42v-2.04h8.42Zm.07,6.19v2.04h-8.49v-2.04h8.49Zm1.45-11.48v21.29h-2.47v-21.29h2.47Z"/>
        <path class="cls-4" d="m335.4,470.01c2.94-.11,5.72-.35,8.36-.72l.2,1.81c-2.74.5-5.55.83-8.42.97-2.87.14-6.06.21-9.57.21l-.39-2.11c3.62,0,6.9-.05,9.84-.16Zm7.9-17.44v2.01h-17.24v-2.01h17.24Zm-5.08,4.41c1.02.44,1.81,1.06,2.39,1.88.57.81.86,1.74.86,2.8s-.29,1.98-.86,2.78c-.57.8-1.37,1.42-2.39,1.86-1.02.44-2.2.66-3.54.66s-2.48-.22-3.5-.66c-1.02-.44-1.82-1.06-2.39-1.86-.57-.8-.86-1.73-.86-2.78s.28-1.98.86-2.8c.57-.81,1.37-1.44,2.39-1.88,1.02-.44,2.2-.66,3.54-.66s2.48.22,3.5.66Zm-6.73,2.19c-.81.62-1.22,1.45-1.22,2.48s.41,1.82,1.22,2.43c.81.61,1.88.92,3.19.92s2.41-.31,3.22-.92c.81-.61,1.22-1.43,1.22-2.43s-.41-1.86-1.22-2.48c-.81-.63-1.89-.94-3.22-.94s-2.38.31-3.19.94Zm4.44-10.08v4.77h-2.47v-4.77h2.47Zm0,17.14v4.67h-2.47v-4.67h2.47Zm12.07-17.17v28.79h-2.47v-28.79h2.47Zm4.57,12.27v2.11h-5.33v-2.11h5.33Z"/>
      </g>
      <g>
        <path class="cls-4" d="m65.54,124.6v2.34c0,1.46-.26,2.84-.79,4.15-.53,1.31-1.27,2.45-2.21,3.43-.95.98-2.04,1.72-3.29,2.22l-1.04-1.56c1.11-.43,2.1-1.07,2.97-1.91.87-.84,1.54-1.81,2.03-2.91.49-1.1.73-2.24.73-3.42v-2.34h1.61Zm-1.59,13.92v6.22h-1.95v-6.22h1.95Zm13.32,5.46v1.61h-15.28v-1.61h15.28Zm-11.4-19.39v2.34c0,1.13.24,2.22.73,3.27.49,1.05,1.16,1.97,2.03,2.76.87.79,1.86,1.39,2.97,1.81l-1.04,1.56c-1.23-.49-2.32-1.19-3.27-2.12-.95-.93-1.68-2.02-2.21-3.27-.53-1.25-.79-2.58-.79-4.01v-2.34h1.59Zm10.67-1.22v16.65h-1.95v-16.65h1.95Z"/>
        <path class="cls-4" d="m85.86,129.13v1.25c0,1.51-.21,2.99-.62,4.44-.42,1.45-1.02,2.75-1.82,3.9-.8,1.15-1.74,2.06-2.81,2.72l-1.15-1.51c.99-.59,1.86-1.39,2.6-2.41.75-1.01,1.31-2.15,1.7-3.4.39-1.25.59-2.5.59-3.75v-1.25h1.51Zm4.61-1.54v1.61h-10.41v-1.61h10.41Zm-4.24-3.43v4.63h-1.87v-4.63h1.87Zm0,4.97v1.25c0,1.21.2,2.42.6,3.6.4,1.19.97,2.26,1.72,3.23.75.96,1.61,1.71,2.6,2.25l-1.12,1.46c-1.08-.61-2.02-1.46-2.82-2.55-.81-1.09-1.43-2.33-1.86-3.72-.43-1.39-.65-2.81-.65-4.27v-1.25h1.54Zm7.05,3.25v1.61h-4.37v-1.61h4.37Zm1.04-8.48v21.03h-1.82v-21.03h1.82Zm4.61-.55v22.77h-1.87v-22.77h1.87Z"/>
        <path class="cls-4" d="m111.81,130.41c-.87,1.62-2.09,3.04-3.68,4.24-1.59,1.21-3.46,2.17-5.61,2.9l-.83-1.59c2.86-.95,5.14-2.32,6.83-4.09,1.69-1.77,2.54-3.76,2.54-5.99v-.78h2.06c0,1.91-.43,3.67-1.3,5.3Zm.52-5.3v1.61h-9.5v-1.61h9.5Zm-4.66,13.35v6.3h-1.98v-6.3h1.98Zm12.93,5.52v1.61h-14.91v-1.61h14.91Zm-2.13-13.58v1.64h-5.41v-1.64h5.41Zm1.56-7.05v16.84h-1.95v-16.84h1.95Z"/>
        <path class="cls-4" d="m131.74,132.44c-1.87,2.07-4.48,3.6-7.81,4.59l-.83-1.59c2.93-.87,5.23-2.13,6.88-3.8,1.66-1.67,2.49-3.58,2.49-5.75v-.86h2.08c0,2.86-.94,5.33-2.81,7.4Zm1.82-7.4v1.61h-9.47v-1.61h9.47Zm3.93,12.79c1.11.36,1.96.86,2.56,1.52.6.66.9,1.44.9,2.34s-.3,1.68-.9,2.34c-.6.66-1.45,1.16-2.56,1.51-1.11.35-2.41.52-3.9.52s-2.82-.17-3.93-.52c-1.11-.35-1.96-.85-2.56-1.51-.6-.66-.9-1.44-.9-2.34s.3-1.68.9-2.34c.6-.66,1.45-1.17,2.56-1.52,1.11-.36,2.42-.53,3.93-.53s2.79.18,3.9.53Zm-6.78,1.37c-.82.23-1.46.55-1.91.98-.45.43-.68.93-.68,1.52s.23,1.07.68,1.5c.45.43,1.09.75,1.91.98.82.23,1.78.34,2.88.34s2.05-.11,2.88-.34c.82-.23,1.46-.55,1.91-.98.45-.43.68-.92.68-1.5s-.22-1.1-.66-1.52c-.44-.43-1.08-.75-1.9-.98-.82-.23-1.79-.34-2.9-.34s-2.05.11-2.88.34Zm9.98-15.85v13.66h-1.95v-13.66h1.95Zm3.41,5.96v1.64h-3.96v-1.64h3.96Z"/>
      </g>
      <g>
        <path class="cls-4" d="m266.7,125.64v1.9c0,1.37-.27,2.66-.81,3.88-.54,1.21-1.29,2.28-2.25,3.2-.96.92-2.06,1.61-3.29,2.08l-.99-1.56c1.11-.4,2.1-.99,2.97-1.77.87-.78,1.55-1.68,2.04-2.69s.74-2.06.74-3.14v-1.9h1.59Zm5.41-.6v1.61h-12.15v-1.61h12.15Zm3.89,13.73c1.34.75,2.02,1.79,2.02,3.11s-.67,2.37-2,3.11c-1.34.74-3.18,1.11-5.54,1.11s-4.21-.37-5.56-1.11c-1.34-.74-2.02-1.77-2.02-3.11,0-.88.3-1.64.91-2.28.61-.63,1.48-1.12,2.62-1.46,1.14-.34,2.49-.51,4.05-.51,2.34,0,4.19.38,5.53,1.13Zm-8.54.73c-.84.22-1.49.53-1.94.94-.45.41-.68.89-.68,1.44s.23,1.03.68,1.43c.45.4,1.1.71,1.94.92.84.22,1.84.33,3.01.33s2.14-.11,2.99-.33c.85-.22,1.5-.52,1.95-.92.45-.4.68-.88.68-1.43s-.23-1.04-.68-1.44c-.45-.41-1.1-.72-1.95-.94-.85-.22-1.85-.33-2.99-.33s-2.16.11-3.01.33Zm-.4-13.86v1.9c0,.97.23,1.92.7,2.85.47.93,1.13,1.75,1.98,2.46.85.71,1.81,1.26,2.89,1.64l-1.01,1.56c-1.21-.45-2.29-1.11-3.21-1.96-.93-.86-1.65-1.85-2.16-2.98-.51-1.13-.77-2.32-.77-3.56v-1.9h1.59Zm9.52,3.67v1.61h-5.23v-1.61h5.23Zm1.35-5.96v13.56h-1.95v-13.56h1.95Z"/>
        <path class="cls-4" d="m288.56,124.6v2.34c0,1.46-.26,2.84-.79,4.15-.53,1.31-1.27,2.45-2.21,3.43-.95.98-2.04,1.72-3.29,2.22l-1.04-1.56c1.11-.43,2.1-1.07,2.97-1.91.87-.84,1.54-1.81,2.03-2.91.49-1.1.73-2.24.73-3.42v-2.34h1.61Zm-1.59,13.92v6.22h-1.95v-6.22h1.95Zm13.32,5.46v1.61h-15.28v-1.61h15.28Zm-11.4-19.39v2.34c0,1.13.24,2.22.73,3.27.49,1.05,1.16,1.97,2.03,2.76.87.79,1.86,1.39,2.97,1.81l-1.04,1.56c-1.23-.49-2.32-1.19-3.27-2.12-.95-.93-1.68-2.02-2.21-3.27-.53-1.25-.79-2.58-.79-4.01v-2.34h1.59Zm10.67-1.22v16.65h-1.95v-16.65h1.95Z"/>
        <path class="cls-4" d="m313.12,130.41c-.87,1.62-2.09,3.04-3.68,4.24-1.59,1.21-3.46,2.17-5.61,2.9l-.83-1.59c2.86-.95,5.14-2.32,6.83-4.09,1.69-1.77,2.54-3.76,2.54-5.99v-.78h2.06c0,1.91-.43,3.67-1.3,5.3Zm.52-5.3v1.61h-9.5v-1.61h9.5Zm-4.66,13.35v6.3h-1.98v-6.3h1.98Zm12.93,5.52v1.61h-14.91v-1.61h14.91Zm-2.13-13.58v1.64h-5.41v-1.64h5.41Zm1.56-7.05v16.84h-1.95v-16.84h1.95Z"/>
        <path class="cls-4" d="m333.06,132.44c-1.87,2.07-4.48,3.6-7.81,4.59l-.83-1.59c2.93-.87,5.23-2.13,6.88-3.8,1.66-1.67,2.49-3.58,2.49-5.75v-.86h2.08c0,2.86-.94,5.33-2.81,7.4Zm1.82-7.4v1.61h-9.47v-1.61h9.47Zm3.93,12.79c1.11.36,1.96.86,2.56,1.52.6.66.9,1.44.9,2.34s-.3,1.68-.9,2.34c-.6.66-1.45,1.16-2.56,1.51-1.11.35-2.41.52-3.9.52s-2.82-.17-3.93-.52c-1.11-.35-1.96-.85-2.56-1.51-.6-.66-.9-1.44-.9-2.34s.3-1.68.9-2.34c.6-.66,1.45-1.17,2.56-1.52,1.11-.36,2.42-.53,3.93-.53s2.79.18,3.9.53Zm-6.78,1.37c-.82.23-1.46.55-1.91.98-.45.43-.68.93-.68,1.52s.23,1.07.68,1.5c.45.43,1.09.75,1.91.98.82.23,1.78.34,2.88.34s2.05-.11,2.88-.34c.82-.23,1.46-.55,1.91-.98.45-.43.68-.92.68-1.5s-.22-1.1-.66-1.52c-.44-.43-1.08-.75-1.9-.98-.82-.23-1.79-.34-2.9-.34s-2.05.11-2.88.34Zm9.98-15.85v13.66h-1.95v-13.66h1.95Zm3.41,5.96v1.64h-3.96v-1.64h3.96Z"/>
      </g>
      <rect class="cls-5" x="0" y="432.69" width="384.73" height="1.86"/>
      <rect class="cls-5" x="0" y="494.6" width="405.07" height="1.86"/>
    </g>
  </g>
</svg>