<?xml version="1.0" encoding="UTF-8"?>
<svg id="_레이어_2" data-name="레이어 2" xmlns="http://www.w3.org/2000/svg" xmlns:xlink="http://www.w3.org/1999/xlink" viewBox="0 0 462 446">
  <defs>
    <style>
      .cls-1 {
        fill: #ef812c;
      }

      .cls-1, .cls-2, .cls-3, .cls-4, .cls-5, .cls-6, .cls-7 {
        stroke-width: 0px;
      }

      .cls-2 {
        fill: #1d1c1a;
      }

      .cls-3 {
        fill: #808285;
      }

      .cls-4 {
        fill: #fff;
        filter: url(#drop-shadow-1);
      }

      .cls-6 {
        fill: #231f20;
      }

      .cls-7 {
        fill: #414042;
      }
    </style>
    <filter id="drop-shadow-1" filterUnits="userSpaceOnUse">
      <feOffset dx="5.8" dy="5.8"/>
      <feGaussianBlur result="blur" stdDeviation="4.14"/>
      <feFlood flood-color="#000" flood-opacity=".15"/>
      <feComposite in2="blur" operator="in"/>
      <feComposite in="SourceGraphic"/>
    </filter>
  </defs>
  <g id="Layer_1" data-name="Layer 1">
    <g>
      <rect class="cls-4" x="7.22" y="7.1" width="435.6" height="420.25"/>
      <g>
        <path class="cls-1" d="m70.53,179.32v-25.06h10.64v10.01h2.41v-10.34h3.93v26.88h-3.93v-12.96h-2.41v11.47h-10.64Zm6.73-21.58h-2.83v18.09h2.83v-18.09Zm11.86,23.39v-27.36h3.96v27.36h-3.96Z"/>
        <path class="cls-1" d="m96.36,170.11h24.32v3.58h-5.01v7.75h-4.02v-7.75h-6.17v7.75h-3.99v-7.75h-5.13v-3.58Zm5.45-6.68h17.64v3.58h-21.72v-13.08h4.08v9.51Z"/>
        <path class="cls-1" d="m133.26,154.11h13.62v13.5h-13.62v-13.5Zm11.83,24.26c-1.97,1.88-5.78,2.89-11,3.07v-3.52c4.44-.12,7.96-1.07,8.76-3.19h-8.02v-3.49h8.19v-2.41h4.08v2.41h8.34v3.49h-8.16c.8,2.12,4.35,3.07,8.79,3.19v3.52c-5.22-.18-9.03-1.19-11-3.07Zm-7.84-20.77v6.56h5.63v-6.56h-5.63Zm14.13,11.5v-15.32h4.08v15.32h-4.08Z"/>
        <path class="cls-1" d="m168.58,167.19h24.62v3.55h-9.98v4.74h-4.05v-4.74h-10.58v-3.55Zm1.25-7.66c0-1.67.63-2.89,1.7-3.75,2.03-1.58,5.54-2,9.39-2s7.36.42,9.39,2c1.07.86,1.7,2.09,1.7,3.75s-.63,2.86-1.7,3.73c-2.03,1.58-5.51,2-9.39,2s-7.36-.42-9.39-2c-1.07-.86-1.7-2.09-1.7-3.73Zm4.56,18.15h17.55v3.58h-21.64v-8.25h4.08v4.68Zm-.48-18.15c0,.57.24.98.71,1.31,1.07.77,3.25,1.01,6.29,1.01s5.25-.24,6.29-1.01c.48-.33.71-.75.71-1.31,0-.6-.24-1.01-.71-1.34-1.04-.77-3.25-1.01-6.29-1.01s-5.21.24-6.29,1.01c-.48.33-.71.75-.71,1.34Z"/>
        <path class="cls-1" d="m195.44,160.99c0-2.53.83-4.47,2.29-5.75,1.22-1.04,2.89-1.61,4.89-1.61s3.67.57,4.89,1.61c.33.3.63.63.89.98h5.48v-2.44h4.08v15.94h-4.08v-3.96h-5.48c-.27.36-.57.69-.89.95-1.22,1.07-2.89,1.64-4.89,1.64s-3.67-.57-4.89-1.64c-1.46-1.25-2.29-3.22-2.29-5.72Zm1.61,14.75c0-1.97,1.01-3.37,2.53-4.29,2.15-1.31,5.3-1.7,8.23-1.7s6.11.39,8.22,1.7c1.55.92,2.56,2.32,2.56,4.29s-1.01,3.4-2.56,4.32c-2.12,1.28-5.27,1.67-8.22,1.67s-6.08-.39-8.23-1.67c-1.52-.92-2.53-2.35-2.53-4.32Zm2.38-14.75c0,1.34.36,2.35,1.01,3.01.54.57,1.28.83,2.18.83s1.61-.27,2.18-.83c.66-.66,1.01-1.67,1.01-3.01s-.36-2.35-1.01-3.04c-.57-.54-1.28-.83-2.18-.83s-1.64.3-2.18.83c-.66.68-1.01,1.7-1.01,3.04Zm1.7,14.75c0,.69.36,1.16,1.01,1.55,1.28.72,3.55.95,5.66.95s4.41-.24,5.69-.95c.63-.39,1.01-.86,1.01-1.55s-.39-1.13-1.01-1.52c-1.28-.75-3.55-.95-5.69-.95s-4.38.21-5.66.95c-.66.39-1.01.86-1.01,1.52Zm8.58-16.06c.06.42.09.86.09,1.31,0,.48-.03.92-.09,1.34h4.17v-2.65h-4.17Z"/>
        <path class="cls-1" d="m236.69,165.82h17.64v3.58h-8.85v7h10.07v3.55h-24.32v-3.55h10.19v-7h-8.82v-15.29h4.08v11.71Z"/>
        <path class="cls-1" d="m272.67,156.64v3.55h-15.56v-3.55h5.72v-3.67h4.08v3.67h5.75Zm-14.45,14.13c0-3.7.92-6.53,2.95-7.99,1.04-.75,2.29-1.13,3.87-1.13s2.83.39,3.84,1.13c2.06,1.46,2.98,4.29,2.98,7.99s-.92,6.56-2.98,8.02c-1.01.71-2.29,1.1-3.84,1.1s-2.83-.39-3.87-1.1c-2.03-1.46-2.95-4.32-2.95-8.02Zm4.05,0c0,2.53.3,4.2,1.22,5.04.39.36.89.54,1.55.54s1.13-.18,1.52-.54c.92-.83,1.25-2.5,1.25-5.04s-.33-4.2-1.25-5.04c-.39-.36-.89-.54-1.52-.54s-1.16.18-1.55.54c-.92.83-1.22,2.53-1.22,5.04Zm17.43-6.14h4.11v3.52h-4.11v12.99h-4.08v-27.36h4.08v10.85Z"/>
        <path class="cls-1" d="m284.84,170.92h24.32v3.55h-10.16v7.12h-4.08v-7.12h-10.07v-3.55Zm.8-9.89c0-2.56,1.19-4.59,3.13-5.69,2.24-1.22,4.86-1.52,8.25-1.52s6.02.3,8.25,1.52c1.94,1.1,3.13,3.13,3.13,5.69s-1.19,4.59-3.13,5.66c-2.24,1.25-4.83,1.55-8.25,1.55s-6.02-.3-8.25-1.55c-1.94-1.07-3.13-3.13-3.13-5.66Zm4.08,0c0,1.13.45,2.15,1.31,2.68,1.19.75,3.1.95,5.99.95s4.83-.21,5.99-.95c.86-.54,1.31-1.55,1.31-2.68s-.45-2.15-1.31-2.68c-1.16-.77-3.1-.95-5.99-.95s-4.8.18-5.99.95c-.86.54-1.31,1.52-1.31,2.68Z"/>
        <path class="cls-1" d="m329.91,164.45v11.95h2.83v-11.95h4.08v11.95h8.52v3.55h-24.32v-3.55h4.8v-11.95h4.08Zm9.98-6.62h-17.64v-3.58h21.72v9.66c0,3.07-.27,6.35-.74,8.7h-4.05c.42-2.21.72-5.27.72-7.84v-6.94Z"/>
        <path class="cls-1" d="m347.31,166.03h24.62v3.46h-5.51v2.95h3.78v9.15h-4.08v-5.66h-17.25v-3.49h3.96v-2.95h-5.51v-3.46Zm1.25-6.71c0-1.58.66-2.8,1.88-3.67,1.88-1.34,5.1-1.88,9.21-1.88s7.33.54,9.21,1.88c1.22.86,1.88,2.09,1.88,3.67s-.66,2.8-1.88,3.67c-1.88,1.34-5.1,1.88-9.21,1.88s-7.33-.54-9.21-1.88c-1.22-.86-1.88-2.06-1.88-3.67Zm4.08,0c0,.51.3.92.86,1.25,1.16.66,3.43.89,6.14.89s4.98-.24,6.17-.89c.54-.33.83-.74.83-1.25s-.3-.92-.83-1.25c-1.19-.66-3.46-.89-6.17-.89s-4.98.24-6.14.89c-.57.33-.86.75-.86,1.25Zm9.74,10.16h-5.54v2.95h5.54v-2.95Z"/>
      </g>
      <g>
        <path class="cls-6" d="m173.86,231.41c1.1-.52,2.17-.78,3.2-.78,1.54,0,2.92.34,4.13,1.01,1.21.67,2.15,1.61,2.83,2.8.67,1.19,1.01,2.56,1.01,4.11s-.33,2.96-1,4.17c-.66,1.21-1.6,2.17-2.81,2.87-1.21.7-2.6,1.04-4.16,1.04-1.2,0-2.33-.26-3.39-.78-1.06-.52-1.96-1.24-2.7-2.17-.74-.93-1.24-1.98-1.49-3.15l2.6-.63c.26,1.21.85,2.2,1.78,2.96.93.76,2,1.14,3.2,1.14,1.01,0,1.91-.23,2.71-.7.8-.46,1.43-1.11,1.9-1.95.46-.84.69-1.78.69-2.82s-.23-1.96-.69-2.77c-.46-.81-1.09-1.44-1.9-1.89-.8-.45-1.71-.68-2.71-.68-.66,0-1.36.18-2.09.55-.73.36-1.33.83-1.8,1.41l-1.99-1.79c.68-.8,1.58-1.45,2.68-1.97Zm-3.36,3.36l.74-12.49h11.89v2.45h-9.32l-.64,10.43-2.67-.4Z"/>
        <path class="cls-6" d="m198.21,221.49c1.12.55,2.01,1.32,2.65,2.3.64.98.96,2.1.96,3.36s-.32,2.35-.95,3.33c-.63.98-1.52,1.75-2.65,2.3-1.14.55-2.39.83-3.76.83s-2.67-.28-3.77-.83c-1.1-.55-1.97-1.31-2.6-2.29-.63-.97-.95-2.09-.95-3.35s.32-2.38.95-3.36c.63-.98,1.5-1.75,2.62-2.3,1.11-.55,2.36-.83,3.73-.83s2.65.28,3.77.83Zm-6.14,2.04c-.7.34-1.25.83-1.65,1.46-.41.63-.61,1.34-.61,2.14s.2,1.54.61,2.17c.41.63.96,1.12,1.65,1.46.7.34,1.49.51,2.39.51s1.67-.17,2.38-.51c.71-.34,1.26-.83,1.67-1.46.41-.63.61-1.35.61-2.17s-.2-1.51-.61-2.14c-.41-.63-.96-1.11-1.67-1.46-.71-.34-1.5-.51-2.38-.51s-1.7.17-2.39.51Zm17.65,12.37v7.19h-15.58v4.27h-2.67v-6.39h15.48v-2.78h-15.58v-2.29h18.34Zm.93,10.23v2.25h-19.18v-2.25h19.18Zm-.93-26.5v14.87h-2.79v-14.87h2.79Z"/>
        <path class="cls-6" d="m232.44,232.69h8.1v2.72h-8.1v8.31h-2.6v-8.31h-8.1v-2.72h8.1v-8.35h2.6v8.35Z"/>
        <path class="cls-6" d="m272.76,221.86c2.18,1.32,3.92,3.12,5.2,5.38,1.29,2.26,1.93,4.73,1.93,7.4,0,1.17-.19,2.2-.56,3.1-.38.89-.87,1.6-1.49,2.1-.51.46-1.09.8-1.72,1.01-.63.21-1.18.31-1.65.31s-.98-.08-1.46-.23c-.48-.15-.93-.36-1.33-.63-.41-.27-.76-.56-1.06-.89-.64,1.04-1.45,1.85-2.43,2.43-.98.59-2.02.88-3.13.88-1.31,0-2.48-.33-3.53-.98-1.05-.65-1.87-1.55-2.46-2.68-.59-1.14-.88-2.42-.88-3.86s.29-2.76.88-3.91c.59-1.15,1.41-2.04,2.46-2.67,1.05-.63,2.23-.94,3.53-.94.79,0,1.55.15,2.28.45.73.3,1.4.75,2.02,1.34v-1.62h2.51v8.38c0,.35.1.71.29,1.08.19.36.48.67.87.93.39.25.85.38,1.38.38.26,0,.54-.06.84-.17.3-.11.59-.28.87-.5.36-.29.66-.7.9-1.24.24-.54.35-1.23.35-2.07,0-2.21-.52-4.23-1.57-6.08-1.05-1.84-2.48-3.31-4.29-4.39-1.81-1.08-3.76-1.62-5.86-1.62s-4.11.54-5.91,1.62c-1.8,1.08-3.22,2.55-4.27,4.4-1.05,1.85-1.57,3.88-1.57,6.06s.52,4.2,1.57,6.04c1.05,1.84,2.48,3.31,4.29,4.4,1.81,1.09,3.77,1.64,5.89,1.64s4.08-.56,5.94-1.69l1.32,2.29c-2.21,1.37-4.63,2.05-7.26,2.05s-4.98-.66-7.18-1.99c-2.2-1.32-3.94-3.11-5.22-5.37-1.29-2.25-1.93-4.71-1.93-7.39s.64-5.14,1.93-7.4c1.29-2.26,3.02-4.06,5.22-5.38s4.58-1.99,7.15-1.99,4.98.66,7.16,1.99Zm-5.56,17.69c.66-.44,1.19-1.04,1.59-1.81.4-.76.59-1.61.59-2.53s-.2-1.81-.59-2.58c-.4-.77-.93-1.37-1.61-1.81-.67-.43-1.4-.65-2.17-.65-.86,0-1.62.22-2.28.65-.66.43-1.18,1.03-1.56,1.79-.38.76-.56,1.63-.56,2.6s.19,1.8.56,2.57c.37.76.89,1.36,1.56,1.79.66.43,1.42.65,2.28.65.79,0,1.52-.22,2.18-.66Z"/>
      </g>
      <g>
        <path class="cls-7" d="m141.03,305.24c.53.48.94,1.16,1.22,2.04s.42,1.92.42,3.11-.14,2.25-.42,3.13c-.28.88-.69,1.56-1.22,2.04s-1.15.71-1.85.71-1.31-.24-1.83-.71c-.52-.48-.92-1.16-1.2-2.05-.28-.89-.42-1.93-.42-3.12s.14-2.23.42-3.11.68-1.56,1.2-2.04c.52-.48,1.13-.71,1.83-.71s1.32.24,1.85.71Zm-2.91,1.34c-.3.34-.53.84-.69,1.49-.16.65-.24,1.42-.24,2.32s.08,1.68.24,2.32c.16.65.39,1.15.69,1.49.3.35.66.52,1.08.52s.76-.17,1.07-.52c.31-.35.54-.85.7-1.49.16-.65.24-1.42.24-2.32s-.08-1.68-.24-2.32c-.16-.65-.39-1.14-.7-1.49s-.66-.51-1.07-.51-.78.17-1.08.51Zm6.99.57v1.35h-3.1v-1.35h3.1Zm0,5.12v1.35h-3.1v-1.35h3.1Zm1.03-8.76v15.56h-1.51v-15.56h1.51Zm3.21-.36v16.76h-1.53v-16.76h1.53Z"/>
        <path class="cls-7" d="m153.75,304.58v4.36h4.53v-4.36h1.57v11.33h-7.7v-11.33h1.61Zm0,9.98h4.53v-4.32h-4.53v4.32Zm10.81-11.43v16.82h-1.59v-16.82h1.59Z"/>
        <path class="cls-7" d="m176.29,304.74v1.33c0,1-.19,1.96-.56,2.86-.38.9-.91,1.69-1.59,2.37-.68.68-1.48,1.19-2.37,1.53l-.83-1.31c.8-.29,1.51-.72,2.12-1.28.62-.56,1.09-1.2,1.42-1.92s.5-1.47.5-2.25v-1.33h1.31Zm3.82-.53v1.33h-8.7v-1.33h8.7Zm4.17,9.54v5.96h-10.58v-5.96h10.58Zm-9.01,1.31v3.31h7.46v-3.31h-7.46Zm1.31-10.32v1.31c0,.71.16,1.4.48,2.08.32.67.78,1.27,1.39,1.8.6.53,1.29.93,2.05,1.21l-.81,1.31c-.89-.33-1.66-.82-2.33-1.46-.66-.64-1.17-1.39-1.52-2.25-.35-.86-.53-1.75-.53-2.69v-1.31h1.27Zm6.54,2.59v1.35h-3.55v-1.35h3.55Zm1.16-4.15v9.77h-1.61v-9.77h1.61Z"/>
        <path class="cls-7" d="m201.15,312.68v1.35h-14.7v-1.35h14.7Zm-6.87-7.83v.69c0,.97-.29,1.85-.87,2.66-.58.81-1.35,1.49-2.33,2.04-.97.55-2.03.92-3.18,1.11l-.61-1.33c.98-.14,1.91-.43,2.77-.87s1.55-.97,2.06-1.61c.51-.63.77-1.3.77-2v-.69h1.39Zm5.45-.65v1.33h-11.91v-1.33h11.91Zm-5.17,9.37v6.36h-1.59v-6.36h1.59Zm.13-8.72v.69c0,.7.26,1.37.79,2,.52.63,1.21,1.17,2.06,1.61s1.77.73,2.75.87l-.61,1.33c-1.13-.19-2.19-.56-3.17-1.11-.98-.55-1.76-1.23-2.34-2.04-.58-.81-.87-1.69-.87-2.66v-.69h1.39Z"/>
        <path class="cls-7" d="m204.28,304.13v6.84h-1.59v-6.84h1.59Zm3.74,5.76c1.23-.12,2.45-.31,3.69-.58l.24,1.37c-1.31.27-2.59.46-3.85.58-1.26.12-2.62.18-4.07.18h-1.33v-1.37h1.33c1.44,0,2.77-.06,4-.18Zm6.99,3.53v6.27h-10.53v-6.27h10.53Zm-8.96,1.33v3.6h7.41v-3.6h-7.41Zm8.96-11.6v9.48h-1.59v-9.48h1.59Z"/>
        <path class="cls-7" d="m223.75,305.15c.63.48,1.12,1.17,1.47,2.06.35.89.53,1.92.53,3.09s-.18,2.22-.53,3.1c-.35.89-.84,1.57-1.47,2.06-.63.48-1.34.72-2.14.72s-1.53-.24-2.16-.72-1.12-1.17-1.47-2.06c-.35-.89-.53-1.92-.53-3.09s.18-2.22.53-3.1c.35-.89.84-1.57,1.47-2.06.63-.48,1.35-.72,2.16-.72s1.51.24,2.14.72Zm-3.51,1.3c-.39.36-.7.87-.91,1.52s-.32,1.43-.32,2.33.11,1.64.32,2.3c.22.66.52,1.17.91,1.52.39.36.85.53,1.37.53s.94-.18,1.34-.53c.4-.36.71-.87.92-1.53.22-.67.32-1.44.32-2.31s-.11-1.64-.32-2.3c-.22-.66-.52-1.17-.92-1.53-.4-.36-.85-.54-1.34-.54-.52,0-.97.18-1.37.54Zm9.94-3.32v16.82h-1.59v-16.82h1.59Z"/>
        <path class="cls-7" d="m242.03,310.77c1.71-.06,3.33-.19,4.86-.38l.11,1.16c-1.55.27-3.15.44-4.8.52-1.65.08-3.5.13-5.54.14l-.24-1.35c2.03,0,3.9-.03,5.62-.1Zm1.75-6.57c.6.24,1.07.58,1.41,1.03.34.44.51.96.51,1.54s-.17,1.1-.5,1.53-.8.78-1.4,1.02c-.6.24-1.31.36-2.11.36s-1.48-.12-2.09-.35c-.6-.23-1.07-.57-1.41-1.02-.34-.44-.51-.96-.51-1.54s.17-1.1.51-1.54c.34-.44.81-.79,1.41-1.03.6-.24,1.3-.36,2.09-.36s1.48.12,2.09.36Zm-3.49,10.47v3.9h-1.59v-3.9h1.59Zm9.98,3.54v1.35h-11.56v-1.35h11.56Zm-10.37-12.7c-.46.3-.69.72-.69,1.24s.23.92.69,1.23c.46.31,1.06.47,1.8.47s1.35-.16,1.8-.47c.45-.31.67-.72.67-1.23s-.23-.93-.67-1.24c-.45-.3-1.05-.46-1.8-.46s-1.34.15-1.8.46Zm2.78,6.11v3.69h-1.61v-3.69h1.61Zm5.98,1.41v1.18h-3.66v-1.18h3.66Zm1.2-9.88v12.74h-1.59v-12.74h1.59Z"/>
        <path class="cls-7" d="m261.52,305.8v1.35h-9.61v-1.35h9.61Zm-2.7,3.19c.6.32,1.08.78,1.42,1.36.34.58.52,1.25.52,2s-.18,1.42-.53,2.01c-.35.59-.83,1.05-1.42,1.37s-1.27.49-2.02.49-1.45-.16-2.06-.49c-.61-.32-1.08-.78-1.42-1.37-.34-.59-.51-1.26-.51-2.01s.17-1.4.51-1.99c.34-.59.81-1.05,1.42-1.37.61-.32,1.29-.49,2.04-.49s1.45.16,2.05.49Zm-3.31,1.19c-.37.22-.66.51-.87.89-.21.37-.31.81-.31,1.3s.1.91.3,1.29c.2.38.49.67.87.89.38.22.79.32,1.25.32.48,0,.91-.11,1.27-.32.37-.22.66-.51.87-.89.21-.37.31-.8.31-1.29s-.1-.93-.31-1.31c-.21-.38-.5-.68-.87-.89-.37-.21-.79-.31-1.27-.31-.46,0-.87.11-1.24.32Zm2.05-6.8v3.03h-1.63v-3.03h1.63Zm6.98-.21v16.76h-1.61v-16.76h1.61Zm2.62,6.84v1.37h-2.99v-1.37h2.99Z"/>
        <path class="cls-7" d="m273.92,303.63v1.26c0,1.04-.19,2.01-.57,2.91-.38.9-.92,1.69-1.62,2.36-.7.67-1.51,1.19-2.45,1.54l-.76-1.33c.8-.29,1.51-.71,2.13-1.27.62-.55,1.1-1.19,1.44-1.92.34-.73.51-1.5.51-2.29v-1.26h1.31Zm7.85,9.01v4.09h-8.96v2.23h-1.57v-3.45h8.94v-1.58h-8.96v-1.29h10.55Zm.54,5.79v1.33h-11.06v-1.33h11.06Zm-8.09-14.8v1.26c0,.77.17,1.5.51,2.19.34.69.81,1.29,1.42,1.82.61.53,1.32.92,2.13,1.17l-.79,1.3c-.91-.33-1.71-.81-2.4-1.44-.69-.63-1.23-1.37-1.61-2.24-.38-.86-.57-1.8-.57-2.8v-1.26h1.31Zm7.54-.46v8.63h-1.59v-8.63h1.59Z"/>
        <path class="cls-7" d="m295.56,308.28c-.6,1.16-1.46,2.15-2.59,2.97-1.13.83-2.48,1.48-4.05,1.96l-.65-1.31c1.37-.41,2.54-.94,3.51-1.61.97-.67,1.71-1.43,2.22-2.29.5-.86.76-1.81.76-2.84v-.74h1.7c0,1.42-.3,2.71-.9,3.87Zm.3-3.87v1.33h-6.74v-1.33h6.74Zm3.17,9.32c.81.26,1.43.64,1.87,1.12.44.49.66,1.07.66,1.74s-.22,1.23-.66,1.72c-.44.49-1.06.86-1.87,1.12-.81.26-1.76.39-2.85.39s-2.05-.13-2.86-.39c-.81-.26-1.44-.63-1.88-1.11-.44-.48-.66-1.06-.66-1.73s.22-1.25.66-1.74c.44-.49,1.06-.86,1.87-1.12.81-.26,1.76-.39,2.87-.39s2.05.13,2.85.39Zm-4.88,1.14c-.57.15-1.01.37-1.32.67-.31.3-.46.65-.46,1.06s.15.76.46,1.05c.31.29.75.51,1.33.67.58.15,1.25.23,2.01.23s1.45-.08,2.02-.23c.57-.15,1.01-.37,1.32-.67.31-.29.46-.64.46-1.05,0-.61-.34-1.09-1.02-1.43-.68-.34-1.61-.51-2.79-.51-.78,0-1.45.07-2.02.22Zm5.88-5.19v1.33h-4.32v-1.33h4.32Zm.09-3.49v1.33h-4.29v-1.33h4.29Zm1.35-3.05v10.02h-1.61v-10.02h1.61Z"/>
        <path class="cls-7" d="m318.36,312.73v1.35h-14.72v-1.35h14.72Zm-4.41-8.45c.86.3,1.53.73,2.01,1.29.48.56.72,1.21.72,1.94s-.24,1.4-.72,1.95c-.48.55-1.15.98-2.01,1.28-.86.3-1.86.45-2.99.45s-2.12-.15-2.98-.45c-.87-.3-1.54-.73-2.01-1.29-.47-.56-.71-1.21-.71-1.94s.24-1.4.71-1.96c.47-.56,1.14-.98,2-1.28.86-.29,1.86-.44,2.99-.44s2.13.15,2.99.45Zm-5.13,1.15c-.62.19-1.1.46-1.43.82-.33.36-.5.77-.5,1.26s.17.9.5,1.25c.33.35.81.62,1.43.82.62.2,1.33.3,2.13.3s1.51-.1,2.13-.3c.62-.2,1.1-.47,1.44-.82.34-.35.51-.76.51-1.25s-.17-.9-.51-1.26c-.34-.35-.82-.63-1.44-.82-.62-.19-1.33-.29-2.13-.29s-1.51.1-2.13.29Zm2.93,8.13v6.36h-1.59v-6.36h1.59Z"/>
        <path class="cls-7" d="m154.03,341.12c.57.45,1.19.68,1.87.7.9.01,1.61-.2,2.14-.65.53-.44.79-1.03.79-1.77,0-.52-.14-.95-.41-1.29-.27-.34-.61-.61-1.01-.81-.4-.2-.95-.44-1.63-.7-.84-.32-1.52-.62-2.03-.89s-.95-.68-1.3-1.2c-.35-.52-.53-1.18-.53-1.98,0-.74.18-1.36.54-1.89.36-.52.86-.92,1.51-1.2.64-.28,1.36-.41,2.16-.4.63.03,1.2.15,1.72.37.52.22.97.56,1.37,1.02.39.46.7,1.02.91,1.68l-1.39.5c-.2-.66-.53-1.18-1-1.56-.47-.38-1.01-.58-1.63-.61-.5,0-.96.08-1.37.25-.41.17-.72.41-.95.72-.23.32-.34.7-.34,1.14,0,.5.13.91.4,1.24.26.33.6.6,1.01.82.41.22.95.46,1.63.72.85.32,1.53.62,2.03.9.5.29.94.69,1.3,1.2.36.51.54,1.18.54,1.99,0,.76-.19,1.43-.55,2.01-.37.58-.89,1.02-1.56,1.33-.67.31-1.46.46-2.37.45-.95-.03-1.8-.3-2.57-.84-.76-.53-1.43-1.31-2-2.32l1.31-.72c.37.75.84,1.35,1.4,1.8Z"/>
        <path class="cls-7" d="m164.76,341.64h6.28v1.41h-7.83v-13.86h1.55v12.45Z"/>
        <path class="cls-7" d="m173.48,329.19h1.55v6h3.49c.5,0,.91.05,1.21.16.3.11.62.27.95.49.52.34.94.83,1.27,1.45.33.62.5,1.25.5,1.89,0,.74-.16,1.4-.47,1.99-.31.59-.75,1.05-1.31,1.39-.56.34-1.2.5-1.91.5h-5.28v-13.86Zm5.86,5.34c.36-.41.54-.94.54-1.57,0-.69-.21-1.25-.63-1.7-.42-.44-.95-.67-1.61-.67h-4.17v-1.41h4.21c.71,0,1.35.16,1.9.49.55.32.99.77,1.31,1.34.32.57.48,1.22.48,1.94,0,.5-.13,1.01-.4,1.53-.27.53-.6.96-1.01,1.3l-2.05-.61c.58-.03,1.05-.24,1.41-.66Zm.97,6.43c.42-.46.63-1.05.63-1.77,0-.77-.21-1.4-.63-1.88-.42-.48-.95-.71-1.61-.71h-3.68v5.05h3.68c.65,0,1.19-.23,1.61-.69Z"/>
        <path class="cls-7" d="m202.37,336.78v1.35h-14.69v-1.35h14.69Zm-11.19,2.65v3.75h-1.61v-3.75h1.61Zm9.57,3.31v1.35h-11.18v-1.35h11.18Zm-9.53-14.42v2.02h7.65v-2.02h1.61v6.7h-10.84v-6.7h1.59Zm0,5.41h7.65v-2.08h-7.65v2.08Zm4.6.55v3.07h-1.59v-3.07h1.59Z"/>
        <path class="cls-7" d="m208.37,329.11v2.91c0,1.24-.19,2.45-.57,3.63-.38,1.17-.91,2.22-1.6,3.13-.68.91-1.46,1.61-2.34,2.09l-.98-1.33c.8-.41,1.52-1.01,2.15-1.8.63-.79,1.13-1.69,1.49-2.7.36-1.01.54-2.02.54-3.02v-2.91h1.31Zm.28,0v2.91c0,.96.18,1.93.53,2.89.35.96.84,1.83,1.46,2.59.62.76,1.32,1.34,2.1,1.73l-.98,1.29c-.85-.46-1.61-1.12-2.28-2-.67-.88-1.19-1.88-1.56-3.01-.37-1.13-.55-2.3-.55-3.5v-2.91h1.29Zm7-1.43v16.76h-1.61v-16.76h1.61Zm2.64,6.72v1.39h-3.01v-1.39h3.01Z"/>
        <path class="cls-7" d="m228.35,329.4v1.31c0,1.02-.19,1.97-.56,2.86-.38.89-.91,1.67-1.6,2.33-.69.67-1.49,1.16-2.4,1.5l-.83-1.28c.81-.29,1.53-.71,2.14-1.27.62-.55,1.09-1.19,1.42-1.9.33-.72.5-1.46.5-2.24v-1.31h1.33Zm3.92-.57v1.33h-8.89v-1.33h8.89Zm3.84,9.85v5.77h-1.61v-4.42h-9.27v-1.35h10.88Zm-7.46-9.27v1.31c0,.72.17,1.43.52,2.1s.82,1.28,1.43,1.8c.61.52,1.32.91,2.13,1.18l-.81,1.29c-.91-.32-1.71-.79-2.4-1.42-.69-.63-1.22-1.37-1.6-2.22s-.56-1.76-.56-2.74v-1.31h1.29Zm7.46-1.73v10.13h-1.61v-10.13h1.61Z"/>
        <path class="cls-7" d="m244.74,329.15c.65.34,1.15.82,1.52,1.44.36.62.54,1.31.54,2.09s-.18,1.46-.54,2.07c-.36.6-.87,1.07-1.51,1.41-.64.34-1.35.5-2.14.5s-1.51-.17-2.15-.5c-.65-.34-1.15-.81-1.51-1.42-.36-.61-.54-1.29-.54-2.06s.18-1.47.54-2.09c.36-.62.87-1.1,1.51-1.44.65-.34,1.36-.51,2.15-.51s1.49.17,2.13.51Zm-3.52,1.24c-.41.22-.72.52-.95.92-.23.4-.34.85-.34,1.34s.11.96.34,1.34c.23.39.54.69.95.9.41.22.87.32,1.39.32s.98-.11,1.38-.32c.4-.22.71-.52.93-.91.22-.39.33-.84.33-1.35s-.11-.92-.33-1.32c-.22-.4-.54-.71-.94-.92-.41-.22-.86-.32-1.37-.32s-.98.11-1.39.32Zm8.95,8.44c.97.57,1.45,1.36,1.45,2.36s-.48,1.81-1.45,2.37c-.97.56-2.29.85-3.98.85s-3.01-.29-3.98-.86c-.97-.57-1.45-1.36-1.45-2.36s.48-1.79,1.45-2.36c.97-.57,2.29-.86,3.98-.86s3.01.29,3.98.86Zm-6.04.67c-.57.15-1.02.37-1.33.66-.31.29-.47.63-.47,1.02s.16.76.47,1.05.76.52,1.33.68c.57.16,1.26.24,2.06.24s1.49-.08,2.07-.24c.58-.16,1.02-.38,1.33-.68.31-.29.46-.64.46-1.05s-.15-.73-.46-1.02c-.31-.29-.75-.5-1.33-.66-.58-.15-1.27-.23-2.07-.23s-1.49.08-2.06.23Zm6.33-9.41v1.33h-4.93v-1.33h4.93Zm0,3.83v1.35h-4.93v-1.35h4.93Zm1.11-6.23v9.88h-1.61v-9.88h1.61Z"/>
        <path class="cls-7" d="m258.99,329.24v1.33c0,1-.19,1.96-.56,2.86-.38.9-.91,1.69-1.59,2.37-.68.68-1.48,1.19-2.37,1.53l-.83-1.31c.8-.29,1.51-.72,2.12-1.28.62-.56,1.09-1.2,1.42-1.92.33-.72.5-1.47.5-2.25v-1.33h1.31Zm3.82-.53v1.33h-8.7v-1.33h8.7Zm4.17,9.54v5.96h-10.58v-5.96h10.58Zm-9.01,1.31v3.31h7.46v-3.31h-7.46Zm1.31-10.32v1.31c0,.71.16,1.4.48,2.08.32.67.78,1.27,1.39,1.8.6.53,1.29.93,2.05,1.21l-.81,1.31c-.89-.33-1.66-.82-2.33-1.46-.66-.64-1.17-1.39-1.52-2.25-.35-.86-.53-1.75-.53-2.69v-1.31h1.27Zm6.54,2.59v1.35h-3.55v-1.35h3.55Zm1.16-4.15v9.77h-1.61v-9.77h1.61Z"/>
        <path class="cls-7" d="m274.55,329.75c.53.48.94,1.16,1.22,2.04s.42,1.92.42,3.11-.14,2.25-.42,3.13c-.28.88-.69,1.56-1.22,2.04s-1.15.71-1.85.71-1.31-.24-1.83-.71-.92-1.16-1.2-2.05c-.28-.89-.42-1.93-.42-3.12s.14-2.23.42-3.11.68-1.56,1.2-2.04c.52-.48,1.13-.71,1.83-.71s1.32.24,1.85.71Zm-2.91,1.34c-.3.34-.53.84-.69,1.49-.16.65-.24,1.42-.24,2.32s.08,1.68.24,2.32c.16.65.39,1.15.69,1.49.3.35.66.52,1.08.52s.76-.17,1.06-.52c.3-.35.54-.85.7-1.49.17-.65.25-1.42.25-2.32s-.08-1.68-.25-2.32c-.17-.65-.4-1.14-.7-1.49-.3-.34-.66-.51-1.06-.51s-.78.17-1.08.51Zm7.01,3.05v1.35h-3.01v-1.35h3.01Zm.98-6.11v15.56h-1.51v-15.56h1.51Zm3.25-.36v16.76h-1.53v-16.76h1.53Z"/>
        <path class="cls-7" d="m290.19,329.09v2.93c0,1.24-.19,2.46-.57,3.66-.38,1.19-.91,2.24-1.6,3.15-.68.91-1.46,1.6-2.32,2.09l-1-1.33c.79-.39,1.5-.99,2.14-1.79.64-.8,1.14-1.71,1.51-2.72.36-1.02.54-2.03.54-3.05v-2.93h1.29Zm.3,0v2.93c0,1,.18,1.99.54,2.96.36.97.85,1.84,1.48,2.6.63.76,1.34,1.33,2.12,1.71l-.92,1.31c-.89-.44-1.67-1.11-2.35-1.99-.68-.88-1.21-1.89-1.59-3.04-.38-1.14-.57-2.33-.57-3.56v-2.93h1.29Zm6.87,4.21v1.35h-4.49v-1.35h4.49Zm.78-5.66v16.82h-1.57v-16.82h1.57Z"/>
        <path class="cls-7" d="m130.85,360.32v1.66h-14.85v-1.66h14.85Zm-6.78-5.71v.3c0,.88-.27,1.65-.82,2.31-.55.67-1.33,1.21-2.35,1.62-1.02.41-2.21.68-3.59.79l-.61-1.6c1.18-.08,2.19-.26,3.04-.56.84-.3,1.48-.67,1.91-1.11.43-.44.65-.93.65-1.45v-.3h1.77Zm5.32-.95v1.64h-11.93v-1.64h11.93Zm-1.8,10.42c.99.5,1.49,1.2,1.49,2.11s-.5,1.62-1.49,2.1c-.99.49-2.39.73-4.18.73s-3.2-.24-4.19-.73c-1-.49-1.5-1.19-1.5-2.1s.5-1.62,1.5-2.11c1-.5,2.4-.74,4.19-.74s3.19.25,4.18.74Zm-6.91,1.12c-.61.22-.91.55-.91.99s.31.76.92.97,1.52.32,2.72.32,2.08-.11,2.7-.32c.62-.22.92-.54.92-.97s-.3-.77-.91-.99c-.61-.22-1.51-.32-2.71-.32s-2.11.11-2.72.32Zm3.76-13.1v2.32h-2.05v-2.32h2.05Zm-.02,9.29v2.48h-2.03v-2.48h2.03Zm.11-6.78v.3c0,.52.22,1,.65,1.45.43.44,1.06.82,1.9,1.11.84.3,1.85.49,3.03.56l-.59,1.6c-1.38-.11-2.58-.38-3.59-.79-1.02-.41-1.8-.95-2.35-1.62-.55-.67-.82-1.44-.82-2.31v-.3h1.77Z"/>
        <path class="cls-7" d="m147.18,360.87v1.66h-14.89v-1.66h14.89Zm-11.08,3.2v3.64h-2.01v-3.64h2.01Zm9.44,2.95v1.69h-11.45v-1.69h11.45Zm-9.29-14.42v1.9h6.98v-1.9h2.03v6.91h-11.03v-6.91h2.01Zm0,5.26h6.98v-1.77h-6.98v1.77Zm4.67,3.88v3.69h-2.03v-3.69h2.03Z"/>
        <path class="cls-7" d="m158.04,354.7v1.68h-9.79v-1.68h9.79Zm-2.74,3.29c.63.34,1.13.81,1.49,1.41.36.6.54,1.29.54,2.07s-.18,1.46-.54,2.07c-.36.6-.85,1.07-1.49,1.41-.63.34-1.35.5-2.13.5s-1.5-.17-2.12-.5c-.63-.34-1.12-.81-1.48-1.41-.36-.6-.54-1.29-.54-2.07s.18-1.46.54-2.07c.36-.6.85-1.07,1.48-1.41.63-.34,1.34-.5,2.12-.5s1.5.17,2.13.5Zm-3.27,1.48c-.34.19-.6.46-.79.8-.19.34-.29.74-.29,1.2s.1.86.29,1.2c.19.34.46.61.79.79.34.18.72.28,1.14.28s.81-.09,1.15-.28c.33-.18.59-.45.78-.79.18-.34.28-.74.28-1.2s-.09-.86-.28-1.2c-.19-.34-.44-.61-.78-.8-.33-.19-.71-.29-1.13-.29s-.82.1-1.15.29Zm2.13-7.16v3.43h-2.03v-3.43h2.03Zm7.31-.23v16.95h-2.05v-16.95h2.05Z"/>
        <path class="cls-7" d="m182.46,365.31v1.69h-14.89v-1.69h14.89Zm-11.12-11.88v6.82h-2.03v-6.82h2.03Zm9.49,6.09v1.68h-11.53v-1.68h11.53Zm-4.82,1.01v5.27h-2.03v-5.27h2.03Z"/>
        <path class="cls-7" d="m192.03,354.67v1.68h-9.64v-1.68h9.64Zm-2.66,3.32c.63.34,1.12.81,1.47,1.41.35.6.53,1.29.53,2.07s-.18,1.46-.54,2.07c-.36.6-.85,1.07-1.47,1.41-.62.34-1.32.5-2.1.5s-1.49-.17-2.11-.5c-.62-.34-1.11-.81-1.47-1.42-.36-.61-.54-1.29-.54-2.06s.18-1.45.54-2.06c.36-.61.85-1.08,1.47-1.42.62-.34,1.32-.5,2.1-.5s1.5.17,2.12.5Zm-3.24,1.48c-.33.19-.58.46-.76.8-.18.34-.27.74-.27,1.2s.09.86.27,1.2c.18.34.43.61.76.79.33.18.7.28,1.12.28s.79-.09,1.12-.28c.33-.18.58-.45.77-.79.19-.34.28-.74.28-1.2s-.09-.86-.28-1.2c-.18-.34-.44-.61-.77-.8-.33-.19-.7-.29-1.12-.29s-.79.1-1.12.29Zm2.13-7.12v3.01h-2.05v-3.01h2.05Zm7.02-.25v16.95h-2.03v-16.95h2.03Zm2.49,6.74v1.73h-2.96v-1.73h2.96Z"/>
        <path class="cls-7" d="m213.11,361.65v1.69h-14.89v-1.69h14.89Zm-4.43-8.47c.89.3,1.58.74,2.07,1.3.49.56.74,1.23.74,1.99s-.25,1.43-.74,1.99c-.49.57-1.18,1-2.07,1.31-.89.31-1.91.47-3.07.47s-2.16-.16-3.05-.47c-.89-.31-1.58-.75-2.07-1.31-.49-.56-.74-1.23-.74-1.99s.25-1.42.74-1.99c.49-.56,1.18-1,2.06-1.3.88-.3,1.9-.46,3.06-.46s2.18.15,3.07.46Zm-5.06,1.45c-.57.17-1,.41-1.31.72-.31.32-.46.69-.46,1.12s.15.83.46,1.14c.31.32.75.56,1.31.72.57.16,1.23.25,2,.25s1.43-.08,2-.25c.57-.17,1.02-.41,1.33-.72.31-.32.47-.7.47-1.14s-.16-.81-.47-1.12c-.31-.32-.76-.56-1.33-.72-.57-.16-1.24-.25-2-.25s-1.43.08-2,.25Zm3.01,8.11v6.3h-2.03v-6.3h2.03Z"/>
        <path class="cls-7" d="m228.95,359.81v1.52h-14.89v-1.52h14.89Zm-1.81,2.57v3.87h-9.33v1.66h-2.01v-3.01h9.35v-1.07h-9.38v-1.45h11.38Zm.48,5.05v1.45h-11.82v-1.45h11.82Zm-.54-14.97v3.83h-9.16v1.56h-1.98v-2.91h9.14v-1.03h-9.18v-1.45h11.18Zm.31,4.91v1.47h-11.45v-1.47h11.45Z"/>
        <path class="cls-7" d="m237.36,352.72v.8c0,.91-.09,1.79-.27,2.64-.18.84-.48,1.62-.9,2.31-.42.7-.97,1.24-1.66,1.64l-1.07-1.49c.58-.34,1.05-.79,1.42-1.35.37-.56.63-1.16.79-1.81s.24-1.29.24-1.94v-.8h1.44Zm10.2,9.16v1.58h-11.73v-1.58h11.73Zm-9.73-9.16v.8c0,.64.06,1.27.19,1.91s.35,1.25.67,1.84c.32.58.76,1.07,1.31,1.47l-.92,1.54c-.69-.43-1.23-1.02-1.63-1.76-.39-.74-.66-1.54-.81-2.39-.15-.85-.22-1.72-.22-2.61v-.8h1.4Zm7.49,12.04c.86.43,1.28,1.03,1.28,1.8s-.43,1.39-1.28,1.82c-.86.42-2.07.64-3.63.64s-2.76-.21-3.61-.64c-.86-.43-1.28-1.03-1.28-1.82s.43-1.37,1.28-1.8c.86-.42,2.06-.64,3.61-.64s2.77.21,3.63.64Zm-3.56-12.04v.8c0,.9-.08,1.78-.23,2.64-.15.86-.43,1.65-.82,2.39-.39.74-.94,1.31-1.63,1.73l-.91-1.52c.55-.38.99-.86,1.31-1.45s.54-1.2.66-1.84c.12-.64.19-1.29.19-1.95v-.8h1.42Zm-2.24,13.13c-.49.16-.73.4-.73.71s.24.58.72.74c.48.17,1.21.25,2.18.25s1.72-.08,2.21-.25c.49-.16.73-.41.73-.74s-.25-.56-.74-.71c-.49-.16-1.23-.24-2.2-.24s-1.68.08-2.17.24Zm3.19-5.46v2.48h-2.01v-2.48h2.01Zm-.46-7.67v.8c0,.7.08,1.37.24,2.01.16.64.42,1.23.79,1.78.36.55.84.98,1.43,1.31l-1.07,1.49c-.69-.39-1.24-.93-1.66-1.61-.42-.68-.71-1.44-.89-2.29-.17-.84-.26-1.74-.26-2.69v-.8h1.42Zm4.78-.63v8.91h-2.03v-8.91h2.03Zm1.85,3.47v1.7h-3.1v-1.7h3.1Z"/>
        <path class="cls-7" d="m264.22,359.08v1.68h-14.85v-1.68h14.85Zm-3.09-5.98c1.03.5,1.55,1.21,1.55,2.15s-.52,1.66-1.55,2.16c-1.03.5-2.48.75-4.34.75s-3.31-.25-4.34-.75c-1.03-.5-1.55-1.22-1.55-2.16s.52-1.66,1.55-2.15,2.48-.74,4.34-.74,3.31.25,4.34.74Zm1.24,8.78v4.15h-9.25v1.71h-1.98v-3.18h9.24v-1.1h-9.29v-1.58h11.29Zm.46,5.43v1.58h-11.69v-1.58h11.69Zm-8.87-13.07c-.64.23-.96.58-.96,1.04s.32.78.95,1.01c.63.23,1.57.34,2.82.34s2.2-.11,2.84-.34c.64-.23.96-.56.96-1.01s-.32-.8-.97-1.04c-.65-.23-1.59-.35-2.82-.35s-2.19.12-2.83.35Z"/>
        <path class="cls-7" d="m283.89,361.43v1.71h-14.87v-1.71h14.87Zm-6.72-8.8v.86c0,1.07-.28,2.05-.85,2.96s-1.36,1.67-2.37,2.28c-1.02.61-2.18,1.02-3.5,1.22l-.79-1.66c1.12-.17,2.12-.49,2.99-.97.87-.48,1.55-1.06,2.03-1.73.48-.67.72-1.37.72-2.09v-.86h1.77Zm.26,10.11v6.3h-2.03v-6.3h2.03Zm.11-10.11v.86c0,.71.24,1.4.72,2.08.48.67,1.16,1.25,2.03,1.74s1.87.82,2.99.98l-.79,1.66c-1.31-.2-2.47-.61-3.49-1.23-1.02-.62-1.82-1.38-2.38-2.29-.57-.91-.85-1.89-.85-2.94v-.86h1.77Z"/>
        <path class="cls-7" d="m295.62,353.52c.67.34,1.19.82,1.57,1.43.38.61.57,1.3.57,2.08s-.19,1.47-.57,2.08c-.38.61-.9,1.08-1.57,1.42-.66.34-1.42.5-2.25.5s-1.59-.17-2.25-.5c-.66-.34-1.19-.81-1.57-1.42s-.57-1.3-.57-2.08.19-1.47.57-2.08c.38-.61.91-1.09,1.57-1.43.67-.34,1.42-.51,2.25-.51s1.59.17,2.25.51Zm-1.55,8.91v.69c0,.83-.14,1.61-.42,2.36-.28.75-.69,1.41-1.25,1.99-.55.58-1.23,1.02-2.03,1.32l-1-1.54c.69-.24,1.27-.58,1.75-1.02.47-.44.83-.93,1.06-1.47.23-.54.35-1.09.35-1.65v-.69h1.53Zm-1.94-7.41c-.37.19-.66.46-.87.8-.21.34-.31.74-.31,1.2s.1.86.31,1.21c.21.35.5.62.86.8.36.18.78.28,1.25.28s.88-.09,1.25-.28c.36-.18.65-.45.86-.8.21-.35.31-.75.31-1.21s-.1-.86-.31-1.2c-.21-.34-.5-.61-.86-.8-.36-.19-.78-.29-1.25-.29s-.87.1-1.24.29Zm2.35,7.41v.69c0,.9.24,1.74.72,2.52.48.78,1.2,1.37,2.16,1.76l-.81,1.56c-1.19-.47-2.08-1.23-2.66-2.3-.58-1.06-.87-2.24-.87-3.55v-.69h1.46Zm5.54,0v.69c0,.77-.12,1.55-.37,2.31-.25.77-.63,1.47-1.15,2.1-.52.63-1.17,1.11-1.95,1.44l-.85-1.56c.63-.29,1.16-.68,1.59-1.15.43-.48.75-.99.96-1.53.21-.55.31-1.08.31-1.6v-.69h1.46Zm.52,0v.69c0,.6.12,1.17.35,1.71s.59,1.03,1.06,1.45c.47.42,1.06.74,1.75.97l-.98,1.54c-1.22-.43-2.14-1.15-2.77-2.16-.63-1.01-.94-2.18-.94-3.51v-.69h1.53Zm1.74-10.34v9.62h-2.05v-9.62h2.05Z"/>
        <path class="cls-7" d="m318.85,365.31v1.71h-14.89v-1.71h14.89Zm-1.79-12v1.68h-9.27v5.52h-2.03v-7.2h11.3Zm.15,6.46v1.68h-11.45v-1.68h11.45Zm-4.82.74v5.39h-2.01v-5.39h2.01Z"/>
        <path class="cls-7" d="m334.05,361.25v1.69h-14.89v-1.69h14.89Zm-1.75,2.76v4.93h-2.03v-3.24h-9.46v-1.69h11.49Zm-.11-11.56v4.4h-9.16v2.02h-1.98v-3.5h9.14v-1.31h-9.18v-1.6h11.18Zm.35,5.77v1.6h-11.49v-1.6h11.49Zm-4.93.8v3.12h-2.03v-3.12h2.03Z"/>
        <path class="cls-7" d="m140.62,386.77v1.71h-14.87v-1.71h14.87Zm-6.69-7.18v.4c0,.95-.28,1.83-.83,2.65s-1.33,1.49-2.34,2.03c-1,.54-2.16.9-3.48,1.08l-.7-1.64c1.1-.14,2.07-.42,2.92-.84.85-.42,1.5-.92,1.96-1.5.46-.58.68-1.17.68-1.77v-.4h1.79Zm5.3-1.01v1.68h-12.12v-1.68h12.12Zm-5.04-1.96v2.53h-2.05v-2.53h2.05Zm0,10.8v6.15h-2.05v-6.15h2.05Zm0-7.83v.4c0,.58.23,1.17.69,1.75.46.58,1.11,1.09,1.96,1.51.84.43,1.81.71,2.91.85l-.72,1.64c-1.31-.16-2.46-.52-3.46-1.08-1-.55-1.78-1.23-2.34-2.05s-.83-1.69-.83-2.63v-.4h1.79Z"/>
        <path class="cls-7" d="m147.83,385.39c-1.17,2.05-3.05,3.75-5.63,5.09l-1.15-1.58c1.48-.77,2.7-1.66,3.67-2.67.97-1,1.69-2.13,2.16-3.37.47-1.24.71-2.63.71-4.15v-.36h2c0,2.64-.59,4.99-1.75,7.04Zm.81-7.04v1.69h-6.72v-1.69h6.72Zm5.26-1.79v16.97h-2.05v-16.97h2.05Zm2.42,6.65v1.73h-2.94v-1.73h2.94Z"/>
        <path class="cls-7" d="m162.67,378.3v1.18c0,1.07-.18,2.07-.54,3.01-.36.94-.88,1.76-1.57,2.46-.69.7-1.52,1.22-2.49,1.56l-1.03-1.64c.84-.29,1.55-.72,2.15-1.28.6-.56,1.05-1.19,1.36-1.9.31-.71.46-1.45.46-2.21v-1.18h1.66Zm3.77-.69v1.68h-8.83v-1.68h8.83Zm4.29,9.9v6.04h-2.03v-4.34h-9.07v-1.69h11.1Zm-7.67-9.22v1.18c0,.7.15,1.38.44,2.05.3.67.73,1.26,1.3,1.78.57.52,1.27.93,2.1,1.22l-1.02,1.64c-.95-.33-1.75-.83-2.42-1.5-.67-.67-1.17-1.46-1.51-2.35-.34-.89-.51-1.84-.51-2.83v-1.18h1.61Zm6.23,2.48v1.71h-3.33v-1.71h3.33Zm1.44-4.17v10.09h-2.03v-10.09h2.03Z"/>
        <path class="cls-7" d="m179.3,378.25c.67.36,1.2.87,1.58,1.52.38.65.57,1.38.57,2.18s-.19,1.54-.57,2.19c-.38.65-.91,1.16-1.58,1.52-.67.37-1.41.55-2.23.55s-1.57-.18-2.24-.55c-.67-.37-1.2-.88-1.59-1.52-.39-.65-.58-1.38-.58-2.19s.19-1.53.58-2.18c.39-.65.92-1.16,1.59-1.52.67-.36,1.42-.54,2.24-.54s1.55.18,2.23.54Zm-3.48,1.57c-.37.2-.66.49-.87.86-.21.37-.31.8-.31,1.3s.1.9.31,1.27c.21.36.5.64.87.85.37.2.78.3,1.24.3s.87-.1,1.24-.3c.37-.2.66-.49.87-.85.21-.36.31-.78.31-1.27s-.1-.93-.31-1.3c-.21-.37-.5-.65-.87-.86-.37-.2-.78-.3-1.24-.3s-.87.1-1.24.3Zm1.37,7.81v4.55h-2.01v-4.55h2.01Zm9.22,3.9v1.68h-11.23v-1.68h11.23Zm-.44-14.93v12.25h-2.03v-12.25h2.03Z"/>
        <path class="cls-7" d="m206.91,389.65v1.71h-14.87v-1.71h14.87Zm-2.92-11.52v1.69h-10.49v-1.69h10.49Zm-6.63,6.09v6h-2v-6h2Zm4.06,0v6h-1.99v-6h1.99Zm3.99-6.09v1.73c0,1.43-.03,2.71-.1,3.83-.07,1.12-.23,2.41-.49,3.88l-2-.21c.25-1.38.4-2.63.46-3.73s.09-2.36.09-3.77v-1.73h2.03Z"/>
        <path class="cls-7" d="m222.09,384.6v1.68h-14.85v-1.68h14.85Zm-4.3-7.24c.89.27,1.57.65,2.05,1.14.48.5.72,1.08.72,1.75s-.24,1.26-.72,1.75c-.48.5-1.16.88-2.05,1.14s-1.93.4-3.12.4-2.23-.13-3.12-.4-1.57-.65-2.05-1.14c-.48-.5-.72-1.08-.72-1.75s.24-1.26.72-1.75c.48-.5,1.16-.88,2.05-1.14s1.93-.4,3.12-.4,2.24.13,3.12.4Zm2.49,10.68v5.5h-2.01v-3.85h-9.38v-1.66h11.4Zm-7.67-9.27c-.57.13-1,.32-1.3.57-.3.25-.45.56-.45.91s.15.66.45.9c.3.25.74.44,1.3.56.57.13,1.25.19,2.05.19s1.48-.06,2.05-.19c.57-.13,1-.31,1.29-.56.3-.25.44-.55.44-.9s-.15-.66-.45-.91c-.3-.25-.73-.44-1.29-.57-.56-.13-1.24-.19-2.04-.19s-1.48.06-2.05.19Zm.3,6.65v3.33h-2.01v-3.33h2.01Zm5.49-.02v3.35h-2v-3.35h2Z"/>
        <path class="cls-7" d="m238.39,383.59v1.68h-14.85v-1.68h14.85Zm-3.08-5.98c1.03.5,1.55,1.21,1.55,2.15s-.52,1.66-1.55,2.16c-1.03.5-2.48.75-4.34.75s-3.31-.25-4.34-.75c-1.03-.5-1.55-1.22-1.55-2.16s.52-1.66,1.55-2.15c1.03-.5,2.48-.74,4.34-.74s3.31.25,4.34.74Zm1.24,8.78v4.15h-9.25v1.71h-1.98v-3.18h9.24v-1.1h-9.29v-1.58h11.29Zm.46,5.43v1.58h-11.69v-1.58h11.69Zm-8.87-13.07c-.64.23-.96.58-.96,1.04s.32.78.95,1.01c.63.23,1.57.34,2.82.34s2.2-.11,2.84-.34c.64-.23.96-.56.96-1.01s-.32-.8-.97-1.04c-.65-.23-1.59-.35-2.82-.35s-2.19.12-2.83.35Z"/>
        <path class="cls-7" d="m248.9,379.17v2.23c0,1.27-.19,2.5-.56,3.69-.38,1.19-.91,2.25-1.62,3.17-.7.92-1.53,1.61-2.48,2.07l-1.16-1.66c.85-.41,1.59-.99,2.23-1.76.63-.77,1.12-1.63,1.46-2.6.34-.96.51-1.94.51-2.91v-2.23h1.63Zm4.01-.91v1.73h-9.22v-1.73h9.22Zm-3.58.91v2.23c0,.94.17,1.86.51,2.77.34.91.83,1.72,1.46,2.45.63.72,1.38,1.27,2.23,1.64l-1.13,1.66c-.96-.44-1.79-1.1-2.5-1.96-.71-.86-1.25-1.86-1.63-3-.38-1.14-.56-2.32-.56-3.55v-2.23h1.63Zm7.41-2.57v16.95h-2.03v-16.95h2.03Z"/>
        <path class="cls-7" d="m264.37,384.11c1.69-.06,3.3-.19,4.84-.38l.11,1.49c-1.55.27-3.16.44-4.84.53-1.67.09-3.52.14-5.54.15l-.26-1.68c2.11-.01,4-.05,5.69-.11Zm1.74-6.52c.62.25,1.1.6,1.44,1.06s.52.98.52,1.56-.17,1.12-.52,1.58-.83.81-1.44,1.06c-.62.25-1.32.37-2.12.37s-1.51-.12-2.12-.37c-.62-.25-1.1-.6-1.44-1.06s-.52-.98-.52-1.58.17-1.1.52-1.56.83-.81,1.45-1.06c.62-.25,1.33-.37,2.13-.37s1.49.12,2.11.37Zm-3.23,10.64v3.77h-2.03v-3.77h2.03Zm9.96,3.31v1.68h-11.99v-1.68h11.99Zm-10.4-12.41c-.39.26-.59.62-.59,1.08s.2.82.59,1.08c.39.26.92.39,1.57.39s1.15-.13,1.54-.39c.39-.26.58-.62.58-1.08s-.19-.82-.58-1.08c-.39-.26-.9-.39-1.54-.39s-1.18.13-1.57.39Zm2.79,6.1v3.71h-2.03v-3.71h2.03Zm5.67,1.28v1.45h-3.66v-1.45h3.66Zm1.55-9.92v12.87h-2.03v-12.87h2.03Z"/>
        <path class="cls-7" d="m283.86,378.37v1.31h-9.59v-1.31h9.59Zm-2.75,2.42c.59.24,1.05.58,1.38,1.02.33.44.49.96.49,1.55s-.16,1.1-.49,1.55c-.33.45-.79.8-1.38,1.04-.59.24-1.27.36-2.05.36s-1.44-.12-2.02-.37c-.58-.25-1.04-.59-1.37-1.04-.33-.44-.49-.96-.49-1.54s.16-1.11.49-1.55c.33-.44.78-.78,1.37-1.02.58-.24,1.27-.36,2.04-.36s1.44.12,2.03.36Zm-2.92,6.36v1.73h7.11v-1.73h1.57v6.07h-10.25v-6.07h1.57Zm-.84-5.04c-.44.31-.66.73-.66,1.25s.22.94.66,1.25c.44.31,1.01.47,1.73.47s1.27-.16,1.71-.47c.44-.31.66-.73.66-1.25s-.22-.94-.66-1.25c-.44-.31-1.01-.47-1.73-.47s-1.27.16-1.71.47Zm.84,9.78h7.11v-1.75h-7.11v1.75Zm1.7-15.37v2.57h-1.61v-2.57h1.61Zm6.98.17v9.73h-1.61v-9.73h1.61Zm2.38,4.23v1.39h-3.07v-1.39h3.07Z"/>
        <path class="cls-7" d="m292.75,378.32v10.38h-1.61v-10.38h1.61Zm7.52,8.65l.2,1.39c-1.36.28-2.68.48-3.99.61-1.31.13-2.63.19-3.97.19h-1.37v-1.43h1.37c2.76,0,5.34-.25,7.76-.76Zm3.21-10.28v16.76h-1.59v-16.76h1.59Z"/>
        <path class="cls-7" d="m313.92,378.32v1.33h-5.97v8.91h-1.59v-10.25h7.56Zm-2.16,9.48c1.12-.08,2.25-.22,3.38-.44l.18,1.39c-1.18.23-2.34.38-3.48.45-1.14.07-2.53.1-4.18.1h-1.29v-1.39h1.29c1.61,0,2.98-.04,4.1-.11Zm6.45-11.14v16.82h-1.61v-16.82h1.61Zm2.62,6.57v1.37h-2.99v-1.37h2.99Z"/>
        <path class="cls-7" d="m322.78,390.54c.19.19.28.44.28.74s-.09.56-.28.75c-.18.2-.42.29-.7.29s-.54-.1-.73-.3-.29-.45-.29-.74.09-.55.28-.74c.18-.19.43-.29.74-.29.28,0,.52.1.7.29Z"/>
      </g>
      <g>
        <path class="cls-3" d="m184.83,57.34c5.44,0,9.86-4.42,9.86-9.86s-4.42-9.86-9.86-9.86-9.86,4.42-9.86,9.86,4.42,9.86,9.86,9.86Zm0-17.29c4.1,0,7.43,3.33,7.43,7.43s-3.33,7.43-7.43,7.43-7.43-3.33-7.43-7.43,3.33-7.43,7.43-7.43Z"/>
        <path class="cls-3" d="m217.2,64.25c0,1.48-1.21,2.69-2.69,2.69h-18.54c-.67,0-1.21.54-1.21,1.21v44.41c0,.67.54,1.21,1.21,1.21s1.21-.54,1.21-1.21v-43.2h17.33c2.82,0,5.12-2.3,5.12-5.12s-2.3-5.12-5.12-5.12h-36.14c-6.73,0-12.21,5.48-12.21,12.21v16.44c0,2.66,2.08,4.9,4.73,5.1.03,0,.06,0,.09,0,.63,0,1.16-.49,1.21-1.12.05-.67-.45-1.25-1.12-1.3-1.39-.11-2.48-1.28-2.48-2.68v-16.44c0-5.39,4.39-9.78,9.78-9.78h36.14c1.48,0,2.69,1.21,2.69,2.69Z"/>
        <path class="cls-3" d="m175.18,70.66c-.67,0-1.21.54-1.21,1.21v40.7c0,.67.54,1.21,1.21,1.21s1.21-.54,1.21-1.21v-40.7c0-.67-.54-1.21-1.21-1.21Z"/>
        <path class="cls-3" d="m185.57,93.02c-.67,0-1.21.54-1.21,1.21v18.34c0,.67.54,1.21,1.21,1.21s1.21-.54,1.21-1.21v-18.34c0-.67-.54-1.21-1.21-1.21Z"/>
        <path class="cls-2" d="m259.74,89.27v-50.37c0-.67-.54-1.21-1.21-1.21h-58.78c-.67,0-1.21.54-1.21,1.21s.54,1.21,1.21,1.21h57.56v47.94h-54.75c-.67,0-1.21.54-1.21,1.21s.54,1.21,1.21,1.21h55.96c.67,0,1.21-.54,1.21-1.21Z"/>
        <path class="cls-3" d="m222.45,63.54c.1,0,.21-.01.31-.04l20.2-5.41c.65-.17,1.03-.84.86-1.49-.17-.65-.84-1.04-1.49-.86l-20.2,5.41c-.65.17-1.03.84-.86,1.49.15.54.64.9,1.17.9Z"/>
        <path class="cls-2" d="m199.6,124.05c0,.67.54,1.21,1.21,1.21s1.21-.54,1.21-1.21c0-3.83,3.11-6.94,6.94-6.94h5.22c3.83,0,6.94,3.11,6.94,6.94,0,.67.54,1.21,1.21,1.21s1.21-.54,1.21-1.21c0-5.17-4.2-9.37-9.37-9.37h-5.22c-5.17,0-9.37,4.2-9.37,9.37Z"/>
        <path class="cls-2" d="m219.84,104.52c0-4.56-3.71-8.27-8.27-8.27s-8.27,3.71-8.27,8.27,3.71,8.27,8.27,8.27,8.27-3.71,8.27-8.27Zm-14.11,0c0-3.22,2.62-5.84,5.84-5.84s5.84,2.62,5.84,5.84-2.62,5.84-5.84,5.84-5.84-2.62-5.84-5.84Z"/>
        <path class="cls-2" d="m224.21,118.34c-.41.53-.31,1.29.22,1.7.53.41,1.29.31,1.7-.22,1.33-1.72,3.33-2.71,5.51-2.71h5.22c3.83,0,6.94,3.11,6.94,6.94,0,.67.54,1.21,1.21,1.21s1.21-.54,1.21-1.21c0-5.17-4.2-9.37-9.37-9.37h-5.22c-2.93,0-5.64,1.33-7.43,3.66Z"/>
        <path class="cls-2" d="m242.52,104.52c0-4.56-3.71-8.27-8.27-8.27s-8.27,3.71-8.27,8.27,3.71,8.27,8.27,8.27,8.27-3.71,8.27-8.27Zm-14.11,0c0-3.22,2.62-5.84,5.84-5.84s5.84,2.62,5.84,5.84-2.62,5.84-5.84,5.84-5.84-2.62-5.84-5.84Z"/>
        <path class="cls-2" d="m254.31,114.68c-2.96,0-5.68,1.35-7.47,3.71-.41.53-.3,1.3.23,1.7.53.41,1.3.3,1.7-.23,1.33-1.75,3.34-2.75,5.54-2.75h5.22c3.83,0,6.94,3.11,6.94,6.94,0,.67.54,1.21,1.21,1.21s1.21-.54,1.21-1.21c0-5.17-4.2-9.37-9.37-9.37h-5.22Z"/>
        <path class="cls-2" d="m248.65,104.52c0,4.56,3.71,8.27,8.27,8.27s8.27-3.71,8.27-8.27-3.71-8.27-8.27-8.27-8.27,3.71-8.27,8.27Zm14.11,0c0,3.22-2.62,5.84-5.84,5.84s-5.84-2.62-5.84-5.84,2.62-5.84,5.84-5.84,5.84,2.62,5.84,5.84Z"/>
      </g>
      <rect class="cls-5" x="67.87" y="279.22" width="314.3" height=".62"/>
    </g>
  </g>
</svg>