<?xml version="1.0" encoding="UTF-8"?>
<svg id="_레이어_2" data-name="레이어 2" xmlns="http://www.w3.org/2000/svg" viewBox="0 0 441.47 98.85">
  <defs>
    <style>
      .cls-1 {
        fill: #f6f6f6;
      }

      .cls-1, .cls-2, .cls-3 {
        stroke-width: 0px;
      }

      .cls-2 {
        fill: #fff;
      }

      .cls-3 {
        fill: #231f20;
      }
    </style>
  </defs>
  <g id="Layer_1" data-name="Layer 1">
    <g>
      <rect class="cls-1" x="0" y="18.11" width="441.47" height="80.73"/>
      <g>
        <path class="cls-3" d="m151.68,58.76v3.07h-22.66v-3.07h22.66Zm-10.24-11.31v.72c0,1.53-.39,2.94-1.16,4.23-.77,1.29-1.91,2.37-3.41,3.24-1.5.87-3.31,1.45-5.43,1.74l-1.36-3.04c1.8-.23,3.31-.66,4.52-1.29,1.22-.63,2.12-1.37,2.71-2.22.59-.85.89-1.74.89-2.65v-.72h3.23Zm8.21-1.64v3.07h-18.62v-3.07h18.62Zm-7.52,15.15v9.47h-3.73v-9.47h3.73Zm.39-13.52v.72c0,.92.3,1.8.89,2.65.59.85,1.5,1.59,2.71,2.22,1.22.63,2.72,1.06,4.52,1.29l-1.36,3.04c-2.13-.29-3.95-.87-5.46-1.74-1.5-.87-2.64-1.95-3.41-3.24-.77-1.29-1.16-2.7-1.16-4.23v-.72h3.26Z"/>
        <path class="cls-3" d="m155,57.12l5.46-10.19h4.15l-3.92,7.17c.24-.02.43-.03.56-.03,1.37,0,2.6.31,3.69.92,1.09.61,1.93,1.45,2.55,2.53.61,1.07.92,2.29.92,3.64s-.31,2.57-.93,3.64c-.62,1.07-1.48,1.91-2.59,2.53-1.1.61-2.35.92-3.74.92s-2.7-.31-3.8-.92c-1.1-.61-1.97-1.45-2.59-2.51-.62-1.06-.93-2.28-.93-3.66,0-1.22.4-2.57,1.2-4.05Zm8.02,7.39c.56-.34.99-.79,1.29-1.36.31-.57.46-1.23.46-1.98s-.16-1.41-.47-2.01c-.32-.59-.75-1.05-1.29-1.36-.55-.32-1.18-.47-1.91-.47s-1.34.16-1.89.47c-.56.32-.99.77-1.29,1.36-.31.59-.46,1.26-.46,2.01s.15,1.41.46,1.98c.31.57.74,1.03,1.29,1.36.56.33,1.19.5,1.89.5s1.36-.17,1.92-.5Z"/>
        <path class="cls-3" d="m179.13,62.88c2.52-.09,4.95-.28,7.27-.59l.25,2.75c-2.41.48-4.86.78-7.34.9-2.48.12-5.26.19-8.34.19l-.42-3.1c3.19-.02,6.05-.07,8.57-.16Zm6.96-15.51v2.98h-15.09v-2.98h15.09Zm-4.26,4.59c.96.4,1.71.97,2.24,1.71.53.74.79,1.57.79,2.51s-.26,1.8-.79,2.54c-.53.74-1.28,1.31-2.24,1.72-.96.41-2.05.62-3.26.62s-2.31-.21-3.26-.62c-.95-.41-1.68-.99-2.21-1.72s-.79-1.58-.79-2.54.26-1.77.79-2.51,1.27-1.31,2.21-1.71,2.03-.6,3.26-.6,2.29.2,3.26.6Zm-5.23,2.77c-.5.35-.75.84-.75,1.45s.25,1.12.75,1.48c.5.35,1.16.53,1.98.53s1.48-.18,1.98-.53c.5-.35.75-.85.75-1.48s-.25-1.12-.75-1.46c-.5-.34-1.16-.52-1.98-.52s-1.48.18-1.98.53Zm3.84-10.09v4.48h-3.73v-4.48h3.73Zm0,15.64v4.19h-3.73v-4.19h3.73Zm10.94-15.73v25.86h-3.7v-25.86h3.7Z"/>
        <path class="cls-3" d="m204.26,46.82v5.77h2.95v-5.77h3.48v17.48h-9.94v-17.48h3.51Zm0,14.41h2.95v-5.65h-2.95v5.65Zm11.8-16.3v24.28h-3.48v-24.28h3.48Zm3.09,9.44v3.07h-4.04v-3.07h4.04Zm2.45-9.87v25.86h-3.54v-25.86h3.54Z"/>
        <path class="cls-3" d="m246.43,56.81v3.04h-22.69v-3.04h22.69Zm-10.1-11.82v.75c0,1.63-.39,3.1-1.17,4.42-.78,1.32-1.93,2.43-3.45,3.33-1.52.9-3.34,1.5-5.46,1.81l-1.39-3.04c1.84-.21,3.38-.65,4.62-1.31,1.24-.66,2.17-1.44,2.77-2.35.6-.91.9-1.86.9-2.86v-.75h3.17Zm5.11,17.41c1.53.81,2.3,1.95,2.3,3.4s-.77,2.61-2.3,3.4c-1.53.79-3.67,1.19-6.42,1.19s-4.89-.4-6.42-1.19c-1.53-.79-2.3-1.93-2.3-3.4s.77-2.59,2.31-3.4c1.54-.81,3.67-1.22,6.4-1.22s4.89.41,6.42,1.22Zm-10.13,2.09c-.83.28-1.24.71-1.24,1.31s.41,1.03,1.22,1.32c.82.29,2.06.43,3.73.43s2.94-.14,3.74-.43c.81-.29,1.21-.73,1.21-1.32s-.4-1.03-1.21-1.31c-.81-.28-2.06-.42-3.74-.42s-2.89.14-3.72.42Zm5.61-10.78v4.62h-3.76v-4.62h3.76Zm.03-8.72v.75c0,1.03.3,2,.89,2.9.59.9,1.51,1.67,2.76,2.33s2.79,1.08,4.65,1.29l-1.39,3.04c-2.15-.34-3.99-.95-5.5-1.82-1.51-.87-2.65-1.97-3.42-3.29-.77-1.32-1.16-2.8-1.16-4.45v-.75h3.17Z"/>
        <path class="cls-3" d="m265.42,60.11v1.4h-17.59v-1.4h17.59Zm-5.18-9.44c1.03.32,1.83.78,2.38,1.38s.84,1.31.84,2.13-.28,1.54-.84,2.14-1.35,1.06-2.38,1.38c-1.03.32-2.24.48-3.62.48s-2.59-.16-3.62-.48c-1.03-.32-1.83-.78-2.38-1.38-.56-.6-.84-1.31-.84-2.14s.28-1.54.84-2.13c.56-.6,1.35-1.06,2.38-1.38,1.03-.32,2.24-.48,3.62-.48s2.59.16,3.62.48Zm-8.45,12.65v4.82h-1.67v-4.82h1.67Zm11.69,4.41v1.42h-13.36v-1.42h13.36Zm-9.55-15.81c-.77.21-1.37.5-1.79.88-.42.38-.63.84-.63,1.38s.21,1,.63,1.39c.42.39,1.02.69,1.79.9.77.21,1.67.31,2.69.31s1.94-.1,2.72-.31c.77-.21,1.37-.51,1.78-.9.42-.39.62-.85.62-1.39s-.21-.99-.62-1.38c-.42-.38-1.01-.68-1.78-.88-.77-.21-1.68-.31-2.72-.31s-1.92.1-2.69.31Z"/>
        <path class="cls-3" d="m280.78,57.25c-.62,1.74-1.61,3.33-2.95,4.79-1.34,1.45-3.07,2.71-5.18,3.76l-.89-1.38c1.87-.92,3.42-2.01,4.65-3.27,1.23-1.26,2.15-2.66,2.75-4.2.6-1.54.9-3.21.9-5.02v-.28h1.65c0,1.99-.31,3.85-.94,5.59Zm0-5.59v1.42h-8.15v-1.42h8.15Zm6.68-2.16v20.09h-1.67v-20.09h1.67Z"/>
        <path class="cls-3" d="m307.8,60.52v1.4h-17.59v-1.4h17.59Zm-13.63,3.08v4.59h-1.67v-4.59h1.67Zm11.69,4.13v1.42h-13.36v-1.42h13.36Zm-11.65-17.43v2.57h9.62v-2.57h1.67v8.01h-12.94v-8.01h1.65Zm0,6.64h9.62v-2.69h-9.62v2.69Zm5.61.55v3.65h-1.65v-3.65h1.65Z"/>
        <path class="cls-3" d="m312.48,66.22c.2.21.3.48.3.82s-.1.63-.3.85c-.2.21-.46.32-.79.32s-.6-.11-.81-.33c-.22-.22-.32-.5-.32-.84s.1-.61.31-.82c.21-.21.48-.31.82-.31s.59.1.79.31Zm-.08-2.28h-1.47l-.29-12.6h2.03l-.27,12.6Z"/>
      </g>
      <g>
        <circle class="cls-3" cx="221.68" cy="13.73" r="13.73" transform="translate(157.38 226.32) rotate(-76.72)"/>
        <path class="cls-2" d="m221.78,20.26V7.01l-3.67,1.63v-2.19l4.01-1.81h1.91v15.62h-2.25Z"/>
      </g>
    </g>
  </g>
</svg>